<svg xmlns="http://www.w3.org/2000/svg" width="414" height="170" viewBox="0 0 414 170"><defs><style>.cls-1{fill:#80bee7;}.cls-2{fill:#fff;}</style></defs><title>ico-nakamaru</title><g id="レイヤー_2" data-name="レイヤー 2"><g id="レイヤー_1-2" data-name="レイヤー 1"><rect class="cls-1" width="414" height="170"/><path class="cls-2" d="M38.48,78.25a55,55,0,0,1,10.38,5.31L46.44,88a45.61,45.61,0,0,0-10.57-5.73ZM36.73,95.73A35.79,35.79,0,0,0,48,93.19a23.87,23.87,0,0,0,11.27-8.58A28.82,28.82,0,0,0,63.79,76a20.24,20.24,0,0,0,4.06,3.47A34,34,0,0,1,62,89.33c-5,5.69-11.58,9.16-21.18,11.08a25.88,25.88,0,0,0-2.73.62Zm4.75-26.92a62.58,62.58,0,0,1,10.38,5l-2.5,4.29A45.86,45.86,0,0,0,39,72.75Z"/><path class="cls-2" d="M84.89,69.56c-.15,1.09-.15,1.09-.39,8.73s-1.13,12-3.16,16A24.89,24.89,0,0,1,76,101.54,14,14,0,0,0,72,97.75a16.06,16.06,0,0,0,4-4.48c2.81-4.49,3.7-9.52,3.7-20.44a20.47,20.47,0,0,0-.15-3.55Zm10.34-.47a20.55,20.55,0,0,0-.28,3.7L94.76,95a15.62,15.62,0,0,0,6-4.44,19.17,19.17,0,0,0,3.82-7.14,16.34,16.34,0,0,0,3.66,3.67,24,24,0,0,1-6.2,9.08,25.42,25.42,0,0,1-8.3,4.68,17.36,17.36,0,0,0-1.68.71l-2.5-2.66a17.1,17.1,0,0,0,.35-4.13l.2-22V71.58A16.44,16.44,0,0,0,89.92,69Z"/><path class="cls-2" d="M125.65,71.54a4.47,4.47,0,0,0-.2.78l-.08.67-.19,1.13-.12.93c-1.64,11.2-4.68,18.88-9.9,24.89a17.09,17.09,0,0,0-4.45-3.36,26.38,26.38,0,0,0,5.58-8.3A47.62,47.62,0,0,0,120,74.9a27.67,27.67,0,0,0,.35-3.78v-.55Zm11.07-1a48.18,48.18,0,0,0,1.64,9c1.91,7.22,4.64,12.48,8.7,16.85a16,16,0,0,0-4.29,3.59c-5.19-6.2-8.82-15.17-10.34-25.67a16.41,16.41,0,0,0-.54-2.8ZM140,68.23a23.55,23.55,0,0,1,3.24,6.28l-3,.93a25.76,25.76,0,0,0-3.2-6.35Zm5.38,5.65a27.1,27.1,0,0,0-3.12-6.16l2.89-.82a23,23,0,0,1,3.19,6Z"/><path class="cls-2" d="M151.27,82.11a37.42,37.42,0,0,0,6.32.28h20.79a37.2,37.2,0,0,0,6.31-.28v5.43a41.7,41.7,0,0,0-6.35-.2H157.63a41.79,41.79,0,0,0-6.36.2Z"/><path class="cls-2" d="M197.76,97.87A42.59,42.59,0,0,0,193,98V93a25.45,25.45,0,0,0,4.87.27h17.75v-17H198.5a37.14,37.14,0,0,0-5,.2V71.39a26.57,26.57,0,0,0,5,.27H217.3c2,0,2,0,3.39-.08a23.21,23.21,0,0,0-.12,3.24V96.23a25.17,25.17,0,0,0,.2,4h-5.23V97.87Z"/><path class="cls-2" d="M229.27,82.11a37.42,37.42,0,0,0,6.32.28h20.79a37.2,37.2,0,0,0,6.31-.28v5.43a41.7,41.7,0,0,0-6.35-.2H235.63a41.79,41.79,0,0,0-6.36.2Z"/><path class="cls-2" d="M275.83,101.54a25.64,25.64,0,0,0,.24-4.37v-25a24.46,24.46,0,0,0-.24-4h5.35a25.55,25.55,0,0,0-.16,4.1v7.25a114.13,114.13,0,0,1,17.71,8.23L296,92.37a93.07,93.07,0,0,0-13.81-7.45,14.6,14.6,0,0,1-1.32-.66,21.4,21.4,0,0,1,.15,2.65v10.3a41.84,41.84,0,0,0,.16,4.33Z"/><path class="cls-2" d="M321.54,71.19a26,26,0,0,0-.23-4.25h4.91A29.71,29.71,0,0,0,326,71v2.53h10.69a29.66,29.66,0,0,0,3.55-.15,27.88,27.88,0,0,0-.16,3.43V88.74a27.79,27.79,0,0,0,.19,3.9h-4.6V90.3H326v7.92a31.48,31.48,0,0,0,.27,4.84h-5a32.15,32.15,0,0,0,.27-4.84V90.3h-9.2v2.34h-4.6a30.26,30.26,0,0,0,.19-3.9V76.81a32.29,32.29,0,0,0-.15-3.39,31.84,31.84,0,0,0,3.51.15h10.25Zm-9.2,6.52v8.46h9.2V77.71Zm23.32,8.46V77.71H326v8.46Z"/><path class="cls-2" d="M351.89,80.75c2.14,1.44,3.58,2.5,5.18,3.74a33.94,33.94,0,0,0,1-6.63h-6.79a31.81,31.81,0,0,0-4.37.24V73.46a31.82,31.82,0,0,0,4.33.23h7c0-.74,0-.86,0-1.72a22,22,0,0,0-.31-4.87h4.84c-.24,1.48-.24,1.48-.31,6.59h6.59a34.64,34.64,0,0,0,4.44-.2,27.23,27.23,0,0,0-.15,3.4l-.24,20.36c0,.43,0,.66.24.78a4.55,4.55,0,0,0,1.52.23c1.56,0,2-.19,2.26-1a35.75,35.75,0,0,0,.51-7.41,12.71,12.71,0,0,0,4,1.59c-.19,6-.74,8.58-2,9.79-.89.86-2.06,1.14-5.11,1.14-4.64,0-5.69-.71-5.69-3.59l.23-21H362.3a38.1,38.1,0,0,1-1.56,9.64c2.49,2.14,3.74,3.31,5.69,5.3l-2.53,3.78c-1.91-2.1-2.89-3.12-4.84-5a30.06,30.06,0,0,1-11.15,11.47,17.22,17.22,0,0,0-3-3.94c5.34-2.77,8.5-5.89,10.76-10.57a63.86,63.86,0,0,0-6.36-4.72Z"/></g></g></svg>