<svg xmlns="http://www.w3.org/2000/svg" width="585" height="117" viewBox="0 0 585 117"><defs><style>.cls-1{fill:#00b8ee;}.cls-2{fill:#fff;}.cls-3,.cls-5{fill:none;}.cls-3{stroke:#fff;stroke-miterlimit:10;stroke-width:2.02px;}.cls-4{isolation:isolate;}</style></defs><title>bn_tel_syoubu</title><g id="レイヤー_2" data-name="レイヤー 2"><g id="レイヤー_1-2" data-name="レイヤー 1"><rect class="cls-1" width="585" height="117" rx="15" ry="15"/><path class="cls-2" d="M159.72,63.18a12.92,12.92,0,0,1-3.1-4.7,30.88,30.88,0,0,1-1.84-10.7c0-4.93,1.13-10.05,2.87-12.88a13.39,13.39,0,0,1,12-6.47,13.71,13.71,0,0,1,9.92,3.77,12.92,12.92,0,0,1,3.1,4.7,30.79,30.79,0,0,1,1.84,10.79c0,5.72-1.27,10.75-3.48,13.77-2.63,3.63-6.53,5.49-11.42,5.49A13.59,13.59,0,0,1,159.72,63.18Zm15-3.58c2.12-2.19,3.29-6.51,3.29-12s-1.17-9.63-3.29-11.91a6.86,6.86,0,0,0-5.12-1.95,6.36,6.36,0,0,0-5.27,2.37c-2.06,2.42-3.1,6.24-3.1,11.31,0,4.88.9,8.93,2.4,11.07a7.53,7.53,0,0,0,11.09,1.07Z"/><path class="cls-2" d="M218.7,57.93a35.85,35.85,0,0,0-4.7-.33h-1.69v3.3a27.92,27.92,0,0,0,.38,5.31H206a29.54,29.54,0,0,0,.38-5.4V57.6h-13c-2.77,0-4.28,0-5.87.19V52.06c1.59-1.72,2.11-2.32,3.76-4.28l11.13-13.49a43,43,0,0,0,3.9-5.12h6.35a65.32,65.32,0,0,0-.33,7.87V52.3H214A31.59,31.59,0,0,0,218.7,52ZM206.44,42.71a51.71,51.71,0,0,1,.23-5.58,51.6,51.6,0,0,1-3.2,4.14l-9,11.07h12Z"/><path class="cls-2" d="M225.75,44.25a8.9,8.9,0,0,1-2.3-6.14c0-6,5.08-9.73,13.11-9.73,5.69,0,9.87,1.82,11.89,5.07a9.11,9.11,0,0,1,1.27,4.66c0,4.32-2.49,7.49-6.76,8.7A8.91,8.91,0,0,1,248,49a8.78,8.78,0,0,1,3.29,7.26c0,6.93-5.26,10.75-14.9,10.75-5.45,0-9.21-1.17-11.89-3.72a9.61,9.61,0,0,1-2.72-7,8.79,8.79,0,0,1,3.85-7.63,10.18,10.18,0,0,1,4.65-1.86A9.15,9.15,0,0,1,225.75,44.25Zm18.94,11.54c0-3.87-3.05-6.19-8.13-6.19s-8.17,2.37-8.17,6.23,3,6.05,8.08,6.05C241.73,61.88,244.69,59.69,244.69,55.79Zm-14.94-17c0,3.39,2.63,5.53,6.91,5.53s6.72-2.09,6.72-5.49-2.63-5.39-6.82-5.39S229.75,35.5,229.75,38.76Z"/><path class="cls-2" d="M260.11,63.18a12.92,12.92,0,0,1-3.1-4.7,30.88,30.88,0,0,1-1.83-10.7c0-4.93,1.12-10.05,2.86-12.88a13.4,13.4,0,0,1,12-6.47,13.7,13.7,0,0,1,9.91,3.77,12.92,12.92,0,0,1,3.1,4.7,30.79,30.79,0,0,1,1.84,10.79c0,5.72-1.27,10.75-3.48,13.77C278.77,65.09,274.87,67,270,67A13.61,13.61,0,0,1,260.11,63.18Zm15-3.58c2.12-2.19,3.29-6.51,3.29-12S277.22,38,275.1,35.73A6.86,6.86,0,0,0,270,33.78a6.32,6.32,0,0,0-5.26,2.37c-2.07,2.42-3.11,6.24-3.11,11.31,0,4.88.9,8.93,2.4,11.07A7.53,7.53,0,0,0,275.1,59.6Z"/><path class="cls-2" d="M288.36,49a29.21,29.21,0,0,0,4.42.28h7.28a29.33,29.33,0,0,0,4.46-.28v6.19a26.22,26.22,0,0,0-4.46-.28h-7.28a26.37,26.37,0,0,0-4.42.28Z"/><path class="cls-2" d="M338.46,57.93a36,36,0,0,0-4.7-.33h-1.69v3.3a28.87,28.87,0,0,0,.37,5.31h-6.67a29.64,29.64,0,0,0,.37-5.4V57.6h-13c-2.78,0-4.28,0-5.88.19V52.06c1.6-1.72,2.12-2.32,3.76-4.28l11.14-13.49a43,43,0,0,0,3.9-5.12h6.34a65.53,65.53,0,0,0-.32,7.87V52.3h1.64a31.63,31.63,0,0,0,4.75-.33ZM326.19,42.71a51.6,51.6,0,0,1,.24-5.58c-.94,1.35-1.51,2.09-3.2,4.14l-9,11.07h12Z"/><path class="cls-2" d="M371.92,57.93a35.85,35.85,0,0,0-4.7-.33h-1.69v3.3a27.92,27.92,0,0,0,.38,5.31h-6.68a29.54,29.54,0,0,0,.38-5.4V57.6h-13c-2.77,0-4.28,0-5.88.19V52.06c1.6-1.72,2.12-2.32,3.76-4.28l11.14-13.49a43,43,0,0,0,3.9-5.12h6.35a65.32,65.32,0,0,0-.33,7.87V52.3h1.64a31.63,31.63,0,0,0,4.75-.33ZM359.65,42.71a51.6,51.6,0,0,1,.24-5.58,51.6,51.6,0,0,1-3.2,4.14l-9,11.07h12Z"/><path class="cls-2" d="M374.65,49a29.21,29.21,0,0,0,4.42.28h7.28a29.56,29.56,0,0,0,4.47-.28v6.19a26.42,26.42,0,0,0-4.47-.28h-7.28a26.37,26.37,0,0,0-4.42.28Z"/><path class="cls-2" d="M401.77,57.23a7.77,7.77,0,0,0,1.45,2.56,8.51,8.51,0,0,0,10.72,0c2.35-2.24,3.43-5.59,3.66-11.08a9.15,9.15,0,0,1-2.49,2.66,12.87,12.87,0,0,1-7.61,2.14c-7.8,0-12.78-4.75-12.78-12.24a12.21,12.21,0,0,1,6-10.93,15.46,15.46,0,0,1,8.22-2.05,13.3,13.3,0,0,1,12.92,9.17,29.27,29.27,0,0,1,1.37,9.62c0,7-1.88,13.17-5,16.15-2.5,2.47-5.55,3.53-10,3.53-3.95,0-6.73-.83-9.08-2.69a13.28,13.28,0,0,1-3.85-5.17ZM416.52,40.9c0-4.38-3.24-7.49-7.89-7.49A7.33,7.33,0,0,0,401,41c0,4.51,2.91,7.44,7.47,7.44S416.52,45.22,416.52,40.9Z"/><path class="cls-2" d="M456.43,34.34a31.37,31.37,0,0,0-4.89,6.7,59.52,59.52,0,0,0-8.74,25.17h-7.43a68.89,68.89,0,0,1,5.69-18,77.16,77.16,0,0,1,8.22-13.54H434.76a45.78,45.78,0,0,0-6.16.33V28.85a53.21,53.21,0,0,0,6.44.32H450a52,52,0,0,0,6.44-.23Z"/><path class="cls-2" d="M468.6,56.58A6.23,6.23,0,0,0,470,59.27a7.14,7.14,0,0,0,5.78,2.38c4.65,0,7.71-3.07,7.71-7.68s-2.92-7.49-7.38-7.49a8.31,8.31,0,0,0-5.83,2.14,5.28,5.28,0,0,0-1.41,2.09L463,50.16c.47-3.31.51-3.54.61-4.84l1.08-11.54c.05-.84.14-2.42.19-4.75,1.41.1,2.49.14,5,.14h11.56A35.74,35.74,0,0,0,488,28.8v5.86a45.32,45.32,0,0,0-6.48-.37H470.43l-.75,8.14c-.05.37-.14,1-.28,2a11.6,11.6,0,0,1,8-2.84A12.15,12.15,0,0,1,486.6,45c2.3,2.23,3.34,5,3.34,8.75C489.94,62,484.53,67,475.79,67c-4.65,0-8.13-1.3-10.71-4a13.81,13.81,0,0,1-3-5.07Z"/><path class="cls-2" d="M525.14,57.93a36,36,0,0,0-4.7-.33h-1.69v3.3a28.87,28.87,0,0,0,.37,5.31h-6.67a29.54,29.54,0,0,0,.38-5.4V57.6h-13c-2.77,0-4.28,0-5.88.19V52.06c1.6-1.72,2.12-2.32,3.76-4.28l11.14-13.49a43,43,0,0,0,3.9-5.12h6.35a63.32,63.32,0,0,0-.33,7.87V52.3h1.64a31.63,31.63,0,0,0,4.75-.33ZM512.87,42.71a51.6,51.6,0,0,1,.24-5.58c-.94,1.35-1.51,2.09-3.2,4.14l-9,11.07h12Z"/><path class="cls-2" d="M131.81,99a21.4,21.4,0,0,0-1.78,1.94,19.59,19.59,0,0,1-2.52,2.2,22.57,22.57,0,0,0,7.26,1.76,8.21,8.21,0,0,0-1.05,2.21,23.27,23.27,0,0,1-5.47-1.32,18.25,18.25,0,0,1-2.78-1.35,26,26,0,0,1-8,2.71,9,9,0,0,0-1.11-2.13,23.67,23.67,0,0,0,7.2-1.92,16,16,0,0,1-3.24-3.66c-.59,0-.63,0-1,.08v-2a19.25,19.25,0,0,0,2.06.1h7.32a9.64,9.64,0,0,0,1.75-.1Zm-13.88-7a12,12,0,0,0-.73-2c.69,0,1.23,0,1.59,0a82.17,82.17,0,0,0,9.14-.54,20.83,20.83,0,0,0,4.08-.9l1.39,1.93-.87.18c-.78.18-1.41.3-2.44.46l2,.62c-.91,1.74-.93,1.8-1.23,2.3h1.33a18.78,18.78,0,0,0,2.18-.08c0,.52-.06,1-.06,1.68v1.46a10.51,10.51,0,0,0,.1,1.47h-2.24V96.06H118.85v2.59h-2.23a9,9,0,0,0,.12-1.53v-1.5c0-.56,0-1-.08-1.7a15.73,15.73,0,0,0,2.22.1h1.27a14,14,0,0,0-.87-2.08ZM124.68,94c-.26-.84-.52-1.58-.82-2.3-.06,0-.85.06-2.36.14a21.12,21.12,0,0,1,.86,2.16Zm-1.93,5.37a9.2,9.2,0,0,0,2.76,2.62,12.84,12.84,0,0,0,3-2.62ZM128.5,94a17,17,0,0,0,1.33-2.88l-.87.12c-.22,0-.73.08-1.47.14-.32,0-.85.08-1.49.16a14.8,14.8,0,0,1,.8,2.46Z"/><path class="cls-2" d="M141.27,104.67c0,.9,0,1.63.1,2.39H139a20.19,20.19,0,0,0,.12-2.39v-5.9c0-1,0-1.43,0-2.23a10.13,10.13,0,0,1-1.74,2.27,8.76,8.76,0,0,0-1.13-2.27A17.05,17.05,0,0,0,140,91a10,10,0,0,0,.82-2.49l2.32.64c-.14.3-.28.64-.48,1.16s-.81,1.91-1.37,3ZM150,91.26a17.82,17.82,0,0,0-.14-2.47h2.44a22.3,22.3,0,0,0-.12,2.47V93h.58a12.32,12.32,0,0,0,2-.12v2.2c-.54,0-1.19-.08-1.89-.08h-.65v9.33c0,1-.22,1.65-.69,2s-1,.38-2.48.38c-.72,0-1.27,0-2.13-.08a7.48,7.48,0,0,0-.65-2.25,19.46,19.46,0,0,0,2.48.2c1.13,0,1.29-.06,1.29-.5V95h-5.49a21.62,21.62,0,0,0-2.38.12V92.9a18.12,18.12,0,0,0,2.28.12H150Zm-5.18,5.1A23.11,23.11,0,0,1,148,101l-1.87,1.32a19.15,19.15,0,0,0-3-4.85Z"/><path class="cls-2" d="M157.37,91.74a18.18,18.18,0,0,0-.09-2,17.8,17.8,0,0,0,1.78.06h2.44c.91,0,1.27,0,1.75-.06a14.82,14.82,0,0,0-.06,2v11.43c0,1.06,0,1.5.06,2H161.2v-1h-1.84v1.67h-2.12a17.63,17.63,0,0,0,.13-2.37Zm2,4.12h1.82V91.68h-1.82Zm0,6.33h1.82V97.7h-1.82Zm6.94-9.45a17.44,17.44,0,0,0-2.16.1V90.72a14.86,14.86,0,0,0,2.1.12H168v-.53a8.94,8.94,0,0,0-.12-1.5h2.31a10.63,10.63,0,0,0-.1,1.5v.53h2.2a15,15,0,0,0,2.1-.12v2.12a14.73,14.73,0,0,0-2.08-.1h-2.22v1.9h2.79a15.07,15.07,0,0,0,2.2-.12v2.12a13.3,13.3,0,0,0-2-.1h-.34v1.69h.26a12.48,12.48,0,0,0,2-.1v2.18a11.11,11.11,0,0,0-2-.12h-.26v4.52c0,1.16-.21,1.63-.81,1.91a5.68,5.68,0,0,1-2.22.32l-1.57,0a4.91,4.91,0,0,0-.49-2.09A18.31,18.31,0,0,0,170,105c.63,0,.75-.1.75-.54v-4.26H165.9a18.14,18.14,0,0,0-2.16.12V98.13a15.07,15.07,0,0,0,2.2.1h4.78V96.54h-4.78c-.85,0-1.6,0-2.22.1V94.52a15.6,15.6,0,0,0,2.24.12H168v-1.9Zm.79,12.09a15.66,15.66,0,0,0-2.58-3.28l1.71-1.12a15.1,15.1,0,0,1,2.64,3.06Z"/><path class="cls-2" d="M179.68,104.57a17.28,17.28,0,0,0,.12,2.45h-2.36a17.71,17.71,0,0,0,.12-2.47v-13a22,22,0,0,0-.08-2.23,18.36,18.36,0,0,0,2.07.08h3.57a17.18,17.18,0,0,0,2.06-.08c0,.64-.06,1.07-.06,1.85v3.06c0,.92,0,1.38.06,1.82-.52,0-1.15-.06-1.85-.06h-3.65Zm0-12.61h3.47V91h-3.47Zm0,2.44h3.47v-1h-3.47ZM190,103c0,.76,0,1.22.06,1.74.45,0,1.17.1,1.54.1.56,0,.74-.14.74-.54V95.94h-4c-.71,0-1.35,0-1.86.06,0-.58.06-1,.06-1.82V91.12c0-.67,0-1.23-.06-1.85a17.5,17.5,0,0,0,2.06.08h3.87a18.23,18.23,0,0,0,2.08-.08c-.06.72-.08,1.22-.08,2.21v13.09c0,1.19-.24,1.71-1,2a6.19,6.19,0,0,1-2.28.24c-.28,0-.36,0-1.39-.06a7.52,7.52,0,0,0-.52-2.05l-1.13,0h-4.28v1.11h-2.14a13.53,13.53,0,0,0,.14-2V98.93c0-.7,0-1.25-.06-1.79a16.69,16.69,0,0,0,1.88.08h4.5a16.16,16.16,0,0,0,1.87-.08c0,.52-.06,1-.06,1.79Zm-6.13-2.9H188v-1.2h-4.12Zm0,2.92H188v-1.3h-4.12ZM188.59,92h3.77V91h-3.77Zm0,2.44h3.77v-1h-3.77Z"/><path class="cls-2" d="M207.66,92.12V95h-2.95V92.12Zm0,8.55v2.92h-2.95v-2.92Z"/><path class="cls-2" d="M220.28,101.83a3.49,3.49,0,0,0,.63,1.1,3.64,3.64,0,0,0,4.6,0c1-1,1.47-2.4,1.57-4.76A3.8,3.8,0,0,1,226,99.31a5.5,5.5,0,0,1-3.26.92c-3.35,0-5.49-2-5.49-5.25a5.24,5.24,0,0,1,2.56-4.69,6.65,6.65,0,0,1,3.53-.88,5.71,5.71,0,0,1,5.55,3.93,12.81,12.81,0,0,1,.58,4.14c0,3-.8,5.65-2.14,6.93a5.63,5.63,0,0,1-4.29,1.51,5.87,5.87,0,0,1-3.9-1.15,5.67,5.67,0,0,1-1.65-2.22Zm6.34-7a3.34,3.34,0,0,0-6.68.06,3,3,0,0,0,3.21,3.2A3.3,3.3,0,0,0,226.62,94.82Z"/><path class="cls-2" d="M234.83,94.22v2.92h-3V94.22Zm0,8.55v2.91h-3v-2.91Z"/><path class="cls-2" d="M239,104.39a5.63,5.63,0,0,1-1.33-2,13.37,13.37,0,0,1-.79-4.59,11.64,11.64,0,0,1,1.24-5.54,5.75,5.75,0,0,1,5.14-2.77,5.94,5.94,0,0,1,4.26,1.61,5.77,5.77,0,0,1,1.33,2,13.45,13.45,0,0,1,.78,4.64,10.41,10.41,0,0,1-1.49,5.91,5.73,5.73,0,0,1-4.9,2.35A5.83,5.83,0,0,1,239,104.39Zm6.44-1.54c.91-.94,1.41-2.8,1.41-5.13s-.5-4.14-1.41-5.12a2.94,2.94,0,0,0-2.2-.84,2.72,2.72,0,0,0-2.26,1,7.4,7.4,0,0,0-1.33,4.86,8.87,8.87,0,0,0,1,4.75,3.23,3.23,0,0,0,4.76.46Z"/><path class="cls-2" d="M253.37,104.39a5.66,5.66,0,0,1-1.34-2,13.37,13.37,0,0,1-.78-4.59,11.65,11.65,0,0,1,1.23-5.54,5.75,5.75,0,0,1,5.14-2.77,5.92,5.92,0,0,1,4.26,1.61,5.63,5.63,0,0,1,1.33,2,13.45,13.45,0,0,1,.79,4.64,10.41,10.41,0,0,1-1.5,5.91,5.73,5.73,0,0,1-4.9,2.35A5.81,5.81,0,0,1,253.37,104.39Zm6.43-1.54c.91-.94,1.41-2.8,1.41-5.13s-.5-4.14-1.41-5.12a2.92,2.92,0,0,0-2.2-.84,2.73,2.73,0,0,0-2.26,1A7.46,7.46,0,0,0,254,97.64a8.87,8.87,0,0,0,1,4.75,3.23,3.23,0,0,0,4.76.46Z"/><path class="cls-2" d="M265.63,97.9a6.94,6.94,0,0,1,2-1.78,5.85,5.85,0,0,1,5.91-.44,14.9,14.9,0,0,1,1.83,1.1,6.89,6.89,0,0,0,3.57,1.39,4,4,0,0,0,1.5-.38A5.27,5.27,0,0,0,282.53,96l1.62,1.6a8.88,8.88,0,0,1-1.92,1.93,5.85,5.85,0,0,1-5.26.86,10.39,10.39,0,0,1-2.77-1.48c-1.77-1.11-2.4-1.35-3.47-1.35-1.31,0-2.24.47-3.51,1.83Z"/><path class="cls-2" d="M291,105.68a16.38,16.38,0,0,0,.16-2.59v-11h-1a18.13,18.13,0,0,0-2.08.12V89.67a11.36,11.36,0,0,0,2,.12H292a14.7,14.7,0,0,0,2.05-.1,29.83,29.83,0,0,0-.16,3.29v10.11a16.55,16.55,0,0,0,.16,2.59Z"/><path class="cls-2" d="M301.88,96.26a3.79,3.79,0,0,1-1-2.64c0-2.56,2.18-4.17,5.63-4.17,2.44,0,4.23.78,5.1,2.17a3.84,3.84,0,0,1,.55,2,3.72,3.72,0,0,1-2.91,3.74,3.88,3.88,0,0,1,2.18.93,3.77,3.77,0,0,1,1.41,3.12c0,3-2.26,4.61-6.39,4.61-2.34,0-4-.49-5.1-1.59a4.12,4.12,0,0,1-1.17-3,3.75,3.75,0,0,1,1.65-3.27,4.36,4.36,0,0,1,2-.8A3.86,3.86,0,0,1,301.88,96.26Zm8.13,4.95c0-1.66-1.31-2.66-3.49-2.66s-3.51,1-3.51,2.68,1.29,2.6,3.47,2.6S310,102.89,310,101.21Zm-6.42-7.31c0,1.46,1.13,2.38,3,2.38s2.88-.9,2.88-2.36-1.13-2.32-2.92-2.32S303.59,92.5,303.59,93.9Z"/><path class="cls-2" d="M317.9,94.22v2.92H315V94.22Zm0,8.55v2.91H315v-2.91Z"/><path class="cls-2" d="M322.07,104.39a5.63,5.63,0,0,1-1.33-2,13.37,13.37,0,0,1-.79-4.59,11.77,11.77,0,0,1,1.23-5.54,5.77,5.77,0,0,1,5.15-2.77,5.92,5.92,0,0,1,4.25,1.61,5.66,5.66,0,0,1,1.34,2,13.45,13.45,0,0,1,.78,4.64,10.41,10.41,0,0,1-1.49,5.91,5.73,5.73,0,0,1-4.9,2.35A5.83,5.83,0,0,1,322.07,104.39Zm6.44-1.54c.9-.94,1.41-2.8,1.41-5.13s-.51-4.14-1.41-5.12a3,3,0,0,0-2.2-.84,2.72,2.72,0,0,0-2.26,1,7.4,7.4,0,0,0-1.33,4.86,8.87,8.87,0,0,0,1,4.75,3.23,3.23,0,0,0,4.76.46Z"/><path class="cls-2" d="M336.43,104.39a5.63,5.63,0,0,1-1.33-2,13.37,13.37,0,0,1-.78-4.59,11.65,11.65,0,0,1,1.23-5.54,5.75,5.75,0,0,1,5.14-2.77A5.94,5.94,0,0,1,345,91.08a5.63,5.63,0,0,1,1.33,2,13.45,13.45,0,0,1,.78,4.64,10.41,10.41,0,0,1-1.49,5.91,5.73,5.73,0,0,1-4.9,2.35A5.85,5.85,0,0,1,336.43,104.39Zm6.44-1.54c.91-.94,1.41-2.8,1.41-5.13s-.5-4.14-1.41-5.12a2.94,2.94,0,0,0-2.2-.84,2.73,2.73,0,0,0-2.26,1,7.4,7.4,0,0,0-1.33,4.86,8.87,8.87,0,0,0,1,4.75,3.23,3.23,0,0,0,4.76.46Z"/><path class="cls-2" d="M373,104.73a20.81,20.81,0,0,0,.1,2.31h-2.42a19.94,19.94,0,0,0,.12-2.33V99.09c0-1,0-1.41,0-2.23a13.59,13.59,0,0,1-1.64,2.21,11.86,11.86,0,0,0-.9-2.43A15.71,15.71,0,0,0,371.47,92a13.77,13.77,0,0,0,1.17-3.55l2.3.68c-.24.6-.34.84-.56,1.44A30,30,0,0,1,373,93.78v8.47a18.88,18.88,0,0,0,5.44-7.57h-2.3a19.19,19.19,0,0,0-2.17.12V92.48c.6.06,1.39.1,2.17.1h3V90.71a12.48,12.48,0,0,0-.14-1.94h2.42a12,12,0,0,0-.12,1.94v1.87h3.75a19.89,19.89,0,0,0,2.28-.12V94.8a18.82,18.82,0,0,0-2.22-.12H382a15.91,15.91,0,0,0,2.3,4,19.85,19.85,0,0,0,3.61,3.6,10.41,10.41,0,0,0-1.49,2.16,17.89,17.89,0,0,1-2.5-2.64,17.38,17.38,0,0,1-2.64-4.55c0,.64.06,1.17.06,2v5.58a14.67,14.67,0,0,0,.12,2.23H379a19.7,19.7,0,0,0,.14-2.21V99.53c0-.66,0-1.44,0-2.09a18,18,0,0,1-4.84,7,6.9,6.9,0,0,0-1.31-1.82Z"/><path class="cls-2" d="M391.3,91.66c0-.78,0-1.47-.1-2.13a18,18,0,0,0,2.24.1h9.77a16.26,16.26,0,0,0,2.17-.1,17.9,17.9,0,0,0-.1,2v12.91a20.2,20.2,0,0,0,.12,2.41H403v-1.2h-9.38v1.2h-2.4a20.79,20.79,0,0,0,.12-2.41Zm2.28,4.72H403V91.74h-9.38Zm0,7.21H403V98.47h-9.38Z"/><path class="cls-2" d="M420,92.12V95H417V92.12Zm0,8.55v2.92H417v-2.92Z"/><path class="cls-2" d="M437.34,91.1a17.07,17.07,0,0,0-.14-2.33h2.62a16.48,16.48,0,0,0-.14,2.33v3.62h4a22.8,22.8,0,0,0,2.6-.12v2.34a24.06,24.06,0,0,0-2.6-.12h-4v7.23H445a27.05,27.05,0,0,0,2.83-.12v2.37a23,23,0,0,0-2.83-.14h-12.5a23.83,23.83,0,0,0-2.89.14v-2.37a27.79,27.79,0,0,0,2.89.12h4.88V96.82h-3.65a24.53,24.53,0,0,0-2.63.12V94.6a23.51,23.51,0,0,0,2.63.12h3.65Z"/><path class="cls-2" d="M461.22,97.86a2.4,2.4,0,1,1-2.4-2.38A2.38,2.38,0,0,1,461.22,97.86Z"/><path class="cls-2" d="M472,91.66c0-.78,0-1.47-.1-2.13a18.1,18.1,0,0,0,2.24.1h9.77a16.26,16.26,0,0,0,2.17-.1,17.9,17.9,0,0,0-.1,2v12.91a20.2,20.2,0,0,0,.12,2.41h-2.44v-1.2h-9.38v1.2h-2.4a20.79,20.79,0,0,0,.12-2.41Zm2.28,4.72h9.38V91.74h-9.38Zm0,7.21h9.38V98.47h-9.38Z"/><path class="cls-2" d="M501.57,97.86a2.4,2.4,0,1,1-2.4-2.38A2.38,2.38,0,0,1,501.57,97.86Z"/><path class="cls-2" d="M514.92,104.87A15.05,15.05,0,0,0,515,107h-2.36a12.65,12.65,0,0,0,.12-2.15V100a17.81,17.81,0,0,1-2.32,1.92,8.42,8.42,0,0,0-.92-2.2,13.07,13.07,0,0,0,3.14-2.61A12.29,12.29,0,0,0,515,93.84h-3a13.42,13.42,0,0,0-1.7.08v-2.1a11.26,11.26,0,0,0,1.58.08h.94V90.12a10.62,10.62,0,0,0-.12-1.55H515a11.89,11.89,0,0,0-.1,1.58V91.9h.57a8.44,8.44,0,0,0,1.21-.06l1,1.16a14.79,14.79,0,0,0-.91,1.84,18.14,18.14,0,0,1-1.43,2.28,11.68,11.68,0,0,0,2.78,2,8.59,8.59,0,0,0-1,2,12.14,12.14,0,0,1-2.24-1.88Zm4.56-7.31a13.9,13.9,0,0,0-1.63.08,13.9,13.9,0,0,0,.08-1.68V91.12a16.57,16.57,0,0,0-.08-1.71,16,16,0,0,0,1.89.08h6a15.39,15.39,0,0,0,1.84-.08,14.65,14.65,0,0,0-.08,1.71v4.8a14.61,14.61,0,0,0,.08,1.72,13.6,13.6,0,0,0-1.65-.08h-.79v6.83c0,.32.12.38.72.38s.83,0,.95-.18.18-.48.21-3.34a4.39,4.39,0,0,0,1.91.84c-.14,3.34-.26,3.93-.91,4.31a5.45,5.45,0,0,1-2.58.36c-1.23,0-1.69-.1-2.06-.46a1.37,1.37,0,0,1-.32-1.11V97.56h-1a13.22,13.22,0,0,1-1,5.09,8.28,8.28,0,0,1-1.93,2.92,9.1,9.1,0,0,1-2.16,1.51,9,9,0,0,0-1.51-1.79,6.43,6.43,0,0,0,2.7-1.9c1.19-1.4,1.75-3.22,1.83-5.83Zm.57-1.94h5.32V91.48h-5.32Z"/><path class="cls-2" d="M533.1,93.86a14.06,14.06,0,0,1,1.41,1.26c.34-.28.58-.48,1-.84A7.8,7.8,0,0,0,534,93l1.19-1a8.1,8.1,0,0,1,1.39,1.12,10.11,10.11,0,0,0,1.17-1.76h-2.83a14.17,14.17,0,0,1-3.79,3.38A6.65,6.65,0,0,0,530,93.1a11.64,11.64,0,0,0,3-2.39,6.42,6.42,0,0,0,1.39-2.36l2.38.32-.28.54c-.12.22-.16.26-.27.44h2.71c-.06-.14-.08-.16-.14-.3a1.23,1.23,0,0,0-.15-.24l1.94-.4a12.49,12.49,0,0,0,3,4.89,11,11,0,0,0,1.79-2.08h-2a7.8,7.8,0,0,0-1.25.08V89.53a9.51,9.51,0,0,0,1.74.12h2a9.36,9.36,0,0,0,1.47-.08l1.07,1.33a9.62,9.62,0,0,0-.73.92,26.33,26.33,0,0,1-2.66,3.08,16.78,16.78,0,0,0,4.34,2.32,8.21,8.21,0,0,0-1,2.11,19,19,0,0,1-4.62-3v1.28a15.57,15.57,0,0,0-2-.08h-3.65a16.1,16.1,0,0,0-2,.08V96.5a23,23,0,0,1-3.53,2.55c.57,0,1,.06,1.64.06h11.23a21.33,21.33,0,0,0,2.18-.1v2.18a16.55,16.55,0,0,0-2.18-.12H541v3.78c0,1.63-.57,2.07-2.59,2.07-.72,0-1.27,0-2.07-.06a6.48,6.48,0,0,0-.57-2.09,18.58,18.58,0,0,0,2.36.2c.54,0,.69-.1.69-.5v-3.4H534a16.76,16.76,0,0,0-2.16.12V99.35c-.33.18-.45.26-.91.5a6.54,6.54,0,0,0-1.05-2,15.2,15.2,0,0,0,3.23-1.74,10.79,10.79,0,0,0-1.33-1.26Zm3.75,8.41a15.88,15.88,0,0,1-4.8,4.35,10.54,10.54,0,0,0-1.35-1.69,12.46,12.46,0,0,0,2.94-2.1,7.62,7.62,0,0,0,1.27-1.44Zm4.74-6.61c.48,0,.73,0,1.13,0a14.35,14.35,0,0,1-2.82-3.82,16.12,16.12,0,0,1-3,3.82c.32,0,.57,0,1.09,0Zm2.56,5.71a12.87,12.87,0,0,0,4.52,3.36,10.39,10.39,0,0,0-1.39,1.89,18.61,18.61,0,0,1-5-4.33Z"/><path class="cls-2" d="M552.69,91.66a19.91,19.91,0,0,0-.11-2.13,18.1,18.1,0,0,0,2.24.1h9.77a16.42,16.42,0,0,0,2.18-.1,17.9,17.9,0,0,0-.1,2v12.91a20.2,20.2,0,0,0,.12,2.41h-2.44v-1.2H555v1.2h-2.41a18.6,18.6,0,0,0,.13-2.41ZM555,96.38h9.38V91.74H555Zm0,7.21h9.38V98.47H555Z"/><line class="cls-3" x1="121.7" y1="75.58" x2="563.47" y2="75.58"/><g class="cls-4"><circle class="cls-5" cx="66.09" cy="59.01" r="40.12"/></g><path class="cls-2" d="M66.09,23.29l-1.84.05-1.81.14-1.78.22L58.9,24l-1.72.4-1.69.48-1.66.56-1.62.64-1.58.72-1.54.79-1.49.86-1.45.93-1.41,1-1.35,1.07-1.3,1.12-1.24,1.19L39.66,35l-1.12,1.3-1.06,1.35-1,1.4-.93,1.45L34.68,42l-.79,1.54-.71,1.58-.64,1.62L32,48.42l-.48,1.69-.4,1.72-.31,1.76-.23,1.78-.14,1.81,0,1.83,0,1.84.14,1.81.23,1.78.31,1.76.4,1.72L32,69.61l.57,1.66.64,1.62.71,1.58L34.68,76l.87,1.49L36.48,79l1,1.41,1.06,1.35L39.66,83l1.19,1.24,1.24,1.19,1.3,1.12,1.35,1.07,1.41,1,1.45.94,1.49.86,1.54.79,1.58.71,1.62.64,1.66.57,1.69.48,1.72.4,1.76.31,1.78.23,1.81.14,1.84,0,1.83,0,1.81-.14,1.79-.23L73.27,94l1.72-.4,1.7-.48,1.65-.57L80,91.92l1.58-.71,1.54-.79,1.5-.86L86,88.62l1.4-1,1.35-1.07,1.3-1.12,1.24-1.19L92.51,83l1.13-1.3,1.06-1.35,1-1.41.93-1.45L97.49,76l.79-1.54L99,72.89l.64-1.62.56-1.66.48-1.69.4-1.72.32-1.76.22-1.78.14-1.81,0-1.84,0-1.83-.14-1.81-.22-1.78-.32-1.76-.4-1.72-.48-1.69-.56-1.66L99,45.14l-.72-1.58L97.49,42l-.86-1.5-.93-1.45-1-1.4-1.06-1.35L92.51,35l-1.19-1.24-1.24-1.19-1.3-1.12L87.43,30.4l-1.4-1-1.45-.93-1.5-.86-1.54-.79L80,26.1l-1.62-.64-1.65-.56L75,24.42,73.27,24l-1.75-.32-1.79-.22-1.81-.14Zm0-4.4A40.13,40.13,0,1,1,26,59,40.19,40.19,0,0,1,66.09,18.89Z"/><path class="cls-2" d="M78.52,83.15l3.3-1.91a1.21,1.21,0,0,0,.54-.82A1.78,1.78,0,0,0,82,79.21L75.93,68.72c-.61-1.06-1.21-1.32-2-.88L70.74,69.7ZM52.05,67.26l.29.51c4,6.86,8,11.44,12.1,13.68,5,2.79,9,3.7,12.3,2.72l.08,0L69,70.73a2.84,2.84,0,0,1-2.82,0A9.14,9.14,0,0,1,63.41,68c-1-1.55-2.15-3.32-3.38-5.45-1.54-2.66-2.46-4.46-3-5.29a9.25,9.25,0,0,1-.91-3.73,2.56,2.56,0,0,1,1.41-2.44L49.76,37.53c-1.43,1.23-2.55,3.4-3.19,6.4a23.73,23.73,0,0,0-.42,8.25C46.77,56.52,48.76,61.53,52.05,67.26ZM59.1,50.17l3.22-1.86c.85-.49.87-1.42.17-2.63l-5.67-9.81c-.53-.91-.92-1.39-1.26-1.39a2.15,2.15,0,0,0-1.23.4l-3,1.77Z"/><path class="cls-2" d="M258.09,11.27a20.08,20.08,0,0,1,3.73,1.9L261,14.76a16.23,16.23,0,0,0-3.8-2.06Zm-.63,6.27a12.71,12.71,0,0,0,4.05-.91,8.52,8.52,0,0,0,4.05-3.08,10.47,10.47,0,0,0,1.62-3.09,7.44,7.44,0,0,0,1.46,1.24,12.16,12.16,0,0,1-2.1,3.55c-1.78,2-4.16,3.29-7.61,4a8.12,8.12,0,0,0-1,.23Zm1.71-9.66a22.28,22.28,0,0,1,3.73,1.81l-.9,1.54a16.34,16.34,0,0,0-3.74-1.94Z"/><path class="cls-2" d="M274.75,8.14c-.05.4-.05.4-.14,3.14A13.14,13.14,0,0,1,273.48,17a8.86,8.86,0,0,1-1.94,2.59,4.9,4.9,0,0,0-1.41-1.36,5.71,5.71,0,0,0,1.44-1.61c1-1.61,1.33-3.42,1.33-7.34a7.76,7.76,0,0,0,0-1.27ZM278.46,8a7.28,7.28,0,0,0-.09,1.33l-.07,8a5.74,5.74,0,0,0,2.14-1.6,6.94,6.94,0,0,0,1.37-2.56,5.86,5.86,0,0,0,1.32,1.31,8.73,8.73,0,0,1-2.23,3.27,9.44,9.44,0,0,1-3,1.68,6.17,6.17,0,0,0-.6.25l-.9-.95a6.53,6.53,0,0,0,.13-1.49l.07-7.9V8.87a6.17,6.17,0,0,0-.06-.92Z"/><path class="cls-2" d="M289.38,8.86a2.83,2.83,0,0,0-.07.28l0,.24-.08.4,0,.34c-.59,4-1.68,6.78-3.55,8.94a6.31,6.31,0,0,0-1.6-1.21,9.43,9.43,0,0,0,2-3,17.37,17.37,0,0,0,1.32-4.81,10.71,10.71,0,0,0,.12-1.36V8.51Zm4-.35a18.08,18.08,0,0,0,.59,3.22,13.68,13.68,0,0,0,3.12,6.05,5.88,5.88,0,0,0-1.54,1.29,18.64,18.64,0,0,1-3.71-9.22,5.5,5.5,0,0,0-.2-1Zm1.19-.84a8.1,8.1,0,0,1,1.16,2.25l-1.06.34A9,9,0,0,0,293.5,8Zm1.94,2a9.73,9.73,0,0,0-1.13-2.21l1-.3a8.38,8.38,0,0,1,1.15,2.17Z"/><path class="cls-2" d="M298.58,12.65a13,13,0,0,0,2.27.1h7.46a13,13,0,0,0,2.27-.1V14.6a15.32,15.32,0,0,0-2.28-.07h-7.44a15.32,15.32,0,0,0-2.28.07Z"/><path class="cls-2" d="M312.12,14.56c.4-.21,1.13-1,3-3.39a4.74,4.74,0,0,1,1.05-1.11,1.77,1.77,0,0,1,.95-.26c.7,0,1,.22,2.09,1.43a47.07,47.07,0,0,0,4.54,4.46,7.84,7.84,0,0,0,1.33,1l-.88,1.92a68.76,68.76,0,0,1-5.93-5.91c-.9-1-.9-1-1.14-1s-.27,0-.85.81-1.75,2.23-2.51,3.13l-.47.57Zm9.51-5.38a9.41,9.41,0,0,1,1.47,2.06l-1,.52a9.42,9.42,0,0,0-1.47-2.09Zm2.17,1.7a10.17,10.17,0,0,0-1.43-2l.94-.49a7.83,7.83,0,0,1,1.45,2Z"/><path class="cls-2" d="M337.88,9.88a2.56,2.56,0,0,0-.43.94,24.24,24.24,0,0,1-1.79,3.85A13.66,13.66,0,0,1,329.27,20a4.57,4.57,0,0,0-1.16-1.44,14.11,14.11,0,0,0,2.73-1.4,10.24,10.24,0,0,0,2.29-1.95,15.64,15.64,0,0,0-2.87-2L331.33,12a18.36,18.36,0,0,1,2.81,1.88,13.18,13.18,0,0,0,1.57-3.31l-4.35,0a14.62,14.62,0,0,1-3.28,3.76,4.51,4.51,0,0,0-1.4-1.12,12,12,0,0,0,3.51-4A8,8,0,0,0,331,7.3l1.83.41a5.5,5.5,0,0,0-.42.78c-.17.38-.27.55-.34.68.22,0,.22,0,3.64-.06a3.43,3.43,0,0,0,1.23-.17Z"/><path class="cls-2" d="M340.58,12.65a13,13,0,0,0,2.27.1h7.46a13,13,0,0,0,2.27-.1V14.6a15.32,15.32,0,0,0-2.28-.07h-7.44a15.32,15.32,0,0,0-2.28.07Z"/><path class="cls-2" d="M366.09,12.23a6.91,6.91,0,0,0-.39.89,9.87,9.87,0,0,1-3.25,4.73,12.39,12.39,0,0,1-3.67,1.91,5.06,5.06,0,0,0-1.09-1.63,9,9,0,0,0,3.89-1.85A7.28,7.28,0,0,0,363.84,13H357a15.72,15.72,0,0,0-1.8.07v-1.7a10.49,10.49,0,0,0,1.82.09h6.67a6.06,6.06,0,0,0,1.58-.12ZM356.41,8a8.31,8.31,0,0,0,1.64.1h4.89a8.25,8.25,0,0,0,1.64-.1V9.71A11.64,11.64,0,0,0,363,9.64h-5a11.73,11.73,0,0,0-1.61.07Z"/><path class="cls-2" d="M379.9,8.75a4.85,4.85,0,0,0-.52.49,24.41,24.41,0,0,1-3.31,2.88v6a11.65,11.65,0,0,0,.07,1.56h-2a7.78,7.78,0,0,0,.09-1.51V13.21a22.13,22.13,0,0,1-5,2.27,5.23,5.23,0,0,0-.93-1.59,20.59,20.59,0,0,0,7.35-3.64,11.45,11.45,0,0,0,2.61-2.62Z"/><path class="cls-2" d="M394,9.56a2.06,2.06,0,0,0-.24.63,13.13,13.13,0,0,1-2.88,5.87,13.63,13.63,0,0,1-5.21,3.57A5.12,5.12,0,0,0,384.44,18a11.21,11.21,0,0,0,3.07-1.43,9.66,9.66,0,0,0,4.24-6.1h-6.66a11.35,11.35,0,0,0-1.77.08V8.69a10.22,10.22,0,0,0,1.79.1h6.43a5.16,5.16,0,0,0,1.5-.14Z"/><path class="cls-2" d="M399.59,7.88a5.39,5.39,0,0,0,0-.72h1.55c0,.26,0,.44,0,.72V8H404V7.88a4.72,4.72,0,0,0,0-.72h1.55a3.94,3.94,0,0,0-.05.72V8h2a10.67,10.67,0,0,0,1.53-.08V9.36c-.46,0-.91-.07-1.53-.07h-2a4.26,4.26,0,0,0,0,.54h-1.55a3.19,3.19,0,0,0,0-.54h-2.9a3.26,3.26,0,0,0,0,.54h-1.54a2.77,2.77,0,0,0,0-.54h-1.78c-.6,0-1.06,0-1.54.07V7.92a11,11,0,0,0,1.54.08h1.78Zm7,7a12.14,12.14,0,0,0,1.51-.06,10.89,10.89,0,0,0-.07,1.47v2.34a8.61,8.61,0,0,0,.08,1.46h-1.58v-.56h-7.94v.56h-1.56a8.91,8.91,0,0,0,.09-1.46V16.3a13,13,0,0,0-.07-1.45,11.29,11.29,0,0,0,1.44.06Zm.47-1.68c0,.45,0,.77.05,1.12-.38,0-.69,0-1.11,0H399.2c-.44,0-.73,0-1.11,0,0-.38,0-.69,0-1.12V11.18c0-.42,0-.75,0-1.12a10.38,10.38,0,0,0,1.11,0H406a10.87,10.87,0,0,0,1.11,0c0,.34-.05.68-.05,1.12Zm-8.47,3.4h8V16h-8Zm0,1.73h8V17.7h-8Zm1-6.62h6.05v-.58h-6.05Zm0,1.55h6.05v-.61h-6.05Z"/><path class="cls-2" d="M412.33,15.34a10.07,10.07,0,0,0-2.16-1.66l.94-1a12.4,12.4,0,0,1,2.14,1.56Zm1.19,1.15a18.7,18.7,0,0,1-1,1.92c-.11.2-.11.2-.63,1l-.34.55-1.21-1.11a6.89,6.89,0,0,0,1.16-1.51,11.15,11.15,0,0,0,1-1.82Zm2.1,1.85a12.85,12.85,0,0,0,.07,1.72h-1.58a14.24,14.24,0,0,0,.08-1.72V14a11.53,11.53,0,0,0-.05-1.39,11.56,11.56,0,0,0,1.33.06h1.93V12H415a9.12,9.12,0,0,0-1.41.07v-.43l-.8.95a11.05,11.05,0,0,0-2.11-1.68l.92-1a10.55,10.55,0,0,1,2,1.47v-.67a13.6,13.6,0,0,0,1.43.07h2.35a6,6,0,0,0-.07-.94H418c0-.18,0-.33,0-.56h-2.93a5.2,5.2,0,0,0,0,.75h-1.55a4,4,0,0,0,.05-.75H411.9a11.63,11.63,0,0,0-1.55.08V7.93A11.15,11.15,0,0,0,411.9,8h1.77V8a4.4,4.4,0,0,0-.05-.76h1.55a5.62,5.62,0,0,0,0,.76V8h2.93V8c0-.28,0-.46,0-.76h1.55a4.27,4.27,0,0,0-.05.76V8h2A10.59,10.59,0,0,0,423,7.93V9.39a12.14,12.14,0,0,0-1.52-.08h-2a3.87,3.87,0,0,0,.05.64h-.71a5.81,5.81,0,0,0-.06.86h1.93a10.09,10.09,0,0,0-1.15-.71l.9-.75a9.15,9.15,0,0,1,1.56,1l-.54.51a9,9,0,0,0,1.36-.07v1.34a12.48,12.48,0,0,0-1.41-.07H418.8v.69h2.13a9.76,9.76,0,0,0,1.34-.06c0,.27,0,.27,0,1.58v4.51c0,.52-.14.86-.45,1a3.09,3.09,0,0,1-1.39.2l-.6,0a4.14,4.14,0,0,0-.31-1.28,5.67,5.67,0,0,0,1,.08c.3,0,.35-.06.35-.34v-.75h-2v.74a13.06,13.06,0,0,0,.07,1.61h-1.55a12.77,12.77,0,0,0,.08-1.61v-.74h-1.78Zm1.78-3.74v-.75h-1.78v.75Zm0,1.93v-.84h-1.78v.84Zm3.4-1.93v-.75h-2v.75Zm0,1.93v-.84h-2v.84Z"/></g></g></svg>