<svg xmlns="http://www.w3.org/2000/svg" width="414" height="170" viewBox="0 0 414 170"><defs><style>.cls-1{fill:#80bee7;}.cls-2{fill:#fff;}</style></defs><title>ico_syoubu</title><g id="レイヤー_2" data-name="レイヤー 2"><g id="レイヤー_1-2" data-name="レイヤー 1"><rect class="cls-1" width="414" height="170"/><path class="cls-2" d="M14.5,81a47.06,47.06,0,0,1,9.23,5.31L21.58,90.7A39.27,39.27,0,0,0,12.17,85ZM12.94,98.46a28.86,28.86,0,0,0,10-2.54,21.73,21.73,0,0,0,10-8.58,30.23,30.23,0,0,0,4-8.62,18.19,18.19,0,0,0,3.61,3.47,35.31,35.31,0,0,1-5.21,9.87c-4.41,5.69-10.31,9.17-18.85,11.08a21,21,0,0,0-2.43.62Zm4.23-26.91a53.31,53.31,0,0,1,9.24,5l-2.23,4.29a39.12,39.12,0,0,0-9.26-5.39Z"/><path class="cls-2" d="M54.07,72.29c-.14,1.09-.14,1.09-.35,8.73s-1,12-2.81,16a25,25,0,0,1-4.79,7.22,13,13,0,0,0-3.51-3.79A15.58,15.58,0,0,0,46.19,96c2.5-4.49,3.3-9.52,3.3-20.44A21.91,21.91,0,0,0,49.35,72Zm9.2-.47a22.38,22.38,0,0,0-.24,3.7l-.18,22.2a14.23,14.23,0,0,0,5.31-4.45,19.72,19.72,0,0,0,3.4-7.14,15.69,15.69,0,0,0,3.27,3.67,24.68,24.68,0,0,1-5.52,9.09,22.52,22.52,0,0,1-7.4,4.68,13,13,0,0,0-1.49.7l-2.22-2.65a19.58,19.58,0,0,0,.31-4.14l.18-22V74.31a19.59,19.59,0,0,0-.14-2.57Z"/><path class="cls-2" d="M88.61,74.28a4.63,4.63,0,0,0-.18.78l-.07.66-.17,1.13-.11.94C86.63,89,83.92,96.66,79.27,102.67a15.28,15.28,0,0,0-4-3.36,26.5,26.5,0,0,0,5-8.3,52,52,0,0,0,3.27-13.38,31.69,31.69,0,0,0,.31-3.78V73.3Zm9.85-1a54.18,54.18,0,0,0,1.46,9c1.7,7.22,4.13,12.48,7.74,16.85a14.85,14.85,0,0,0-3.82,3.59C99.23,96.51,96,87.54,94.65,77a18.63,18.63,0,0,0-.49-2.8Zm3-2.34a24.88,24.88,0,0,1,2.88,6.28l-2.64.94a26.86,26.86,0,0,0-2.85-6.36Zm4.79,5.66a28.44,28.44,0,0,0-2.78-6.17l2.57-.82a24.07,24.07,0,0,1,2.84,6.05Z"/><path class="cls-2" d="M109.67,84.85a30.94,30.94,0,0,0,5.63.27h18.5a30.74,30.74,0,0,0,5.62-.27v5.42a33.06,33.06,0,0,0-5.66-.2H115.33a33.13,33.13,0,0,0-5.66.2Z"/><path class="cls-2" d="M141.5,90.15c1-.59,2.81-2.89,7.46-9.44a12.68,12.68,0,0,1,2.61-3.08,4,4,0,0,1,2.36-.74c1.74,0,2.53.62,5.17,4a127.51,127.51,0,0,0,11.25,12.44,20.55,20.55,0,0,0,3.3,2.92l-2.19,5.35a189.06,189.06,0,0,1-14.68-16.46c-2.23-2.73-2.23-2.73-2.82-2.73s-.69.11-2.11,2.26-4.34,6.2-6.22,8.7L144.45,95Zm23.57-15a25.51,25.51,0,0,1,3.65,5.74l-2.43,1.44a26.55,26.55,0,0,0-3.65-5.81Zm5.38,4.72a28.54,28.54,0,0,0-3.54-5.65l2.33-1.37a22.09,22.09,0,0,1,3.61,5.5Z"/><path class="cls-2" d="M203.64,77.12a7.34,7.34,0,0,0-1.08,2.62,69.42,69.42,0,0,1-4.44,10.72c-3.54,6.48-8.44,11.08-15.83,14.9a12.32,12.32,0,0,0-2.88-4,33.38,33.38,0,0,0,6.76-3.9,26.11,26.11,0,0,0,5.7-5.42,39.44,39.44,0,0,0-7.12-5.58L187.39,83a45.87,45.87,0,0,1,7,5.23A39.26,39.26,0,0,0,198.25,79l-10.79.12a39.32,39.32,0,0,1-8.12,10.49,11.52,11.52,0,0,0-3.47-3.12,32.66,32.66,0,0,0,8.71-11.11,25.81,25.81,0,0,0,2-5.42l4.51,1.13a21.88,21.88,0,0,0-1,2.18,20,20,0,0,1-.83,1.87c.56-.07.56-.07,9-.15a8.22,8.22,0,0,0,3.06-.47Z"/><path class="cls-2" d="M208.6,84.85a30.74,30.74,0,0,0,5.62.27h18.5a30.94,30.94,0,0,0,5.63-.27v5.42a33.13,33.13,0,0,0-5.66-.2H214.25a33.06,33.06,0,0,0-5.65.2Z"/><path class="cls-2" d="M270.11,83.67a19.12,19.12,0,0,0-1,2.46c-1.8,5.74-4.44,10.06-8.05,13.18-2.46,2.15-4.72,3.48-9.09,5.31a14.18,14.18,0,0,0-2.71-4.53A21.63,21.63,0,0,0,258.93,95c2.57-2.42,4.06-4.8,5.59-9.13H247.61a30.68,30.68,0,0,0-4.44.2V81.26a22.29,22.29,0,0,0,4.51.27H264.2a13.73,13.73,0,0,0,3.93-.35Zm-24-11.81a17.84,17.84,0,0,0,4.06.27h12.11a18,18,0,0,0,4.07-.27v4.79a24.76,24.76,0,0,0-4-.19H250.11a24.54,24.54,0,0,0-4,.19Z"/><path class="cls-2" d="M302.59,74a15,15,0,0,0-1.28,1.37,63.92,63.92,0,0,1-8.19,8V100a33.19,33.19,0,0,0,.17,4.33h-4.86a25.12,25.12,0,0,0,.21-4.22V86.41c-4.06,2.73-6,3.74-12.39,6.31a15.09,15.09,0,0,0-2.33-4.44,48.94,48.94,0,0,0,18.23-10.14,29.65,29.65,0,0,0,6.45-7.3Z"/><path class="cls-2" d="M335.81,76.23a6.54,6.54,0,0,0-.59,1.75c-1.73,7.45-3.78,12.13-7.11,16.34s-7.12,7.14-12.92,10a14.27,14.27,0,0,0-3.05-4.64,27.28,27.28,0,0,0,7.6-4c5.42-3.94,8.82-9.44,10.52-17H313.73a24,24,0,0,0-4.37.24V73.81a22.09,22.09,0,0,0,4.44.27h15.94a11.37,11.37,0,0,0,3.71-.39Z"/><path class="cls-2" d="M348,71.55a17.29,17.29,0,0,0-.11-2h3.86a17.82,17.82,0,0,0-.11,2v.35h7.19v-.35a13,13,0,0,0-.11-2h3.86a11,11,0,0,0-.14,2v.35h4.89a24.13,24.13,0,0,0,3.79-.24v4a34.17,34.17,0,0,0-3.79-.2h-4.86a9.44,9.44,0,0,0,.11,1.49h-3.86a10.24,10.24,0,0,0,.11-1.49H351.6a10.62,10.62,0,0,0,.07,1.49h-3.82a8.73,8.73,0,0,0,.11-1.49h-4.41a35.75,35.75,0,0,0-3.82.2v-4a24.91,24.91,0,0,0,3.82.24H348Zm17.39,19.57A31,31,0,0,0,369.1,91a35.44,35.44,0,0,0-.18,4.09v6.52a27.09,27.09,0,0,0,.21,4h-3.92v-1.56H345.53v1.56h-3.86a27,27,0,0,0,.21-4V95a35.93,35.93,0,0,0-.17-4,28.71,28.71,0,0,0,3.57.15Zm1.18-4.68c0,1.25,0,2.15.1,3.12-.93-.07-1.7-.11-2.74-.11H347c-1.08,0-1.81,0-2.75.11.07-1,.11-1.91.11-3.12V80.75c0-1.17,0-2.11-.11-3.12a23.32,23.32,0,0,0,2.75.12h16.9a24,24,0,0,0,2.74-.12c-.07.94-.1,1.87-.1,3.12Zm-21,9.48h19.72V94.24H345.53Zm0,4.8h19.72V98.89H345.53Zm2.39-18.41h15V80.67h-15Zm0,4.29h15V84.92h-15Z"/><path class="cls-2" d="M377.81,92.33a25.71,25.71,0,0,0-5.35-4.64l2.33-2.88a33,33,0,0,1,5.31,4.33Zm2.95,3.2a54.45,54.45,0,0,1-2.5,5.34c-.28.55-.28.55-1.56,2.85-.38.66-.38.66-.84,1.52l-3-3.08A19.39,19.39,0,0,0,375.72,98a31.77,31.77,0,0,0,2.44-5.07Zm5.21,5.15a42.73,42.73,0,0,0,.17,4.8h-3.92a40.83,40.83,0,0,0,.2-4.8v-12a35.15,35.15,0,0,0-.13-3.86,26.41,26.41,0,0,0,3.29.15h4.79V83.05h-5.86a21,21,0,0,0-3.51.2V82l-2,2.65A27.37,27.37,0,0,0,373.78,80l2.29-2.73A26.6,26.6,0,0,1,381,81.37V79.5a28.15,28.15,0,0,0,3.54.2h5.83a18.94,18.94,0,0,0-.17-2.62h1.7c.07-.5.07-.89.11-1.56h-7.26a19.57,19.57,0,0,0,.1,2.11H381a11.53,11.53,0,0,0,.14-2.11h-4.41a26.21,26.21,0,0,0-3.82.24V71.7a25.46,25.46,0,0,0,3.82.24h4.41v-.2a12.44,12.44,0,0,0-.14-2.11h3.85a20.88,20.88,0,0,0-.1,2.11v.2H392v-.2c0-.78,0-1.29-.11-2.11h3.85a13,13,0,0,0-.13,2.11v.2h4.86a24.7,24.7,0,0,0,3.78-.24v4.06a28.06,28.06,0,0,0-3.78-.24h-4.86a12.94,12.94,0,0,0,.13,1.8H394a21.52,21.52,0,0,0-.13,2.38h4.79a22.15,22.15,0,0,0-2.85-2L398,75.64a22.5,22.5,0,0,1,3.85,2.65l-1.32,1.41a18,18,0,0,0,3.37-.2v3.75a26,26,0,0,0-3.5-.2h-6.56V85h5.27a22.57,22.57,0,0,0,3.33-.15c-.07.74-.07.74-.13,4.4v12.56c0,1.44-.35,2.38-1.11,2.81a6.93,6.93,0,0,1-3.44.55l-1.49,0a13.55,13.55,0,0,0-.77-3.59,12.86,12.86,0,0,0,2.43.23c.73,0,.87-.15.87-.93V98.69h-5v2.07a37.27,37.27,0,0,0,.17,4.48h-3.85a38.22,38.22,0,0,0,.2-4.48V98.69H386Zm4.4-10.41V88.16H386v2.11Zm0,5.38V93.31H386v2.34Zm8.44-5.38V88.16h-5v2.11Zm0,5.38V93.31h-5v2.34Z"/></g></g></svg>