<svg xmlns="http://www.w3.org/2000/svg" width="401.27" height="347" viewBox="0 0 401.27 347"><defs><style>.cls-1{fill:#3c1000;}.cls-2{fill:#fff589;}.cls-3{fill:#156a84;}.cls-4{fill:#fad7b5;}.cls-5{fill:#fadfeb;}.cls-6{fill:#fff359;}.cls-7{fill:#7b986a;}.cls-8{fill:#8a7d6c;}.cls-9{fill:#f4b0a1;}.cls-10{fill:#ada397;}.cls-11{fill:#d4cfc7;}.cls-12{fill:#fff;}.cls-13{fill:#422a16;}.cls-14{fill:#6e4f00;}.cls-15{fill:#a08d5d;}.cls-16{fill:#729cd2;}.cls-17{fill:#f09ba1;}.cls-18{fill:#483a29;}.cls-19{fill:#816d51;}.cls-20{fill:#9e9077;}.cls-21{fill:#523300;}.cls-22{fill:#f4ac69;}.cls-23{fill:#81674f;}.cls-24{fill:#9e8773;}.cls-25{fill:#6f4000;}.cls-26{fill:#915700;}.cls-27{fill:#c3995c;}.cls-28{fill:#fff251;}.cls-29{fill:#ec7fae;}.cls-30{fill:#ab8e31;}.cls-31{fill:#009fe8;}.cls-32{fill:#e64290;}.cls-33{fill:#4d4d4d;}</style></defs><title>to_top</title><g id="レイヤー_2" data-name="レイヤー 2"><g id="レイヤー_1-2" data-name="レイヤー 1"><path class="cls-1" d="M392.8,196a30.67,30.67,0,0,0-16.48-11.86,9.05,9.05,0,0,0-1.64-6.43,17.4,17.4,0,0,0-1.51-2,4.09,4.09,0,0,0,3.68-4.16l-.07-2.95a4.33,4.33,0,0,0-.15-1,4.31,4.31,0,0,0,.11-1.57l-.38-2.94a4.07,4.07,0,0,0-4.05-3.55,4.71,4.71,0,0,0-.53,0l-8.59,1.11a10.45,10.45,0,0,0,2.38-3.75c1.81-4.66-2.07-8.83-6.89-12a4.75,4.75,0,0,0,.63-2.32c0-2.51-1.76-3.86-3-4.76l-.08-.06a5.2,5.2,0,0,0-.91-.54,18.93,18.93,0,0,0,8.57-10.47A9.22,9.22,0,0,0,364,121c4.54-4.31,15.47-15.87,16.66-28.42A21.75,21.75,0,0,0,381.93,57a21.45,21.45,0,0,0-13.5-4.37c-6.26-10.55-14.34-16.79-24.06-18.57l-4.29-.79c-7.46-1.41-13.91-2.62-20-2.62-13.44,0-23.13,6.29-32.6,21.46a6.81,6.81,0,0,0-1.94-.64,4.12,4.12,0,0,0-.11-4.89l-1.82-2.33a3.72,3.72,0,0,0-.72-.71A4.05,4.05,0,0,0,282,42.2L280,40.07a4.07,4.07,0,0,0-2.86-1.25l-.43,0A4.21,4.21,0,0,0,274.21,40l-11.49,11.1a11.73,11.73,0,0,0-8.84,3.83,11.57,11.57,0,0,0-3,7.62l-2.64,2.54a9.54,9.54,0,0,0-.11-1.8c-.52-3.28-3.32-5.2-8.34-5.72a4.33,4.33,0,0,0-.43-1,5.29,5.29,0,0,0-4.4-2.45,5,5,0,0,0-4.37,1.67,4.12,4.12,0,0,0-3.56-.44c-.17,0-1.47.44-7.29.8a12.36,12.36,0,0,0,1.33-2A15.72,15.72,0,0,0,220,38.32a9,9,0,0,0-2.86-2.67,15,15,0,0,0-1.86-6.14,4.07,4.07,0,0,0,0-3.38c-2-4.4-4-7.58-6.14-9.64a4.08,4.08,0,0,0-.77-1.63,15,15,0,0,0-3.81-3.55,9.89,9.89,0,0,0-7.14-8.69,4.14,4.14,0,0,0-3.3.62A29.56,29.56,0,0,0,180.65.46c-10.09,0-21.07,3.41-27.24,5.67a7.89,7.89,0,0,1,.22-.9A4.09,4.09,0,0,0,148,.37a15.08,15.08,0,0,0-7.29,7.52l-.39-.16a4.14,4.14,0,0,0-4.68,1.6c-2.71,4-3.71,8-3,12a4.39,4.39,0,0,0-1.22.36,4.14,4.14,0,0,0-2.24,2.87c-.68,3.36.89,6.49,4.29,8.86a19.55,19.55,0,0,0-1.42,14.78,4.1,4.1,0,0,0,2.12,2.35,8.08,8.08,0,0,0-2.44,4.28A15.77,15.77,0,0,0,134.72,68a12.57,12.57,0,0,0,3.42,3.1c-1.42.49-2.79.94-4,1.31a10.12,10.12,0,0,0-4.43-.49l-6.25-8.18a4.07,4.07,0,0,0-5.73-.78l-1.86,1.42a3.75,3.75,0,0,0-.58.54,4.2,4.2,0,0,0-1.13.75l-.72.69a9.93,9.93,0,0,0-5.74-.7c-4.94.73-6.65,6.16-7,11.92h0a4.71,4.71,0,0,0-2.32.59,5.25,5.25,0,0,0-2.55,4c-.32,0-.64,0-.94.07-9.89-7-20-10.47-30.2-10.47-11.84,0-24,4.77-36.08,14.18C9.28,101,5,120.06,4.69,132.84a4.07,4.07,0,0,0-.61-.05,5.06,5.06,0,0,0-.66.06A4.1,4.1,0,0,0,0,137c.54,21.59,16.28,28.39,21.61,30.08,4.27,6.72,11,12.1,20.12,16A10.13,10.13,0,0,0,44,187.73a19.75,19.75,0,0,0,15.18,7,14.59,14.59,0,0,0,8.08-2.21,6.91,6.91,0,0,1,.33,1.89,11.79,11.79,0,0,0-.9,1.53,13.16,13.16,0,0,0-.55,1.35l-13.44,2.21a4.1,4.1,0,0,0-3.37,4.69l.49,2.92a4,4,0,0,0,.28,1,3.86,3.86,0,0,0,.12,1.58l.78,2.85A4,4,0,0,0,52.89,215a4.08,4.08,0,0,0,3.09.38l.18,0-.24.59c-1.75,4.68,2.18,8.8,7,11.93a4.88,4.88,0,0,0-.45,1.09,20.32,20.32,0,0,0-12.93,10.11c-2,4-1.19,6.85-.16,8.52A7.63,7.63,0,0,0,51,249.36a44.86,44.86,0,0,0-9.92,26.69v0h-.14a4.12,4.12,0,0,0-3,1.29,12.06,12.06,0,0,0-2.65,4.3,4.2,4.2,0,0,0-1.14,1A9.45,9.45,0,0,0,32.3,289,7,7,0,0,0,28,293.16a4.05,4.05,0,0,0,1.1,4.48,4,4,0,0,0,1.08.69c.73.8,3.14,3.82,8.66,14.15a47.06,47.06,0,0,0,23,21.25,4.14,4.14,0,0,0,2.09,1.95,14.8,14.8,0,0,0,5.7,1.17A14.53,14.53,0,0,0,76.68,335a12.87,12.87,0,0,0,8.74,6.34,4.46,4.46,0,0,0,.81.09,4.3,4.3,0,0,0,1.29-.21,16.12,16.12,0,0,0,6,1.11,22.61,22.61,0,0,0,12-3.86A72.85,72.85,0,0,1,115.92,333c.61-.27,1.17-.51,1.7-.76a9,9,0,0,0,7.43.94c6.23-1.54,11.74-7,13.72-13l-.74,4.3a4.09,4.09,0,0,0,3.32,4.72l2.9.5a4.43,4.43,0,0,0,1,.06,4.08,4.08,0,0,0,1.52.41l2.87.19a4.08,4.08,0,0,0,4.44-3.79l1.07-15.95a11.62,11.62,0,0,0,1.11-16.42l1.1-16.36a4,4,0,0,0,0-.77,4.1,4.1,0,0,0-.14-.71,5.32,5.32,0,0,0-.26-.66,4.43,4.43,0,0,0-.41-.65,5.21,5.21,0,0,0-.56-.59,4.94,4.94,0,0,0-.57-.42h0a3.63,3.63,0,0,0-.71-.34,3.68,3.68,0,0,0-.7-.2l-2.89-.5a4.46,4.46,0,0,0-.72-.06,4,4,0,0,0-2.35.74,4.14,4.14,0,0,0-1.68,2.64l-.56,3.22a64,64,0,0,1-1.37-13l7.05-11.86a95.25,95.25,0,0,0,53.82,16.51h0l0,1.45c-.8.52-1.56,1.06-2.29,1.61l-11.11.38a4.08,4.08,0,0,0-2.43.91h-.22c-.95-.41-2.57-1.11-4.06-1.68a6.93,6.93,0,0,0-6.52.46,6.33,6.33,0,0,0-2.66,5.5c0,2.07,1.07,4.58,5.54,5.95l.09.29A4.92,4.92,0,0,0,185.3,289a4.62,4.62,0,0,0,1.23.17,5.49,5.49,0,0,0,4-2l.35.06h0l.17,0,2,.32a.14.14,0,0,0,0,.06,9.18,9.18,0,0,0-6,4.11,13.89,13.89,0,0,0-2.13-.16,13.35,13.35,0,0,0-8.84,3.21,4.09,4.09,0,0,0-1.21,3.81,4,4,0,0,0-1.65,3.11,4.07,4.07,0,0,0,1.25,3.11,4.07,4.07,0,0,0,.62,3.67,4.06,4.06,0,0,0,2,4.11,14.44,14.44,0,0,0,7.42,2,16.82,16.82,0,0,0,4.12-.53,49,49,0,0,0,1.74,6.26,4.06,4.06,0,0,0-.05,2.69c5.7,17.59,19.25,19.9,24.49,20.1,2.64,2.5,6.91,3.81,12.49,3.81,6.94,0,15.28-2,22.89-5.53a35.25,35.25,0,0,0,12.95-9.63,5.36,5.36,0,0,0,.78-.15,6.76,6.76,0,0,0,4.71-4.57,6.6,6.6,0,0,0,1.43-11.3c.65-3.29,1.07-6.71,1.48-10l0-.17a12.18,12.18,0,0,0,.72-6.05,15.26,15.26,0,0,0,11.1-7.15,4.08,4.08,0,0,0,.41-3.3,3.85,3.85,0,0,0-.64-1.26,4.1,4.1,0,0,0-.22-2,4,4,0,0,0-1-1.49,4.09,4.09,0,0,0-.36-3.27l.49-.59a4.08,4.08,0,0,0-.48-5.75l-9.41-8a10.07,10.07,0,0,0-10.5-8.87l-3.28-2.77a96.56,96.56,0,0,0,29.06-30.28l1.54,1.8c-2.42,10.28-4.61,18-5.48,20.05a4,4,0,0,0-.81,1.21,4.07,4.07,0,0,0,.38,4,18.32,18.32,0,0,0,2.71,3l-.08.39c-.88,1.41-3.05,4.9-4.83,8.07s-2.16,6.59-.85,9.24,3.74,4.14,7,4.61a6.82,6.82,0,0,0,.9.07c4.46,0,7.38-4.49,9.24-9.5l0,0A20,20,0,0,0,311,277a12.61,12.61,0,0,0,1.8.13,7.66,7.66,0,0,0,6.45-3c6.23,4,15.54,8.45,25.87,8.45a35.36,35.36,0,0,0,7.9-.88,18.79,18.79,0,0,1-.33,5.44,4.09,4.09,0,0,0,4,5,4.34,4.34,0,0,0,.63-.05c8.12-1.27,11.75-8.22,13.38-14.11a18.76,18.76,0,0,0,7.83,3.73,14.78,14.78,0,0,0,2.81.27,15.56,15.56,0,0,0,9.07-3.06,4.07,4.07,0,0,0-.44-6.93l-.78-.42a18.34,18.34,0,0,0,5.7-6,4.1,4.1,0,0,0-2.33-6l-1.11-.32a38.83,38.83,0,0,0,7.7-15.27C402.51,230.67,402.92,210.1,392.8,196Zm-69.48-30.2a3.31,3.31,0,0,0-.81.2,3.94,3.94,0,0,0-.55.22,5.46,5.46,0,0,0-.57.36,4.12,4.12,0,0,0-.54.48,2.79,2.79,0,0,0-.34.43,2,2,0,0,0-.24.39,4.71,4.71,0,0,0-.3.65,3.93,3.93,0,0,0-.16.68,4.71,4.71,0,0,0-.06.74l.07,3a4.06,4.06,0,0,0,4.08,4h.1l3.33-.08a64.65,64.65,0,0,1-9.85,3l-16-4.46v-.35a95.41,95.41,0,0,0-5.74-32.73c4.26-.7,8.59-1.63,12.95-2.8a70.19,70.19,0,0,0,25.47,10.65,5.06,5.06,0,0,0,.68.05,3.93,3.93,0,0,0,1.45-.27l7.63,3.35c1.13,1.14,3.68,3.67,6.14,5.95a11.69,11.69,0,0,0-3.49.16,11.52,11.52,0,0,0-7,4.31Zm-82.06-94L239,74a3.48,3.48,0,0,0-.45.55,4.19,4.19,0,0,0-.31.5h0a3.89,3.89,0,0,0-.31.84,4.37,4.37,0,0,0-.11.63h0a3.94,3.94,0,0,0,0,.91,4.83,4.83,0,0,0,.14.66,4,4,0,0,0,.29.69,3.84,3.84,0,0,0,.39.62l1.82,2.33a4.1,4.1,0,0,0,2.79,1.55l.43,0a4.17,4.17,0,0,0,2.52-.86l11.41-8.93c1.74,2.38,8.06,11.6,9.63,22.1a23.84,23.84,0,0,0,1.32,5.83l-.63.76A95.73,95.73,0,0,0,205.32,78.9c-1.4,0-2.83,0-4.26.1l.16-3.31a36.8,36.8,0,0,0,4-3,66.25,66.25,0,0,0,8.91.58A82.43,82.43,0,0,0,228,72.11a4.09,4.09,0,0,0,1.67-.72A11.14,11.14,0,0,0,231,70.25l1.72-.2c1.31.36,3.81,1,6.07,1.5A10.53,10.53,0,0,0,241.26,71.81Zm5.89,195.28a37.2,37.2,0,0,0-6.38-1.57l-.53-.88c2.76-1.08,5.48-2.29,8.13-3.63l4.1,4.28Zm-118-172.82a4.11,4.11,0,0,0-1.73-2.85,9.7,9.7,0,0,0,2.78.58l8.7,9.2a3.72,3.72,0,0,0,.77.63,3.12,3.12,0,0,0,.53.3,3.94,3.94,0,0,0,2.08.34,96.24,96.24,0,0,0-20.52,25.06L120.2,124A41.33,41.33,0,0,0,119,116.5,26,26,0,0,0,129.14,94.27Zm17.84.24-5.19-6.78a75.42,75.42,0,0,0,15.29-6.46A36.7,36.7,0,0,0,163.37,83l2.18,4.49a95.94,95.94,0,0,0-17.9,10.61,4.13,4.13,0,0,0,.13-.61A4.05,4.05,0,0,0,147,94.51Zm-20.91-3.68a4.15,4.15,0,0,0-4.23,1.48,6.37,6.37,0,0,1-5.73,2.55l-.88-8.57c.41-1.49,1.31-4.75,2.07-7.93L120.75,82A10,10,0,0,0,124,89.34,10.13,10.13,0,0,0,126.07,90.83ZM81,212a11.56,11.56,0,0,0,6.28-5.23l15.85-4.35a3.35,3.35,0,0,0,.72-.28,3.53,3.53,0,0,0,.6-.36,4.57,4.57,0,0,0,.56-.49,4.05,4.05,0,0,0,.47-.6,4.47,4.47,0,0,0,.35-.69,3.58,3.58,0,0,0,.23-.77,4,4,0,0,0,.07-.69,4.28,4.28,0,0,0,0-.72l-.48-2.92a4.06,4.06,0,0,0-4-3.42,4.89,4.89,0,0,0-.66.05l-8.21,1.36a47.57,47.57,0,0,1,10.19-11.51,22,22,0,0,0,2-1.57l4.45.42a96.13,96.13,0,0,0,11.62,40.84l-16,7.61c-9.57-4.6-16.7-8.43-18.51-9.73a4.34,4.34,0,0,0-1-1,4,4,0,0,0-4-.46,17.87,17.87,0,0,0-3.45,2l-.39-.16c-1.18-1.17-4.13-4.05-6.84-6.46a16,16,0,0,0-1.42-1.13l2-.56A11.66,11.66,0,0,0,81,212Zm58.58,103.68a11,11,0,0,0-2.9-7.79c.13-.3.26-.59.38-.9a11.62,11.62,0,0,0,3.32,4.08Z"/><path class="cls-2" d="M128.62,153.65,111,113.06l-16.72,52-9.76,8.75-12,18.94s4.14,7.31,11.74,7.1c0,0,5.32-13.33,16.18-21.78a17.58,17.58,0,0,0,2.89-2.48l18,1.71Z"/><path class="cls-1" d="M84,200.32c-7.57,0-11.64-7-11.81-7.33a.49.49,0,0,1,0-.47l12-18.94a.39.39,0,0,1,.08-.1l9.68-8.67,16.68-51.89a.45.45,0,0,1,.41-.31.49.49,0,0,1,.44.27L129,153.47a.47.47,0,0,1,0,.31l-7.18,23.67a.45.45,0,0,1-.47.31l-17.83-1.69a17.78,17.78,0,0,1-2.82,2.39c-10.61,8.26-16,21.43-16,21.57a.46.46,0,0,1-.41.28Zm-10.88-7.55c.76,1.19,4.58,6.64,10.88,6.64h0c.85-2,6.25-13.94,16.22-21.69a19.2,19.2,0,0,0,2.84-2.43.46.46,0,0,1,.37-.14l17.67,1.68,7-23.15-17-39.33L94.74,165.21a.41.41,0,0,1-.13.19l-9.72,8.71L73.11,192.77Z"/><polyline class="cls-3" points="165.53 78.16 175.44 98.51 196.2 94.03 197.37 71.13"/><path class="cls-1" d="M175.44,99a.46.46,0,0,1-.41-.26l-9.91-20.35a.46.46,0,0,1,.21-.61.45.45,0,0,1,.61.21l9.76,20,20.07-4.33,1.15-22.55a.43.43,0,0,1,.47-.43.44.44,0,0,1,.43.47l-1.17,22.9a.46.46,0,0,1-.35.42L175.54,99Z"/><path class="cls-4" d="M330.74,143.07l15.52,6.8s3.78,3.85,7.17,6.95,6.76,2.69,8.34-1.37S352,145.8,352,145.8a6.89,6.89,0,0,1,2.12-2c1.77-1.27,1.19-1.66-.33-2.79s-6.05,2.58-6.05,2.58L335,136"/><path class="cls-1" d="M357.74,159.31a7.09,7.09,0,0,1-4.61-2.16c-3.13-2.86-6.62-6.39-7.13-6.9l-15.44-6.77a.45.45,0,1,1,.36-.83l15.53,6.81a.42.42,0,0,1,.14.09s3.8,3.88,7.15,6.93c1.66,1.52,3.34,2.17,4.72,1.85a4.43,4.43,0,0,0,2.88-3.05c1.17-3-6.47-7.57-9.52-9.07a.46.46,0,0,1-.21-.61,7.28,7.28,0,0,1,2.27-2.14c.81-.58.9-.83.9-.91s-.58-.66-1.14-1.08l-.1-.07c-.86-.64-3.72,1.12-5.49,2.57a.44.44,0,0,1-.52,0l-12.76-7.61a.44.44,0,0,1-.16-.62.45.45,0,0,1,.62-.15l12.49,7.44c1.19-.94,4.79-3.58,6.36-2.4l.1.08c.91.68,1.51,1.13,1.5,1.8,0,.52-.37,1-1.28,1.65a9.9,9.9,0,0,0-1.69,1.44c2.39,1.23,11,6,9.48,10-.77,2-2,3.24-3.53,3.6a4,4,0,0,1-.92.1Z"/><path class="cls-5" d="M339,134.48l-18-8.49-15.77-2-16.56-14.45-5.68-26.1L272.36,63.65s-8.4,0-12,6.7c0,0,9,11.21,11,24.83a20.8,20.8,0,0,0,1.94,7l-8.47,10.27,11.35,27.14s13.09,1.24,33.29-4.48a65.74,65.74,0,0,0,25.37,11.07Z"/><path class="cls-1" d="M334.83,146.6h-.08a66.81,66.81,0,0,1-25.38-11,111.92,111.92,0,0,1-29.78,4.56c-2.22,0-3.41-.11-3.46-.12a.45.45,0,0,1-.38-.27L264.4,112.59a.45.45,0,0,1,.07-.47l8.29-10.05a20.52,20.52,0,0,1-1.86-6.87C269,81.9,260.13,70.75,260,70.64a.48.48,0,0,1-.05-.5c3.65-6.87,12-7,12.37-7a.47.47,0,0,1,.4.24l10.57,19.76a.56.56,0,0,1,0,.12l5.65,26,16.34,14.26,15.64,2a.28.28,0,0,1,.13,0l18,8.49a.47.47,0,0,1,.24.57l-4.16,11.65a.45.45,0,0,1-.42.31Zm-25.37-12a.44.44,0,0,1,.27.09,66.21,66.21,0,0,0,24.8,10.93l3.88-10.91-17.6-8.29-15.7-2a.41.41,0,0,1-.24-.11l-16.55-14.45a.41.41,0,0,1-.15-.24l-5.67-26L272.09,64.11c-1.41.07-8,.71-11.15,6.2,1.3,1.71,9,12.31,10.86,24.81a20.37,20.37,0,0,0,1.9,6.83.46.46,0,0,1-.06.48l-8.3,10.06,11.14,26.63c2,.14,14.4.74,32.86-4.49l.12,0Z"/><polyline class="cls-6" points="209.15 280.34 209.97 253.06 225.8 248.81 241.08 273.86"/><path class="cls-1" d="M209.15,280.79h0a.44.44,0,0,1-.44-.46l.82-27.28a.45.45,0,0,1,.33-.43l15.83-4.25a.47.47,0,0,1,.51.2l15.27,25.05a.45.45,0,0,1-.15.62.44.44,0,0,1-.62-.15l-15.1-24.76-15.18,4.08-.8,26.94a.45.45,0,0,1-.46.44Z"/><path class="cls-4" d="M90.91,229.38l-15.6-6.63s-3.81-3.8-7.25-6.87-6.79-2.61-8.31,1.47,9.85,9.54,9.85,9.54a7.07,7.07,0,0,1-2.1,2c-1.76,1.29-1.17,1.67.36,2.79s6-2.66,6-2.66l12.85,7.47"/><path class="cls-1" d="M86.73,236.94a.39.39,0,0,1-.23-.07l-12.57-7.31c-1.18,1-4.75,3.64-6.34,2.47L67.5,232c-.92-.67-1.53-1.11-1.53-1.79,0-.52.37-1,1.26-1.65a9.94,9.94,0,0,0,1.68-1.47c-2.4-1.2-11.08-5.88-9.59-9.86.75-2,2-3.26,3.49-3.64s3.65.29,5.55,2c3.17,2.83,6.7,6.32,7.21,6.83L91.09,229a.45.45,0,0,1,.24.59.46.46,0,0,1-.6.24l-15.6-6.63a.71.71,0,0,1-.14-.1s-3.84-3.83-7.23-6.85c-1.67-1.49-3.35-2.13-4.74-1.79a4.47,4.47,0,0,0-2.85,3.08c-1.13,3,6.56,7.5,9.62,9a.44.44,0,0,1,.22.6,7.27,7.27,0,0,1-2.24,2.17c-.81.59-.89.84-.89.92s.59.65,1.15,1.06l.1.07c.84.62,3.76-1.2,5.46-2.63a.45.45,0,0,1,.52,0L87,236.09a.45.45,0,0,1-.22.85Z"/><path class="cls-7" d="M113.67,255.38s-11-9-19.07-13.62-18.75-9-18.75-9c-1.44-8,7.19-11.49,7.19-11.49-.11,1.53,21.92,12,21.92,12l34.78-16.57,17.84,19.82L140.39,265.4s-.79,16.2,6.34,28c0,0-1.25,6-6.43,6.06L134.65,293Z"/><path class="cls-1" d="M140.3,300a.44.44,0,0,1-.34-.16l-5.65-6.46-21-37.66c-.93-.75-11.33-9.2-18.94-13.51-7.94-4.5-18.59-9-18.69-9a.42.42,0,0,1-.27-.33c-1.49-8.24,7.37-12,7.46-12a.46.46,0,0,1,.44.05.48.48,0,0,1,.18.32C84.16,222.37,95,228,105,232.73l34.58-16.48a.48.48,0,0,1,.54.11l17.83,19.82a.44.44,0,0,1,.06.53l-17.13,28.82c-.05,1.45-.39,16.6,6.28,27.67a.44.44,0,0,1,.06.32c0,.07-1.39,6.33-6.87,6.43Zm-64-67.55c1.6.68,11.22,4.82,18.56,9,8,4.53,19,13.56,19.13,13.66a.28.28,0,0,1,.11.13l21,37.65L140.5,299c4.13-.21,5.51-4.61,5.75-5.53-7-11.8-6.32-28-6.31-28.12a.39.39,0,0,1,.06-.21l17-28.63-17.39-19.32-34.48,16.42a.48.48,0,0,1-.39,0c-9.16-4.35-19.88-9.72-21.85-11.86-1.49.7-7.68,4-6.65,10.62Z"/><path class="cls-8" d="M78,325.11s.23,10.65,8.26,12.22l-.36-1.86s6.35,6.53,17.47-.46,15.26-6.08,16.78-10.27l-.94-6S89,334.2,78,325.11Z"/><path class="cls-1" d="M93.51,338.69a12.13,12.13,0,0,1-7-2.08l.13.64a.42.42,0,0,1-.13.4.43.43,0,0,1-.4.13c-8.3-1.63-8.63-12.55-8.63-12.66a.44.44,0,0,1,.25-.41.44.44,0,0,1,.49.06c2.22,1.82,5.44,2.75,9.59,2.75,13,0,30.94-9.12,31.12-9.21a.43.43,0,0,1,.41,0,.47.47,0,0,1,.25.33l.93,6a.34.34,0,0,1,0,.22c-.92,2.54-2.75,3.35-6.08,4.81a75.6,75.6,0,0,0-10.88,5.69,19.07,19.07,0,0,1-10.07,3.3ZM85.87,335a.47.47,0,0,1,.33.14,10.78,10.78,0,0,0,7.31,2.63,18.23,18.23,0,0,0,9.59-3.17,76.73,76.73,0,0,1,11-5.75c3.24-1.43,4.75-2.09,5.55-4.18l-.82-5.3c-3.17,1.55-19,9-31,9-3.88,0-7-.79-9.35-2.35.28,2.51,1.54,9.09,7.15,10.66l-.22-1.17a.46.46,0,0,1,.23-.49.54.54,0,0,1,.21-.05Z"/><path class="cls-4" d="M120.19,315.51s-6.26,16.24,3.87,13.73,17-17.77,5.22-21Z"/><path class="cls-1" d="M122.13,330h0a3.8,3.8,0,0,1-3.36-1.61c-2.54-3.7.85-12.62,1-13a.52.52,0,0,1,.14-.19l9.09-7.29a.44.44,0,0,1,.4-.08c4.26,1.17,6.58,4,6.53,7.93-.08,5.9-5.57,12.43-11.76,14a8.8,8.8,0,0,1-2,.28Zm-1.56-14.17c-.38,1-3.18,8.94-1,12a2.93,2.93,0,0,0,2.61,1.21h0a7.46,7.46,0,0,0,1.82-.25c5.83-1.44,11-7.56,11.07-13.09,0-3.42-2-5.9-5.64-7l-8.81,7.07Z"/><path class="cls-1" d="M126.48,324.92a2.43,2.43,0,0,1-1.48-.48c-3-2.18-1.84-11.37-1.79-11.76a.45.45,0,1,1,.9.11c-.32,2.51-.67,9.37,1.43,10.92a2,2,0,0,0,2.12,0,.47.47,0,0,1,.6.23.45.45,0,0,1-.23.6,3.76,3.76,0,0,1-1.55.37Z"/><path class="cls-4" d="M65.78,247.64s-17.21,2.57-12.56-6.77,21-12.73,21.65-.52Z"/><path class="cls-1" d="M61,248.41c-4.51,0-7.38-.92-8.51-2.75-.8-1.29-.69-3,.32-5a16.62,16.62,0,0,1,14-8.66c5.06,0,8.24,3.11,8.5,8.32a.45.45,0,0,1-.17.37L66.06,248a.43.43,0,0,1-.22.09,34.79,34.79,0,0,1-4.83.33Zm5.81-15.49a15.66,15.66,0,0,0-13.19,8.15c-.86,1.73-1,3.11-.36,4.11,1.19,1.92,4.87,2.33,7.74,2.33a35.18,35.18,0,0,0,4.58-.31l8.81-7.06c-.31-4.59-3.06-7.22-7.58-7.22Z"/><path class="cls-1" d="M69.24,245.31h0c-.39,0-9.6-1-11.09-4.31a2.87,2.87,0,0,1,.55-3,.44.44,0,0,1,.63-.1.46.46,0,0,1,.1.64,2,2,0,0,0-.45,2.07c1.06,2.38,7.83,3.53,10.35,3.78a.44.44,0,0,1,.4.49.45.45,0,0,1-.45.41Z"/><path class="cls-4" d="M121.63,320.55c-20.71,16.6-47.65,10.91-64.36-9.94s-16.9-49,3.81-65.59,44.09-7.58,60.82,13.28S142.34,304,121.63,320.55Z"/><path class="cls-1" d="M95,330.68c-14.12,0-28-7.21-38.09-19.79-8.35-10.42-12.69-22.74-12.23-34.69a42.05,42.05,0,0,1,16.11-31.54C68,238.88,75.79,236,84,236c13.29,0,26.9,7.84,38.3,22.06,18.85,23.52,18.72,47.62-.34,62.89A42.76,42.76,0,0,1,95,330.68ZM84,236.86c-8,0-15.55,2.86-22.59,8.51-19.69,15.78-21.26,43.1-3.74,64.95,9.91,12.37,23.53,19.46,37.38,19.46a41.9,41.9,0,0,0,26.34-9.58c22.26-17.85,14.7-43.53.2-61.62C110.31,244.57,97,236.86,84,236.86Z"/><path class="cls-4" d="M93.8,275.17c1.3-1,3.59-.32,5.13,1.6s1.74,4.32.45,5.35-3.59.32-5.13-1.6S92.51,276.2,93.8,275.17Z"/><path class="cls-1" d="M97.94,283.05a5.52,5.52,0,0,1-4-2.25,6.18,6.18,0,0,1-1.39-3.25,3.06,3.06,0,0,1,1-2.74,2.77,2.77,0,0,1,1.73-.57,5.52,5.52,0,0,1,4,2.25,6.09,6.09,0,0,1,1.38,3.25,3,3,0,0,1-1,2.73,2.72,2.72,0,0,1-1.73.58Zm-2.69-7.91a1.8,1.8,0,0,0-1.16.38,2.16,2.16,0,0,0-.67,2,5.17,5.17,0,0,0,1.19,2.77,4.63,4.63,0,0,0,3.33,1.9,1.79,1.79,0,0,0,1.16-.37,2.2,2.2,0,0,0,.67-2,5.26,5.26,0,0,0-1.19-2.76,4.66,4.66,0,0,0-3.33-1.91Z"/><path class="cls-1" d="M95.2,301.62a5.12,5.12,0,0,0,6.26-1.46,4.88,4.88,0,0,1-.39,1.21,5.13,5.13,0,0,1-9.24-4.46,4.45,4.45,0,0,1,.59-.93A5.12,5.12,0,0,0,95.2,301.62Z"/><path class="cls-1" d="M74.41,274.51a5.14,5.14,0,0,1,3.69-5.27,5.28,5.28,0,0,0-1.26-.09,5.13,5.13,0,0,0,.69,10.24,4.38,4.38,0,0,0,1.09-.2A5.13,5.13,0,0,1,74.41,274.51Z"/><path class="cls-9" d="M109.45,291.7c2.54-2.17,7.73.18,11.61,5.24s5,10.92,2.42,13.08-7.73-.18-11.6-5.24S106.92,293.86,109.45,291.7Z"/><path class="cls-9" d="M71.54,245.54c2.53-2.17,7.72.18,11.6,5.24s5,10.92,2.42,13.08-7.73-.18-11.6-5.24S69,247.7,71.54,245.54Z"/><path class="cls-1" d="M68.53,287.3a.53.53,0,0,1-.2-.05c-.11-.05-11.15-5.77-6-19.43a.45.45,0,1,1,.84.32c-4.88,12.9,5.43,18.25,5.54,18.3a.46.46,0,0,1,.2.61.45.45,0,0,1-.41.25Z"/><path class="cls-1" d="M97,315.25A14.52,14.52,0,0,1,82.52,305a.46.46,0,0,1,.33-.55.46.46,0,0,1,.55.33c.12.47,3,11.34,16.66,9.39a.45.45,0,0,1,.51.38.44.44,0,0,1-.38.51,22.1,22.1,0,0,1-3.24.24Z"/><path class="cls-1" d="M106.74,281.25a.93.93,0,0,1-.71-.34.92.92,0,0,1,.14-1.28c1.68-1.34,1.16-4.88-1.12-7.73s-5.62-4.12-7.3-2.78a.9.9,0,0,1-1.13-1.41c2.52-2,6.85-.68,9.85,3.06s3.36,8.25.84,10.28a.94.94,0,0,1-.57.2Z"/><path class="cls-1" d="M107,284.64a6.34,6.34,0,0,1-4-1.25.45.45,0,1,1,.59-.68h0c.12.09,2.86,2.35,8-.15a.46.46,0,1,1,.4.82,11.2,11.2,0,0,1-4.9,1.26Z"/><path class="cls-8" d="M79.42,327.26s-5.61,8.11-13.94,4.65l1.16-.79s-15.28-3.76-24.25-20.56-10.62-16-10.62-16,1.66-4.37,5.82.5c0,0-2.52-7.14-.28-9.9l2.75,4.07a7.09,7.09,0,0,1,.85-9.12l2.84,6.07a14.34,14.34,0,0,1,7.46-10.41s-5,16.73,1.85,25.9a3.3,3.3,0,0,1,1.58-4.54s2.55,11,12.22,16.09c0,0-.43-1,1.52-2.34S74.58,325.69,79.42,327.26Z"/><path class="cls-1" d="M69.61,333.22a11.28,11.28,0,0,1-4.31-.89A.45.45,0,0,1,65,332a.47.47,0,0,1,.19-.42l.38-.25A42.94,42.94,0,0,1,42,310.77c-7.67-14.34-9.86-15.61-10.18-15.72a.47.47,0,0,1-.34-.11.45.45,0,0,1-.12-.5c0-.09.81-2.1,2.69-2.1a4.18,4.18,0,0,1,2.6,1.16c-.62-2.37-1.36-6.52.31-8.58a.44.44,0,0,1,.38-.17.46.46,0,0,1,.35.2l.69,1a7.47,7.47,0,0,1,2.21-6.13.47.47,0,0,1,.4-.14.44.44,0,0,1,.34.26l2.26,4.81A14.73,14.73,0,0,1,51,275.41a.46.46,0,0,1,.5,0,.48.48,0,0,1,.15.49c0,.15-4.22,14.53.63,23.66a3.7,3.7,0,0,1,2.16-2.83.43.43,0,0,1,.4,0,.42.42,0,0,1,.25.31c0,.1,2.51,10.34,11.35,15.44a3.85,3.85,0,0,1,1.69-2,.88.88,0,0,1,.49-.15c1.1,0,2.06,2,4,6,2,4.28,4.48,9.61,7,10.42a.52.52,0,0,1,.29.29.47.47,0,0,1-.06.4c-.16.24-4,5.71-10.18,5.71Zm-3.15-1.43a10,10,0,0,0,3.15.52c4.71,0,8-3.59,9.09-4.87-2.64-1.39-4.93-6.3-7-10.65-1.07-2.29-2.53-5.42-3.13-5.49-1.54,1.05-1.33,1.8-1.33,1.8a.47.47,0,0,1-.14.5.44.44,0,0,1-.49.06c-8.43-4.46-11.58-13.4-12.29-15.79a2.78,2.78,0,0,0-.9,3.63.45.45,0,0,1-.16.59.46.46,0,0,1-.61-.11c-5.95-8-3.19-21.33-2.21-25.23a14,14,0,0,0-6.28,9.52.46.46,0,0,1-.37.4.46.46,0,0,1-.49-.26L40.8,281a6.54,6.54,0,0,0-.49,7.87l.12.18a.45.45,0,0,1-.74.52l-.14-.21L37.32,286c-1.42,2.84.68,8.86.7,8.92a.46.46,0,0,1-.2.55.45.45,0,0,1-.57-.1c-1.2-1.41-2.31-2.15-3.21-2.15a2,2,0,0,0-1.64,1.1c1.8,1.13,5.43,6.71,10.39,16a41.43,41.43,0,0,0,24,20.33.46.46,0,0,1,.15.82l-.44.29Z"/><path class="cls-8" d="M383,85a17.65,17.65,0,1,1-3.49-24.72A17.66,17.66,0,0,1,383,85Z"/><path class="cls-1" d="M368.84,92.46a18.09,18.09,0,1,1,14.48-7.21,18,18,0,0,1-14.48,7.21Zm0-35.31a17.23,17.23,0,1,0,10.33,3.47,17.06,17.06,0,0,0-10.33-3.47Z"/><path class="cls-4" d="M347.53,121.36s15.28-5,12.49,4.22-17.2,14.86-19.65,3.83Z"/><path class="cls-1" d="M347.32,135.94c-3.79,0-6.48-2.34-7.39-6.43a.48.48,0,0,1,.1-.4l7.16-8.05a.39.39,0,0,1,.2-.13,29.34,29.34,0,0,1,7.86-1.38c2.38,0,4,.59,4.88,1.75s.89,2.53.32,4.41c-1.68,5.55-7.69,10.23-13.13,10.23Zm-6.45-6.4c.86,3.54,3.14,5.49,6.45,5.49,5.07,0,10.69-4.38,12.26-9.58.48-1.59.42-2.81-.18-3.61s-2.07-1.38-4.15-1.38a28.56,28.56,0,0,0-7.47,1.3l-6.91,7.78Z"/><path class="cls-1" d="M355.13,129.29a.46.46,0,0,1-.2,0,.44.44,0,0,1-.2-.61,1.82,1.82,0,0,0,.08-1.93c-1.32-2-7.65-2-10-1.82a.43.43,0,0,1-.48-.42.45.45,0,0,1,.42-.48c.91-.07,9-.57,10.8,2.22a2.67,2.67,0,0,1,0,2.84.43.43,0,0,1-.4.25Z"/><path class="cls-4" d="M287.43,67.94s3.18-15.76-5.66-11.9S269,74.86,280.28,76Z"/><path class="cls-1" d="M280.28,76.45h0c-4.08-.41-6.64-2.63-7.21-6.24-.85-5.41,3.16-12.22,8.57-14.58,2.38-1,4.21-.81,5.38.62,2.61,3.18,1,11.44.91,11.79a.65.65,0,0,1-.11.22l-7.15,8a.46.46,0,0,1-.34.16Zm4-20.57a5.85,5.85,0,0,0-2.3.57c-5.07,2.21-8.83,8.57-8,13.61.48,3.1,2.67,5,6.17,5.45L287,67.74c.19-1,1.44-8.26-.74-10.93a2.46,2.46,0,0,0-2-.93Z"/><path class="cls-1" d="M284.7,71.46a.45.45,0,0,1-.45-.43c-.11-2.33-.85-8.62-3-9.7a1.81,1.81,0,0,0-1.9.32.45.45,0,1,1-.5-.76,2.67,2.67,0,0,1,2.81-.37c3,1.52,3.44,9.56,3.48,10.47a.46.46,0,0,1-.44.47Z"/><path class="cls-4" d="M352.11,122.92a44.74,44.74,0,0,0-66.88-59.44c-16.3,18.33-9.06,40.35,9.4,56.77S335.81,141.26,352.11,122.92Z"/><path class="cls-1" d="M327.27,135.21h0c-10.63,0-22.33-5.19-32.94-14.63-20.83-18.51-24.45-40.51-9.44-57.4a44.79,44.79,0,0,1,33.47-15,45.43,45.43,0,0,1,45.27,42.52,44.44,44.44,0,0,1-11.18,32.52c-7.07,8-15.54,12-25.18,12ZM318.36,49.1a43.9,43.9,0,0,0-32.79,14.68c-17.5,19.69-6.64,41.9,9.37,56.13,10.44,9.28,21.92,14.39,32.33,14.39,9.37,0,17.61-3.93,24.5-11.68a43.53,43.53,0,0,0,11-31.85A44.51,44.51,0,0,0,318.36,49.1Z"/><path class="cls-4" d="M311.52,95.11c-1,1.14-.46,3.29,1.24,4.81s3.91,1.81,4.92.66.47-3.3-1.23-4.81S312.54,94,311.52,95.11Z"/><path class="cls-1" d="M316,101.73h0a5.49,5.49,0,0,1-3.49-1.47,5.72,5.72,0,0,1-1.77-2.77,2.81,2.81,0,0,1,.5-2.68,2.69,2.69,0,0,1,2.07-.85,5.49,5.49,0,0,1,3.49,1.47c1.91,1.71,2.47,4.1,1.27,5.45a2.65,2.65,0,0,1-2.07.85Zm-2.69-6.87a1.84,1.84,0,0,0-1.4.55,2,2,0,0,0-.3,1.85,4.92,4.92,0,0,0,1.5,2.32,4.6,4.6,0,0,0,2.89,1.24h0a1.8,1.8,0,0,0,1.39-.54c.84-.94.29-2.85-1.19-4.17a4.61,4.61,0,0,0-2.89-1.25Z"/><path class="cls-1" d="M335.88,97.64a4.74,4.74,0,0,1-1.64,5.71,4.61,4.61,0,0,0,1.13-.3,4.74,4.74,0,0,0-3.68-8.74,4.08,4.08,0,0,0-.89.5A4.73,4.73,0,0,1,335.88,97.64Z"/><path class="cls-1" d="M311.83,77.18a4.75,4.75,0,0,0-5,3.15,5.07,5.07,0,0,1,0-1.17A4.74,4.74,0,1,1,316,81.28,4.72,4.72,0,0,0,311.83,77.18Z"/><path class="cls-9" d="M326.05,110.33c-2.12,2.24-.19,7.14,4.3,11s9.84,5.09,12,2.85.19-7.14-4.3-11S328.17,108.09,326.05,110.33Z"/><path class="cls-9" d="M285.22,73.16c-2.11,2.24-.19,7.14,4.3,11s9.84,5.1,12,2.86.19-7.14-4.3-11S287.34,70.92,285.22,73.16Z"/><path class="cls-1" d="M323.5,72.78a.46.46,0,0,1-.42-.27c-.18-.4-4.51-9.83-16.59-6a.45.45,0,0,1-.28-.86c12.89-4.14,17.65,6.34,17.7,6.45a.44.44,0,0,1-.23.59.39.39,0,0,1-.18,0Z"/><path class="cls-1" d="M347.6,103.25h-.09a.45.45,0,0,1-.36-.53C349.6,90.22,339.4,87,339.3,86.93a.45.45,0,0,1,.26-.87c.11,0,11.08,3.54,8.48,16.82a.45.45,0,0,1-.44.37Z"/><path class="cls-1" d="M313,109.28a7,7,0,0,1-1.09-.09,10.32,10.32,0,0,1-5.07-2.55,9.46,9.46,0,0,1-3.37-6.14,4.33,4.33,0,0,1,1-3.19.9.9,0,0,1,1.28-.08.92.92,0,0,1,.07,1.29,2.57,2.57,0,0,0-.55,1.87,7.75,7.75,0,0,0,2.77,4.89,8.47,8.47,0,0,0,4.15,2.12,3,3,0,0,0,2.83-.71.9.9,0,0,1,1.28-.08.92.92,0,0,1,.08,1.29,4.38,4.38,0,0,1-3.39,1.38Z"/><path class="cls-1" d="M317.89,112.41a.43.43,0,0,1-.22-.06.46.46,0,0,1-.18-.62c2.54-4.56.6-7.19.51-7.3a.45.45,0,0,1,.72-.55c.1.13,2.41,3.17-.43,8.29a.47.47,0,0,1-.4.24Z"/><path class="cls-8" d="M337.56,57.6s-10.48,11.87-7.93,19.47c0,0,6.18-11.61,12.45-13.29,0,0-2.54,37,10.7,58.5,0,0,3.16-.82,6.77-6.58,0,0,.6,2.9-.09,4,0,0,25.07-21.13,14.85-38,0,0-5.27-39-30.67-43.6s-39.1-9.35-56.16,22.18c0,0,13.34-7.72,20.7-6.8a8.88,8.88,0,0,0-5,3.7S320.8,48.87,337.56,57.6Z"/><path class="cls-1" d="M352.78,122.73a.44.44,0,0,1-.38-.22c-12.2-19.79-11.07-53-10.81-58.09-5.8,2.16-11.5,12.75-11.56,12.87a.42.42,0,0,1-.44.23.44.44,0,0,1-.39-.3c-2.35-7,5.74-17.2,7.64-19.47a35.86,35.86,0,0,0-16.19-3.69,45.07,45.07,0,0,0-17.28,3.5.46.46,0,0,1-.54-.12.44.44,0,0,1,0-.54,9.68,9.68,0,0,1,3.24-3c-7.34.48-18.22,6.73-18.33,6.8a.46.46,0,0,1-.63-.61c11.57-21.39,21.56-25.77,33-25.77,5.74,0,12,1.18,19.32,2.55l4.31.8c24.82,4.53,30.71,41.73,31,43.89,10.17,17-14.74,38.28-15,38.5a.45.45,0,0,1-.67-.6,4.64,4.64,0,0,0,.2-2.47c-3.39,5-6.26,5.74-6.38,5.77l-.12,0Zm-10.7-59.4a.53.53,0,0,1,.29.1.47.47,0,0,1,.16.38c0,.37-2.35,36.73,10.44,57.91.86-.37,3.39-1.78,6.2-6.26a.45.45,0,0,1,.46-.2.46.46,0,0,1,.37.35,12.63,12.63,0,0,1,.24,2.74c4.64-4.29,22.37-22.11,13.68-36.45a.49.49,0,0,1-.06-.17c-.05-.39-5.52-38.69-30.31-43.22l-4.3-.8c-7.25-1.36-13.5-2.53-19.16-2.53-10.88,0-20.42,4.11-31.46,23.92,3.38-1.81,12.14-6.18,18.26-6.18a9.7,9.7,0,0,1,1.35.08.45.45,0,0,1,0,.89,8.33,8.33,0,0,0-3.64,2.17,47.24,47.24,0,0,1,16-2.91,36.66,36.66,0,0,1,17.12,4.05.49.49,0,0,1,.24.32.47.47,0,0,1-.11.38c-.1.12-9.32,10.67-8.1,17.95,1.68-2.9,6.82-11.08,12.16-12.51Z"/><path class="cls-10" d="M346.39,41c5.91,3.44,8.81,9.47,6.48,13.47s-9,4.44-14.91,1S329.15,46,331.48,42,340.48,37.57,346.39,41Z"/><path class="cls-11" d="M334.64,40.86c4.26,2.48,6.35,6.83,4.67,9.71s-6.49,3.2-10.75.72-6.35-6.83-4.68-9.71S330.38,38.38,334.64,40.86Z"/><path class="cls-4" d="M221.49,67.2,233,65.91s3.55,1,6.62,1.66,4.93-.73,4.46-3.67S235,61.53,235,61.53a4.67,4.67,0,0,1,.58-1.89c.61-1.36.13-1.39-1.15-1.54s-2.69,3.6-2.69,3.6l-10.16-.13"/><path class="cls-1" d="M241.07,68.19a7.14,7.14,0,0,1-1.53-.18c-2.79-.61-6-1.49-6.57-1.64l-11.43,1.29a.46.46,0,0,1-.1-.91L233,65.46a.47.47,0,0,1,.17,0s3.58,1,6.6,1.65a3.6,3.6,0,0,0,3.29-.49,2.9,2.9,0,0,0,.63-2.66c-.29-1.85-5.43-2.2-8.6-2a.44.44,0,0,1-.48-.42,4.82,4.82,0,0,1,.62-2.11c.25-.57.22-.71.22-.73a4,4,0,0,0-.94-.16c-.63-.07-1.68,1.68-2.29,3.3a.45.45,0,0,1-.43.3L221.59,62a.45.45,0,0,1-.45-.45.48.48,0,0,1,.46-.45l9.85.13c.47-1.19,1.68-3.78,3.05-3.6.87.1,1.44.17,1.7.63a1.74,1.74,0,0,1-.19,1.54,7.27,7.27,0,0,0-.45,1.23c2.09-.09,8.53-.11,9,2.78a3.65,3.65,0,0,1-.9,3.46,3.59,3.59,0,0,1-2.57.9Z"/><path class="cls-3" d="M202.92,60.74s21.48-.25,25.43-1.6c0,0,3.72,5.41-1.12,9,0,0-15.3,2.89-27.63-.76Z"/><path class="cls-1" d="M214.17,69.64a52.36,52.36,0,0,1-14.69-1.86.44.44,0,0,1-.29-.26.46.46,0,0,1,0-.38l3.31-6.6a.46.46,0,0,1,.4-.25c.21,0,21.46-.27,25.3-1.58a.45.45,0,0,1,.52.17c0,.06,3.9,5.82-1.23,9.58a.48.48,0,0,1-.18.08,79.47,79.47,0,0,1-13.15,1.1Zm-13.92-2.58a52.27,52.27,0,0,0,13.92,1.67,79.78,79.78,0,0,0,12.88-1.06c3.76-2.84,1.75-6.9,1.1-8-4.46,1.21-22.39,1.49-25,1.52l-2.95,5.87Z"/><path class="cls-3" d="M154.89,69.23s-20,7.92-24.15,8.17c0,0-1.39,6.41,4.44,7.86,0,0,15.26-3.13,25.27-11.17Z"/><path class="cls-1" d="M135.18,85.72l-.11,0c-6.18-1.54-4.79-8.33-4.77-8.4a.45.45,0,0,1,.41-.35c4-.24,23.81-8.06,24-8.14a.45.45,0,0,1,.46.08l5.57,4.85a.45.45,0,0,1,0,.7c-10,8-25.32,11.24-25.47,11.27Zm-4.05-7.9c-.18,1.26-.5,5.78,4.06,7,1.32-.29,15.16-3.43,24.55-10.73l-4.94-4.31c-2.39.94-19.09,7.48-23.67,8.06Z"/><path class="cls-4" d="M208,46.41s4.26-11.91,8.65-5.73.94,17.85-7.09,14.06Z"/><path class="cls-1" d="M212.57,55.93a7.55,7.55,0,0,1-3.2-.78.49.49,0,0,1-.25-.33l-1.55-8.33a.37.37,0,0,1,0-.23c.11-.32,2.83-7.81,6.41-7.81a3.86,3.86,0,0,1,3,2,12.11,12.11,0,0,1,.81,12,5.89,5.89,0,0,1-5.27,3.55ZM210,54.42A5,5,0,0,0,217,52a11.34,11.34,0,0,0-.75-11A3,3,0,0,0,214,39.36c-2.4,0-4.75,5-5.52,7.09l1.49,8Z"/><path class="cls-1" d="M208.61,50a.44.44,0,0,1-.25-.08.45.45,0,0,1-.13-.63c.4-.6,4-5.86,6.67-5.68a2.19,2.19,0,0,1,1.83,1.44.45.45,0,1,1-.82.39c-.28-.59-.63-.9-1.07-.93C213,44.43,210,48.32,209,49.84a.47.47,0,0,1-.38.2Z"/><path class="cls-4" d="M145.85,58s-8.26-9.58-10.12-2.23,5.55,17,11.67,10.55Z"/><path class="cls-1" d="M143.09,68.9h0a7.17,7.17,0,0,1-5.51-3.13,12.2,12.2,0,0,1-2.29-10.1c.65-2.58,2.07-3.12,3.15-3.12,3.27,0,7.57,5,7.75,5.16a.43.43,0,0,1,.11.21l1.55,8.33a.43.43,0,0,1-.12.39,6.36,6.36,0,0,1-4.64,2.26Zm-4.65-15.44c-1.12,0-1.86.79-2.27,2.43a11.24,11.24,0,0,0,2.13,9.32A6.25,6.25,0,0,0,143.09,68a5.38,5.38,0,0,0,3.82-1.81l-1.48-8c-.59-.66-4.35-4.75-7-4.75Z"/><path class="cls-1" d="M146.44,61.63a.42.42,0,0,1-.26-.08c-1.48-1-5.71-3.6-7.36-2.82a1.34,1.34,0,0,0-.67,1.26.45.45,0,0,1-.49.42.47.47,0,0,1-.42-.49,2.2,2.2,0,0,1,1.19-2c2.43-1.15,7.69,2.48,8.28,2.9a.46.46,0,0,1,.11.63.45.45,0,0,1-.38.19Z"/><path class="cls-4" d="M211.19,44.32A35.18,35.18,0,0,0,142,57.22c3.54,19,20.7,25.08,39.8,21.52S214.73,63.28,211.19,44.32Z"/><path class="cls-1" d="M171.83,80.16h0c-16.52,0-27.55-8.33-30.26-22.86a35,35,0,0,1,5.68-26.51A35.55,35.55,0,0,1,170.12,16a36.81,36.81,0,0,1,6.62-.61,35.45,35.45,0,0,1,34.9,28.86c1.69,9.06-.49,17.14-6.31,23.39-5.32,5.7-13.42,9.7-23.42,11.57a55.67,55.67,0,0,1-10.08,1Zm4.91-63.88a35.22,35.22,0,0,0-6.46.6A34.62,34.62,0,0,0,148,31.31a34.17,34.17,0,0,0-5.53,25.83c2.63,14,13.33,22.11,29.37,22.11h0a54.68,54.68,0,0,0,9.91-1c9.81-1.83,17.74-5.74,22.93-11.3,5.61-6,7.71-13.84,6.08-22.6a34.54,34.54,0,0,0-34-28.12Z"/><path class="cls-4" d="M174.35,56.13c.22,1.18,1.82,1.87,3.58,1.55s3-1.56,2.79-2.74-1.83-1.88-3.59-1.55S174.12,54.94,174.35,56.13Z"/><path class="cls-1" d="M177.06,58.21h0c-1.64,0-2.94-.82-3.16-2a2.33,2.33,0,0,1,.78-2.1,4.7,4.7,0,0,1,2.37-1.17,5,5,0,0,1,.95-.09c1.64,0,2.94.83,3.16,2,.27,1.45-1.11,2.88-3.15,3.26a5,5,0,0,1-.95.09Zm.94-4.45a4.32,4.32,0,0,0-.79.08,3.73,3.73,0,0,0-1.9.92,1.46,1.46,0,0,0-.52,1.28c.14.75,1.07,1.26,2.27,1.26h0a4.29,4.29,0,0,0,.79-.07c1.48-.28,2.59-1.29,2.42-2.21-.14-.73-1.09-1.26-2.27-1.26Z"/><path class="cls-1" d="M160.52,49.23a3.73,3.73,0,1,0,3-4.35A3.73,3.73,0,0,0,160.52,49.23Z"/><path class="cls-1" d="M184.06,44.83a3.73,3.73,0,1,0,3-4.35A3.73,3.73,0,0,0,184.06,44.83Z"/><path class="cls-1" d="M153.85,45.83a.41.41,0,0,1-.16,0,.44.44,0,0,1-.27-.58c3.66-10.08,12.57-8,12.65-7.95a.45.45,0,0,1,.33.55.46.46,0,0,1-.55.33c-.33-.08-8.2-1.92-11.58,7.38a.46.46,0,0,1-.42.3Z"/><path class="cls-1" d="M196.51,37.87a.45.45,0,0,1-.34-.15C189.65,30.24,183,34.81,182.71,35a.46.46,0,1,1-.53-.75c.08,0,7.62-5.22,14.67,2.86a.45.45,0,0,1,0,.64.48.48,0,0,1-.3.11Z"/><path class="cls-1" d="M177.28,65.36c-3.23,0-5.81-1.5-6.25-3.83a.9.9,0,0,1,.73-1.06.89.89,0,0,1,1.05.72c.33,1.75,3.16,2.75,6.19,2.19s5.3-2.52,5-4.27a.91.91,0,1,1,1.79-.33c.52,2.81-2.3,5.61-6.43,6.38a11.29,11.29,0,0,1-2.05.2Z"/><path class="cls-9" d="M193.45,51a4.34,4.34,0,1,0,3.05-5.35A4.35,4.35,0,0,0,193.45,51Z"/><path class="cls-9" d="M151.84,58.7a4.34,4.34,0,1,0,3-5.35A4.35,4.35,0,0,0,151.84,58.7Z"/><path class="cls-12" d="M161.31,48.86a1.44,1.44,0,1,0,1.16-1.68A1.45,1.45,0,0,0,161.31,48.86Z"/><path class="cls-12" d="M184.46,44.54a1.44,1.44,0,1,0,1.15-1.68A1.45,1.45,0,0,0,184.46,44.54Z"/><path class="cls-13" d="M213.11,36.87c.13,4.38-3.67,10-3.67,10a24.53,24.53,0,0,0-2.11-7.77,36.52,36.52,0,0,1-.34,6.17c-1.62-6.82-6.91-13.91-6.91-13.91.55,3.55.1,11.28.1,11.28-1.78-7.75-8-12.74-8-12.74a6.89,6.89,0,0,1-.35,5.34c-.83-3.06-4.47-6.51-4.47-6.51.81,2.35-2.92,8.33-2.92,8.33-.15-2.61-4.82-8.34-4.82-8.34.93,1.65-2.31,7.53-2.31,7.53.44-2.24-3.87-7.91-3.87-7.91-1.3,1.42-.15,11.76-.15,11.76-6.08-5.33-5.71-14.21-5.71-14.21s-11,6.82-8.54,18.08c0,0-4.05-8.81-2.78-15.66,0,0-5.53,7.38-3.37,13.7a12,12,0,0,1-4.33-6.9s-5.4,7.07-1.06,14.12c0,0-3.07-2-4.34-7.05,0,0-.32,6.2-3.63,9.21,0,0-2.76-4.38-1.18-11.44,0,0-2.9,5.23-2.45,6.88a15,15,0,0,1,3.77-14.9s-7.35-2.35-6.49-6.59c0,0,4.75,2.47,7.58,1.53,0,0-8.3-5.55-1.78-15.24,0,0-.35,6.64,3.43,7.65,0,0-.35-11.67,7.26-15.18,0,0-1.72,5.82.6,7.66,0,0,38.68-17.11,48.39,1.45,0,0,1-5.42-2.23-6.6,0,0,5,1.23,3.92,7.75,0,0,1.71-.84,4.79,3.06l-2.2.39s3.64-1,8.59,10L207,27.47S212.88,29.18,213.11,36.87Z"/><path class="cls-1" d="M139.57,51.83h-.06a.45.45,0,0,1-.33-.2,15.33,15.33,0,0,1-1.67-8.91c-.73,1.63-1.32,3.3-1.13,4a.46.46,0,0,1-.87.27c0-.09-2.76-8.27,3.39-14.86-1.88-.73-6.9-3.05-6.12-6.87a.46.46,0,0,1,.65-.31,15.86,15.86,0,0,0,5.89,1.69l.43,0a11,11,0,0,1-3.5-5.93c-.58-2.95.23-6.08,2.4-9.31a.44.44,0,0,1,.52-.17.45.45,0,0,1,.31.45c0,.06-.26,5.56,2.51,7,0-2.59.71-11.79,7.53-14.94a.49.49,0,0,1,.49.07.46.46,0,0,1,.14.47c-.44,1.48-1.2,5.49.25,7,2.2-.93,17.23-7.11,30.25-7.11,8.5,0,14.46,2.57,17.74,7.66.06-1.58-.18-4-2.07-4.73a.46.46,0,0,1-.28-.56.45.45,0,0,1,.54-.31s5.11,1.33,4.35,7.66c.95,0,2.5.65,4.6,3.3a.45.45,0,0,1-.27.73l-.21,0c1.67,1,4.1,3.46,6.93,9.74a.44.44,0,0,1,0,.44.5.5,0,0,1-.41.2l-2.35-.18c1.83,1.26,4.24,3.85,4.38,8.78.13,4.48-3.58,10-3.74,10.25a.46.46,0,0,1-.83-.24,19.84,19.84,0,0,0-1.19-5.4c-.09,1.89-.35,3.73-.36,3.84a.45.45,0,0,1-.43.39.45.45,0,0,1-.46-.34c-1.15-4.86-4.24-9.92-5.84-12.32a91.69,91.69,0,0,1-.08,9.6.45.45,0,0,1-.41.43.44.44,0,0,1-.48-.35A24.68,24.68,0,0,0,193,31.25a7.59,7.59,0,0,1-.76,4.19.46.46,0,0,1-.84-.1,15.33,15.33,0,0,0-3.49-5.42c-.25,2.75-2.74,6.83-3.07,7.36a.45.45,0,0,1-.84-.21c-.1-1.64-2.3-4.9-3.81-6.91a22.9,22.9,0,0,1-2.48,6.29.45.45,0,0,1-.55.21.47.47,0,0,1-.29-.52c.3-1.48-2-5.09-3.34-6.94-.47,1.85-.19,7.15.22,10.83a.47.47,0,0,1-.24.45.45.45,0,0,1-.51-.06c-5.11-4.47-5.79-11.26-5.86-13.68-2.33,1.72-9.62,8-7.65,17.12a.45.45,0,0,1-.3.52.45.45,0,0,1-.56-.24c-.15-.33-3.39-7.48-3-14-1.44,2.48-3.73,7.38-2.27,11.68a.45.45,0,0,1-.16.51.45.45,0,0,1-.53,0,12.61,12.61,0,0,1-4.25-6.14c-1.22,2.05-3.75,7.45-.48,12.75a.45.45,0,0,1-.63.62,11.3,11.3,0,0,1-3.91-5.33c-.38,2.14-1.31,5.44-3.52,7.45a.42.42,0,0,1-.3.12Zm-1.18-12.35a.41.41,0,0,1,.16,0,.45.45,0,0,1,.29.52,16.44,16.44,0,0,0,.84,10.59c2.75-3,3.06-8.43,3.07-8.48a.44.44,0,0,1,.41-.43.43.43,0,0,1,.48.34A13.34,13.34,0,0,0,146,47.1c-2.21-6.39,2.15-12.22,2.2-12.29a.45.45,0,0,1,.47-.16.44.44,0,0,1,.34.36,11.11,11.11,0,0,0,3.07,5.65c-1.05-6.06,3.6-12.36,3.82-12.64a.45.45,0,0,1,.54-.15.48.48,0,0,1,.27.5c-.77,4.15.47,9.09,1.53,12.24.1-9.4,9-15.06,9.1-15.12a.45.45,0,0,1,.69.4c0,.09-.26,7.84,4.68,13-.29-3-.77-9.62.4-10.89a.47.47,0,0,1,.35-.14.42.42,0,0,1,.34.18c.37.48,3,4,3.79,6.64,1.09-2.24,2.09-4.95,1.64-5.76a.45.45,0,0,1,.14-.6.44.44,0,0,1,.6.09c.17.2,3.66,4.5,4.66,7.41,1.14-2,2.81-5.49,2.3-7a.44.44,0,0,1,.18-.53.47.47,0,0,1,.56.05,21.68,21.68,0,0,1,4.17,5.56,6,6,0,0,0-.08-3.89.44.44,0,0,1,.15-.53.45.45,0,0,1,.55,0,26.27,26.27,0,0,1,7.34,10.39,56.22,56.22,0,0,0-.21-8.51.45.45,0,0,1,.81-.34,48.39,48.39,0,0,1,6.35,11.85,25.91,25.91,0,0,0,.09-3.8.45.45,0,0,1,.86-.23,27.36,27.36,0,0,1,2,6.58c1.07-1.84,3-5.55,2.89-8.59-.22-7.27-5.7-9-5.75-9a.43.43,0,0,1-.32-.51.43.43,0,0,1,.48-.37l3.76.27c-4-8.62-7-9.07-7.61-9.07h-.11a.5.5,0,0,1-.46-.17.37.37,0,0,1-.08-.18.42.42,0,0,1,.29-.52H203l1.34-.24c-1.83-2.13-3-2.38-3.48-2.38a.72.72,0,0,0-.27,0,.47.47,0,0,1-.46-.06.46.46,0,0,1-.17-.43,6.7,6.7,0,0,0-1-5.43,10.45,10.45,0,0,1,.18,4.44.46.46,0,0,1-.38.37.46.46,0,0,1-.47-.24C195.38,7.82,189.45,5,180.65,5c-13.83,0-30,7.08-30.15,7.15a.44.44,0,0,1-.47-.06c-1.93-1.53-1.4-5.32-1-7.14-6.36,3.81-6.13,14.18-6.13,14.29a.47.47,0,0,1-.17.37.48.48,0,0,1-.4.09c-2.9-.78-3.58-4.4-3.73-6.54-1.89,3.38-2.14,6.56-.74,9.47a10.56,10.56,0,0,0,3.2,3.84.45.45,0,0,1,.19.44.46.46,0,0,1-.3.37,5.17,5.17,0,0,1-1.63.24A15.17,15.17,0,0,1,133.61,26c0,3.43,6.17,5.45,6.24,5.47a.45.45,0,0,1,.18.75,14.28,14.28,0,0,0-4.14,12.07A32.65,32.65,0,0,1,138,39.71a.43.43,0,0,1,.39-.23Z"/><path class="cls-14" d="M190.92,9.89c6,2.53,9.39,7.85,7.68,11.87s-7.93,5.24-13.88,2.7-9.39-7.85-7.68-11.88S185,7.35,190.92,9.89Z"/><path class="cls-15" d="M179.87,11.13c4.29,1.83,6.78,5.66,5.54,8.56s-5.72,3.78-10,1.95-6.78-5.66-5.54-8.57S175.58,9.3,179.87,11.13Z"/><path class="cls-4" d="M292.78,240.12l-3.12,16.66s-2.89,4.54-5.15,8.56-1.09,7.19,3.22,7.8,7.2-11.67,7.2-11.67a6.83,6.83,0,0,1,2.4,1.62c1.64,1.44,1.88.78,2.65-.95s-3.89-5.31-3.89-5.31l4.53-14.15"/><path class="cls-1" d="M288.05,273.62l-.38,0c-2.12-.3-3.61-1.21-4.3-2.62s-.5-3.63.75-5.86c2.08-3.7,4.73-7.89,5.11-8.5L292.34,240a.45.45,0,1,1,.89.16l-3.12,16.66a.36.36,0,0,1-.07.17s-2.91,4.57-5.13,8.53c-1.1,1.95-1.36,3.73-.73,5a4.43,4.43,0,0,0,3.62,2.12c3.23.48,5.91-8,6.69-11.33A.44.44,0,0,1,295,261a7,7,0,0,1,2.6,1.72c.75.65,1,.69,1.09.67s.51-.71.79-1.36l.05-.11c.42-.95-2-3.41-3.75-4.76a.48.48,0,0,1-.16-.5l4.53-14.15a.46.46,0,0,1,.58-.29.45.45,0,0,1,.29.57l-4.44,13.85c1.19.94,4.58,3.85,3.78,5.65l-.05.11c-.46,1-.76,1.73-1.42,1.88-.5.11-1.05-.15-1.89-.88a10.26,10.26,0,0,0-1.79-1.33c-.64,2.53-3.2,11.52-7.19,11.52Z"/><path class="cls-16" d="M313.28,212.3l6.66-11.22,28.17-16.8s-.13,1.44.76-6.7-5.54-5.75-5.54-5.75c-10,9.51-26,12.22-26,12.22l-30.12-8.39-15.86,24,22.18,25.91s-5.49,23.77-7,24c0,0,5.28,7.67,12.76,4.55,0,0,2.08-11.4,4.8-20.25s9.2-21.56,9.2-21.56"/><path class="cls-1" d="M295.69,255.31h0c-5.7,0-9.39-5.27-9.55-5.5a.45.45,0,0,1,.23-.68c1-.91,4.16-12.67,6.65-23.44L271,200a.45.45,0,0,1,0-.55l15.85-24a.45.45,0,0,1,.5-.18l30,8.35c1.35-.24,16.28-3.16,25.67-12.08a.54.54,0,0,1,.16-.1,6.9,6.9,0,0,1,2.1-.35,3.86,3.86,0,0,1,3,1.2c1,1.1,1.35,2.91,1.08,5.38-.43,3.92-.63,5.71-.79,6.52a.47.47,0,0,1,0,.17l0-.1c-.14.64-.26.62-.46.61l-27.8,16.58-6.6,11.13c-.05.1-6.47,12.75-9.15,21.45s-4.77,20.09-4.79,20.2a.46.46,0,0,1-.28.34,9.67,9.67,0,0,1-3.76.78Zm-8.6-5.75c.82,1.05,4.08,4.84,8.6,4.84h0a8.82,8.82,0,0,0,3.19-.62c.32-1.71,2.29-12,4.77-20.05,2.7-8.79,9.16-21.5,9.22-21.63l6.68-11.26a.46.46,0,0,1,.16-.15l28-16.7c.07-.55.25-2.12.72-6.46.25-2.2,0-3.77-.85-4.67a3,3,0,0,0-2.3-.91,6,6,0,0,0-1.7.27c-10,9.45-26,12.25-26.17,12.28a.66.66,0,0,1-.2,0l-29.81-8.3-15.48,23.44,21.95,25.65a.46.46,0,0,1,.1.39c-2.28,9.88-5.21,21.5-6.87,23.89Z"/><path class="cls-4" d="M313.89,259.2s7.73,15.11-2.35,13.72-18.32-15.5-7.21-19.86Z"/><path class="cls-1" d="M312.77,273.46a10.16,10.16,0,0,1-1.3-.09c-6.16-.86-12.17-6.63-12.84-12.36-.46-3.82,1.51-6.79,5.53-8.37a.43.43,0,0,1,.41,0l9.57,6.14a.38.38,0,0,1,.15.18c.19.36,4.51,8.91,2.2,12.69a4,4,0,0,1-3.72,1.77Zm-8.49-19.89c-3.46,1.43-5.14,4-4.75,7.33.63,5.36,6.27,10.76,12.07,11.57,2.06.28,3.43-.13,4.12-1.25,1.92-3.14-1.69-10.71-2.18-11.7l-9.26-5.95Z"/><path class="cls-1" d="M308.45,269a4,4,0,0,1-1.25-.22.45.45,0,0,1,.28-.86,1.94,1.94,0,0,0,2-.23c1.87-1.71.83-8.32.27-10.73a.46.46,0,0,1,.34-.54.45.45,0,0,1,.55.34c.21.93,2.05,9.22-.54,11.6a2.43,2.43,0,0,1-1.7.64Z"/><path class="cls-4" d="M359.75,187.78s17,.74,11.49-7.85-21.72-10.2-21.06,1.71Z"/><path class="cls-1" d="M360.72,188.25h0c-.62,0-1,0-1,0a.48.48,0,0,1-.23-.07L349.94,182a.47.47,0,0,1-.21-.36,8.39,8.39,0,0,1,2-6.51,9,9,0,0,1,6.67-2.5,16.32,16.32,0,0,1,13.18,7c1.24,1.94,1.48,3.61.74,5-1.78,3.23-8.73,3.58-11.64,3.58Zm-.83-.92h.83c2.14,0,9.26-.22,10.84-3.11.58-1,.34-2.42-.7-4.06a15.39,15.39,0,0,0-12.42-6.62,8.13,8.13,0,0,0-6,2.23,7.42,7.42,0,0,0-1.79,5.6l9.26,6Z"/><path class="cls-1" d="M356.1,185.89a.47.47,0,0,1-.45-.36A.46.46,0,0,1,356,185c2.42-.49,8.87-2.3,9.65-4.71a2,2,0,0,0-.65-2,.45.45,0,0,1,.67-.61,2.79,2.79,0,0,1,.84,2.85c-1.08,3.35-9.39,5.13-10.33,5.32Z"/><path class="cls-4" d="M313,264.23a47.22,47.22,0,0,0,51-79.47c-21.79-14-43.56-2.85-57.65,19.1S291.22,250.24,313,264.23Z"/><path class="cls-1" d="M338.18,272.08h0a46.94,46.94,0,0,1-25.4-7.46c-10.36-6.66-16.23-16.18-17-27.56-.68-10.41,2.85-22,10.22-33.45,10.4-16.2,24.38-25.5,38.33-25.5a36.76,36.76,0,0,1,20,6.26,47.75,47.75,0,0,1-26.11,87.71ZM344.34,179c-13.64,0-27.33,9.14-37.57,25.08C299.51,215.41,296,226.78,296.7,237c.72,11.08,6.45,20.36,16.56,26.85a46,46,0,0,0,24.91,7.32,46.84,46.84,0,0,0,25.63-86A35.81,35.81,0,0,0,344.34,179Z"/><path class="cls-4" d="M335.37,217.36c-1.36-.88-3.51,0-4.81,2.07s-1.25,4.37.11,5.25,3.52-.06,4.81-2.08S336.73,218.23,335.37,217.36Z"/><path class="cls-1" d="M331.84,225.46h0a2.64,2.64,0,0,1-1.42-.4c-1.56-1-1.68-3.64-.24-5.87a5.18,5.18,0,0,1,4-2.62,2.61,2.61,0,0,1,1.41.4,2.76,2.76,0,0,1,1.18,1.79,5.63,5.63,0,0,1-.93,4.08,5.21,5.21,0,0,1-4,2.62Zm2.36-8a4.3,4.3,0,0,0-3.26,2.2c-1.14,1.78-1.15,3.89,0,4.61a1.71,1.71,0,0,0,.93.26h0a4.3,4.3,0,0,0,3.26-2.2,4.72,4.72,0,0,0,.8-3.4,1.87,1.87,0,0,0-.78-1.21,1.65,1.65,0,0,0-.92-.26Z"/><path class="cls-1" d="M354.83,210.2a5,5,0,1,0,1.51,6.91A5,5,0,0,0,354.83,210.2Z"/><path class="cls-1" d="M337.47,237.24a5,5,0,1,0,1.5,6.92A5,5,0,0,0,337.47,237.24Z"/><path class="cls-1" d="M361.08,226.56a.44.44,0,0,1-.38-.21.45.45,0,0,1,.14-.62c.39-.26,9.54-6.32,3.49-18.31a.46.46,0,0,1,.2-.61.45.45,0,0,1,.61.2c6.42,12.73-3.71,19.41-3.81,19.48a.45.45,0,0,1-.25.07Z"/><path class="cls-1" d="M334.17,256.7l-.92,0a.46.46,0,0,1-.44-.47.44.44,0,0,1,.47-.43h.9c12.6,0,14.23-10.36,14.3-10.81a.45.45,0,0,1,.51-.39.45.45,0,0,1,.38.52c0,.12-1.79,11.59-15.2,11.59Z"/><path class="cls-17" d="M322.94,225c-2.62-1.68-2.6-6.37,0-10.47s6.89-6.07,9.5-4.4Z"/><path class="cls-1" d="M322.94,225.52a.5.5,0,0,1-.26-.08c-2.83-1.82-2.87-6.81-.1-11.13,2-3.16,5.08-5.21,7.76-5.21a4.42,4.42,0,0,1,2.4.67.49.49,0,0,1,.21.3.5.5,0,0,1-.07.36l-9.54,14.87a.49.49,0,0,1-.3.21Zm7.4-15.47c-2.33,0-5.13,1.92-7,4.77-2.35,3.66-2.56,7.79-.57,9.54l9-14a3.51,3.51,0,0,0-1.47-.3Z"/><path class="cls-9" d="M348.61,189a6.44,6.44,0,1,0,2.67,8.72A6.44,6.44,0,0,0,348.61,189Z"/><path class="cls-9" d="M317.23,236.68a6.44,6.44,0,1,0,2.68,8.72A6.45,6.45,0,0,0,317.23,236.68Z"/><path class="cls-12" d="M354.46,211.3a1.94,1.94,0,1,0,.59,2.68A1.94,1.94,0,0,0,354.46,211.3Z"/><path class="cls-12" d="M337.39,237.9a1.94,1.94,0,1,0,.58,2.67A1.94,1.94,0,0,0,337.39,237.9Z"/><path class="cls-18" d="M313,264.23s28.87,28.54,54.87,4.9c0,0,21.55-3.93,27.25-26.13s.52-54.17-26.82-56.14c0,0,6.43,4.7,8.44,10,0,0-8.42-5.74-13.5-5.17,0,0,22,24.84,9.38,52.68,0,0-11.39-6.07-24.65-6,0,0,18,5.46,19.54,10.42,0,0-39.07,3.68-46.33,13.89a19.08,19.08,0,0,1,14.05-.4S326.57,270.93,313,264.23Z"/><path class="cls-1" d="M345.09,279c-17.62,0-32.25-14.26-32.4-14.4a.48.48,0,0,1-.05-.59.45.45,0,0,1,.57-.14,22.55,22.55,0,0,0,9.94,2.5,18.16,18.16,0,0,0,11.2-3.87,17.17,17.17,0,0,0-5.5-.88,18.75,18.75,0,0,0-7.46,1.52.46.46,0,0,1-.55-.12.45.45,0,0,1,0-.55c6.88-9.67,40.81-13.49,46-14-2.14-3.77-14.29-8.16-19-9.59a.46.46,0,0,1,.13-.89h.33c11.64,0,21.91,4.72,24.11,5.8,12-27.08-9.28-51.51-9.5-51.76a.46.46,0,0,1-.08-.46.45.45,0,0,1,.37-.29c4-.45,9.9,2.81,12.5,4.4-2.4-4.52-7.6-8.35-7.66-8.4a.45.45,0,0,1-.15-.52.43.43,0,0,1,.45-.29c9.14.65,16.38,4.6,21.51,11.74,9.4,13,8.95,32.38,5.72,45-5.47,21.32-25.65,26.05-27.48,26.44-6.9,6.24-14.64,9.41-23,9.41Zm-29.65-13.18c4.62,3.84,16.27,12.27,29.65,12.27,8.17,0,15.73-3.12,22.48-9.26a.49.49,0,0,1,.23-.11c.21,0,21.33-4.14,26.89-25.8,3.19-12.39,3.64-31.4-5.57-44.2a26.68,26.68,0,0,0-19.32-11.23c2,1.66,5.86,5.25,7.37,9.22a.45.45,0,0,1-.68.54c-.07-.05-7.39-5-12.31-5.12,3.45,4.3,20.3,27.29,8.86,52.45a.43.43,0,0,1-.27.24.45.45,0,0,1-.36,0,59.07,59.07,0,0,0-21.33-5.83c5.25,1.81,15.65,5.85,16.87,9.74a.49.49,0,0,1-.05.39.47.47,0,0,1-.34.2c-.37,0-35.46,3.44-44.83,12.37a20.25,20.25,0,0,1,6.12-.95,18.08,18.08,0,0,1,6.55,1.2.45.45,0,0,1,.28.33.47.47,0,0,1-.12.41,18.4,18.4,0,0,1-12.41,4.62,22.21,22.21,0,0,1-7.71-1.45Z"/><path class="cls-19" d="M394.44,238.53c-2.24,6.86-7.82,11.19-12.46,9.67s-6.58-8.31-4.33-15.17,7.82-11.19,12.45-9.67S396.68,231.67,394.44,238.53Z"/><path class="cls-20" d="M392,226.37c-1.62,4.94-5.64,8.07-9,7s-4.75-6-3.13-10.93,5.64-8.08,9-7S393.61,221.42,392,226.37Z"/><path class="cls-18" d="M352.47,273.4c6.86,3.47,4.16,14.69,4.16,14.69,11-1.72,11.25-19,11.25-19s9.14,14.25,20.11,6.5l-10.12-5.4a13.57,13.57,0,0,0,13.47-6.71l-13.17-3.9"/><path class="cls-1" d="M356.63,288.55a.41.41,0,0,1-.33-.15.42.42,0,0,1-.11-.41c0-.11,2.53-10.91-3.92-14.19a.43.43,0,0,1-.2-.6.44.44,0,0,1,.61-.2c6.17,3.13,5,12,4.53,14.52,9.9-2.22,10.21-18.23,10.21-18.4a.47.47,0,0,1,.33-.43.45.45,0,0,1,.51.19c.05.07,4.66,7.16,11.08,8.42a10.42,10.42,0,0,0,7.77-1.63l-9.45-5a.45.45,0,0,1,.29-.84,13,13,0,0,0,12.68-6L378,260.06a.46.46,0,0,1-.31-.57.45.45,0,0,1,.57-.3l13.17,3.89a.46.46,0,0,1,.29.27.43.43,0,0,1,0,.4,14,14,0,0,1-11.86,7l8.35,4.45a.44.44,0,0,1,.24.37.47.47,0,0,1-.19.4,11.53,11.53,0,0,1-9.1,2.18c-5.28-1-9.28-5.59-10.89-7.72-.3,4.16-2,16.58-11.57,18.08Z"/><path class="cls-4" d="M112.83,102.79l-1.74-16.86s1.48-5.18,2.5-9.67-1-7.2-5.3-6.56-3.58,13.23-3.58,13.23a6.88,6.88,0,0,1-2.76-.87c-2-.91-2-.21-2.27,1.66s5.24,4,5.24,4l-.32,14.85"/><path class="cls-1" d="M112.83,103.24a.45.45,0,0,1-.45-.4L110.64,86a.5.5,0,0,1,0-.17s1.5-5.21,2.5-9.64c.5-2.18.24-4-.72-5s-2.27-1.27-4.08-1c-3.2.48-3.39,9.38-3.19,12.77a.46.46,0,0,1-.42.48,7.28,7.28,0,0,1-3-.92c-.9-.41-1.17-.37-1.24-.33s-.28.83-.37,1.52v.12c-.13,1,2.82,2.69,5,3.51a.44.44,0,0,1,.29.43l-.32,14.85a.46.46,0,0,1-.45.45h0a.46.46,0,0,1-.45-.46L104.46,88c-1.4-.57-5.48-2.4-5.23-4.35v-.12c.15-1.13.25-1.88.84-2.2s1-.17,2.06.3a10.5,10.5,0,0,0,2.09.76c-.11-2.68-.21-12.54,4-13.16,2.11-.32,3.8.13,4.87,1.29s1.51,3.34,1,5.82c-1,4.14-2.29,8.92-2.49,9.61l1.73,16.77a.45.45,0,0,1-.4.5Z"/><path class="cls-21" d="M102.84,94.27s14.9,10.16,22.25.52c0,0,1.74,13.62-12.8,21.16Z"/><path class="cls-1" d="M112.29,116.41a.4.4,0,0,1-.15,0,.46.46,0,0,1-.27-.24l-9.44-21.69a.46.46,0,0,1,.67-.56c.07,0,6.82,4.6,13.3,4.6a10,10,0,0,0,8.33-4,.46.46,0,0,1,.48-.16.48.48,0,0,1,.33.38c0,.14,1.61,14-13,21.63a.54.54,0,0,1-.21,0Zm-8.45-21,8.67,19.91c11.27-6.08,12.2-16,12.18-19.37a10.83,10.83,0,0,1-8.29,3.43c-5.13,0-10.25-2.61-12.56-4Z"/><path class="cls-21" d="M60.17,183.47s14.45,1.61,10.92,15.41c0,0,19.31-9.87,9-22.91Z"/><path class="cls-1" d="M71.09,199.33a.47.47,0,0,1-.28-.09.48.48,0,0,1-.16-.47c1-3.89.61-7.14-1.13-9.67-3.06-4.43-9.34-5.17-9.4-5.18a.47.47,0,0,1-.4-.4A.45.45,0,0,1,60,183l20-7.5a.44.44,0,0,1,.51.15c2.66,3.37,3.62,6.85,2.86,10.33-1.73,7.91-11.62,13-12,13.26a.41.41,0,0,1-.21.05Zm-9.24-16c2.19.53,6.1,1.91,8.42,5.27,1.74,2.52,2.24,5.68,1.49,9.39,2.47-1.45,9.35-6,10.69-12.15.68-3.12-.15-6.25-2.48-9.32l-18.12,6.81Z"/><path class="cls-4" d="M57.72,176.13s-16.94,1.1-10.57,9.05,22.69,7.79,20.75-4Z"/><path class="cls-1" d="M59.14,191.12h0a16.29,16.29,0,0,1-12.35-5.66c-1.46-1.83-1.88-3.49-1.24-4.94,1.82-4.12,11.72-4.81,12.14-4.84a.42.42,0,0,1,.24,0L68.1,180.8a.43.43,0,0,1,.24.33,8.37,8.37,0,0,1-1.55,7c-1.65,1.93-4.36,3-7.65,3Zm-1.51-14.53c-1.12.09-9.75.89-11.25,4.29-.49,1.12-.11,2.47,1.12,4a15.36,15.36,0,0,0,11.64,5.32c3,0,5.49-1,7-2.68a7.25,7.25,0,0,0,1.39-6l-9.85-4.92Z"/><path class="cls-1" d="M53.21,186.89a.45.45,0,0,1-.3-.11A2.81,2.81,0,0,1,51.77,184c.72-3.45,8.78-6.11,9.69-6.41a.46.46,0,0,1,.57.3.45.45,0,0,1-.29.57c-2.35.75-8.57,3.24-9.08,5.72a1.94,1.94,0,0,0,.85,1.88.45.45,0,0,1-.3.79Z"/><path class="cls-4" d="M95.6,100.17S86.28,86,96.46,86.29s19.88,13.43,9.31,19Z"/><path class="cls-1" d="M105.77,105.7a.46.46,0,0,1-.2,0L95.4,100.58a.4.4,0,0,1-.18-.16c-.23-.35-5.6-8.61-3.47-12.56.77-1.41,2.34-2.1,4.72-2,6.22.19,12.81,5.28,14.11,10.9.86,3.75-.77,6.92-4.6,8.92a.5.5,0,0,1-.21,0Zm-9.86-5.88,9.85,4.92c3.28-1.8,4.68-4.57,3.93-7.81-1.21-5.26-7.4-10-13.25-10.19h-.3c-1.82,0-3,.52-3.59,1.55-1.76,3.27,2.76,10.59,3.36,11.53Z"/><path class="cls-1" d="M99.48,102.56a.44.44,0,0,1-.43-.3c-.32-.91-3-9-.72-11.6a2.82,2.82,0,0,1,2.88-.74.46.46,0,0,1,.35.54.43.43,0,0,1-.53.35,2,2,0,0,0-2,.45c-1.67,1.91.08,8.37.89,10.7a.45.45,0,0,1-.27.58l-.15,0Z"/><path class="cls-4" d="M53.85,179.46A47.22,47.22,0,0,1,96,94.94c23.17,11.55,24.74,36,13.1,59.31S77,191,53.85,179.46Z"/><path class="cls-1" d="M70.63,184.13a37.92,37.92,0,0,1-17-4.26,46.84,46.84,0,0,1-23.73-27.44A47.88,47.88,0,0,1,75.23,89.58a46.69,46.69,0,0,1,21,5c21.33,10.64,26.43,33.6,13.31,59.92-9.41,18.86-23.58,29.68-38.88,29.68Zm4.6-93.64a47,47,0,0,0-44.45,61.66,46,46,0,0,0,23.27,26.91,37.19,37.19,0,0,0,16.58,4.17c14.94,0,28.82-10.64,38.07-29.19,10.09-20.23,12-46.28-12.91-58.7a45.7,45.7,0,0,0-20.56-4.85Z"/><path class="cls-4" d="M82.67,136.26c1.45.72,1.75,3.05.68,5.2s-3.11,3.3-4.56,2.58-1.75-3-.68-5.2S81.23,135.54,82.67,136.26Z"/><path class="cls-1" d="M79.72,144.71a2.57,2.57,0,0,1-1.13-.26c-1.67-.83-2.07-3.44-.88-5.81.91-1.82,2.53-3,4-3a2.54,2.54,0,0,1,1.13.26,3,3,0,0,1,1.54,2.41,6.18,6.18,0,0,1-.65,3.4c-.92,1.82-2.54,3.05-4,3.05Zm2-8.21c-1.15,0-2.47,1.05-3.22,2.55-.94,1.89-.73,4,.47,4.59s3-.54,4-2.39a5.15,5.15,0,0,0,.57-2.87,2.09,2.09,0,0,0-1-1.71,1.51,1.51,0,0,0-.73-.17Z"/><path class="cls-1" d="M78.86,115.88a5,5,0,1,1-6.71,2.24A5,5,0,0,1,78.86,115.88Z"/><path class="cls-1" d="M64.52,144.64a5,5,0,1,1-6.72,2.25A5,5,0,0,1,64.52,144.64Z"/><path class="cls-9" d="M74.43,156.88c2.95,1.36,3,6.92.1,12.43s-7.65,8.85-10.6,7.49-3-6.92-.1-12.42S71.48,155.52,74.43,156.88Z"/><path class="cls-9" d="M99.81,104.41c3,1.37,3,6.93.1,12.43s-7.64,8.86-10.6,7.5-3-6.93-.09-12.43S96.86,103.06,99.81,104.41Z"/><path class="cls-1" d="M62,119.1h0a.44.44,0,0,1-.44-.46c0-.13.55-12.25,14.78-13.25a.44.44,0,0,1,.48.42.45.45,0,0,1-.42.48c-13.39.95-13.92,11.91-13.94,12.38a.45.45,0,0,1-.45.43Z"/><path class="cls-1" d="M50.36,158.42a.44.44,0,0,1-.38-.2c-7.76-12,1.59-19.71,1.68-19.78a.45.45,0,0,1,.64.07.44.44,0,0,1-.07.63c-.36.3-8.8,7.32-1.49,18.58a.47.47,0,0,1-.14.63.42.42,0,0,1-.24.07Z"/><path class="cls-17" d="M90.32,135.06c2.78,1.39,3.27,6.05,1.09,10.42s-6.2,6.78-9,5.39Z"/><path class="cls-1" d="M84.14,151.74a4.33,4.33,0,0,1-1.92-.44A.51.51,0,0,1,82,151a.45.45,0,0,1,0-.36l7.88-15.81a.51.51,0,0,1,.28-.24.45.45,0,0,1,.36,0,5.31,5.31,0,0,1,2.67,4.46,12.32,12.32,0,0,1-1.36,6.59c-1.81,3.62-4.9,6.05-7.7,6.05Zm-1-1.11a3.6,3.6,0,0,0,1,.16c2.41,0,5.22-2.27,6.85-5.53a11.26,11.26,0,0,0,1.26-6.06,4.65,4.65,0,0,0-1.74-3.47l-7.42,14.9Z"/><path class="cls-12" d="M78.1,116.76a1.93,1.93,0,1,1-1.73,3.46,1.93,1.93,0,1,1,1.73-3.46Z"/><path class="cls-12" d="M64,145a1.94,1.94,0,1,1-2.6.87A1.94,1.94,0,0,1,64,145Z"/><path class="cls-21" d="M51.59,99.37s10.81,5.93,3.3,28.2c0,0-1.6-13.86-12.13-15.45,0,0,11.5,4.28,5.68,18.2,0,0-2.33-10-9.63-10.44,0,0-12.47,28.6,11.26,48.5,0,0-5,1.43-11.36-4.82,0,0,20.46,22.55,40.09,22.56,0,0-41.46.56-54.53-22.56,0,0-19.61-3.73-20.19-26.68,0,0,2.26,7.3,5.87,9.29,0,0-9.06-33.52,21.1-57,34.15-26.54,62.19-10.45,86.61,22.16,0,0-23.66-23.51-38.18-19.31l4.36,6.7S68.33,88.84,51.59,99.37Z"/><path class="cls-1" d="M78.55,186.58C74.29,186.58,36.6,186,24,164c-2.14-.5-19.8-5.3-20.34-27.06a.45.45,0,0,1,.88-.15c0,.07,1.86,5.9,4.74,8.39C8,139,3.88,109.75,30.77,88.84c11.46-8.9,22.85-13.42,33.86-13.42,18,0,35.43,11.67,53.4,35.67a.46.46,0,0,1-.69.59c-.19-.2-20-19.68-34.12-19.68a13.22,13.22,0,0,0-3,.33l4,6.18a.45.45,0,0,1-.63.62A31.94,31.94,0,0,0,68,95a29.82,29.82,0,0,0-15.53,4.4c2.26,1.69,9.46,8.85,2.89,28.33a.45.45,0,0,1-.48.31.45.45,0,0,1-.4-.4c0-.12-1.28-10.26-8.22-13.9a11.91,11.91,0,0,1,3.34,4.42c1.51,3.47,1.27,7.63-.71,12.35a.43.43,0,0,1-.45.28.47.47,0,0,1-.41-.35c0-.09-2.26-9.42-8.88-10.06-1.21,3.07-10.66,29.3,11.25,47.67a.45.45,0,0,1,.15.45.46.46,0,0,1-.32.34s-2.65.84-6.74-1.21c7,6.51,21.5,18,35.35,18.06a.46.46,0,1,1,0,.91ZM4.73,139.85c2.09,19.67,19.44,23.22,19.62,23.26a.44.44,0,0,1,.31.22C33.87,179.62,57.2,184,70.08,185.24c-16.55-4.85-31.53-21.18-31.7-21.37a.44.44,0,0,1,0-.63.45.45,0,0,1,.63,0c4.53,4.45,8.31,4.89,10,4.82C26.33,148.2,38.27,120,38.4,119.7a.44.44,0,0,1,.44-.27c6,.32,8.73,6.66,9.66,9.47,1.42-4,1.5-7.46.23-10.39a12,12,0,0,0-6.13-6,.45.45,0,0,1-.28-.54.46.46,0,0,1,.51-.34c8.41,1.27,11.31,10.17,12.18,14,6.19-20.21-3.54-25.9-3.64-26a.46.46,0,0,1-.24-.38.49.49,0,0,1,.21-.4A30.86,30.86,0,0,1,68,94.07a33.14,33.14,0,0,1,14.51,3.41L79.1,92.29a.47.47,0,0,1,0-.4.44.44,0,0,1,.3-.28,14.07,14.07,0,0,1,3.86-.52c10.76,0,24.21,10.51,30.79,16.28-16.63-20.87-32.81-31-49.38-31-10.81,0-22,4.45-33.3,13.23-29.57,23-21,56.16-20.94,56.49a.48.48,0,0,1-.16.48.46.46,0,0,1-.5,0c-2.26-1.25-4-4.37-5-6.72Z"/><path class="cls-22" d="M38,142.24a3.44,3.44,0,0,1,3.44,3.46h0A3.44,3.44,0,0,1,38,149.13l-9.59,0A3.45,3.45,0,0,1,25,145.65h0a3.44,3.44,0,0,1,3.46-3.44Z"/><path class="cls-1" d="M38,149.59h0l-9.59,0a3.89,3.89,0,0,1-3.89-3.91,3.91,3.91,0,0,1,3.9-3.9l9.6,0a3.91,3.91,0,0,1,0,7.81Zm-9.58-6.93a3,3,0,0,0-2.14,5.11,3,3,0,0,0,2.12.88l9.59,0v0a3,3,0,1,0,0-6l-9.59,0Z"/><path class="cls-23" d="M18.68,112.55c1.79-7,7.06-11.68,11.79-10.48s7.11,7.86,5.33,14.85S28.73,128.61,24,127.4,16.89,119.54,18.68,112.55Z"/><path class="cls-24" d="M21.92,124.52c1.29-5,5.1-8.42,8.51-7.55s5.13,5.66,3.84,10.71-5.1,8.42-8.51,7.55S20.63,129.57,21.92,124.52Z"/><path class="cls-4" d="M206.87,279.1l-10.12.85-8.44-.35s-2.45-1.1-4.6-1.93-3.62,0-3.62,2.15,6.28,2.72,6.28,2.72a3.38,3.38,0,0,1-.63,1.3c-.59.91-.25,1,.66,1.24s2.34-2.3,2.34-2.3l17.63,2.86"/><path class="cls-1" d="M206.37,286.1h-.07L189,283.27c-.56,1-1.69,2.53-2.7,2.24-.65-.18-1.08-.29-1.24-.72a1.4,1.4,0,0,1,.32-1.2,7.24,7.24,0,0,0,.39-.66c-1.81-.21-6.11-.94-6.11-3.11a2.79,2.79,0,0,1,1.08-2.5,3.36,3.36,0,0,1,3.16-.07c1.91.74,4.09,1.7,4.53,1.9l8.36.35,10.06-.85a.44.44,0,0,1,.49.41.45.45,0,0,1-.41.49l-10.12.85-8.5-.35a.47.47,0,0,1-.17,0s-2.46-1.11-4.57-1.92a2.51,2.51,0,0,0-2.31,0,2.06,2.06,0,0,0-.7,1.75c0,1.21,3.44,2.06,5.87,2.27a.45.45,0,0,1,.41.49,3.75,3.75,0,0,1-.7,1.51,2.13,2.13,0,0,0-.2.36,3.31,3.31,0,0,0,.55.17c.29.09,1.2-.85,1.88-2.07a.46.46,0,0,1,.47-.22l17.63,2.87a.45.45,0,0,1-.08.9Z"/><path class="cls-6" d="M191.67,283.25l.38-4.52,13.33-.45-.17,6.55S197,284,191.67,283.25Z"/><path class="cls-1" d="M205.21,285.28h-.05c-.08,0-8.3-.87-13.55-1.57a.46.46,0,0,1-.39-.49l.37-4.53a.46.46,0,0,1,.44-.42l13.33-.45a.52.52,0,0,1,.34.14.49.49,0,0,1,.13.33l-.17,6.55a.46.46,0,0,1-.45.44Zm-13.05-2.42c4.48.59,10.81,1.27,12.6,1.46l.15-5.57-12.44.42-.31,3.69Z"/><path class="cls-6" d="M259.78,271.89l-1.94-4.11-12.64,4.27,2.46,6.07S255.06,274.42,259.78,271.89Z"/><path class="cls-1" d="M247.66,278.58l-.16,0a.51.51,0,0,1-.26-.26l-2.46-6.07a.5.5,0,0,1,0-.36.46.46,0,0,1,.27-.24l12.63-4.27a.46.46,0,0,1,.56.24l1.94,4.11a.45.45,0,0,1-.2.59c-4.66,2.51-12.05,6.2-12.12,6.24a.54.54,0,0,1-.21.05Zm-1.86-6.25,2.1,5.17c1.61-.81,7.3-3.67,11.28-5.8l-1.58-3.36-11.8,4Z"/><path class="cls-25" d="M193.48,307.4s-7.32,5.82-14.25,1.73l1.7-2.3-2.47-.73,2.53-1.61-3.59-2.56,2.84-1.7L179,297.82s5.6-5.26,14.15.85Z"/><path class="cls-1" d="M184.57,311a10.77,10.77,0,0,1-5.57-1.52.46.46,0,0,1-.22-.3.52.52,0,0,1,.08-.36l1.32-1.77-1.85-.55a.46.46,0,0,1-.12-.82l2-1.25-3.05-2.17a.49.49,0,0,1-.19-.39.47.47,0,0,1,.22-.37l2.47-1.48-1.06-2a.44.44,0,0,1,.09-.54,9.7,9.7,0,0,1,6.36-2.23,14.44,14.44,0,0,1,8.37,3,.48.48,0,0,1,.19.35l.35,8.73a.43.43,0,0,1-.17.38,16.37,16.37,0,0,1-9.19,3.28ZM179.9,309a10,10,0,0,0,4.67,1.15,15.51,15.51,0,0,0,8.45-3l-.34-8.27a13.44,13.44,0,0,0-7.66-2.74,9.26,9.26,0,0,0-5.48,1.76l1.1,2.09a.45.45,0,0,1-.17.6L178.22,302l3,2.16a.47.47,0,0,1,.19.38.49.49,0,0,1-.21.37l-1.7,1.08,1.52.45a.44.44,0,0,1,.3.29.43.43,0,0,1-.06.41L179.9,309Z"/><path class="cls-25" d="M266.6,295.61s9.21,1.62,13.35-5.28l-2.6-1.21,1.83-1.83-3-.2,1.94-4-3.31-.13,0-2.73s-7.44-1.94-12,7.51Z"/><path class="cls-1" d="M268.94,296.23h0a14.94,14.94,0,0,1-2.42-.17.47.47,0,0,1-.33-.25L262.33,288a.47.47,0,0,1,0-.4c4.72-9.7,12.46-7.77,12.56-7.75a.47.47,0,0,1,.34.43l0,2.3,2.87.12a.45.45,0,0,1,.38.22.47.47,0,0,1,0,.43l-1.64,3.36,2.33.16a.45.45,0,0,1,.29.77L278.13,289l2,.94a.43.43,0,0,1,.24.27.47.47,0,0,1,0,.37c-3,4.93-8.41,5.67-11.4,5.67Zm-2-1a17.65,17.65,0,0,0,2,.12h0c2.71,0,7.57-.63,10.35-4.8l-2.13-1a.43.43,0,0,1-.25-.33.45.45,0,0,1,.12-.4l1.12-1.12-2-.14a.44.44,0,0,1-.36-.22.47.47,0,0,1,0-.43l1.63-3.34-2.61-.11a.44.44,0,0,1-.43-.44l0-2.36a7.78,7.78,0,0,0-1.19-.09c-2.35,0-6.75.94-9.89,7.22l3.66,7.43Z"/><path class="cls-25" d="M267.65,304.51c-1.75,14.08-2.91,25.77-19.11,33.25-13.45,6.22-28.39,7-31.79,1.33,0,0-16.35,1.69-22.49-17.26l3.23,4.44s-11.27-19-1.7-32.33h0l64.8-10.58s10.56,14.52,7.06,21.15"/><path class="cls-1" d="M227.36,343.37c-5.35,0-9.19-1.35-10.85-3.81-2.22.12-16.91.23-22.68-17.59a.45.45,0,0,1,.8-.41l.27.38c-2.73-6.55-6.25-18.84.52-28.27l3.07-4.28.32-.45.86-1.19,0,0c.18-.21.23-.21.35-.21a.46.46,0,0,1,.4.25c0,.08.07.14-.09.43l.05,0-3.55,5-.06.08,63.73-10.4a.44.44,0,0,1,.44.18c.43.6,10.61,14.72,7.13,21.55l-.09.71c-1.69,13.61-3.15,25.37-19.27,32.82-7.15,3.3-14.94,5.19-21.37,5.19Zm-10.61-4.74a.48.48,0,0,1,.39.22c1.4,2.33,5,3.62,10.22,3.62,6.31,0,14-1.87,21-5.12,15.67-7.23,17-18.21,18.75-32.1l.1-.8a.44.44,0,0,1,.05-.15c3.09-5.87-5.56-18.59-6.87-20.44l-64.33,10.5c-9.09,12.92,1.72,31.5,1.83,31.68a.46.46,0,0,1-.76.5l-1.24-1.71c5.62,12.79,16.45,13.84,19.84,13.84.61,0,1,0,1,0Z"/><path class="cls-4" d="M199.1,300.33s-4.26,11.33-8.36,5.34-.62-17.1,7-13.34Z"/><path class="cls-1" d="M193.29,307.87a3.69,3.69,0,0,1-2.92-1.95,11.63,11.63,0,0,1-.63-11.41c1.7-3.22,4.83-4.25,8.21-2.58a.47.47,0,0,1,.25.33l1.35,8a.65.65,0,0,1,0,.24c-.29.75-2.88,7.38-6.24,7.38ZM194.81,292a4.84,4.84,0,0,0-4.27,2.9,10.88,10.88,0,0,0,.57,10.48c.71,1,1.44,1.55,2.18,1.55,2.28,0,4.58-4.72,5.34-6.68l-1.29-7.64a6,6,0,0,0-2.53-.61Z"/><path class="cls-1" d="M192.64,302.89h-.17a2.12,2.12,0,0,1-1.75-1.43.45.45,0,1,1,.83-.37c.38.84.84.88,1,.9,1.7.13,4.68-3.53,5.66-5a.45.45,0,1,1,.75.51c-.39.56-3.77,5.36-6.32,5.36Z"/><path class="cls-4" d="M258.77,290.22s7.76,9.29,9.66,2.29-5.05-16.35-11-10.28Z"/><path class="cls-1" d="M265.83,295.58h0c-3.14,0-7.23-4.86-7.4-5.07a.37.37,0,0,1-.1-.21l-1.36-8a.47.47,0,0,1,.13-.39,6.15,6.15,0,0,1,4.41-2.09,6.79,6.79,0,0,1,5.26,3,11.72,11.72,0,0,1,2.1,9.79c-.66,2.43-2,2.95-3,2.95ZM259.2,290c.57.66,4.12,4.65,6.63,4.65,1,0,1.74-.75,2.16-2.28a10.72,10.72,0,0,0-1.94-9,5.92,5.92,0,0,0-4.54-2.67,5.19,5.19,0,0,0-3.6,1.66L259.2,290Z"/><path class="cls-1" d="M264.86,290.64c-2.54,0-6.38-2.75-6.87-3.1a.46.46,0,0,1-.1-.64.47.47,0,0,1,.64-.1c1.4,1,5.39,3.54,7,2.82.14-.07.57-.26.65-1.18a.46.46,0,0,1,.49-.41.44.44,0,0,1,.41.49,2.09,2.09,0,0,1-1.18,1.92,2.41,2.41,0,0,1-1,.2Z"/><path class="cls-4" d="M196,302.28A33.67,33.67,0,0,0,262.43,291c-3.08-18.21-19.41-24.33-37.75-21.23S192.94,284.07,196,302.28Z"/><path class="cls-1" d="M229.11,330.55h0a33.86,33.86,0,0,1-33.53-28.19c-2.85-16.84,8.27-29.49,29-33a54.14,54.14,0,0,1,8.89-.77c16.27,0,27,8.15,29.39,22.37a33.55,33.55,0,0,1-5.86,25.3,34.4,34.4,0,0,1-27.91,14.3Zm4.38-61.06a52.14,52.14,0,0,0-8.73.76c-15.84,2.68-31.58,12.49-28.29,31.95a33,33,0,0,0,32.64,27.45h0a33.53,33.53,0,0,0,27.18-13.93A32.61,32.61,0,0,0,262,291.11c-2.32-13.74-12.71-21.62-28.49-21.62Z"/><path class="cls-4" d="M231.48,291.56c-.2-1.13-1.72-1.82-3.41-1.54s-2.9,1.44-2.71,2.58,1.72,1.82,3.41,1.54S231.67,292.7,231.48,291.56Z"/><path class="cls-1" d="M228,294.66h0c-1.63,0-2.9-.82-3.1-2-.23-1.4,1.12-2.76,3.08-3.09a4.78,4.78,0,0,1,.84-.08c1.62,0,2.9.82,3.09,2,.24,1.4-1.11,2.76-3.08,3.1a5.93,5.93,0,0,1-.83.07Zm.82-4.25a3.91,3.91,0,0,0-.68.06c-1.42.24-2.49,1.18-2.34,2,.12.71,1,1.23,2.2,1.23h0a4,4,0,0,0,.68-.06c1.42-.24,2.49-1.18,2.34-2.05-.12-.71-1.05-1.23-2.2-1.23Z"/><path class="cls-1" d="M244.6,298.39a3.57,3.57,0,1,0-2.93,4.11A3.58,3.58,0,0,0,244.6,298.39Z"/><path class="cls-1" d="M222,302.21a3.57,3.57,0,1,0-2.93,4.12A3.57,3.57,0,0,0,222,302.21Z"/><path class="cls-1" d="M241.24,310a9.38,9.38,0,0,1-2.15-.22.46.46,0,0,1-.32-.56.45.45,0,0,1,.55-.32c.32.09,7.8,2,11.18-6.87a.46.46,0,0,1,.85.33c-2.52,6.6-7.33,7.64-10.11,7.64Z"/><path class="cls-1" d="M218.22,313.9c-2.53,0-5.63-1-8.6-4.49a.46.46,0,0,1,.7-.59c6.11,7.25,12.54,3,12.81,2.81a.45.45,0,0,1,.51.75,10.54,10.54,0,0,1-5.42,1.52Z"/><path class="cls-17" d="M221.45,288.7c-.36-2.19,2.12-4.43,5.55-5s6.51.72,6.88,2.9Z"/><path class="cls-1" d="M221.45,289.17a.48.48,0,0,1-.46-.39c-.41-2.44,2.25-4.93,5.93-5.56a10.93,10.93,0,0,1,1.7-.14c3,0,5.38,1.41,5.73,3.44a.47.47,0,0,1-.39.54l-12.43,2.11Zm7.17-5.14a8.89,8.89,0,0,0-1.54.13c-2.91.49-5.09,2.22-5.18,4l11.38-1.93c-.54-1.3-2.36-2.18-4.66-2.18Z"/><path class="cls-25" d="M265.27,295.35c-1.72-5.44-5.53-6.69-5.53-6.69,3.35,7.64,2,12.13,2,12.13l-1.05-3.11c-1.79,24.17-31.62,28.08-31.62,28.08-1.4-4.31,6.44-11.08,6.44-11.08-7.16,1.58-10.43,10.5-10.43,10.5-1.78-4.85,6.87-12.93,6.87-12.93-11.59,2.95-16.86,13.65-16.86,13.65s-10.83-3-16.53-21.7l1.35,8.94-3.5-7.85s-2.85,24.79,24.22,29.86S273.21,320.54,265.27,295.35Z"/><path class="cls-1" d="M215.07,326.35l-.12,0c-.41-.11-9.35-2.79-15.25-17.45l.64,4.19a.46.46,0,0,1-.87.25L196,305.48a.45.45,0,0,1,.23-.6.46.46,0,0,1,.6.23l2.13,4.79-.85-5.63a.44.44,0,0,1,.35-.51.46.46,0,0,1,.53.3c5,16.36,14,20.57,15.89,21.28,1-1.9,6.51-10.87,17-13.53a.45.45,0,0,1,.42.77c-.07.07-6.81,6.42-7,11,1.28-2.66,4.53-8.09,10.12-9.32a.45.45,0,0,1,.39.79c-.07.06-7.14,6.22-6.39,10.22,3.52-.58,29.2-5.59,30.83-27.6a.46.46,0,0,1,.4-.42.44.44,0,0,1,.48.31l.43,1.25a22.65,22.65,0,0,0-2.21-10,.45.45,0,0,1,.08-.48.44.44,0,0,1,.48-.13c.16,0,4.05,1.38,5.82,7a.46.46,0,0,1-.3.57.45.45,0,0,1-.57-.3,10.4,10.4,0,0,0-4.2-5.86c2.78,7,1.58,11.12,1.53,11.3a.45.45,0,0,1-.43.32.42.42,0,0,1-.44-.31l-.39-1.16c-3.28,22.45-31.5,26.4-31.79,26.44a.45.45,0,0,1-.49-.31c-1.09-3.35,2.81-7.88,5.07-10.15-5.54,2.47-8.18,9.51-8.21,9.58a.44.44,0,0,1-.42.3h0a.46.46,0,0,1-.43-.3c-1.44-3.92,3.34-9.62,5.73-12.14-10.09,3.41-14.83,12.81-14.88,12.91a.47.47,0,0,1-.41.25Z"/><path class="cls-9" d="M213.11,296.18a4.16,4.16,0,1,0-3,5.07A4.17,4.17,0,0,0,213.11,296.18Z"/><path class="cls-9" d="M253.06,289.46a4.16,4.16,0,1,0-3,5.07A4.16,4.16,0,0,0,253.06,289.46Z"/><path class="cls-26" d="M257.29,331.15c3.77-4.92,4.13-11,.81-13.51s-9.08-.63-12.84,4.29-4.13,11-.8,13.51S253.53,336.07,257.29,331.15Z"/><path class="cls-27" d="M247.5,335.32c2.72-3.54,3-7.91.58-9.74s-6.54-.45-9.26,3.09-3,7.91-.58,9.75S244.79,338.87,247.5,335.32Z"/><path class="cls-28" d="M251.18,311.41a1.32,1.32,0,0,0-.72.47,1.34,1.34,0,0,0,.21,1.9L260,321.3a1.36,1.36,0,0,0,1.69-2.12l-9.37-7.51a1.34,1.34,0,0,0-1.18-.26Z"/><path class="cls-1" d="M260.88,322.05h0a1.83,1.83,0,0,1-1.13-.4l-9.37-7.52a1.82,1.82,0,0,1-.28-2.54,1.87,1.87,0,0,1,1-.62,1.83,1.83,0,0,1,1.59.34l9.37,7.52a1.81,1.81,0,0,1,.27,2.54,1.78,1.78,0,0,1-1.41.68Zm-9.36-10.23a.85.85,0,0,0-.23,0,1,1,0,0,0-.48.31.9.9,0,0,0,.14,1.27l9.37,7.52a1,1,0,0,0,.56.19h0a.9.9,0,0,0,.57-1.6L252.08,312a.89.89,0,0,0-.56-.2Z"/><path class="cls-1" d="M216.9,303.57s-3-.09-3.77,1c0,0-.26-2.78,3.43-2.3"/><path class="cls-1" d="M243.33,299.31s2.85-1.06,3.88-.3c0,0-.64-2.72-4-1.08"/><path class="cls-12" d="M243.83,298.72a1.38,1.38,0,1,0-1.13,1.6A1.38,1.38,0,0,0,243.83,298.72Z"/><path class="cls-12" d="M221.61,302.49a1.38,1.38,0,1,0-1.13,1.59A1.37,1.37,0,0,0,221.61,302.49Z"/><path class="cls-29" d="M265.67,318.09c.73-1.73.34-3.58-1-4.29s-3.07,0-4.11,1.53c-1.34-1.31-3.21-1.62-4.34-.66s-1.14,2.86-.08,4.39c-1.7.77-2.67,2.4-2.19,3.8s2.54,2.22,4.5,1.54a4.26,4.26,0,0,0,.62-.26,3.82,3.82,0,0,0,.12.66c.51,2,2.19,3.33,3.75,2.94s2.27-2.07,2-3.92c1.87.06,3.46-1,3.64-2.46S267.49,318.49,265.67,318.09Zm-4.56,2.34Z"/><path class="cls-1" d="M262.4,328.26a4.1,4.1,0,0,1-3.62-3.35l0-.12-.12,0a5.1,5.1,0,0,1-1.67.29,3.42,3.42,0,0,1-3.41-2.11,3.61,3.61,0,0,1,2-4.13,3.61,3.61,0,0,1,.42-4.55,3.7,3.7,0,0,1,4.57.34,3.66,3.66,0,0,1,4.4-1.26,3.6,3.6,0,0,1,1.34,4.37,3.62,3.62,0,0,1,2.78,3.64,3.58,3.58,0,0,1-3.58,2.84,3.63,3.63,0,0,1-2.38,3.92,3.08,3.08,0,0,1-.68.08Zm-3.3-4.57a.46.46,0,0,1,.45.4,3.16,3.16,0,0,0,.11.6c.44,1.74,1.89,2.94,3.19,2.61s1.91-1.77,1.66-3.41a.45.45,0,0,1,.1-.37.53.53,0,0,1,.36-.15h.13c1.59,0,2.89-.89,3-2.06s-.95-2.42-2.57-2.78a.52.52,0,0,1-.31-.23.48.48,0,0,1,0-.39c.65-1.53.32-3.12-.76-3.71s-2.63.05-3.53,1.39a.46.46,0,0,1-.33.2.49.49,0,0,1-.36-.13c-1.15-1.12-2.81-1.42-3.73-.64s-.94,2.42,0,3.78a.46.46,0,0,1,.06.38.5.5,0,0,1-.25.3c-1.51.68-2.35,2.07-2,3.24a2.55,2.55,0,0,0,2.55,1.49,4.44,4.44,0,0,0,1.38-.23,4.72,4.72,0,0,0,.56-.24.46.46,0,0,1,.2-.05Z"/><path class="cls-28" d="M263.79,319.58a2.84,2.84,0,1,0-2.06,3.45A2.86,2.86,0,0,0,263.79,319.58Z"/><path class="cls-1" d="M261,323.57h0a3.3,3.3,0,0,1-.81-6.49,3.74,3.74,0,0,1,.81-.1,3.3,3.3,0,0,1,.82,6.49,3.23,3.23,0,0,1-.82.1Zm0-5.68a2.44,2.44,0,0,0-.59.07,2.41,2.41,0,0,0-1.46,1.1,2.37,2.37,0,0,0-.26,1.8,2.39,2.39,0,1,0,2.31-3Z"/><rect class="cls-30" x="125.76" y="300.38" width="48.88" height="2.96" transform="translate(-161.14 431.26) rotate(-86.11)"/><path class="cls-1" d="M150,326.8h0l-2.95-.2a.46.46,0,0,1-.42-.49l3.29-48.77a.42.42,0,0,1,.15-.31.44.44,0,0,1,.33-.11l2.95.2a.47.47,0,0,1,.43.49l-3.29,48.77a.47.47,0,0,1-.16.31.46.46,0,0,1-.29.11Zm-2.48-1.08,2.05.14L152.84,278l-2.05-.14-3.23,47.86Z"/><rect class="cls-30" x="123.25" y="299.92" width="48.88" height="2.96" transform="translate(-174.53 395.37) rotate(-80.15)"/><path class="cls-1" d="M145,326.19h-.08l-2.92-.5a.47.47,0,0,1-.37-.53L150,277a.44.44,0,0,1,.19-.29.43.43,0,0,1,.33-.08l2.92.51a.45.45,0,0,1,.37.52l-8.36,48.16a.45.45,0,0,1-.18.3.5.5,0,0,1-.26.08Zm-2.4-1.33,2,.35,8.2-47.27-2-.35-8.21,47.27Z"/><path class="cls-4" d="M155.08,301.91a7.57,7.57,0,1,1-7.57-7.57A7.56,7.56,0,0,1,155.08,301.91Z"/><path class="cls-1" d="M147.51,309.93a8,8,0,1,1,8-8,8,8,0,0,1-8,8Zm0-15.14a7.12,7.12,0,1,0,7.12,7.12,7.13,7.13,0,0,0-7.12-7.12Z"/><rect class="cls-30" x="53.63" y="202.07" width="48.88" height="2.96" transform="translate(-51.02 27.87) rotate(-15.33)"/><path class="cls-1" d="M54.89,211.9a.46.46,0,0,1-.22-.06.47.47,0,0,1-.21-.27l-.78-2.86a.45.45,0,0,1,.31-.56l47.14-12.93a.46.46,0,0,1,.56.32l.78,2.85a.46.46,0,0,1-.32.56L55,211.88a.27.27,0,0,1-.13,0Zm-.22-3,.54,2,46.27-12.7-.55-2L54.67,208.91Z"/><rect class="cls-30" x="53.24" y="199.55" width="48.88" height="2.96" transform="translate(-31.61 15.28) rotate(-9.34)"/><path class="cls-1" d="M53.8,206.91a.5.5,0,0,1-.26-.08.42.42,0,0,1-.18-.3l-.49-2.92a.46.46,0,0,1,.38-.52l48.23-8a.46.46,0,0,1,.34.08.49.49,0,0,1,.18.3l.48,2.92a.45.45,0,0,1-.37.52l-48.23,7.95Zm0-3,.34,2,47.33-7.8-.33-2-47.34,7.8Z"/><path class="cls-4" d="M79.64,208.18a7.57,7.57,0,1,1,4.66-9.64A7.59,7.59,0,0,1,79.64,208.18Z"/><path class="cls-1" d="M77.14,209.05a8,8,0,0,1-7.22-11.51,7.92,7.92,0,0,1,4.58-4.09,8,8,0,1,1,5.28,15.16,8.17,8.17,0,0,1-2.64.44Zm0-15.14a7.13,7.13,0,0,0-6.41,4,7.11,7.11,0,0,0,6.4,10.22,7.25,7.25,0,0,0,2.35-.4,7.12,7.12,0,0,0-2.34-13.84Z"/><rect class="cls-30" x="323.82" y="166.73" width="48.88" height="2.96" transform="matrix(0.99, -0.13, 0.13, 0.99, -18.69, 46.04)"/><path class="cls-1" d="M324.21,173.27a.46.46,0,0,1-.45-.4l-.38-2.94a.45.45,0,0,1,.39-.5l48.48-6.27a.42.42,0,0,1,.34.09.48.48,0,0,1,.17.3l.38,2.94a.46.46,0,0,1-.39.5l-48.48,6.27Zm.13-3,.26,2,47.58-6.15-.26-2-47.58,6.15Z"/><rect class="cls-30" x="323.86" y="169.29" width="48.88" height="2.96" transform="translate(-3.98 8.38) rotate(-1.37)"/><path class="cls-1" d="M323.9,173.29a.46.46,0,0,1-.45-.44l-.07-3a.5.5,0,0,1,.12-.33.55.55,0,0,1,.32-.14l48.87-1.18a.48.48,0,0,1,.32.13.43.43,0,0,1,.14.32l.07,3a.45.45,0,0,1-.44.46l-48.87,1.18Zm.4-3,.05,2.05,47.95-1.16,0-2.05-48,1.16Z"/><path class="cls-4" d="M347.36,163.41a7.57,7.57,0,1,1-6,8.9A7.58,7.58,0,0,1,347.36,163.41Z"/><path class="cls-1" d="M348.82,178.87a8,8,0,0,1-6.66-12.49,7.93,7.93,0,0,1,5.11-3.41,7.54,7.54,0,0,1,1.57-.16,8,8,0,0,1,1.55,15.9,8.28,8.28,0,0,1-1.57.16Zm0-15.15a7.3,7.3,0,0,0-1.4.14,7.1,7.1,0,1,0,1.4-.14Z"/><rect class="cls-30" x="236.06" y="59.47" width="48.88" height="2.96" transform="translate(30.79 198.1) rotate(-44.01)"/><path class="cls-1" d="M244,79.45h0a.43.43,0,0,1-.32-.14l-2.06-2.13a.46.46,0,0,1,0-.64l35.15-34a.6.6,0,0,1,.33-.13.45.45,0,0,1,.32.14l2.05,2.13a.45.45,0,0,1,0,.64l-35.15,34a.44.44,0,0,1-.32.13Zm-1.41-2.57L244,78.36,278.46,45,277,43.55l-34.5,33.33Z"/><rect class="cls-30" x="237.62" y="61.5" width="48.88" height="2.96" transform="translate(16.79 174.72) rotate(-38.01)"/><path class="cls-1" d="M243.72,79.66h-.05a.44.44,0,0,1-.31-.17l-1.82-2.33a.46.46,0,0,1,.08-.64l38.5-30.11a.41.41,0,0,1,.33-.09.44.44,0,0,1,.31.17l1.82,2.33a.45.45,0,0,1-.08.63L244,79.56a.48.48,0,0,1-.28.1ZM242.53,77l1.27,1.61L281.59,49l-1.27-1.62L242.53,77Z"/><path class="cls-4" d="M256.91,57.64a7.57,7.57,0,1,1,.54,10.7A7.58,7.58,0,0,1,256.91,57.64Z"/><path class="cls-1" d="M262.52,70.75a8,8,0,1,1,6-2.65,8,8,0,0,1-6,2.65Zm0-15.15A7.14,7.14,0,0,0,257.25,58a7.11,7.11,0,0,0,5.27,11.89,7.11,7.11,0,0,0,7.12-7.48,7.13,7.13,0,0,0-7.11-6.76Z"/><rect class="cls-31" x="128.24" y="64.15" width="2.35" height="38.75" transform="translate(-22.02 111.68) rotate(-43.37)"/><path class="cls-1" d="M141.87,98.87a.44.44,0,0,1-.33-.15L114.92,70.57a.47.47,0,0,1,0-.65l1.7-1.61a.46.46,0,0,1,.64,0L143.9,96.49a.44.44,0,0,1,.13.32.52.52,0,0,1-.14.32l-1.71,1.61a.48.48,0,0,1-.31.13Zm-26-28.6,26,27.5,1-1-26-27.5-1,1Z"/><rect class="cls-31" x="129.86" y="62.93" width="2.35" height="38.75" transform="translate(-23.06 96.44) rotate(-37.37)"/><path class="cls-1" d="M141.87,98.87a.44.44,0,0,1-.36-.18L118,67.91a.52.52,0,0,1-.09-.34.45.45,0,0,1,.18-.3l1.86-1.42a.45.45,0,0,1,.64.08l23.53,30.78a.46.46,0,0,1-.08.64l-1.86,1.42a.44.44,0,0,1-.28.1ZM119,67.72l23,30.06,1.15-.88-23-30.06-1.14.88Z"/><path class="cls-4" d="M126.76,86.34a6,6,0,1,1,8.48-.33A6,6,0,0,1,126.76,86.34Z"/><path class="cls-1" d="M130.83,88.39a6.46,6.46,0,1,1,4.39-11.19,6.46,6.46,0,0,1,.35,9.12,6.46,6.46,0,0,1-4.74,2.07Zm0-12a5.54,5.54,0,1,0,3.77,1.47,5.55,5.55,0,0,0-3.77-1.47Z"/><circle class="cls-12" cx="205.32" cy="175.05" r="91.57" transform="matrix(0.05, -1, 1, 0.05, 20.94, 372.03)"/><path class="cls-1" d="M205.32,267.58a92.53,92.53,0,1,1,92.52-92.53,92.64,92.64,0,0,1-92.52,92.53Zm0-183.15a90.63,90.63,0,1,0,90.62,90.62,90.73,90.73,0,0,0-90.62-90.62Z"/><rect class="cls-32" x="262.3" y="246.87" width="2.35" height="38.75" transform="translate(-109.95 295.49) rotate(-49.78)"/><path class="cls-1" d="M277.51,280.1a.48.48,0,0,1-.29-.11l-29.59-25a.39.39,0,0,1-.16-.3.47.47,0,0,1,.1-.34l1.52-1.79a.46.46,0,0,1,.64,0l29.59,25a.45.45,0,0,1,.16.31.47.47,0,0,1-.11.33l-1.51,1.79a.48.48,0,0,1-.35.16Zm-28.95-25.53L277.46,279l.93-1.1-28.9-24.43-.93,1.09Z"/><rect class="cls-32" x="260.83" y="248.26" width="2.35" height="38.75" transform="translate(-112.34 255.73) rotate(-43.79)"/><path class="cls-1" d="M274.56,282.88a.47.47,0,0,1-.32-.14l-26.83-28a.41.41,0,0,1-.12-.32.45.45,0,0,1,.14-.32l1.69-1.62a.46.46,0,0,1,.64,0l26.83,28a.47.47,0,0,1,.12.32.43.43,0,0,1-.14.32l-1.69,1.62a.44.44,0,0,1-.32.13Zm-26.18-28.4,26.2,27.31,1-1-26.2-27.31-1,1Z"/><path class="cls-4" d="M265.8,263.15a6,6,0,1,1-8.39,1.27A6,6,0,0,1,265.8,263.15Z"/><path class="cls-1" d="M262.23,274.44A6.46,6.46,0,0,1,257,264.15a6.46,6.46,0,1,1,5.19,10.29Zm0-12a5.55,5.55,0,0,0-3.29,10,5.49,5.49,0,0,0,3.28,1.08,5.55,5.55,0,0,0,3.3-10,5.5,5.5,0,0,0-3.29-1.08Z"/><path class="cls-33" d="M130.68,184c0,.94,0,2.11-1.48,2.11s-1.56-1.07-1.56-2.11V166.2c0-.94,0-2.11,1.48-2.11s1.56,1.09,1.56,2.11v5a50.66,50.66,0,0,1,8,2.94c1.22.63,2.71,1.38,2.71,2.39a1.44,1.44,0,0,1-1.33,1.51c-.36,0-.49-.07-1.61-.7a32.63,32.63,0,0,0-7.78-3.12Z"/><path class="cls-33" d="M146.33,178.24c-.85,0-1-.24-1.84-2.53a20.24,20.24,0,0,1-1.28-3.19,1.21,1.21,0,0,1,1.2-1.15c.83,0,1.17.6,1.74,1.95a22,22,0,0,1,1.41,3.8A1.27,1.27,0,0,1,146.33,178.24Zm1.9,7.17a1.1,1.1,0,0,1-1.19-1.19,1.16,1.16,0,0,1,1-1.2c2.26-.78,8.08-2.73,8.52-9.73.11-1.48.16-2.31,1.3-2.31a1.26,1.26,0,0,1,1.25,1.46C159.1,182,149.9,185.41,148.23,185.41Zm2.86-8.79c-.78,0-.83-.13-1.77-2.44-.28-.7-.38-.94-1-2.26a2.35,2.35,0,0,1-.24-.86,1.17,1.17,0,0,1,1.22-1.09c.81,0,1.07.54,1.57,1.63a21,21,0,0,1,1.37,3.93A1.08,1.08,0,0,1,151.09,176.62Z"/><path class="cls-33" d="M178.76,165.7a2.82,2.82,0,0,1,3.07,3c0,5.2-3.31,10.61-8.79,14-2.37,1.45-5.44,2.7-6.71,2.7a1.47,1.47,0,0,1-1.46-1.56c0-1.17.83-1.43,1.62-1.64.28-.07,6.73-2,10-6.63a13.13,13.13,0,0,0,2.39-6.21c0-.76-.39-.81-1.2-.81H164.35c-1.06,0-2.1,0-2.1-1.45s1.09-1.41,2.1-1.41Zm4.76,1.35a2.29,2.29,0,1,1,0-4.57,2.29,2.29,0,0,1,0,4.57Zm0-3.48a1.21,1.21,0,1,0,1.19,1.2A1.21,1.21,0,0,0,183.52,163.57Z"/><path class="cls-33" d="M203.64,174a70.25,70.25,0,0,1,5.28,7.36,1.68,1.68,0,0,1,.23.86,1.56,1.56,0,0,1-1.51,1.51c-.8,0-1.06-.39-2.54-2.6a105.77,105.77,0,0,0-7.08-9.42c-1-1.19-1.63-1.87-2.47-1.87s-2.21,1.48-3.4,2.84c-.76.83-1.85,2.21-2.63,3a1.4,1.4,0,0,1-1,.44,1.55,1.55,0,0,1-1.51-1.51c0-.7.18-.91,1.92-2.86,4-4.39,5.26-5.2,6.63-5.2C197.56,166.56,199.9,169.16,203.64,174Zm3.33-5.3a2.6,2.6,0,1,1,2.62-2.6A2.61,2.61,0,0,1,207,168.72Zm0-3.9a1.3,1.3,0,1,0,1.3,1.3A1.28,1.28,0,0,0,207,164.82Z"/><path class="cls-33" d="M213.73,176.6c-.94,0-2.11,0-2.11-1.46s1.15-1.48,2.11-1.48H232.5c.94,0,2.11,0,2.11,1.48s-1.17,1.46-2.11,1.46Z"/><path class="cls-33" d="M244.54,176.1c-.52,0-.83-.23-3.49-2.1-.44-.31-2.41-1.59-2.78-1.88a1.36,1.36,0,0,1-.54-1,1.53,1.53,0,0,1,1.48-1.56c.83,0,2.75,1.38,3.74,2.11,2.71,2,3,2.18,3,3A1.51,1.51,0,0,1,244.54,176.1Zm-5.7,7.83c0-1.51,1.3-1.51,1.85-1.51,7.05,0,13-4.68,15.65-11.65a1.54,1.54,0,0,1,1.41-1.25,1.43,1.43,0,0,1,1.53,1.44c0,1.37-2.37,6.62-7.2,10.55a19.93,19.93,0,0,1-11.49,4A1.56,1.56,0,0,1,238.84,183.93Zm9.08-12.85c-.37,0-.6-.12-2.21-1.27-1.3-.91-2.58-1.64-3.64-2.26-.57-.34-1-.73-1-1.35a1.56,1.56,0,0,1,1.45-1.54c.84,0,3.39,1.69,4.48,2.45,2,1.4,2.44,1.82,2.44,2.47A1.46,1.46,0,0,1,247.92,171.08Zm8.21-7.28c.39,0,.65.11,1.36.91,1.17,1.33,1.5,2.06,1.5,2.53a.73.73,0,0,1-.72.83c-.5,0-.63-.18-1.54-1.85-.1-.18-1-1.38-1.12-1.53a.61.61,0,0,1-.13-.57A.68.68,0,0,1,256.13,163.8Zm1.82-1.24c.81,0,3.2,2.26,3.2,3.38a.72.72,0,0,1-.75.78c-.34,0-.44-.13-1.25-1.36a11.93,11.93,0,0,0-1.51-1.89.59.59,0,0,1-.21-.5A.53.53,0,0,1,258,162.56Z"/><path class="cls-33" d="M279,174.05a80.76,80.76,0,0,1,5.28,7.36,1.84,1.84,0,0,1,.23.86,1.55,1.55,0,0,1-1.51,1.5c-.73,0-.78-.07-2.78-2.93a102.71,102.71,0,0,0-7-9.26c-.81-1-1.43-1.69-2.32-1.69-.62,0-1,.26-2.26,1.59-1,1.09-2.55,2.93-3.56,4.05a1.5,1.5,0,0,1-2.73-.86c0-.7.18-.93,1.92-2.86,4.21-4.68,5.36-5.22,6.63-5.22C272.83,166.59,275.09,169,279,174.05Z"/></g></g></svg>