<svg xmlns="http://www.w3.org/2000/svg" width="160" height="40" viewBox="0 0 160 40"><title>asst</title><g id="レイヤー_2" data-name="レイヤー 2"><g id="レイヤー_1-2" data-name="レイヤー 1"><rect width="160" height="40" style="fill:red"/><path d="M17.34,21.75a3.23,3.23,0,0,0,1.12.74,3.83,3.83,0,0,0,1.21.17A19,19,0,0,0,23.85,22,6.6,6.6,0,0,0,26,21.16a.66.66,0,0,1,.51-.17,2.57,2.57,0,0,1,1.37.57.94.94,0,0,1,.46.72c0,.44-.37.64-1.54.87-.95.19-2.82.44-4.13.55,1.2.54,1.64.92,1.64,1.47a1.77,1.77,0,0,1-.19.74A27.74,27.74,0,0,0,23.63,30c.72,0,1.93-.11,2.81-.15a6.64,6.64,0,0,0,2.28-.25,1.28,1.28,0,0,1,.47-.11,2.8,2.8,0,0,1,1.37.66,1.69,1.69,0,0,1,.78,1.14.65.65,0,0,1-.65.71,5.71,5.71,0,0,1-1.25-.23,22,22,0,0,0-4.69-.48,20.44,20.44,0,0,0-4.53.54,9.53,9.53,0,0,0-2.5.83,1.67,1.67,0,0,1-.72.21,2.29,2.29,0,0,1-1.68-1.16,3,3,0,0,1-.66-1.61,1.08,1.08,0,0,1,.09-.46,2.24,2.24,0,0,0,1.94,1.24,31.36,31.36,0,0,0,3.74-.52c.31,0,.5-.07,1.39-.19.06-1,.08-2.2.08-3.15,0-2.28-.08-2.7-.61-3.13a4.77,4.77,0,0,1-2.87-.57,3.76,3.76,0,0,1-1.25-1.41Z" style="fill:#fff"/><path d="M35.58,20.87a10.69,10.69,0,0,1,4.16,1.24,1.77,1.77,0,0,1,.93,1.63c0,.89-.44,1.58-1,1.58-.32,0-.51-.15-.8-.65a8.91,8.91,0,0,0-3.36-3.59ZM50,22a20.36,20.36,0,0,1-4.28,5.89,30.4,30.4,0,0,1-5.51,4.34,4.19,4.19,0,0,0-1,.83,1.08,1.08,0,0,1-.8.48c-.5,0-1.2-.54-1.86-1.39A3.63,3.63,0,0,1,35.63,30a1.38,1.38,0,0,1,.1-.51c.51.87,1.14,1.4,1.65,1.4.8,0,3.29-1.31,5.55-2.92a37.32,37.32,0,0,0,6.86-6.12Z" style="fill:#fff"/><path d="M57.86,18.8a5.56,5.56,0,0,1,2.09.55c.84.42,1.24.82,1.24,1.26a1,1,0,0,1-.17.51,2.42,2.42,0,0,0-.33,1.25c0,.38-.07,1.62-.11,2.63a13.92,13.92,0,0,1,4.58.93,1.92,1.92,0,0,1,1.39,1.86c0,.81-.35,1.35-.84,1.35-.29,0-.4-.08-.89-.63a10.83,10.83,0,0,0-4.24-3v3c0,1.59,0,1.59.06,3.86,0,.32,0,.58,0,.91a3.36,3.36,0,0,1-.12,1.14.68.68,0,0,1-.66.47,1.36,1.36,0,0,1-1-.66,2.93,2.93,0,0,1-.68-1.54,2,2,0,0,1,.17-.76c.32-.93.44-3.14.44-8,0-2.74-.06-3.46-.35-4a2.3,2.3,0,0,0-1.31-1A1.34,1.34,0,0,1,57.86,18.8Z" style="fill:#fff"/><path d="M75,20a5.34,5.34,0,0,1,2.53.85,1,1,0,0,1,.46.78v0a2.66,2.66,0,0,1-.17.66,11,11,0,0,0-.16,2.36c0,.3,0,.87,0,1.69,0,.46,0,.91,0,1.12a5.75,5.75,0,0,1-.06,1,.72.72,0,0,1-.7.68c-.34,0-.72-.3-1-.83a3.39,3.39,0,0,1-.48-1.35c0-.15,0-.15.12-.48a10.71,10.71,0,0,0,.32-3.08,4.64,4.64,0,0,0-.36-2.39c-.25-.42-.48-.59-1.22-.91A1.1,1.1,0,0,1,75,20Zm2.09,15a11.07,11.07,0,0,0,4.13-4.23c.89-1.79,1.12-3.35,1.12-7.7,0-2.14-.06-2.79-.33-3.17a2.49,2.49,0,0,0-1.5-.89,1.24,1.24,0,0,1,.88-.29,6.46,6.46,0,0,1,2.26.55c.81.38,1.16.71,1.16,1.14a1.13,1.13,0,0,1-.14.5,13.57,13.57,0,0,0-.32,3.78,16.3,16.3,0,0,1-.49,4.69c-.86,2.74-3.18,4.77-6.65,5.81Z" style="fill:#fff"/><path d="M92.27,25.53a2.94,2.94,0,0,0,1.9.4c.76,0,4.24-.06,7.53-.14.32,0,1.55,0,2.12,0,1.9,0,2.49.08,2.8.35a.74.74,0,0,1,.22.57c0,.47-.41.77-1.23.89-1.06.13-2.74.19-8.47.23-.88,0-1,0-2.36.07a2.31,2.31,0,0,0-.83.17,1.67,1.67,0,0,1-.65.16c-.46,0-1-.42-1.41-1.18a4.26,4.26,0,0,1-.66-2,.69.69,0,0,1,.23-.62A3,3,0,0,0,92.27,25.53Z" style="fill:#fff"/><path d="M114.28,35.33a8.64,8.64,0,0,0,2.33-1.63,5.66,5.66,0,0,0,1.64-3,2.12,2.12,0,0,1-1.18.35c-1.45,0-2.55-1.33-2.55-3.1a2.78,2.78,0,0,1,2.7-3.06,2.24,2.24,0,0,1,1.16.32v-.91c0-.45,0-.61,0-1.27a17.53,17.53,0,0,0-5.93,1.56,1.85,1.85,0,0,1-.55.11,2.25,2.25,0,0,1-1.65-1.18,3.1,3.1,0,0,1-.59-1.5.9.9,0,0,1,.08-.32,2.31,2.31,0,0,0,2,1.12,26.83,26.83,0,0,0,4-.49c.76-.12,1.33-.18,2.62-.33,0-1.44-.13-2.05-.4-2.41a2.28,2.28,0,0,0-1.65-.8,1.49,1.49,0,0,1,1.2-.38,7.36,7.36,0,0,1,2.14.33c.74.24,1.09.55,1.09,1a1.06,1.06,0,0,1-.19.59,2.94,2.94,0,0,0-.42,1.46c2.64-.22,2.79-.24,3.44-.53a1.76,1.76,0,0,1,.81-.19,3.36,3.36,0,0,1,1.85.8.84.84,0,0,1,.34.7c0,.35-.29.57-.69.57a9,9,0,0,1-1.12-.13,23.51,23.51,0,0,0-3.11-.19,14.64,14.64,0,0,0-1.62.08c-.07,1-.13,2.24-.13,2.94v.4a5,5,0,0,1,.67,2.64,6.11,6.11,0,0,1-2.65,5.19,10.72,10.72,0,0,1-3.51,1.5Zm2.84-9.88c-.75,0-1.34.8-1.34,1.82,0,1.2.57,2,1.4,2s1.18-.61,1.18-1.66C118.36,26.25,117.9,25.45,117.12,25.45Z" style="fill:#fff"/><path d="M134,27.75A9.16,9.16,0,0,1,139.05,26c2.62,0,4.41,1.58,4.41,3.88,0,2.85-2.7,4.94-6.37,4.94-2.16,0-3.59-.9-3.59-2.26,0-1.14,1-1.94,2.42-1.94a3.7,3.7,0,0,1,3.4,2.2,3.45,3.45,0,0,0,2-3.28c0-1.71-1-2.66-2.83-2.66a6.39,6.39,0,0,0-3.82,1.4,12.31,12.31,0,0,0-2.18,2.26c-.32.44-.36.5-.53.61a.79.79,0,0,1-.4.17c-.52,0-1-.83-1-1.71,0-.53.09-.66.89-1.31a51.17,51.17,0,0,0,5.06-5.51,19.6,19.6,0,0,0,1.82-2.39l0,0h0a1.66,1.66,0,0,1-.38.15c-.15.08-.49.21-1,.44l-1,.42-1.42.66a1.89,1.89,0,0,1-.84.27c-.41,0-.81-.29-1.21-.9a3,3,0,0,1-.55-1.57,1.5,1.5,0,0,1,.17-.69c.38.93,1,1.43,1.65,1.43a13.28,13.28,0,0,0,2.83-.59,4.77,4.77,0,0,0,1.71-.72,1,1,0,0,1,.61-.27h0a3.05,3.05,0,0,1,1.63,1.14A1.37,1.37,0,0,1,141,21c0,.24-.11.38-.61.64a9.38,9.38,0,0,0-2.28,1.9c-1,.95-1.4,1.35-2.77,2.8l-1.35,1.42Zm1.41,3.78c-.69,0-1.16.38-1.16.91,0,.71.89,1.2,2.16,1.2a4.61,4.61,0,0,0,1.22-.15A2.38,2.38,0,0,0,135.37,31.53Z" style="fill:#fff"/><path d="M31.26,14A4.9,4.9,0,0,1,32,11.8a10.21,10.21,0,0,1,2.18-2.2,3.14,3.14,0,0,0,.91-1,2.21,2.21,0,0,0,.24-1c0-1-.52-1.59-1.3-1.59a1,1,0,0,0-1,.74,3.48,3.48,0,0,0-.12,1c0,.43-.22.61-.7.61s-.78-.19-.78-.59A1.91,1.91,0,0,1,32.3,6.2a3.2,3.2,0,0,1,1.83-.49c1.66,0,2.65.76,2.65,2a2.06,2.06,0,0,1-.5,1.39,4.76,4.76,0,0,1-1.21.9,9.72,9.72,0,0,0-2.28,1.5,2.89,2.89,0,0,0-.87,1.24h3.19c.9,0,1.22-.29,1.42-1.28l.37.08L36.51,14Z" style="fill:#fff"/><path d="M42.49,12.56c0,.91.14,1.07,1,1.08V14H40.17v-.3c.51,0,.63,0,.77-.15s.23-.41.23-.94v-.78H37.61v-.53l3.85-5.47h1v5.5h1.18v.5H42.49ZM41.17,6.93l-3.06,4.35h3.06Z" style="fill:#fff"/><path d="M48.91,13.48c0,.16,0,.21-.13.26a2.87,2.87,0,0,1-.63.06c-.38,0-.44,0-.44-.22,0-1.58.06-3.1.06-5.3,0-1.12,0-1.84-.07-3A10.69,10.69,0,0,1,49,6h.88c.24-.29.32-.38.58-.67.38.29.5.37.86.67.1.09.14.14.14.19s-.11.18-.38.32v3c0,1.32,0,1.32,0,3.66,0,.1,0,.16,0,.19s-.33.13-.73.13-.39,0-.41-.21v-.67h-1Zm1-7.28h-1V9.07h1Zm-1,3.1v3h1v-3Zm7.26.92h.19l.54-.71c.38.33.49.44.82.77.05.05.06.08.06.1s-.05.07-.12.07H56.17v1.64c0,.21,0,.72,0,1.55,0,.6-.08.83-.36,1a1.71,1.71,0,0,1-.91.3l-.32,0c-.12,0-.15,0-.18-.2-.11-.56-.44-.75-1.7-1v-.16c1,.06,1.25.08,2,.1.18,0,.22-.06.22-.2V10.45H52a2.1,2.1,0,0,0-.63.07l-.09-.4a3.13,3.13,0,0,0,.73.1H55V8.78h-3a2.51,2.51,0,0,0-.64.07l-.08-.39a2.79,2.79,0,0,0,.72.08h1.44V6.83h-1.3a2.09,2.09,0,0,0-.63.08l-.09-.41a2.19,2.19,0,0,0,.73.1h1.29V5.85c0-.17,0-.2-.06-1,1.65.18,1.74.19,1.74.34s-.11.16-.47.28V6.6h.89c.31-.4.41-.52.73-.89a14.13,14.13,0,0,1,1.1,1s.06.08.06.1,0,.07-.11.07H54.59V8.54H55.8c.32-.37.42-.49.76-.86a12.83,12.83,0,0,1,1.14.93.16.16,0,0,1,.07.1s-.06.07-.13.07H56.17ZM52,10.8a5.56,5.56,0,0,1,1.46.66c.37.24.53.47.53.74,0,.46-.37.93-.74.93-.16,0-.24-.09-.31-.37a7.61,7.61,0,0,0-.42-1,3.92,3.92,0,0,0-.61-.85Z" style="fill:#fff"/><path d="M60,8.41v6.35c0,.25-.12.31-.76.31-.43,0-.49,0-.49-.25,0-1.62.06-2.81.06-5.47,0-2.92,0-3.68-.06-4.51.58.27.76.35,1.34.65h1.53l.59-.65.87.66c.1.07.15.13.15.17s-.09.17-.34.31v.93c0,.56,0,1,0,1.69v0a.19.19,0,0,1-.17.21,4.68,4.68,0,0,1-.66.06c-.28,0-.34,0-.35-.2V8.41Zm1.73-2.69H60v1.1h1.73Zm0,1.33H60V8.18h1.73Zm5,6.72c.14,0,.18,0,.18-.16V8.41H65.09v.21c0,.2-.15.25-.72.25-.41,0-.48,0-.48-.23,0-.91,0-1.55,0-2.65a9.84,9.84,0,0,0,0-1.12c.57.25.74.33,1.3.62h1.62l.6-.65c.4.28.52.37.91.66.11.09.15.14.15.2s-.09.17-.37.35v5c0,.68,0,1.9,0,2.82a1.28,1.28,0,0,1-.1.65c-.14.26-.42.42-1,.51a1.86,1.86,0,0,1-.36,0c-.11,0-.15,0-.16-.2a1,1,0,0,0-.34-.7,1.61,1.61,0,0,0-.62-.29c-.09.13-.31.18-.82.18-.28,0-.35,0-.36-.18v-.65h-2v.61c0,.11,0,.15-.07.18a1.41,1.41,0,0,1-.71.11c-.33,0-.4,0-.4-.22,0-1.06,0-1.58,0-2.5,0-1.36,0-1.76,0-2.33.56.25.73.33,1.28.61h1.78c.25-.26.33-.35.58-.59.38.25.5.34.86.6.11.1.16.14.16.2s-.09.15-.36.3c0,.41,0,.75,0,.95,0,.69,0,1.26,0,2.57ZM64.39,9.93h-2v1.33h2Zm-2,1.56V13h2V11.49ZM66.9,5.72H65.09v1.1H66.9Zm0,1.33H65.09V8.18H66.9Z" style="fill:#fff"/><path d="M75.28,9.73c1.67.13,2.53.86,2.53,2.13s-1.09,2.26-2.87,2.26c-1.56,0-2.7-.71-2.7-1.7,0-.42.31-.66.83-.66a.65.65,0,0,1,.56.21c.06.08.06.11.09.61a1.74,1.74,0,0,0,.29.88,1.17,1.17,0,0,0,.91.38c.91,0,1.43-.74,1.43-2a1.85,1.85,0,0,0-.61-1.59,2.64,2.64,0,0,0-1.43-.35H74V9.53h.31a1.7,1.7,0,0,0,1.89-1.9C76.18,6.56,75.77,6,75,6a.92.92,0,0,0-.87.46,2.13,2.13,0,0,0-.22.9c0,.36,0,.44-.13.55a.81.81,0,0,1-.57.16c-.51,0-.77-.19-.77-.54,0-1,1.13-1.81,2.6-1.81a3.11,3.11,0,0,1,2,.6,1.79,1.79,0,0,1,.61,1.35c0,1.08-.84,1.8-2.31,2Z" style="fill:#fff"/><path d="M82.26,8.78a2.37,2.37,0,0,1,2.47,2.54,2.66,2.66,0,0,1-2.83,2.8C80,14.12,79,12.75,79,10.19a5.87,5.87,0,0,1,.87-3.44,2.6,2.6,0,0,1,2.23-1c1.33,0,2.33.59,2.33,1.38,0,.4-.29.64-.79.64a.76.76,0,0,1-.6-.21C83,7.43,83,7.4,83,7c0-.63-.36-1-.87-1-.67,0-1.15.51-1.38,1.45a9.84,9.84,0,0,0-.23,2.09A2.31,2.31,0,0,1,82.26,8.78ZM80.68,9.91a2.13,2.13,0,0,0-.22,1.1,5.26,5.26,0,0,0,.35,2,1.24,1.24,0,0,0,1.11.84c.84,0,1.34-.94,1.34-2.5,0-1.36-.51-2.21-1.36-2.21A1.41,1.41,0,0,0,80.68,9.91Z" style="fill:#fff"/><path d="M86.63,9.85A2.87,2.87,0,0,1,88.75,9a2.36,2.36,0,0,1,2.61,2.48c0,1.64-1.15,2.68-3,2.68-1.44,0-2.56-.69-2.56-1.59,0-.42.27-.64.78-.64a.71.71,0,0,1,.55.19c.07.08.1.17.11.49a1.27,1.27,0,0,0,.31.9,1.14,1.14,0,0,0,.85.37,1.28,1.28,0,0,0,1.08-.56,3.17,3.17,0,0,0,.42-1.7c0-1.39-.57-2.19-1.56-2.19a2.2,2.2,0,0,0-1.85,1.2l-.36-.09.36-4.62H91l-.2,1.23h-4Z" style="fill:#fff"/><path d="M98.05,14.5c0,.25-.16.29-.92.29-.39,0-.45,0-.45-.26.07-2,.08-3.15.08-5.66,0-2.25,0-2.79-.06-3.72a11.82,11.82,0,0,1,1.47.73h4.19l.69-.73c.44.31.58.41,1,.73.11.09.16.15.16.21s-.09.18-.42.35V8.2c0,3.29,0,4,.07,6.18a.28.28,0,0,1-.07.23,2,2,0,0,1-.83.12c-.37,0-.46,0-.46-.21v-.69H98.05Zm4.41-8.39H98.05V9.57h4.41ZM98.05,9.8v3.79h4.41V9.8Z" style="fill:#fff"/><path d="M112.62,8.42a7.72,7.72,0,0,0,.89-2.24l.72.25c.85.27.91.3.91.42a.17.17,0,0,1-.06.12c-.08,0-.08,0-.48.12a11.42,11.42,0,0,1-1.5,1.33h1.35l.59-.61c.5.37.65.49,1.16.91.1.1.12.14.12.19a.15.15,0,0,1-.07.11.63.63,0,0,1-.25,0h-.42a10.14,10.14,0,0,1-1.36.91,1,1,0,0,1,.25.19c.08.08.11.13.11.18s-.06.14-.64.23a10.26,10.26,0,0,1-1.87,2.09,10,10,0,0,0,4.12.78v.11a1.22,1.22,0,0,0-.69.54,1.77,1.77,0,0,0-.27.57c0,.12-.06.16-.19.16a3.6,3.6,0,0,1-.5-.09,8.35,8.35,0,0,1-3.2-1.52A8.72,8.72,0,0,1,109,14.4a12.82,12.82,0,0,1-2.58.58l0-.12a12.78,12.78,0,0,0,3.06-1.4,8.53,8.53,0,0,0,1.2-.89,5.82,5.82,0,0,1-1.43-2.42h-.34a4,4,0,0,0-.72.06l-.06-.38a3.26,3.26,0,0,0,.88.09h3.75l.64-.61c.34.24.49.35.69.51a4.82,4.82,0,0,0,.48-1.17h-6.72c0,.17,0,.18,0,.32a2.32,2.32,0,0,1-.34,1.35.83.83,0,0,1-.61.36c-.29,0-.6-.43-.6-.82,0-.24.07-.34.34-.5a1.84,1.84,0,0,0,.7-.74,1.81,1.81,0,0,0,.17-.87l.12,0a2.94,2.94,0,0,1,.18.69h1.08a.21.21,0,0,1-.11-.15l-.17-.63a3.18,3.18,0,0,0-.4-1H107V6.48a23.85,23.85,0,0,0,7.11-1.64c.28.17.49.32.63.39.74.45.77.48.77.59s-.09.14-.21.14a2.57,2.57,0,0,1-.44-.06,24.19,24.19,0,0,1-4.23.63c1.06.51,1.44.8,1.44,1.19a.88.88,0,0,1-.41.7Zm-1.59,0c-.1-.1-.1-.1-.29-.84a3,3,0,0,0-.44-1c-.79.06-1.06.07-1.89.09,1.06.54,1.33.77,1.33,1.13a.73.73,0,0,1-.34.66Zm-1.64,1.73a4.56,4.56,0,0,0,1.72,2,9.36,9.36,0,0,0,1.56-2Z" style="fill:#fff"/><path d="M117.13,10.66a13.88,13.88,0,0,0,1.4-2.61,13.46,13.46,0,0,0,1-3.16c.36.09.65.17.82.2.79.19,1,.26,1,.4s-.14.18-.53.22a11.7,11.7,0,0,1-1.46,2.7,5.75,5.75,0,0,1,.76.12c.11,0,.15.07.15.12s-.12.18-.39.27v2.91c0,.68,0,1.78,0,2.82,0,.3-.17.37-.75.37-.43,0-.49,0-.49-.26v0c0-1.7.06-2,.06-2.83V9.25a8.79,8.79,0,0,1-1.44,1.48ZM121,8.16c-.21,0-.37,0-.75,0l0-.36a5.06,5.06,0,0,0,.8.09h3.43V6.34c0-.55,0-.77,0-1.28l.78.07c.74.07,1,.14,1,.28s-.11.15-.45.29V7.93h.14c.29-.39.38-.51.68-.88.47.39.6.52,1,.93a.21.21,0,0,1,.05.09c0,.06-.05.09-.13.09h-1.79v3.26c0,1.91,0,1.91,0,2.44a.85.85,0,0,1-.35.76,3.06,3.06,0,0,1-1.36.38c-.11,0-.13,0-.15-.17a.75.75,0,0,0-.28-.58,2.57,2.57,0,0,0-.8-.35l-.86-.23v-.12c1.38.08,1.44.08,2.28.1.2,0,.25-.07.25-.21V8.16ZM121,9a9.05,9.05,0,0,1,1.82,1.15,1,1,0,0,1,.42.81c0,.48-.44,1-.81,1a.27.27,0,0,1-.27-.19,4.42,4.42,0,0,1-.16-.51,5.73,5.73,0,0,0-1.11-2.22Z" style="fill:#fff"/></g></g></svg>