<svg id="レイヤー_1" data-name="レイヤー 1" xmlns="http://www.w3.org/2000/svg" xmlns:xlink="http://www.w3.org/1999/xlink" width="1170" height="50" viewBox="0 0 1170 50"><defs><style>.cls-1,.cls-2{fill:none;}.cls-2{stroke:#000;stroke-miterlimit:10;}.cls-3{clip-path:url(#clip-path);}.cls-4{clip-path:url(#clip-path-2);}</style><clipPath id="clip-path"><rect class="cls-1" x="2" y="-1022" width="1170" height="360"/></clipPath><clipPath id="clip-path-2"><rect class="cls-1" x="1206" y="-1022" width="414" height="578"/></clipPath><image id="image" width="1478" height="1108" xlink:href="../../九州福祉サービス/download.jpg"/></defs><title>midashi_shisetu</title><path d="M523,13.27a21.63,21.63,0,0,0-.21-3.22h2.58a18,18,0,0,0-.21,3.22v2.3h2.38a20,20,0,0,0,3.11-.17v2.27a22.33,22.33,0,0,0-3.11-.14h-4.3c-.07,2-.07,2-.14,4.78h3.53a14.79,14.79,0,0,0,2.45-.14c0,.67-.07,1.3-.07,2.17a101.48,101.48,0,0,1-.67,12.36c-.31,1.92-.7,3-1.26,3.43a4.29,4.29,0,0,1-2.51.52c-.45,0-1.43-.07-2.38-.14a8.26,8.26,0,0,0-.41-2.27,10.66,10.66,0,0,0,2.82.38c1.23,0,1.44-.31,1.79-2.68a88.23,88.23,0,0,0,.59-11.7h-4a43.22,43.22,0,0,1-1,8.59,21.84,21.84,0,0,1-3.94,8.31,7.52,7.52,0,0,0-1.64-1.75c2.51-3.07,3.7-6.21,4.26-11.24a105.31,105.31,0,0,0,.49-10.62h-1a16.38,16.38,0,0,0-2.93.17V15.36a18.2,18.2,0,0,0,3,.21H523Zm10.89,3.56a37.36,37.36,0,0,1-3.77,5.73,4.36,4.36,0,0,0-1.67-1.4,26.4,26.4,0,0,0,5.52-9.5,9.91,9.91,0,0,0,.48-1.74l2.34.55a8,8,0,0,0-.62,1.47c-.6,1.43-.81,1.89-1.26,2.9h10a22.27,22.27,0,0,0,3.56-.21V17c-1-.1-2.2-.14-3.56-.14Zm4.58,6.85V21.09a23.72,23.72,0,0,0-.17-2.9h2.34a16.44,16.44,0,0,0-.21,2.83v2.06l3.91-1.22a24.12,24.12,0,0,0,2.86-1.05c-.1,2.24-.1,2.66-.14,3.39-.17,5.41-.38,7.4-.91,8.35-.34.59-1,.84-2.34.84-.41,0-1.15,0-1.92-.11a8.14,8.14,0,0,0-.49-2.06,17.21,17.21,0,0,0,2.28.28c.62,0,.9-.31,1-1.05a55,55,0,0,0,.38-6.88l-4.64,1.5V31.5a15.92,15.92,0,0,0,.17,2.93h-2.27a20.51,20.51,0,0,0,.14-2.93V25.7l-4,1.29V37.12c0,1.44.38,1.54,6.08,1.54,3.66,0,4.89-.14,5.27-.59s.66-2.1.73-4.75a6.77,6.77,0,0,0,2.17.87c-.59,6.29-.87,6.5-8.28,6.5-6.88,0-8-.42-8-3V27.62a21,21,0,0,0-2.23.91l-.46-2.3a18.4,18.4,0,0,0,2.45-.6l.24-.07V23a21.75,21.75,0,0,0-.14-2.86h2.38a13.54,13.54,0,0,0-.21,2.83v1.95Z"/><path d="M552.74,15.85a14.91,14.91,0,0,0,2.8.18h6.67a14.09,14.09,0,0,0,2.79-.18v2.34a16.15,16.15,0,0,0-2.55-.14h-6.91a22.91,22.91,0,0,0-2.8.14ZM553.93,11a14.14,14.14,0,0,0,2.66.18h4.71A14.41,14.41,0,0,0,564,11v2.2a21,21,0,0,0-2.66-.14h-4.71a20.13,20.13,0,0,0-2.66.14Zm0,30.56a23.28,23.28,0,0,0,.21-3.38V33.49a18.05,18.05,0,0,0-.17-2.93,24.8,24.8,0,0,0,2.79.14h4.58a13.81,13.81,0,0,0,2.55-.11,27.52,27.52,0,0,0-.11,2.76v4.93a18.2,18.2,0,0,0,.18,2.86h-2.17V39.71h-5.62v1.88Zm0-20.71a14.56,14.56,0,0,0,2.51.14h4.93a14.53,14.53,0,0,0,2.48-.14V23a18.07,18.07,0,0,0-2.48-.14h-4.93A17.49,17.49,0,0,0,554,23Zm0,4.82a14.85,14.85,0,0,0,2.51.14h4.93a14.24,14.24,0,0,0,2.48-.14v2.13a18.47,18.47,0,0,0-2.48-.14h-4.93a17.13,17.13,0,0,0-2.51.14Zm2.2,12.19h5.62V32.51h-5.62Zm25.6-11.77a11.35,11.35,0,0,0-.66,1.29A27.26,27.26,0,0,1,576,34.78a26.06,26.06,0,0,0,8.77,4.37,11.79,11.79,0,0,0-1.26,2.2,29.41,29.41,0,0,1-9.05-5.06,29.35,29.35,0,0,1-8.87,5.13,6,6,0,0,0-1.36-1.92,26.69,26.69,0,0,0,8.7-4.65c-2.41-2.41-3.39-3.91-5.17-8a17.16,17.16,0,0,0-2.1.17V24.79a12.64,12.64,0,0,0,2.48.18h9.75a14.31,14.31,0,0,0,2.62-.14Zm-10.83-13c-.1,3.78-.52,5.63-1.67,7.72a9.65,9.65,0,0,1-2.87,3.25,7.45,7.45,0,0,0-1.78-1.47A7.85,7.85,0,0,0,568,18.51a14,14,0,0,0,.81-5.31,11.11,11.11,0,0,0-.18-2.1,23,23,0,0,0,2.73.14h4.26a22.32,22.32,0,0,0,3-.14,28.06,28.06,0,0,0-.14,3.29v5.44c0,.6.31.74,1.46.74,1.43,0,1.85-.11,2-.49a10.91,10.91,0,0,0,.56-3.91,6,6,0,0,0,1.92.94c-.21,2.83-.56,4.12-1.22,4.72s-1.4.62-3.39.62c-2.83,0-3.46-.35-3.46-1.92V13.16Zm-1.15,13.73a17.87,17.87,0,0,0,4.64,6.57A21,21,0,0,0,579,26.89Z"/><path d="M586.72,25.81c1-3.29,1.26-4.51,1.47-9.26l1.92.53a35,35,0,0,1-1.5,9.6Zm4.54,15.78a26.91,26.91,0,0,0,.25-4V13.37a22.14,22.14,0,0,0-.25-3.53H594a22.43,22.43,0,0,0-.24,3.53V37.61a28,28,0,0,0,.24,4Zm4.54-20.88A20.41,20.41,0,0,0,594.2,16l1.57-.67a37.06,37.06,0,0,1,1.74,4.61Zm4.86-6.36a20,20,0,0,0-3.28.18V12.36a16.52,16.52,0,0,0,3.31.21h5.21a12.11,12.11,0,0,0-.21-2.73h2.48a11.36,11.36,0,0,0-.21,2.73h6.46a17.34,17.34,0,0,0,3.42-.21v2.17a21.65,21.65,0,0,0-3.38-.18H608v2.38h5.45a19.6,19.6,0,0,0,3.21-.18v2.06a21.11,21.11,0,0,0-3.25-.17H608V21h7a21.53,21.53,0,0,0,3.46-.21v2.24a27,27,0,0,0-3.46-.21H600.17a22.61,22.61,0,0,0-3.56.21V20.81a21.76,21.76,0,0,0,3.56.21h5.73V18.44h-4.19a20.91,20.91,0,0,0-3.18.17V16.55a19.83,19.83,0,0,0,3.21.18h4.16V14.35Zm.24,23.4a23.85,23.85,0,0,0,.21,3.77H598.6a24.79,24.79,0,0,0,.17-3.77V27.9a24.8,24.8,0,0,0-.1-3,26.92,26.92,0,0,0,3.25.14h10.72a17.36,17.36,0,0,0,3.21-.17,32.9,32.9,0,0,0-.14,3.74v9.92c0,2.16-.66,2.72-3.28,2.72-.94,0-2.06-.07-3.56-.17a7.63,7.63,0,0,0-.56-2.21,24,24,0,0,0,3.91.42c1.15,0,1.36-.14,1.36-.94V35.59H600.9Zm12.68-8.31V26.79H600.9v2.65Zm0,4.37V31.19H600.9v2.62Z"/><path d="M635.06,19.42a14.07,14.07,0,0,0,2.75-.18v2.27a19.93,19.93,0,0,0-2.75-.14h-9.85a21.44,21.44,0,0,0-2.8.14V19.24a15.11,15.11,0,0,0,2.8.18h4.15V15.85h-3.28a19.19,19.19,0,0,0-2.62.14v-2.2a16,16,0,0,0,2.62.14h3.28v-1a19.24,19.24,0,0,0-.21-3h2.48a20.88,20.88,0,0,0-.21,3v1h2.8a15.79,15.79,0,0,0,2.58-.14V16a19,19,0,0,0-2.58-.14h-2.8v3.57Zm0,7.82a13.21,13.21,0,0,0,2.75-.18v2.27a20.48,20.48,0,0,0-2.75-.13h-3.64v3.52h3.22a16.33,16.33,0,0,0,2.58-.14v2.24a17.71,17.71,0,0,0-2.58-.14h-3.22v3.56a26.07,26.07,0,0,0,.21,3.32h-2.51a21.81,21.81,0,0,0,.24-3.32V34.68H625.8a17.71,17.71,0,0,0-2.62.14V32.58a16.58,16.58,0,0,0,2.62.14h3.56V29.2h-4.15a22.38,22.38,0,0,0-2.8.13V27.06a14.65,14.65,0,0,0,2.8.18h6.42a21.29,21.29,0,0,0,1.89-5.48l1.92.55a29.24,29.24,0,0,1-1.85,4.93Zm-8.49-.39a25.36,25.36,0,0,0-1.33-4.57l1.75-.56a27.41,27.41,0,0,1,1.39,4.51Zm14.25-2.55V38.07a23.51,23.51,0,0,0,.24,3.49h-2.55a21.89,21.89,0,0,0,.25-3.49V14.6a29.24,29.24,0,0,0-.18-3.29,22.07,22.07,0,0,0,3.29.18h8.06a19.75,19.75,0,0,0,2.94-.14c-.07.59-.07.59-.25,2.48a14,14,0,0,1-1,5c-.53.76-1.26,1-3,1a25.46,25.46,0,0,1-3.43-.25,9.47,9.47,0,0,0-.45-2.09,22.14,22.14,0,0,0,4,.49c1.32,0,1.5-.46,1.81-4.47h-9.67v8.9h7.58a15.85,15.85,0,0,0,2.79-.14l1.26,1.3A9.14,9.14,0,0,0,652,25a35.22,35.22,0,0,1-3.53,9.25,23.17,23.17,0,0,0,5.87,5.07,7.63,7.63,0,0,0-1.43,2,29.1,29.1,0,0,1-5.59-5.17,25.53,25.53,0,0,1-4.61,5.13,9.1,9.1,0,0,0-1.57-1.75,21.3,21.3,0,0,0,4.85-5.1c-1.81-2.55-2.93-5.3-4.12-10.06Zm3,0c1.18,4.44,1.71,5.8,3.31,8.18A29.76,29.76,0,0,0,650,24.3Z"/><line class="cls-2" y1="25" x2="498" y2="25"/><line class="cls-2" x1="672" y1="25" x2="1170" y2="25"/><g class="cls-3"><use transform="translate(-305 -1088)" xlink:href="#image"/></g><g class="cls-4"><use transform="translate(527.77 -1024.33) scale(1.17)" xlink:href="#image"/></g></svg>