<svg id="レイヤー_1" data-name="レイヤー 1" xmlns="http://www.w3.org/2000/svg" xmlns:xlink="http://www.w3.org/1999/xlink" width="1170" height="50" viewBox="0 0 1170 50"><defs><style>.cls-1,.cls-2{fill:none;}.cls-2{stroke:#000;stroke-miterlimit:10;}.cls-3{clip-path:url(#clip-path);}.cls-4{clip-path:url(#clip-path-2);}</style><clipPath id="clip-path"><rect class="cls-1" x="2" y="-776" width="1170" height="360"/></clipPath><clipPath id="clip-path-2"><rect class="cls-1" x="1206" y="-776" width="414" height="578"/></clipPath><image id="image" width="1478" height="1108" xlink:href="../../九州福祉サービス/download.jpg"/></defs><title>midashi_bosyuu</title><path d="M524.08,32.93a38.58,38.58,0,0,1-5.28,2.48,5.59,5.59,0,0,0-1.36-1.85,27,27,0,0,0,5.06-1.85,24.35,24.35,0,0,0,4.26-2.59H521a26.77,26.77,0,0,0-3.53.21V27.1a24.63,24.63,0,0,0,3.56.21h7.62a12.21,12.21,0,0,0,1.5-2h-5.14c-1,0-1.92,0-2.76.1.07-.91.11-1.57.11-2.37V18.68c0-.8,0-1.54-.11-2.41a23.83,23.83,0,0,0,2.76.11h16.42a23.83,23.83,0,0,0,2.76-.11c-.07.81-.11,1.54-.11,2.41v4.37c0,.84,0,1.53.11,2.37-.84-.07-1.75-.1-2.8-.1h-9a12.18,12.18,0,0,1-1.4,2h14.29a24.34,24.34,0,0,0,3.56-.21v2.23a25.67,25.67,0,0,0-3.53-.21H540c2.65,2.17,5.24,3.32,9.5,4.27a6.59,6.59,0,0,0-1.26,2,30.33,30.33,0,0,1-5.52-2.3c0,.31-.07.49-.1,1-.32,3.07-.63,4.71-1.16,5.76s-1.53,1.44-3.56,1.44c-1,0-2.23-.08-3.63-.21a6.36,6.36,0,0,0-.52-2.14,21.43,21.43,0,0,0,3.87.46c1.47,0,1.89-.25,2.2-1.15a15.6,15.6,0,0,0,.67-4H532.7a11.59,11.59,0,0,1-4,4.33c-2.1,1.4-3.53,2-7.62,2.93a6.33,6.33,0,0,0-1.26-2,19.09,19.09,0,0,0,7.27-2.27,9.66,9.66,0,0,0,3.32-3h-2.94a20.3,20.3,0,0,0-3.38.17Zm2.79-21.09a12.52,12.52,0,0,0-.14-2h2.38a11.28,11.28,0,0,0-.11,2.06v.35h8v-.35a11.91,11.91,0,0,0-.14-2.06h2.41a12.42,12.42,0,0,0-.14,2.06v.35H545a25.21,25.21,0,0,0,3.56-.21v2.27A19.6,19.6,0,0,0,545,14h-5.84a9.55,9.55,0,0,0,.14,1.71h-2.37A8.12,8.12,0,0,0,537,14h-8a7,7,0,0,0,.11,1.68h-2.38a13.23,13.23,0,0,0,.14-1.68h-5.62a19.71,19.71,0,0,0-3.53.28V12a25.21,25.21,0,0,0,3.56.21h5.59ZM524.42,20H542.1V18H524.42Zm0,3.67H542.1V21.58H524.42Zm4.93,5.41a21.81,21.81,0,0,1-4.47,3.36c1,.07,1.19.07,2.41.07h4a7.45,7.45,0,0,0,.48-2.66l2.49.18c-.11.35-.11.35-.53,1.74-.1.32-.14.42-.24.74h5.83c1.81,0,1.81,0,2.51,0a23,23,0,0,1-4.43-3.39Z"/><path d="M569.54,26.68h9.12a19.51,19.51,0,0,0,3.21-.17V28.6a19.48,19.48,0,0,0-3.17-.17h-9.61V31H579.6a21.68,21.68,0,0,0,3.92-.21v2.3a32,32,0,0,0-3.92-.21h-8.8a28.93,28.93,0,0,0,13.13,6,9.14,9.14,0,0,0-1.32,2.17c-6.15-1.82-10.13-4-13.62-7.51a26.26,26.26,0,0,1,.1,2.66v2.72a9.42,9.42,0,0,0,.21,2.62h-2.58a10.84,10.84,0,0,0,.2-2.59V36.22a8.74,8.74,0,0,1,0-.95,2.87,2.87,0,0,1,0-.7,9.57,9.57,0,0,1,0-1,21.79,21.79,0,0,1-6.81,4.93,36.56,36.56,0,0,1-6.67,2.41,7.34,7.34,0,0,0-1.4-2.1A27.28,27.28,0,0,0,560.64,36a19.45,19.45,0,0,0,4.47-3.11h-8.63a30.58,30.58,0,0,0-3.84.21v-2.3a23.76,23.76,0,0,0,3.84.21h10.44V28.43h-7.68a21.81,21.81,0,0,0-2.41.07,20.18,20.18,0,0,0,.11-2.34V20.29a33.27,33.27,0,0,1,.14-3.42,22.57,22.57,0,0,1-3.88,3.59,6.69,6.69,0,0,0-1.4-1.71,23.6,23.6,0,0,0,6.78-6.91,11.09,11.09,0,0,0,1.25-2.52l2.42.6a40.43,40.43,0,0,1-2.31,3.35h7.54a12.9,12.9,0,0,0,2.1-3.88l2.27.53a23.24,23.24,0,0,1-2.13,3.35h8.84a19.6,19.6,0,0,0,3.21-.18v2.17a17.88,17.88,0,0,0-3-.18h-9.19V17.7H577a16.07,16.07,0,0,0,3.15-.21v2.1a18.71,18.71,0,0,0-3.15-.17h-7.44V22H577a16.89,16.89,0,0,0,3.15-.21v2.09a18.22,18.22,0,0,0-3.15-.17h-7.44Zm-2.06-11.6h-8.41V17.7h8.41Zm0,4.34h-8.41V22h8.41Zm-8.41,4.33v2.93h8.41V23.75Z"/><path d="M598.14,28.36a18,18,0,0,0,2-3.15h-5.8a37.82,37.82,0,0,0-4,.14,25.09,25.09,0,0,0,.13-3V19.8a28.14,28.14,0,0,0-.13-3.18,33.84,33.84,0,0,0,3.77.18h4V13.41h-6.11a27.42,27.42,0,0,0-3.88.17v-2.3a25.94,25.94,0,0,0,4,.21h22a26.22,26.22,0,0,0,4-.21v2.3a28.11,28.11,0,0,0-3.88-.17h-6.53V16.8h4.16a33.26,33.26,0,0,0,3.8-.18,26.68,26.68,0,0,0-.14,3.18v2.48a23.23,23.23,0,0,0,.14,3.07,36.59,36.59,0,0,0-4-.14h-9c-1,1.71-1.18,2-1.95,3.15h13.52a25.42,25.42,0,0,0,3.91-.21v2.3a30.87,30.87,0,0,0-3.91-.17h-3.85a15.12,15.12,0,0,1-4.19,5.52A116,116,0,0,1,617.25,40l-1.57,1.92a83.62,83.62,0,0,0-11.53-4.68c-3.95,2.45-8.31,3.67-15.37,4.26a8,8,0,0,0-1-2.16c5.8-.14,9.92-1,13.73-2.9-2.73-.8-5.21-1.4-8.7-2.13a34.67,34.67,0,0,0,3.84-4h-4.78a29.9,29.9,0,0,0-3.88.17v-2.3a25.59,25.59,0,0,0,3.88.21Zm-5.58-9.78v4.85H598V18.58Zm6.63,11.7a32.12,32.12,0,0,1-2.65,3c3.25.73,4.47,1,7.12,1.85a11.26,11.26,0,0,0,4.12-4.82ZM600,16.8h5.59V13.41H600Zm0,6.63h5.59V18.58H600Zm7.58,0h5.69V18.58h-5.69Z"/><path d="M624.86,15.26a16,16,0,0,0-2.38.14V13.13a16.92,16.92,0,0,0,2.55.14h4.65a16,16,0,0,0,2.51-.14V15.4a15.64,15.64,0,0,0-2.41-.14h-1.15V31.12c1.47-.6,2.23-.95,4-1.82v2.24a66.23,66.23,0,0,1-9.29,3.84l-.7.31-.7-2.41A21.2,21.2,0,0,0,626.43,32V15.26Zm15,21.55a28.63,28.63,0,0,1-8.56,4.64,8.83,8.83,0,0,0-1.46-1.88c3.91-1.22,5.9-2.2,8.17-4.09Zm-3.39-23.16a33.47,33.47,0,0,0-3.35.14V11.45a23.78,23.78,0,0,0,3.42.21h13.2a16,16,0,0,0,3.29-.21v2.38a24.37,24.37,0,0,0-3.25-.18h-5.87c-.49,1.33-1,2.48-1.43,3.35h6.43a20.76,20.76,0,0,0,2.16-.1c-.07.59-.1,1.92-.1,3.21V31.4c0,1.46,0,2.68.1,3.38-.14,0-.28,0-.35,0a3.53,3.53,0,0,0-.45,0h-.53l-1.78,0H637.57c-1.29,0-2.37,0-3,.1.07-.77.1-2.06.1-3.35V20a23.15,23.15,0,0,0-.14-3.11,25.83,25.83,0,0,0,3,.1h2.66a18.32,18.32,0,0,0,1.39-3.35Zm.35,8.63h12V18.86h-12Zm0,5.2h12V24.1h-12Zm0,5.35h12V29.3h-12Zm9.36,2.55a24.06,24.06,0,0,0,8.17,4.12,8.65,8.65,0,0,0-1.46,2,31.55,31.55,0,0,1-8.45-4.68Z"/><line class="cls-2" y1="25" x2="498" y2="25"/><line class="cls-2" x1="672" y1="25" x2="1170" y2="25"/><g class="cls-3"><use transform="translate(-305 -842)" xlink:href="#image"/></g><g class="cls-4"><use transform="translate(527.77 -778.33) scale(1.17)" xlink:href="#image"/></g></svg>