<svg id="レイヤー_1" data-name="レイヤー 1" xmlns="http://www.w3.org/2000/svg" xmlns:xlink="http://www.w3.org/1999/xlink" width="414" height="40" viewBox="0 0 414 40"><defs><style>.cls-1,.cls-3{fill:none;}.cls-2{clip-path:url(#clip-path);}.cls-3{stroke:#000;stroke-miterlimit:10;stroke-width:1.16px;}</style><clipPath id="clip-path"><rect class="cls-1" x="2" y="-966" width="1170" height="360"/></clipPath></defs><title>midashi_kaisya_sm</title><g class="cls-2"><image width="1478" height="1108" transform="translate(-305 -1032)" xlink:href="../../九州福祉サービス/download.jpg"/></g><path d="M168.15,7.83a18.7,18.7,0,0,0,4.69,5,30.41,30.41,0,0,0,7.72,4.47,5.9,5.9,0,0,0-1.09,1.79,38.19,38.19,0,0,1-7.77-4.86,23.36,23.36,0,0,1-4.47-4.78A24.35,24.35,0,0,1,163,14,30.73,30.73,0,0,1,155.49,19a5.54,5.54,0,0,0-1.18-1.59,29.36,29.36,0,0,0,7.41-4.56,20.48,20.48,0,0,0,4.44-5Zm-9.45,15.6a24.3,24.3,0,0,0-3.19.17v-2a24.3,24.3,0,0,0,3.19.17h17.22a24.08,24.08,0,0,0,3.19-.17v2a24.62,24.62,0,0,0-3.19-.17h-10a41,41,0,0,1-3.49,6.6c3.86-.25,6.76-.53,10.9-1-1.68-1.82-2.18-2.32-3.41-3.47l1.45-.89A59.41,59.41,0,0,1,178.1,32l-1.54,1.14c-1.09-1.54-1.45-2-2-2.74-5,.67-9.19,1.12-13.56,1.46a33.6,33.6,0,0,0-4.72.5l-.34-2.13a12.19,12.19,0,0,0,1.43.09c.45,0,.45,0,3-.17a42,42,0,0,0,3.55-6.74Zm1.79-7a14,14,0,0,0,2.21.11h9a15.91,15.91,0,0,0,2.34-.11v1.88a15.9,15.9,0,0,0-2.34-.12h-9.06a15,15,0,0,0-2.18.12Z"/><path d="M188.83,30.34a17.13,17.13,0,0,0,.17,2.74h-2.07a19.32,19.32,0,0,0,.17-2.77V21.62a29.19,29.19,0,0,1-3.86,3.3,5.12,5.12,0,0,0-1-1.57,24.1,24.1,0,0,0,5-4.14A18.85,18.85,0,0,0,190.7,14h-5.23a20.18,20.18,0,0,0-2.23.11V12.28a19.16,19.16,0,0,0,2.18.11h1.65V9.79a16.61,16.61,0,0,0-.14-2.15H189a11.2,11.2,0,0,0-.17,2.18v2.57h1.62a11.15,11.15,0,0,0,1.62-.08l.87,1a11.34,11.34,0,0,0-.67,1.2,24.46,24.46,0,0,1-3.08,4.75,16.9,16.9,0,0,0,4.5,3.8,6.59,6.59,0,0,0-.95,1.54,18.26,18.26,0,0,1-3.94-3.52Zm9.7-20.07a16.75,16.75,0,0,0-.2-2.55h2.21a13.06,13.06,0,0,0-.19,2.55v6H204a18.58,18.58,0,0,0,2.74-.16v1.95C205.88,18,205,18,204,18h-3.66V29.89h4.41a19.51,19.51,0,0,0,3-.17v2.1a19,19,0,0,0-3-.2H194.7a18.34,18.34,0,0,0-3,.2v-2.1a19.6,19.6,0,0,0,3,.17h3.8V18h-2.77c-.95,0-1.87.06-2.74.14V16.14a18.3,18.3,0,0,0,2.74.16h2.77Z"/><path d="M210.1,20.41a22,22,0,0,0,1.17-7.4l1.54.42a28.25,28.25,0,0,1-1.2,7.68Zm3.63,12.64a22.22,22.22,0,0,0,.2-3.22V10.46a18.09,18.09,0,0,0-.2-2.82h2.15a17.37,17.37,0,0,0-.19,2.82v19.4a22,22,0,0,0,.19,3.19Zm3.64-16.72a16.66,16.66,0,0,0-1.29-3.8l1.26-.53a30.83,30.83,0,0,1,1.4,3.69Zm3.88-5.08a16.64,16.64,0,0,0-2.63.13V9.65a13,13,0,0,0,2.66.17h4.16a9.49,9.49,0,0,0-.16-2.18h2a9.26,9.26,0,0,0-.17,2.18h5.18A13.51,13.51,0,0,0,235,9.65v1.73a17.94,17.94,0,0,0-2.71-.13h-5.2v1.9h4.36A16.1,16.1,0,0,0,234,13v1.65a16,16,0,0,0-2.6-.14h-4.34v2.06h5.65a17.68,17.68,0,0,0,2.77-.16v1.79a20.3,20.3,0,0,0-2.77-.17H220.86a17.24,17.24,0,0,0-2.85.17V16.42a17.9,17.9,0,0,0,2.85.16h4.58V14.52h-3.35a15.66,15.66,0,0,0-2.54.14V13a16.11,16.11,0,0,0,2.57.14h3.32v-1.9Zm.2,18.72a19.64,19.64,0,0,0,.16,3h-2a20,20,0,0,0,.14-3V22.09a19.72,19.72,0,0,0-.08-2.43,23.49,23.49,0,0,0,2.6.11h8.58a14,14,0,0,0,2.57-.14,26.45,26.45,0,0,0-.11,3v7.94c0,1.73-.53,2.18-2.63,2.18-.75,0-1.65-.05-2.85-.14a5.84,5.84,0,0,0-.45-1.76,19.9,19.9,0,0,0,3.13.34c.93,0,1.09-.12,1.09-.76V28.24H221.45Zm10.14-6.65V21.2H221.45v2.12Zm0,3.5v-2.1H221.45v2.1Z"/><path d="M248.78,15.3a11.59,11.59,0,0,0,2.21-.14V17a14.48,14.48,0,0,0-2.21-.12H240.9a15.35,15.35,0,0,0-2.24.12V15.16a12.34,12.34,0,0,0,2.24.14h3.32V12.45H241.6a15.36,15.36,0,0,0-2.1.11V10.8a13.91,13.91,0,0,0,2.1.11h2.62v-.84a15.73,15.73,0,0,0-.16-2.4h2a17,17,0,0,0-.17,2.4v.84h2.24a13.72,13.72,0,0,0,2.07-.11v1.76a15.27,15.27,0,0,0-2.07-.11h-2.24V15.3Zm0,6.26a10.89,10.89,0,0,0,2.21-.14v1.82a14.86,14.86,0,0,0-2.21-.11h-2.91V26h2.58a14.1,14.1,0,0,0,2.06-.11v1.79a13.68,13.68,0,0,0-2.06-.12h-2.58v2.86A21.19,21.19,0,0,0,246,33h-2a17,17,0,0,0,.19-2.65V27.51h-2.85a13.68,13.68,0,0,0-2.09.12V25.84a14.29,14.29,0,0,0,2.09.11h2.85V23.13H240.9a16.06,16.06,0,0,0-2.24.11V21.42a11.94,11.94,0,0,0,2.24.14H246a16.38,16.38,0,0,0,1.51-4.39l1.54.45a24.83,24.83,0,0,1-1.48,3.94ZM242,21.25a20,20,0,0,0-1.06-3.66l1.39-.45a22.22,22.22,0,0,1,1.12,3.61Zm11.4-2v11a18.14,18.14,0,0,0,.2,2.79h-2a18,18,0,0,0,.19-2.79V11.44a23.08,23.08,0,0,0-.14-2.63,16.72,16.72,0,0,0,2.63.14h6.46A14.56,14.56,0,0,0,263,8.84c-.06.48-.06.48-.2,2a10.88,10.88,0,0,1-.84,4c-.42.61-1,.81-2.43.81a21,21,0,0,1-2.74-.2,8.36,8.36,0,0,0-.36-1.68,16.66,16.66,0,0,0,3.21.39c1.07,0,1.2-.36,1.46-3.57h-7.75v7.12h6.07a12.65,12.65,0,0,0,2.24-.11l1,1a6.76,6.76,0,0,0-.33,1.14,28,28,0,0,1-2.83,7.41,19.11,19.11,0,0,0,4.7,4.06,6.28,6.28,0,0,0-1.15,1.56,23.34,23.34,0,0,1-4.47-4.14,20.35,20.35,0,0,1-3.69,4.11,7.42,7.42,0,0,0-1.26-1.4,17.13,17.13,0,0,0,3.89-4.08c-1.45-2-2.35-4.25-3.3-8Zm2.44,0c.95,3.55,1.37,4.64,2.65,6.54a23.93,23.93,0,0,0,2.27-6.54Z"/><line class="cls-3" y1="20" x2="143.24" y2="20"/><line class="cls-3" x1="270.76" y1="20" x2="414" y2="20"/></svg>