<svg id="レイヤー_1" data-name="レイヤー 1" xmlns="http://www.w3.org/2000/svg" xmlns:xlink="http://www.w3.org/1999/xlink" width="1170" height="50" viewBox="0 0 1170 50"><defs><style>.cls-1,.cls-2{fill:none;}.cls-2{stroke:#000;stroke-miterlimit:10;}.cls-3{clip-path:url(#clip-path);}.cls-4{clip-path:url(#clip-path-2);}</style><clipPath id="clip-path"><rect class="cls-1" x="2" y="-905" width="1170" height="360"/></clipPath><clipPath id="clip-path-2"><rect class="cls-1" x="1206" y="-905" width="414" height="578"/></clipPath><image id="image" width="1478" height="1108" xlink:href="../../九州福祉サービス/download.jpg"/></defs><title>midashi_kaisya</title><path d="M534.31,10.09a23.44,23.44,0,0,0,5.87,6.25,37.8,37.8,0,0,0,9.64,5.59,7.23,7.23,0,0,0-1.36,2.24,48.14,48.14,0,0,1-9.71-6.08,29.06,29.06,0,0,1-5.59-6,30.28,30.28,0,0,1-5.24,5.72A38.49,38.49,0,0,1,518.49,24,7,7,0,0,0,517,22a36.58,36.58,0,0,0,9.26-5.69,25.83,25.83,0,0,0,5.55-6.22ZM522.5,29.58a29.91,29.91,0,0,0-4,.21V27.27a30,30,0,0,0,4,.21H544a29.49,29.49,0,0,0,4-.21v2.52a30.22,30.22,0,0,0-4-.21H531.48a51.75,51.75,0,0,1-4.37,8.24c4.82-.31,8.46-.66,13.63-1.29-2.1-2.27-2.73-2.9-4.27-4.33l1.82-1.12a75.76,75.76,0,0,1,8.45,9.22l-1.92,1.43c-1.36-1.92-1.81-2.51-2.55-3.42-6.21.84-11.49,1.4-16.94,1.82a41.69,41.69,0,0,0-5.9.63L519,38.1a16.32,16.32,0,0,0,1.78.11c.56,0,.56,0,3.71-.21a53.15,53.15,0,0,0,4.43-8.42Zm2.24-8.7a17.79,17.79,0,0,0,2.76.14h11.28a20.26,20.26,0,0,0,2.93-.14v2.34a22.22,22.22,0,0,0-2.93-.14H527.46a20.92,20.92,0,0,0-2.72.14Z"/><path d="M560.15,38.21a22.55,22.55,0,0,0,.21,3.42h-2.59a23.7,23.7,0,0,0,.21-3.46V27.31a35.78,35.78,0,0,1-4.82,4.12,6.47,6.47,0,0,0-1.29-2,29.46,29.46,0,0,0,6.29-5.17,23.63,23.63,0,0,0,4.33-6.49H556a23.13,23.13,0,0,0-2.8.14V15.64a22.07,22.07,0,0,0,2.73.14H558V12.53a19.21,19.21,0,0,0-.18-2.69h2.62a15,15,0,0,0-.21,2.73v3.21h2a12.94,12.94,0,0,0,2-.1l1.08,1.22c-.25.39-.46.77-.84,1.5a30.42,30.42,0,0,1-3.84,5.94,21.21,21.21,0,0,0,5.62,4.75A8.44,8.44,0,0,0,565.07,31a22.75,22.75,0,0,1-4.92-4.4Zm12.12-25.08A20.14,20.14,0,0,0,572,10h2.76a16.4,16.4,0,0,0-.24,3.18v7.54h4.58a22.55,22.55,0,0,0,3.42-.21v2.45a33.35,33.35,0,0,0-3.42-.18h-4.58V37.65h5.52a24.29,24.29,0,0,0,3.77-.21v2.62a23.16,23.16,0,0,0-3.77-.25H567.48a22.32,22.32,0,0,0-3.73.25V37.44a24.2,24.2,0,0,0,3.77.21h4.75V22.73h-3.46a33.82,33.82,0,0,0-3.42.18V20.46a22.19,22.19,0,0,0,3.42.21h3.46Z"/><path d="M586.72,25.81c1-3.29,1.26-4.51,1.47-9.26l1.92.53a35,35,0,0,1-1.5,9.6Zm4.54,15.78a26.91,26.91,0,0,0,.25-4V13.37a22.14,22.14,0,0,0-.25-3.53H594a22.43,22.43,0,0,0-.24,3.53V37.61a28,28,0,0,0,.24,4Zm4.54-20.88A20.41,20.41,0,0,0,594.2,16l1.57-.67a37.06,37.06,0,0,1,1.74,4.61Zm4.86-6.36a20,20,0,0,0-3.28.18V12.36a16.52,16.52,0,0,0,3.31.21h5.21a12.11,12.11,0,0,0-.21-2.73h2.48a11.36,11.36,0,0,0-.21,2.73h6.46a17.34,17.34,0,0,0,3.42-.21v2.17a21.65,21.65,0,0,0-3.38-.18H608v2.38h5.45a19.6,19.6,0,0,0,3.21-.18v2.06a21.11,21.11,0,0,0-3.25-.17H608V21h7a21.53,21.53,0,0,0,3.46-.21v2.24a27,27,0,0,0-3.46-.21H600.17a22.61,22.61,0,0,0-3.56.21V20.81a21.76,21.76,0,0,0,3.56.21h5.73V18.44h-4.19a20.91,20.91,0,0,0-3.18.17V16.55a19.83,19.83,0,0,0,3.21.18h4.16V14.35Zm.24,23.4a23.85,23.85,0,0,0,.21,3.77H598.6a24.79,24.79,0,0,0,.17-3.77V27.9a24.8,24.8,0,0,0-.1-3,26.92,26.92,0,0,0,3.25.14h10.72a17.36,17.36,0,0,0,3.21-.17,32.9,32.9,0,0,0-.14,3.74v9.92c0,2.16-.66,2.72-3.28,2.72-.94,0-2.06-.07-3.56-.17a7.63,7.63,0,0,0-.56-2.21,24,24,0,0,0,3.91.42c1.15,0,1.36-.14,1.36-.94V35.59H600.9Zm12.68-8.31V26.79H600.9v2.65Zm0,4.37V31.19H600.9v2.62Z"/><path d="M635.06,19.42a14.07,14.07,0,0,0,2.75-.18v2.27a19.93,19.93,0,0,0-2.75-.14h-9.85a21.44,21.44,0,0,0-2.8.14V19.24a15.11,15.11,0,0,0,2.8.18h4.15V15.85h-3.28a19.19,19.19,0,0,0-2.62.14v-2.2a16,16,0,0,0,2.62.14h3.28v-1a19.24,19.24,0,0,0-.21-3h2.48a20.88,20.88,0,0,0-.21,3v1h2.8a15.79,15.79,0,0,0,2.58-.14V16a19,19,0,0,0-2.58-.14h-2.8v3.57Zm0,7.82a13.21,13.21,0,0,0,2.75-.18v2.27a20.48,20.48,0,0,0-2.75-.13h-3.64v3.52h3.22a16.33,16.33,0,0,0,2.58-.14v2.24a17.71,17.71,0,0,0-2.58-.14h-3.22v3.56a26.07,26.07,0,0,0,.21,3.32h-2.51a21.81,21.81,0,0,0,.24-3.32V34.68H625.8a17.71,17.71,0,0,0-2.62.14V32.58a16.58,16.58,0,0,0,2.62.14h3.56V29.2h-4.15a22.38,22.38,0,0,0-2.8.13V27.06a14.65,14.65,0,0,0,2.8.18h6.42a21.29,21.29,0,0,0,1.89-5.48l1.92.55a29.24,29.24,0,0,1-1.85,4.93Zm-8.49-.39a25.36,25.36,0,0,0-1.33-4.57l1.75-.56a27.41,27.41,0,0,1,1.39,4.51Zm14.25-2.55V38.07a23.51,23.51,0,0,0,.24,3.49h-2.55a21.89,21.89,0,0,0,.25-3.49V14.6a29.24,29.24,0,0,0-.18-3.29,22.07,22.07,0,0,0,3.29.18h8.06a19.75,19.75,0,0,0,2.94-.14c-.07.59-.07.59-.25,2.48a14,14,0,0,1-1,5c-.53.76-1.26,1-3,1a25.46,25.46,0,0,1-3.43-.25,9.47,9.47,0,0,0-.45-2.09,22.14,22.14,0,0,0,4,.49c1.32,0,1.5-.46,1.81-4.47h-9.67v8.9h7.58a15.85,15.85,0,0,0,2.79-.14l1.26,1.3A9.14,9.14,0,0,0,652,25a35.22,35.22,0,0,1-3.53,9.25,23.17,23.17,0,0,0,5.87,5.07,7.63,7.63,0,0,0-1.43,2,29.1,29.1,0,0,1-5.59-5.17,25.53,25.53,0,0,1-4.61,5.13,9.1,9.1,0,0,0-1.57-1.75,21.3,21.3,0,0,0,4.85-5.1c-1.81-2.55-2.93-5.3-4.12-10.06Zm3,0c1.18,4.44,1.71,5.8,3.31,8.18A29.76,29.76,0,0,0,650,24.3Z"/><line class="cls-2" y1="25" x2="498" y2="25"/><line class="cls-2" x1="672" y1="25" x2="1170" y2="25"/><g class="cls-3"><use transform="translate(-305 -971)" xlink:href="#image"/></g><g class="cls-4"><use transform="translate(527.77 -907.33) scale(1.17)" xlink:href="#image"/></g></svg>