<svg id="レイヤー_1" data-name="レイヤー 1" xmlns="http://www.w3.org/2000/svg" xmlns:xlink="http://www.w3.org/1999/xlink" viewBox="0 0 400 44"><defs><style>.cls-1{fill:none;}.cls-2{clip-path:url(#clip-path);}.cls-3{fill:#80b0d9;}.cls-4{font-size:27.03px;fill:#888;font-family:KozGoPr6N-Regular-83pv-RKSJ-H, Kozuka Gothic Pr6N;}.cls-5{font-size:16.02px;fill:#333;font-family:HiraKakuProN-W3-83pv-RKSJ-H, Hiragino Kaku Gothic ProN;}</style><clipPath id="clip-path"><rect class="cls-1" x="-272" y="52" width="1170" height="480"/></clipPath></defs><title>saiyou_logo</title><g class="cls-2"><image width="4000" height="2670" transform="translate(-294 14) scale(0.3)" xlink:href="../有料写真/pixta_34634385_L.jpg"/></g><path class="cls-3" d="M9.7,21.55c0-3.52.05-6.86.05-10,0-.93,0-2.13,0-3.62s0-2.84,0-4.05h2.36c0,1.27,0,2.76,0,4.47v4.2q0,4.71.08,9Zm17.72-1.4-1.55,1.61Q24,20.45,18.94,17L13.23,13.1h0l4.89-3.66c2.37-1.79,4.79-3.65,7.23-5.61L27,5.14q-1.85,1.35-5.92,4.49L16.73,13v0l4.56,3.08Q25.21,18.71,27.42,20.15Z"/><path class="cls-3" d="M51.36,20.7l-2,1.16-1.39-2.31q-1.24-2.07-2.63-4.27H34q-1.73,2.8-2.62,4.2c-.6.92-1.08,1.72-1.45,2.38l-1.66-1,4-6.27q3.52-5.56,6.88-11h1.65q3.21,5.21,6.88,11C50,18.53,51.29,20.55,51.36,20.7Zm-7.18-7.23c-.61-1-1.34-2.25-2.19-3.64S40.37,7.2,39.67,6.09h-.05q-.82,1.38-2.31,3.74c-1,1.58-1.74,2.8-2.25,3.64h9.12Z"/><path class="cls-3" d="M74.41,3.85c0,1.49,0,3.08,0,4.76s0,2.89,0,3.61c0,3.16,0,6.06.06,8.68l-1.89.62q-4.22-4-9.87-9.17C58.87,8.88,56.8,7,56.43,6.62h0q0,4.38.16,14.9H54.31c0-3.55,0-6.24,0-8q0-1.8,0-4.05c0-1.5,0-3.11,0-4.84l2.19-.76q.77.78,6.44,6t9.34,8.54h0c0-.87,0-3-.06-6.53s0-6.16,0-8Z"/><path class="cls-3" d="M97.46,5.76c-2.89,0-5.81,0-8.74,0,0,2.14,0,3.57,0,4.31s0,1.86,0,3.37,0,4.27,0,8H86.46c.05-3.78.08-6.46.1-8s0-2.66,0-3.45,0-2.22,0-4.26l-8.73,0V3.89h4l5.66,0,10,0Z"/><path class="cls-3" d="M122,12.77a7.93,7.93,0,0,1-.94,3.81,9.18,9.18,0,0,1-2.61,3,11.48,11.48,0,0,1-3.49,1.81,14.13,14.13,0,0,1-4.32.62,14.42,14.42,0,0,1-4.08-.55,10.81,10.81,0,0,1-3.43-1.66,9.53,9.53,0,0,1-2.82-3.1,7.9,7.9,0,0,1-1-4A8.38,8.38,0,0,1,100.09,9a9.12,9.12,0,0,1,2.48-3,11.25,11.25,0,0,1,3.6-2,14,14,0,0,1,4.42-.66A14.27,14.27,0,0,1,115,4a11.78,11.78,0,0,1,3.51,1.84,9.1,9.1,0,0,1,2.64,3.09A8.46,8.46,0,0,1,122,12.77Zm-2.44,0a6.92,6.92,0,0,0-.81-3.4,7.31,7.31,0,0,0-2.46-2.57,8.32,8.32,0,0,0-2.62-1.2,11.66,11.66,0,0,0-3.06-.39,11.29,11.29,0,0,0-3.15.41,8.67,8.67,0,0,0-2.59,1.27,7.45,7.45,0,0,0-2.39,2.6,6.8,6.8,0,0,0-.75,3.22,6.54,6.54,0,0,0,.83,3.31A7.49,7.49,0,0,0,105,18.6a8.32,8.32,0,0,0,2.62,1.19,12.31,12.31,0,0,0,6.07,0,9.58,9.58,0,0,0,2.66-1.24A7.67,7.67,0,0,0,118.74,16,6.52,6.52,0,0,0,119.54,12.78Z"/><path class="cls-3" d="M146,3.85q0,1.62,0,3.18c0,1,0,2.25,0,3.63v2c0,.48,0,1.15,0,2a7.48,7.48,0,0,1-.62,3.31,5.64,5.64,0,0,1-1.82,2.08,9.53,9.53,0,0,1-3.05,1.41,16.15,16.15,0,0,1-4.05.43,16.36,16.36,0,0,1-4.08-.46,9.31,9.31,0,0,1-3.09-1.38,5.33,5.33,0,0,1-1.79-2.14,8.08,8.08,0,0,1-.57-3.3c0-.57,0-1.16,0-1.77V10.66c0-.63,0-1.57,0-2.82s0-2.58,0-4h2.4c0,.21,0,1.09,0,2.63s0,3,0,4.48c0,.78,0,1.38,0,1.8v1.78a4.75,4.75,0,0,0,1.9,4.25,9.56,9.56,0,0,0,5.31,1.27,9.44,9.44,0,0,0,5.4-1.3,4.61,4.61,0,0,0,1.87-4.09c0-.52,0-1,0-1.57s0-1.18,0-1.95c0-1.2,0-2.65,0-4.36s0-2.69,0-2.94Z"/><path class="cls-3" d="M174.79,5.76H163.21c0,.63,0,1.54,0,2.73s0,2.35,0,3.46h3.11l8.36,0v1.91L166,13.79l-2.86,0c0,2.09,0,3.74,0,4.94s0,2.13,0,2.82h-2.36c0-3.69.05-6.58.05-8.7q0-1.63,0-4.05c0-1.62,0-3.24,0-4.88h2.87l4,0,7.11,0Z"/><path class="cls-3" d="M198.22,3.85q0,1.62,0,3.18c0,1,0,2.25,0,3.63v2c0,.48,0,1.15,0,2a7.48,7.48,0,0,1-.62,3.31,5.64,5.64,0,0,1-1.82,2.08,9.53,9.53,0,0,1-3.05,1.41,16.15,16.15,0,0,1-4.05.43,16.36,16.36,0,0,1-4.08-.46,9.31,9.31,0,0,1-3.09-1.38,5.33,5.33,0,0,1-1.79-2.14,8.08,8.08,0,0,1-.57-3.3c0-.57,0-1.16,0-1.77V10.66c0-.63,0-1.57,0-2.82s0-2.58,0-4h2.4c0,.21,0,1.09,0,2.63s0,3,0,4.48c0,.78,0,1.38,0,1.8v1.78a4.75,4.75,0,0,0,1.9,4.25,9.56,9.56,0,0,0,5.31,1.27,9.44,9.44,0,0,0,5.4-1.3,4.61,4.61,0,0,0,1.87-4.09c0-.52,0-1,0-1.57s0-1.18,0-1.95c0-1.2,0-2.65,0-4.36s0-2.69,0-2.94Z"/><path class="cls-3" d="M204.65,21.55q0-5.28,0-10c0-.93,0-2.13,0-3.62s0-2.84,0-4.05H207c0,1.27,0,2.76,0,4.47v4.2q0,4.71.08,9Zm17.72-1.4-1.56,1.61Q219,20.45,213.88,17l-5.71-3.89h0l4.89-3.66c2.38-1.79,4.79-3.65,7.24-5.61l1.62,1.32c-1.22.9-3.2,2.4-5.92,4.49L211.67,13v0l4.56,3.08Q220.15,18.71,222.37,20.15Z"/><path class="cls-3" d="M245.79,3.85c0,1.08,0,2.14,0,3.18s0,2.25,0,3.63c0,.86,0,1.54,0,2v2a7.34,7.34,0,0,1-.62,3.31,5.64,5.64,0,0,1-1.82,2.08,9.53,9.53,0,0,1-3.05,1.41,16.15,16.15,0,0,1-4,.43,16.36,16.36,0,0,1-4.08-.46,9.35,9.35,0,0,1-3.08-1.38,5.25,5.25,0,0,1-1.79-2.14,8.07,8.07,0,0,1-.58-3.3c0-.57,0-1.16,0-1.77s0-1.34,0-2.19q0-.95,0-2.82t0-4h2.41c0,.21,0,1.09,0,2.63s0,3,0,4.48c0,.78,0,1.38,0,1.8v1.78a4.72,4.72,0,0,0,1.9,4.25,11.8,11.8,0,0,0,10.71,0,4.62,4.62,0,0,0,1.86-4.09c0-.52,0-1,0-1.57s0-1.18,0-1.95c0-1.2,0-2.65,0-4.36s0-2.69,0-2.94Z"/><path class="cls-3" d="M264.33,16.55a3.73,3.73,0,0,1-.81,2.36,5.71,5.71,0,0,1-2.23,1.69,11.9,11.9,0,0,1-3.08.87,22.71,22.71,0,0,1-3.57.26c-1,0-2.22,0-3.63-.1l-.12-1.92c1.5.11,2.87.16,4.11.16a17.63,17.63,0,0,0,2.55-.19,11,11,0,0,0,2.15-.49,4.5,4.5,0,0,0,1.56-.91,1.9,1.9,0,0,0,.63-1.32,2,2,0,0,0-.54-1.51,4.79,4.79,0,0,0-1.89-1.17c-.66-.27-1.4-.55-2.19-.85s-1.59-.61-2.37-.95a7.56,7.56,0,0,1-2.46-1.61,3.18,3.18,0,0,1-1-2.3,3.63,3.63,0,0,1,.67-2.08,5.31,5.31,0,0,1,1.77-1.58,8.73,8.73,0,0,1,2.64-1,18.65,18.65,0,0,1,3.54-.31c1,0,2.1,0,3.43.11l.24,1.82c-1.5-.08-2.85-.12-4-.12a14,14,0,0,0-2.09.16,7.27,7.27,0,0,0-2,.54,3.24,3.24,0,0,0-1.18.89A1.9,1.9,0,0,0,254,8.31a1.86,1.86,0,0,0,.62,1.36,6.07,6.07,0,0,0,1.84,1.1l2.52,1,1.83.69a6.65,6.65,0,0,1,2.72,1.78A3.53,3.53,0,0,1,264.33,16.55Z"/><path class="cls-3" d="M287.12,21.52q0-6.36.05-8.19l-7.37,0-7.75,0c0,1.68,0,4.41,0,8.19h-2.36q.06-6.18.06-9.67,0-1.5,0-3.63c0-1.43,0-2.88,0-4.37h2.36c0,.9,0,2,0,3.41s0,2.76,0,4.17l7.78,0,7.34,0c0-1.36,0-2.76,0-4.21s0-2.58,0-3.37h2.37c0,2.05,0,3.76,0,5.13s0,2.52,0,3.46c0,1.78,0,4.81.05,9.11Z"/><path class="cls-3" d="M296,21.52c0-3.24.06-6.12.06-8.66,0-1,0-2.31,0-3.94s0-3.32,0-5.07h2.17c0,1.26,0,2.72,0,4.39s0,3,0,4.08c0,2.68,0,5.74.06,9.2Z"/><text class="cls-4" transform="translate(310.66 22.4)">service</text><text class="cls-5" transform="translate(6.13 40.02)">採用サイト</text></svg>