<svg xmlns="http://www.w3.org/2000/svg" width="230.68" height="28.76" viewBox="0 0 230.68 28.76"><defs><style>.cls-1{fill:#80b0d9;}.cls-2{fill:#888;}.cls-3{fill:#333;}</style></defs><title>saiyou_logo_sm</title><g id="レイヤー_2" data-name="レイヤー 2"><g id="レイヤー_1-2" data-name="レイヤー 1"><path class="cls-1" d="M2.79,14.09H1.26q0-.55,0-2.46c0-1.27,0-2.8,0-4.59,0-.72,0-1.57,0-2.53s0-1.93,0-2.92H2.79c0,1,0,2,0,3.23s0,2.24,0,3.11c0,1.79,0,3.17,0,4.14S2.79,13.72,2.79,14.09Zm8.1-.86-1.08,1c-1.48-1.45-2.92-2.79-4.3-4L3.14,8.07V8c.39-.38,1.21-1.23,2.48-2.54s2.53-2.66,3.79-4l1.05.94Q8.86,3.93,7.17,5.67L5,7.86v0L6.88,9.59C8,10.58,9.3,11.8,10.89,13.23Z"/><path class="cls-1" d="M23.7,13.59l-1.45.75L21.65,13c-.37-.86-.87-2-1.48-3.31H14.65C14,11.09,13.48,12.21,13.13,13s-.56,1.24-.59,1.33l-1.25-.68q.24-.48,2-4.27t3.65-8h1.22Q20,5.59,21.82,9.51C23,12.13,23.65,13.48,23.7,13.59ZM19.64,8.44c-.33-.76-.67-1.55-1-2.38L17.45,3.47h0C17.1,4.16,16.72,5,16.28,6s-.81,1.81-1.1,2.44h4.46Z"/><path class="cls-1" d="M36.74,1.59c0,1,0,2.1,0,3.35s0,2.17,0,2.72c0,1.77,0,3.17,0,4.21s0,1.6,0,1.67l-1.25.61q-2.8-3.81-5.26-6.88L27.38,3.73h0q0,2.51,0,6.15c0,2.42,0,3.83,0,4.2H26c0-.16,0-.71,0-1.66s0-2.28,0-4c0-.68,0-1.58,0-2.7s0-2.31,0-3.57l1.42-.67q.18.21,2.86,3.63c1.8,2.27,3.49,4.39,5.08,6.34h0c0-1,0-2.57,0-4.84s0-3.94,0-5Z"/><path class="cls-1" d="M49.71,2.91H45.12c0,1.28,0,2.25,0,2.91s0,1.56,0,2.69,0,2.21,0,3.34,0,1.89,0,2.26H43.58c0-.37,0-1.14,0-2.29s0-2.28,0-3.38V5.84c0-.64,0-1.62,0-2.95-1.32,0-2.4,0-3.22,0H39V1.62H49.71Z"/><path class="cls-1" d="M63,7.85a7.15,7.15,0,0,1-.52,2.77,6.12,6.12,0,0,1-1.34,2.09A5.63,5.63,0,0,1,57,14.45a6.06,6.06,0,0,1-2.18-.39A5.66,5.66,0,0,1,53,12.88a6.33,6.33,0,0,1-1.46-2.15A7.28,7.28,0,0,1,51,7.83a7.31,7.31,0,0,1,.44-2.62A6.32,6.32,0,0,1,52.7,3.09a5.5,5.5,0,0,1,1.93-1.36,6.15,6.15,0,0,1,4.69,0A5.57,5.57,0,0,1,61.18,3a6.09,6.09,0,0,1,1.38,2.19A7.55,7.55,0,0,1,63,7.85ZM61.45,8A7.28,7.28,0,0,0,61,5.61a4.8,4.8,0,0,0-1.24-2,4.09,4.09,0,0,0-1.26-.84A3.86,3.86,0,0,0,57,2.51a4,4,0,0,0-1.56.3,4.1,4.1,0,0,0-1.32.89A5.35,5.35,0,0,0,53,5.55a6.38,6.38,0,0,0-.42,2.3,6.5,6.5,0,0,0,.43,2.4,5,5,0,0,0,1.2,1.81,4.1,4.1,0,0,0,1.26.82,3.91,3.91,0,0,0,1.56.31,4.05,4.05,0,0,0,1.56-.3A4.16,4.16,0,0,0,59.85,12,5.19,5.19,0,0,0,61,10.31,5.8,5.8,0,0,0,61.45,8Z"/><path class="cls-1" d="M76.6,1.59c0,1.2,0,2.19,0,3s0,1.46,0,2,0,1.31,0,1.81v1.3a5.13,5.13,0,0,1-.32,1.91,3.9,3.9,0,0,1-1,1.44,4.62,4.62,0,0,1-1.61,1,7.09,7.09,0,0,1-4.4,0,4.52,4.52,0,0,1-1.62-1,3.9,3.9,0,0,1-1-1.44,5.13,5.13,0,0,1-.33-1.91c0-.36,0-.8,0-1.3V6.6c0-.58,0-1.26,0-2s0-1.77,0-3h1.54c0,.16,0,.69,0,1.6s0,2.09,0,3.56v1.4c0,.47,0,1,0,1.47a3.32,3.32,0,0,0,1,2.59,3.8,3.8,0,0,0,2.65.88,3.84,3.84,0,0,0,2.71-.84,3.41,3.41,0,0,0,.91-2.63V8.15c0-.48,0-1,0-1.4,0-1.47,0-2.68,0-3.62s0-1.45,0-1.54Z"/><path class="cls-1" d="M93.29,2.92H92.06l-2.61,0H87.17c0,.7,0,1.47,0,2.29s0,1.54,0,2.16h4.55l1.5,0V8.62H91.47l-2.76,0H87.14c0,1.1,0,2.14,0,3.12s0,1.77,0,2.37H85.63c0-.37,0-1,0-2s0-2.33,0-4.12c0-.71,0-1.63,0-2.78s0-2.35,0-3.58h7.66Z"/><path class="cls-1" d="M106.71,1.59c0,1.2,0,2.19,0,3s0,1.46,0,2V8.41c0,.5,0,.94,0,1.3a5.35,5.35,0,0,1-.32,1.91,3.93,3.93,0,0,1-1,1.44,4.57,4.57,0,0,1-1.6,1,7.12,7.12,0,0,1-4.41,0,4.56,4.56,0,0,1-1.61-1,3.93,3.93,0,0,1-1-1.44,5.35,5.35,0,0,1-.32-1.91V8.41c0-.5,0-1.1,0-1.81s0-1.26,0-2,0-1.77,0-3H98c0,.16,0,.69,0,1.6s0,2.09,0,3.56c0,.45,0,.92,0,1.4V9.62a3.32,3.32,0,0,0,1,2.59,3.82,3.82,0,0,0,2.65.88,3.87,3.87,0,0,0,2.72-.84,3.45,3.45,0,0,0,.9-2.63c0-.5,0-1,0-1.47V6.75c0-1.47,0-2.68,0-3.62s0-1.45,0-1.54Z"/><path class="cls-1" d="M112.5,14.09H111q0-.55,0-2.46c0-1.27,0-2.8,0-4.59,0-.72,0-1.57,0-2.53s0-1.93,0-2.92h1.54c0,1,0,2,0,3.23s0,2.24,0,3.11c0,1.79,0,3.17,0,4.14S112.49,13.72,112.5,14.09Zm8.09-.86-1.07,1c-1.49-1.45-2.92-2.79-4.3-4s-2.18-2-2.37-2.15V8c.38-.38,1.21-1.23,2.47-2.54s2.53-2.66,3.8-4l1,.94q-1.61,1.54-3.3,3.28l-2.13,2.19v0l1.85,1.71Z"/><path class="cls-1" d="M133.2,1.59c0,1.2,0,2.19,0,3s0,1.46,0,2,0,1.31,0,1.81v1.3a5.35,5.35,0,0,1-.32,1.91,3.93,3.93,0,0,1-1,1.44,4.57,4.57,0,0,1-1.6,1,7.12,7.12,0,0,1-4.41,0,4.56,4.56,0,0,1-1.61-1,3.93,3.93,0,0,1-1-1.44A5.35,5.35,0,0,1,123,9.71c0-.36,0-.8,0-1.3V6.6c0-.58,0-1.26,0-2s0-1.77,0-3h1.54c0,.16,0,.69,0,1.6s0,2.09,0,3.56v1.4c0,.47,0,1,0,1.47a3.28,3.28,0,0,0,1,2.59,3.79,3.79,0,0,0,2.65.88,3.86,3.86,0,0,0,2.71-.84,3.45,3.45,0,0,0,.91-2.63V8.15c0-.48,0-1,0-1.4,0-1.47,0-2.68,0-3.62s0-1.45,0-1.54Z"/><path class="cls-1" d="M143.72,10.57a3.17,3.17,0,0,1-.46,1.69A3.51,3.51,0,0,1,142,13.43a5.74,5.74,0,0,1-1.6.62,9,9,0,0,1-2,.21c-.4,0-.81,0-1.24,0l-.74-.05-.08-1.34.73.07c.4,0,.87,0,1.41,0a7.85,7.85,0,0,0,1.28-.13,4.51,4.51,0,0,0,1.2-.34,2.31,2.31,0,0,0,.85-.65,1.57,1.57,0,0,0,.29-1,1.89,1.89,0,0,0-.29-1.06,3,3,0,0,0-1-.83,11.52,11.52,0,0,0-1.14-.59c-.46-.22-.88-.44-1.26-.67a4,4,0,0,1-1.36-1.27,2.93,2.93,0,0,1-.4-1.52,2.84,2.84,0,0,1,.37-1.49,3.53,3.53,0,0,1,1-1.08,4,4,0,0,1,1.46-.67,7.54,7.54,0,0,1,1.92-.23c.38,0,.78,0,1.17,0l.68,0,.13,1.35-.68-.06c-.4,0-.89-.06-1.48-.06a5,5,0,0,0-1.07.12,3.16,3.16,0,0,0-1,.36,1.86,1.86,0,0,0-.63.59,1.54,1.54,0,0,0-.26.9,1.62,1.62,0,0,0,.27.88,3,3,0,0,0,1,.87,10.77,10.77,0,0,0,1,.54c.42.2.84.42,1.24.66a4.23,4.23,0,0,1,1.4,1.26A2.86,2.86,0,0,1,143.72,10.57Z"/><path class="cls-1" d="M157.66,14.09h-1.54c0-.37,0-1.06,0-2.07s0-2.25,0-3.75h-7.57c0,1.73,0,3,0,3.92s0,1.53,0,1.9h-1.54c0-.37,0-1,0-2s0-2.56,0-4.82c0-.69,0-1.52,0-2.5s0-2.05,0-3.19h1.54c0,1,0,1.88,0,2.79s0,1.78,0,2.6h7.57c0-.82,0-1.69,0-2.6s0-1.83,0-2.79h1.54c0,.94,0,2,0,3.26s0,2.24,0,3c0,1.83,0,3.24,0,4.21S157.65,13.72,157.66,14.09Z"/><path class="cls-1" d="M163.56,14.09H162c0-.37,0-1,0-2s0-2.33,0-4.12c0-.71,0-1.64,0-2.79s0-2.35,0-3.59h1.53c0,.89,0,1.93,0,3.11s0,2.14,0,2.88c0,1.9,0,3.36,0,4.4S163.56,13.72,163.56,14.09Z"/><path class="cls-2" d="M178.81,5.58a3.71,3.71,0,0,0-2-.61A1.57,1.57,0,0,0,175,6.52c0,.9.59,1.32,1.93,1.89,1.68.69,2.66,1.57,2.66,3.14,0,1.85-1.42,3.08-3.69,3.08a5.53,5.53,0,0,1-2.74-.71l.44-1.22a5,5,0,0,0,2.35.7c1.4,0,2.09-.74,2.09-1.68s-.56-1.51-1.93-2.06C174.38,9,173.48,8,173.48,6.71c0-1.62,1.3-3,3.4-3a4.53,4.53,0,0,1,2.39.63Z"/><path class="cls-2" d="M189.42,14a7.64,7.64,0,0,1-3.27.65c-3,0-4.86-2.15-4.86-5.26,0-3.27,1.84-5.62,4.65-5.62,3.21,0,4,2.94,4,4.76,0,.36,0,.63,0,.88h-7.1c0,2.88,1.67,4,3.54,4a6.63,6.63,0,0,0,2.74-.53Zm-1-5.78c0-1.41-.58-3.25-2.62-3.25S183,6.77,182.88,8.2Z"/><path class="cls-2" d="M197.1,5.33c-.17,0-.34,0-.57,0-1.72,0-2.6,1.7-2.6,3.46v5.66h-1.59V7.11c0-1.11,0-2.12-.07-3.11h1.39l.08,2h0a3.11,3.11,0,0,1,2.83-2.23,3.71,3.71,0,0,1,.48,0Z"/><path class="cls-2" d="M207,4l-4,10.42h-1.49L197.67,4h1.71L201.46,10c.32.93.61,1.81.84,2.67h.06c.23-.86.53-1.74.86-2.67l2.06-6Z"/><path class="cls-2" d="M209.54,2.16a1,1,0,0,1-1-1.09A1,1,0,0,1,209.56,0a1,1,0,0,1,1,1.07A1,1,0,0,1,209.54,2.16Zm.81,12.26h-1.59V4h1.59Z"/><path class="cls-2" d="M220.53,14a6.62,6.62,0,0,1-2.83.6c-3,0-4.95-2.13-4.95-5.32a5.21,5.21,0,0,1,5.34-5.56,5.76,5.76,0,0,1,2.5.55l-.4,1.28a4.22,4.22,0,0,0-2.14-.53c-2.41,0-3.67,1.93-3.67,4.17,0,2.52,1.51,4.11,3.61,4.11a5.25,5.25,0,0,0,2.26-.52Z"/><path class="cls-2" d="M230.13,14a7.64,7.64,0,0,1-3.27.65c-3,0-4.86-2.15-4.86-5.26,0-3.27,1.84-5.62,4.65-5.62,3.21,0,4,2.94,4,4.76,0,.36,0,.63,0,.88h-7.09c0,2.88,1.66,4,3.54,4a6.54,6.54,0,0,0,2.73-.53Zm-1-5.78c0-1.41-.57-3.25-2.62-3.25s-2.75,1.82-2.9,3.25Z"/><path class="cls-3" d="M.87,21.38a4.92,4.92,0,0,0-.84.07v-.77a4.57,4.57,0,0,0,.85.07h.65V19.66a6.5,6.5,0,0,0-.08-1.14h.86a6.24,6.24,0,0,0-.08,1.13v1.1h.28a3,3,0,0,0,.77-.06v.74a4.33,4.33,0,0,0-.76-.05H2.23v2.15a9.92,9.92,0,0,0,1-.51v.72c-.42.2-.54.26-1,.48V27.8c0,.67-.24.83-1.21.83l-.7,0a2.3,2.3,0,0,0-.16-.72,5.78,5.78,0,0,0,1,.08c.33,0,.42-.07.42-.32V24.53l-.77.31a5.89,5.89,0,0,0-.56.24L0,24.3a7.06,7.06,0,0,0,1.53-.47V21.38Zm8.2,2.55a6.61,6.61,0,0,0,1.07-.07v.75a6.94,6.94,0,0,0-1.07-.07H7a8,8,0,0,0,3.42,2.79A2.31,2.31,0,0,0,10,28a9.14,9.14,0,0,1-3.22-3,7.86,7.86,0,0,1,.06,1.09v1.46a7.7,7.7,0,0,0,.07,1.15H6.1a8,8,0,0,0,.07-1.15V26.17a8.77,8.77,0,0,1,.06-1.1A8.2,8.2,0,0,1,3.2,28a2.16,2.16,0,0,0-.52-.61A8.11,8.11,0,0,0,6,24.54H4.37a6.4,6.4,0,0,0-1.1.06v-.73a6.13,6.13,0,0,0,1.1.06h1.8v-.14a2.74,2.74,0,0,0-.06-.72h.78a3.32,3.32,0,0,0,0,.72v.14Zm.7-4.76-.51.17a20.73,20.73,0,0,1-5.62,1,2.48,2.48,0,0,0-.28-.66,18.81,18.81,0,0,0,4-.45,6.48,6.48,0,0,0,1.89-.66ZM4.64,23.11A8.34,8.34,0,0,0,3.7,21l.59-.24a8.91,8.91,0,0,1,1,2.08Zm2-.4a6.38,6.38,0,0,0-.8-2.05l.62-.2a7.43,7.43,0,0,1,.84,2.05ZM7.75,23a8.14,8.14,0,0,0,1.48-2.88l.68.34a11.63,11.63,0,0,1-1.57,2.82Z"/><path class="cls-3" d="M16.86,27.1a8.67,8.67,0,0,0,.06,1.23H16.1a7.51,7.51,0,0,0,.06-1.23V25h-3.1a6.87,6.87,0,0,1-1.22,3.71,3.09,3.09,0,0,0-.66-.48,4.56,4.56,0,0,0,.92-1.92,26.41,26.41,0,0,0,.35-5.49,15.45,15.45,0,0,0,0-1.84c.34,0,.68,0,1.25,0h6.09c.56,0,.87,0,1.2,0a10.24,10.24,0,0,0-.05,1.11v7.59c0,.72-.26.89-1.35.89-.37,0-.93,0-1.41-.06a2.7,2.7,0,0,0-.17-.74,14.54,14.54,0,0,0,1.62.13c.5,0,.6-.06.6-.34V25H16.86Zm-3.7-4.81c0,.31,0,.59,0,.75,0,.7,0,.74-.05,1.26h3.06v-2Zm3-2.63h-3v2h3Zm4,2v-2H16.86v2ZM16.86,24.3h3.32v-2H16.86Z"/><path class="cls-3" d="M29.49,21.22V20.13a8.59,8.59,0,0,0,0-1.15h.88a8.91,8.91,0,0,0,0,1.05v1.19h1a9.15,9.15,0,0,0,1.32-.06V22A9.42,9.42,0,0,0,31.28,22h-1c0,2.3-.14,3-.56,3.84a4.88,4.88,0,0,1-1.85,1.87,8.15,8.15,0,0,1-1.31.57,2.13,2.13,0,0,0-.51-.71,5,5,0,0,0,2.16-1.11,3.68,3.68,0,0,0,1.22-2.83c0-.36,0-.71,0-1.63H26v1.89a7.13,7.13,0,0,0,0,.92h-.91a7.36,7.36,0,0,0,0-.95V22h-.95A9.42,9.42,0,0,0,23,22v-.86a9.32,9.32,0,0,0,1.32.06h.94v-1.3a7.36,7.36,0,0,0,0-1h.91a5.6,5.6,0,0,0,0,.92v1.33Z"/><path class="cls-3" d="M43.08,19.45a2.48,2.48,0,0,0-.49.47,20.29,20.29,0,0,1-2.65,2.28V27a8.41,8.41,0,0,0,.05,1.2H39A6.36,6.36,0,0,0,39.08,27v-4.3a17.64,17.64,0,0,1-4.37,2,2.73,2.73,0,0,0-.45-.76A15.79,15.79,0,0,0,40.14,21a9.33,9.33,0,0,0,2.16-2.14Z"/><path class="cls-3" d="M48.12,28.23A8.21,8.21,0,0,0,48.18,27V20a7.48,7.48,0,0,0-.06-1.15h1A6.42,6.42,0,0,0,49,20v2.12a27.91,27.91,0,0,1,5,2.39l-.49.84a22.24,22.24,0,0,0-4.22-2.24,1.24,1.24,0,0,1-.35-.2l0,0a4.33,4.33,0,0,1,0,.66V27a7,7,0,0,0,.06,1.2Z"/></g></g></svg>