<svg id="レイヤー_1" data-name="レイヤー 1" xmlns="http://www.w3.org/2000/svg" xmlns:xlink="http://www.w3.org/1999/xlink" viewBox="0 0 235 44"><defs><style>.cls-1{fill:none;}.cls-2{clip-path:url(#clip-path);}.cls-3{fill:#80b0d9;}.cls-4{font-size:19.11px;fill:#888;font-family:KozGoPr6N-Regular-83pv-RKSJ-H, Kozuka Gothic Pr6N;}.cls-5{font-size:11.33px;fill:#333;font-family:HiraKakuProN-W3-83pv-RKSJ-H, Hiragino Kaku Gothic ProN;}</style><clipPath id="clip-path"><rect class="cls-1" x="-729" y="52" width="1170" height="480"/></clipPath></defs><title>saiyou_logo_sm</title><g class="cls-2"><image width="4000" height="2670" transform="translate(-751 14) scale(0.3)" xlink:href="../有料写真/pixta_34634385_L.jpg"/></g><path class="cls-3" d="M4.31,16H2.78c0-.37,0-1.2,0-2.46s0-2.8,0-4.59c0-.72,0-1.57,0-2.53s0-1.93,0-2.92H4.31c0,1,0,2,0,3.23s0,2.24,0,3.11c0,1.79,0,3.17,0,4.14S4.31,15.61,4.31,16Zm8.1-.86-1.08,1c-1.48-1.45-2.92-2.79-4.3-4L4.66,10v0L7.14,7.38c1.26-1.32,2.53-2.66,3.79-4L12,4.28Q10.38,5.82,8.69,7.56L6.56,9.75v0L8.4,11.48C9.49,12.47,10.82,13.69,12.41,15.12Z"/><path class="cls-3" d="M25.22,15.48l-1.45.75-.6-1.39c-.38-.86-.87-2-1.48-3.31H16.17C15.51,13,15,14.1,14.65,14.9s-.56,1.24-.59,1.33l-1.25-.68c.16-.32.82-1.74,2-4.27s2.39-5.19,3.65-8h1.21q1.88,4.17,3.67,8.09C24.54,14,25.17,15.37,25.22,15.48Zm-4.06-5.15c-.33-.76-.67-1.55-1-2.38L19,5.36h0c-.31.69-.69,1.53-1.13,2.53S17,9.7,16.7,10.33h4.46Z"/><path class="cls-3" d="M38.25,3.48c0,1,0,2.1,0,3.35s0,2.17,0,2.72c0,1.77,0,3.17,0,4.21s0,1.6,0,1.67L37,16q-2.82-3.81-5.26-6.88L28.9,5.62h0q0,2.51,0,6.15c0,2.42,0,3.83,0,4.2H27.5c0-.16,0-.71,0-1.66s0-2.28,0-4c0-.68,0-1.58,0-2.7s0-2.31,0-3.57l1.42-.67q.18.21,2.86,3.63c1.8,2.27,3.49,4.39,5.08,6.34h0c0-1,0-2.57,0-4.84s0-3.94,0-5Z"/><path class="cls-3" d="M51.23,4.8H46.64c0,1.28,0,2.25,0,2.91s0,1.56,0,2.69,0,2.21,0,3.34,0,1.89,0,2.26H45.1c0-.37,0-1.14,0-2.29s0-2.28,0-3.38V7.73c0-.64,0-1.62,0-2.95-1.32,0-2.4,0-3.22,0H40.54V3.51H51.23Z"/><path class="cls-3" d="M64.55,9.74A7.15,7.15,0,0,1,64,12.51a6.12,6.12,0,0,1-1.34,2.09A6,6,0,0,1,56.33,16a5.66,5.66,0,0,1-1.85-1.18A6.33,6.33,0,0,1,53,12.62a7.28,7.28,0,0,1-.55-2.9,7.31,7.31,0,0,1,.44-2.62A6.22,6.22,0,0,1,54.22,5a5.5,5.5,0,0,1,1.93-1.36,6.15,6.15,0,0,1,4.69,0A5.57,5.57,0,0,1,62.7,4.85,6.09,6.09,0,0,1,64.08,7,7.78,7.78,0,0,1,64.55,9.74ZM63,9.89a7.28,7.28,0,0,0-.41-2.39,4.8,4.8,0,0,0-1.24-2,4.09,4.09,0,0,0-1.26-.84,3.86,3.86,0,0,0-1.55-.3A4,4,0,0,0,57,4.7a4.1,4.1,0,0,0-1.32.89,5.2,5.2,0,0,0-1.16,1.85,6.38,6.38,0,0,0-.42,2.3,6.5,6.5,0,0,0,.43,2.4,4.91,4.91,0,0,0,1.2,1.8,4,4,0,0,0,2.82,1.14,4.09,4.09,0,0,0,1.56-.3,4.16,4.16,0,0,0,1.31-.87,5.14,5.14,0,0,0,1.15-1.72A5.72,5.72,0,0,0,63,9.89Z"/><path class="cls-3" d="M78.12,3.48c0,1.2,0,2.19,0,3s0,1.46,0,2,0,1.31,0,1.81v1.3a5.13,5.13,0,0,1-.32,1.91,3.81,3.81,0,0,1-1,1.44,4.48,4.48,0,0,1-1.6,1,7.09,7.09,0,0,1-4.4,0,4.52,4.52,0,0,1-1.62-1,3.9,3.9,0,0,1-1-1.44,5.13,5.13,0,0,1-.33-1.91c0-.36,0-.8,0-1.3V8.49c0-.58,0-1.26,0-2s0-1.77,0-3h1.54q0,.24,0,1.59c0,.91,0,2.1,0,3.57V10c0,.48,0,1,0,1.48a3.28,3.28,0,0,0,1,2.59A3.8,3.8,0,0,0,73,15a3.84,3.84,0,0,0,2.71-.84,3.41,3.41,0,0,0,.91-2.63V10c0-.47,0-.94,0-1.39,0-1.47,0-2.68,0-3.62s0-1.45,0-1.54Z"/><path class="cls-3" d="M94.81,4.81l-1.23,0H88.69c0,.7,0,1.47,0,2.29s0,1.54,0,2.16h4.55l1.5,0v1.29H93l-2.77,0H88.66c0,1.1,0,2.14,0,3.12s0,1.77,0,2.37H87.15c0-.37,0-1,0-2s0-2.33,0-4.12c0-.71,0-1.63,0-2.78s0-2.35,0-3.58h7.66Z"/><path class="cls-3" d="M108.22,3.48c0,1.2,0,2.19,0,3s0,1.46,0,2V10.3c0,.5,0,.94,0,1.3a5.35,5.35,0,0,1-.32,1.91,3.93,3.93,0,0,1-1,1.44,4.62,4.62,0,0,1-1.61,1,6.39,6.39,0,0,1-2.2.35,6.47,6.47,0,0,1-2.2-.35,4.56,4.56,0,0,1-1.61-1,3.93,3.93,0,0,1-1-1.44A5.35,5.35,0,0,1,98,11.6V10.3c0-.5,0-1.11,0-1.81s0-1.26,0-2,0-1.77,0-3h1.54c0,.16,0,.69,0,1.59s0,2.1,0,3.57c0,.45,0,.92,0,1.39v1.48a3.32,3.32,0,0,0,1,2.59,3.82,3.82,0,0,0,2.65.88,3.87,3.87,0,0,0,2.72-.84,3.45,3.45,0,0,0,.9-2.63c0-.51,0-1,0-1.48V8.64c0-1.47,0-2.68,0-3.62s0-1.45,0-1.54Z"/><path class="cls-3" d="M114,16h-1.54c0-.37,0-1.2,0-2.46s0-2.8,0-4.59c0-.72,0-1.57,0-2.53s0-1.93,0-2.92H114c0,1,0,2,0,3.23s0,2.24,0,3.11c0,1.79,0,3.17,0,4.14S114,15.61,114,16Zm8.09-.86-1.07,1c-1.49-1.45-2.92-2.79-4.3-4s-2.18-2-2.37-2.15v0c.38-.38,1.21-1.23,2.47-2.54s2.53-2.66,3.8-4l1,.94q-1.6,1.54-3.3,3.28l-2.13,2.19v0l1.85,1.71Z"/><path class="cls-3" d="M134.72,3.48c0,1.2,0,2.19,0,3s0,1.46,0,2,0,1.31,0,1.81v1.3a5.35,5.35,0,0,1-.32,1.91,3.93,3.93,0,0,1-1,1.44,4.57,4.57,0,0,1-1.6,1,7.12,7.12,0,0,1-4.41,0,4.56,4.56,0,0,1-1.61-1,3.93,3.93,0,0,1-1-1.44,5.35,5.35,0,0,1-.32-1.91c0-.36,0-.8,0-1.3V8.49c0-.58,0-1.26,0-2s0-1.77,0-3H126c0,.16,0,.69,0,1.59s0,2.1,0,3.57V10c0,.48,0,1,0,1.48a3.28,3.28,0,0,0,1,2.59,3.79,3.79,0,0,0,2.65.88,3.86,3.86,0,0,0,2.71-.84,3.45,3.45,0,0,0,.91-2.63V10c0-.47,0-.94,0-1.39,0-1.47,0-2.68,0-3.62s0-1.45,0-1.54Z"/><path class="cls-3" d="M145.24,12.46a3.17,3.17,0,0,1-.46,1.69,3.51,3.51,0,0,1-1.22,1.17,5.74,5.74,0,0,1-1.6.62,9,9,0,0,1-2,.21c-.4,0-.82,0-1.24,0l-.74-.05-.08-1.34.73.07c.4,0,.87.05,1.41.05a7.85,7.85,0,0,0,1.28-.13,4.51,4.51,0,0,0,1.2-.34,2.31,2.31,0,0,0,.85-.65,1.57,1.57,0,0,0,.29-1,1.89,1.89,0,0,0-.29-1.06,3,3,0,0,0-1-.83,11.52,11.52,0,0,0-1.14-.59c-.46-.22-.88-.44-1.26-.67a3.92,3.92,0,0,1-1.36-1.27,2.93,2.93,0,0,1-.4-1.52,2.84,2.84,0,0,1,.37-1.49,3.63,3.63,0,0,1,.95-1.08A4.15,4.15,0,0,1,141,3.57a7.54,7.54,0,0,1,1.92-.23c.38,0,.78,0,1.17,0l.68,0,.13,1.35-.68-.06c-.4,0-.89-.06-1.48-.06a4.94,4.94,0,0,0-1.07.12,2.85,2.85,0,0,0-1,.36,1.86,1.86,0,0,0-.63.59,1.54,1.54,0,0,0-.27.9,1.63,1.63,0,0,0,.28.88,3.14,3.14,0,0,0,1,.87,10.77,10.77,0,0,0,1,.54c.42.2.84.42,1.24.66a4.23,4.23,0,0,1,1.4,1.26A2.86,2.86,0,0,1,145.24,12.46Z"/><path class="cls-3" d="M159.18,16h-1.54c0-.37,0-1.06,0-2.07s0-2.25,0-3.75h-7.56c0,1.73,0,3,0,3.92s0,1.53,0,1.9H148.6c0-.37,0-1,0-2s0-2.56,0-4.82c0-.69,0-1.52,0-2.5s0-2,0-3.19h1.54c0,.95,0,1.88,0,2.79s0,1.78,0,2.6h7.56c0-.82,0-1.69,0-2.6s0-1.83,0-2.79h1.54c0,.94,0,2,0,3.26s0,2.24,0,3c0,1.83,0,3.23,0,4.21S159.17,15.61,159.18,16Z"/><path class="cls-3" d="M165.08,16h-1.54c0-.37,0-1,0-2s0-2.33,0-4.12c0-.71,0-1.64,0-2.79s0-2.35,0-3.59h1.54c0,.89,0,1.93,0,3.11s0,2.14,0,2.88c0,1.9,0,3.36,0,4.4S165.08,15.61,165.08,16Z"/><text class="cls-4" transform="translate(173.89 16.31)">service</text><text class="cls-5" transform="translate(0.98 29.77)">採用サイト</text></svg>