<svg xmlns="http://www.w3.org/2000/svg" width="386.21" height="39.25" viewBox="0 0 386.21 39.25"><defs><style>.cls-1{fill:#80b0d9;}.cls-2{fill:#888;}.cls-3{fill:#333;}</style></defs><title>saiyou_logo</title><g id="レイヤー_2" data-name="レイヤー 2"><g id="レイヤー_1-2" data-name="レイヤー 1"><path class="cls-1" d="M2.8,19.53c0-3.52.05-6.87.05-10,0-.93,0-2.13,0-3.63s0-2.84,0-4H5.16c0,1.27,0,2.76,0,4.47v4.2q0,4.71.08,9Zm17.72-1.4L19,19.74Q17.13,18.44,12,15L6.33,11.08h0l4.88-3.66C13.59,5.62,16,3.76,18.45,1.8l1.63,1.32q-1.84,1.35-5.92,4.49L9.83,11v0l4.56,3.08Q18.31,16.69,20.52,18.13Z"/><path class="cls-1" d="M44.46,18.68l-2.05,1.16L41,17.53q-1.25-2.07-2.64-4.27H27.05q-1.73,2.81-2.62,4.19c-.6.93-1.08,1.72-1.45,2.39l-1.66-1,4-6.27q3.52-5.56,6.88-11h1.65q3.21,5.21,6.88,11T44.46,18.68Zm-7.18-7.23c-.61-1-1.34-2.25-2.19-3.64s-1.62-2.63-2.32-3.74h-.05q-.82,1.38-2.31,3.74c-1,1.58-1.74,2.8-2.25,3.64h9.12Z"/><path class="cls-1" d="M67.51,1.83c0,1.49-.05,3.07-.05,4.76s0,2.89,0,3.61c0,3.16,0,6.06.06,8.68l-1.89.62q-4.22-4-9.87-9.17T49.53,4.6h0q0,4.38.16,14.9H47.41c0-3.55.05-6.24.05-8q0-1.81,0-4c0-1.5,0-3.11,0-4.84L49.6,1.8q.76.78,6.44,6t9.34,8.53h0c0-.86,0-3-.06-6.53s0-6.15,0-8Z"/><path class="cls-1" d="M90.56,3.74c-2.89,0-5.81,0-8.74,0,0,2.14,0,3.57,0,4.31s0,1.86,0,3.37,0,4.27,0,8.05h-2.3c.06-3.78.09-6.46.11-8s0-2.66,0-3.45,0-2.22,0-4.26l-8.73,0V1.87h4l5.66,0,10,0Z"/><path class="cls-1" d="M115.08,10.75a8,8,0,0,1-.94,3.81,9.18,9.18,0,0,1-2.61,3A11.48,11.48,0,0,1,108,19.4a14.13,14.13,0,0,1-4.32.61,14.8,14.8,0,0,1-4.08-.54,10.81,10.81,0,0,1-3.43-1.66,9.68,9.68,0,0,1-2.83-3.1,8,8,0,0,1-1-4A8.35,8.35,0,0,1,93.19,7a9.25,9.25,0,0,1,2.48-3A11.42,11.42,0,0,1,99.27,2a14,14,0,0,1,4.42-.66,14.27,14.27,0,0,1,4.37.62,11.9,11.9,0,0,1,3.51,1.84,9.1,9.1,0,0,1,2.64,3.09A8.46,8.46,0,0,1,115.08,10.75Zm-2.44,0a6.92,6.92,0,0,0-.81-3.4,7.31,7.31,0,0,0-2.46-2.57,8.57,8.57,0,0,0-2.62-1.21,12.1,12.1,0,0,0-3.06-.38,11.29,11.29,0,0,0-3.15.41A8.67,8.67,0,0,0,98,4.88a7.45,7.45,0,0,0-2.39,2.6,6.8,6.8,0,0,0-.75,3.22A6.63,6.63,0,0,0,95.63,14a7.62,7.62,0,0,0,2.47,2.57,8.37,8.37,0,0,0,2.61,1.19,12.19,12.19,0,0,0,6.08,0,9.27,9.27,0,0,0,2.66-1.23A7.67,7.67,0,0,0,111.84,14,6.54,6.54,0,0,0,112.64,10.76Z"/><path class="cls-1" d="M139.1,1.83q0,1.62,0,3.18c0,1,0,2.25,0,3.63v2c0,.48,0,1.15,0,2a7.51,7.51,0,0,1-.62,3.31A5.64,5.64,0,0,1,136.62,18a9.53,9.53,0,0,1-3.05,1.41,16.15,16.15,0,0,1-4,.43,16.36,16.36,0,0,1-4.08-.46A9.31,9.31,0,0,1,122.35,18a5.46,5.46,0,0,1-1.79-2.14,8.08,8.08,0,0,1-.57-3.3c0-.57,0-1.16,0-1.77V8.64c0-.63,0-1.58,0-2.83s0-2.57,0-4h2.4c0,.21,0,1.09,0,2.63s0,3,0,4.48c0,.78,0,1.37,0,1.8v1.78a4.75,4.75,0,0,0,1.9,4.25A9.56,9.56,0,0,0,129.52,18a9.44,9.44,0,0,0,5.4-1.3,4.61,4.61,0,0,0,1.87-4.09c0-.52,0-1,0-1.57s0-1.18,0-1.95c0-1.2,0-2.65,0-4.36s0-2.69,0-2.94Z"/><path class="cls-1" d="M167.89,3.74H156.31c0,.63,0,1.54,0,2.73s0,2.34,0,3.46h3.11l8.36,0v1.91c-4.51,0-7.38-.05-8.61-.05l-2.86,0c0,2.09,0,3.74,0,4.94s0,2.13,0,2.82H154q0-5.53.05-8.7,0-1.63,0-4.05c0-1.62,0-3.24,0-4.88h2.87l4,0,7.11,0Z"/><path class="cls-1" d="M191.32,1.83q0,1.62,0,3.18c0,1,0,2.25,0,3.63v2c0,.48,0,1.15,0,2a7.51,7.51,0,0,1-.62,3.31A5.64,5.64,0,0,1,188.84,18a9.53,9.53,0,0,1-3.05,1.41,16.15,16.15,0,0,1-4,.43,16.36,16.36,0,0,1-4.08-.46A9.31,9.31,0,0,1,174.57,18a5.46,5.46,0,0,1-1.79-2.14,8.08,8.08,0,0,1-.57-3.3c0-.57,0-1.16,0-1.77V8.64c0-.63,0-1.58,0-2.83s0-2.57,0-4h2.4c0,.21,0,1.09,0,2.63s0,3,0,4.48c0,.78,0,1.37,0,1.8v1.78a4.75,4.75,0,0,0,1.9,4.25A9.56,9.56,0,0,0,181.74,18a9.44,9.44,0,0,0,5.4-1.3A4.61,4.61,0,0,0,189,12.65c0-.52,0-1,0-1.57s0-1.18,0-1.95c0-1.2,0-2.65,0-4.36s0-2.69,0-2.94Z"/><path class="cls-1" d="M197.75,19.53c0-3.52.05-6.87.05-10,0-.93,0-2.13,0-3.63s0-2.84,0-4h2.36c0,1.27,0,2.76,0,4.47v4.2c0,3.14,0,6.15.08,9Zm17.72-1.4-1.56,1.61Q212.07,18.44,207,15l-5.71-3.89h0l4.89-3.66c2.38-1.79,4.79-3.65,7.24-5.61L215,3.12q-1.85,1.35-5.92,4.49L204.77,11v0l4.56,3.08Q213.25,16.69,215.47,18.13Z"/><path class="cls-1" d="M238.89,1.83c0,1.08,0,2.14,0,3.18s0,2.25,0,3.63c0,.86,0,1.53,0,2v2a7.37,7.37,0,0,1-.62,3.31A5.64,5.64,0,0,1,236.41,18a9.53,9.53,0,0,1-3,1.41,16.15,16.15,0,0,1-4.05.43,16.36,16.36,0,0,1-4.08-.46A9.35,9.35,0,0,1,222.15,18a5.38,5.38,0,0,1-1.79-2.14,8.07,8.07,0,0,1-.58-3.3c0-.57,0-1.16,0-1.77s0-1.34,0-2.19c0-.63,0-1.58,0-2.83s0-2.57,0-4h2.41c0,.21,0,1.09,0,2.63s0,3,0,4.48c0,.78,0,1.37,0,1.8v1.78a4.72,4.72,0,0,0,1.9,4.25,11.8,11.8,0,0,0,10.71,0,4.62,4.62,0,0,0,1.86-4.09c0-.52,0-1,0-1.57s0-1.18,0-1.95c0-1.2,0-2.65,0-4.36s0-2.69,0-2.94Z"/><path class="cls-1" d="M257.43,14.52a3.74,3.74,0,0,1-.81,2.37,5.81,5.81,0,0,1-2.23,1.69,11.9,11.9,0,0,1-3.08.87,22.71,22.71,0,0,1-3.57.26c-1,0-2.22,0-3.63-.1L244,17.69c1.5.11,2.87.16,4.11.16a17.63,17.63,0,0,0,2.55-.19,10.24,10.24,0,0,0,2.15-.5,4.33,4.33,0,0,0,1.56-.9,1.91,1.91,0,0,0,.63-1.33,2,2,0,0,0-.54-1.5,5,5,0,0,0-1.89-1.18l-2.19-.84c-.8-.3-1.59-.62-2.37-.95a7.56,7.56,0,0,1-2.46-1.61,3.18,3.18,0,0,1-1-2.3,3.55,3.55,0,0,1,.67-2.08A5.31,5.31,0,0,1,247,2.89a8.73,8.73,0,0,1,2.64-1,17.87,17.87,0,0,1,3.54-.31c1,0,2.1,0,3.43.11l.24,1.82c-1.5-.08-2.85-.12-4-.12a14,14,0,0,0-2.09.16,7.27,7.27,0,0,0-2,.54A3.24,3.24,0,0,0,247.6,5a1.9,1.9,0,0,0-.53,1.26,1.86,1.86,0,0,0,.62,1.36,6.07,6.07,0,0,0,1.84,1.09q1.38.57,2.52,1l1.83.7a6.65,6.65,0,0,1,2.72,1.78A3.53,3.53,0,0,1,257.43,14.52Z"/><path class="cls-1" d="M280.22,19.5q0-6.36,0-8.2l-7.37,0-7.75,0c0,1.69,0,4.42,0,8.2h-2.36c0-4.12.05-7.34.05-9.67,0-1,0-2.21,0-3.63s0-2.88,0-4.37h2.36c0,.9,0,2,0,3.4s0,2.77,0,4.17l7.78,0,7.34,0c0-1.35,0-2.75,0-4.21s0-2.57,0-3.36h2.37c0,2.05,0,3.76,0,5.13s0,2.52,0,3.46c0,1.78,0,4.81,0,9.11Z"/><path class="cls-1" d="M289.07,19.5c0-3.24.06-6.12.06-8.66,0-1,0-2.32,0-3.94s0-3.32-.05-5.07h2.17c0,1.26,0,2.72,0,4.39s0,3,0,4.08c0,2.68,0,5.74.06,9.2Z"/><path class="cls-2" d="M312.87,7.89A5.29,5.29,0,0,0,310,7a2.21,2.21,0,0,0-2.48,2.18c0,1.27.83,1.87,2.72,2.68,2.38,1,3.76,2.22,3.76,4.43,0,2.62-2,4.35-5.21,4.35a7.76,7.76,0,0,1-3.87-1l.62-1.73a7,7,0,0,0,3.33,1c2,0,2.94-1.05,2.94-2.37s-.78-2.14-2.73-2.92c-2.48-1-3.75-2.38-3.75-4.17,0-2.29,1.83-4.18,4.81-4.18a6.46,6.46,0,0,1,3.37.89Z"/><path class="cls-2" d="M327.87,19.75a10.64,10.64,0,0,1-4.63.92c-4.29,0-6.86-3-6.86-7.43,0-4.62,2.59-7.94,6.57-7.94,4.54,0,5.7,4.16,5.7,6.73,0,.51,0,.89-.06,1.24h-10c0,4.08,2.35,5.62,5,5.62a9.24,9.24,0,0,0,3.86-.76Zm-1.44-8.16c0-2-.81-4.59-3.7-4.59-2.7,0-3.89,2.57-4.11,4.59Z"/><path class="cls-2" d="M338.73,7.54a6.27,6.27,0,0,0-.81,0c-2.43,0-3.68,2.4-3.68,4.89v8H332V10.05c0-1.56,0-3-.11-4.4h2l.1,2.84h.08a4.42,4.42,0,0,1,4-3.17c.25,0,.44.06.68.08Z"/><path class="cls-2" d="M352.68,5.65l-5.6,14.73H345L339.54,5.62H342l2.94,8.57c.46,1.32.87,2.56,1.19,3.78h.08c.33-1.22.76-2.46,1.22-3.78l2.92-8.54Z"/><path class="cls-2" d="M356.33,3.05a1.45,1.45,0,0,1-1.46-1.54A1.47,1.47,0,0,1,356.35,0a1.44,1.44,0,0,1,1.46,1.51A1.43,1.43,0,0,1,356.33,3.05Zm1.13,17.33h-2.24V5.65h2.24Z"/><path class="cls-2" d="M371.86,19.83a9.27,9.27,0,0,1-4,.84c-4.22,0-7-3-7-7.51s3-7.86,7.54-7.86a8.13,8.13,0,0,1,3.54.78l-.57,1.81a6,6,0,0,0-3-.76c-3.4,0-5.19,2.73-5.19,5.89,0,3.57,2.14,5.81,5.11,5.81a7.47,7.47,0,0,0,3.19-.72Z"/><path class="cls-2" d="M385.43,19.75a10.62,10.62,0,0,1-4.62.92c-4.3,0-6.86-3-6.86-7.43,0-4.62,2.59-7.94,6.56-7.94,4.54,0,5.7,4.16,5.7,6.73,0,.51,0,.89,0,1.24h-10c0,4.08,2.35,5.62,5,5.62a9.3,9.3,0,0,0,3.87-.76ZM384,11.59c0-2-.81-4.59-3.7-4.59-2.71,0-3.89,2.57-4.11,4.59Z"/><path class="cls-3" d="M1.23,28.81a7.91,7.91,0,0,0-1.18.09V27.81a6.47,6.47,0,0,0,1.2.1h.91V26.37a9.82,9.82,0,0,0-.11-1.62H3.27a9.38,9.38,0,0,0-.11,1.61v1.55h.4a5,5,0,0,0,1.09-.08v1a7.09,7.09,0,0,0-1.08-.06H3.16v3a15.23,15.23,0,0,0,1.47-.72v1c-.59.29-.77.37-1.47.69v5.06c0,1-.34,1.17-1.72,1.17l-1,0a2.72,2.72,0,0,0-.23-1,9,9,0,0,0,1.35.11c.47,0,.59-.09.59-.45V33.26c-.54.23-.73.29-1.09.43a6.29,6.29,0,0,0-.78.36L0,32.94a10.94,10.94,0,0,0,2.16-.67V28.81Zm11.6,3.6a11.25,11.25,0,0,0,1.53-.09v1a11.78,11.78,0,0,0-1.53-.09H10a11.23,11.23,0,0,0,4.84,3.94,3.72,3.72,0,0,0-.65,1A12.88,12.88,0,0,1,9.6,34a14.77,14.77,0,0,1,.08,1.54v2.07a12.87,12.87,0,0,0,.09,1.63H8.64a13.21,13.21,0,0,0,.09-1.63v-2A13.87,13.87,0,0,1,8.81,34a11.57,11.57,0,0,1-4.28,4.09,2.78,2.78,0,0,0-.73-.87,11.36,11.36,0,0,0,4.63-4H6.18a9.23,9.23,0,0,0-1.55.08v-1a8.76,8.76,0,0,0,1.55.08H8.73v-.19a4.11,4.11,0,0,0-.08-1H9.76a4,4,0,0,0-.08,1v.19Zm1-6.73-.72.24A29.42,29.42,0,0,1,5.16,27.3a4,4,0,0,0-.4-.93,26.36,26.36,0,0,0,5.65-.64,9.31,9.31,0,0,0,2.68-.93ZM6.57,31.26a11.88,11.88,0,0,0-1.33-3l.83-.33a12,12,0,0,1,1.38,2.94Zm2.77-.58a9,9,0,0,0-1.14-2.9l.88-.27a10,10,0,0,1,1.19,2.9ZM11,31A11.51,11.51,0,0,0,13.06,27l1,.49a16.44,16.44,0,0,1-2.21,4Z"/><path class="cls-3" d="M23.85,36.9a12.17,12.17,0,0,0,.08,1.75H22.78a12.44,12.44,0,0,0,.08-1.75v-3H18.47a9.72,9.72,0,0,1-1.73,5.26,3.69,3.69,0,0,0-.93-.69,6.5,6.5,0,0,0,1.3-2.71A37.85,37.85,0,0,0,17.6,28a26,26,0,0,0-.06-2.61,16.68,16.68,0,0,0,1.76.06h8.62a15.23,15.23,0,0,0,1.7-.06,13.24,13.24,0,0,0-.06,1.57V37.67c0,1-.37,1.25-1.93,1.25-.51,0-1.31,0-2-.08a3.79,3.79,0,0,0-.24-1A20.71,20.71,0,0,0,27.7,38c.7,0,.85-.08.85-.48V33.87h-4.7Zm-5.24-6.81c0,.45,0,.83,0,1.06,0,1,0,1.05-.07,1.79h4.33V30.09Zm4.25-3.72H18.65v1.91l0,.9h4.23Zm5.69,2.81V26.37h-4.7v2.81Zm-4.7,3.76h4.7V30.09h-4.7Z"/><path class="cls-3" d="M41.71,28.58V27a12.77,12.77,0,0,0,0-1.62h1.25a11,11,0,0,0-.07,1.49v1.68h1.38a11.72,11.72,0,0,0,1.87-.09V29.7a15.54,15.54,0,0,0-1.86-.08H42.83c0,3.26-.19,4.28-.78,5.44a6.81,6.81,0,0,1-2.61,2.64,12.3,12.3,0,0,1-1.86.82,2.9,2.9,0,0,0-.72-1,7.14,7.14,0,0,0,3.06-1.57,5.21,5.21,0,0,0,1.71-4c0-.51,0-1,.07-2.31H36.83V32.3a8.68,8.68,0,0,0,.06,1.3h-1.3a8.72,8.72,0,0,0,.07-1.35V29.62H34.31a15.65,15.65,0,0,0-1.86.08V28.49a11.86,11.86,0,0,0,1.88.09h1.33V26.74a8.65,8.65,0,0,0-.07-1.34h1.3a7.32,7.32,0,0,0-.06,1.29v1.89Z"/><path class="cls-3" d="M60.94,26.07a3.66,3.66,0,0,0-.71.67A27.71,27.71,0,0,1,56.48,30v6.83a11,11,0,0,0,.08,1.69H55.17a8.38,8.38,0,0,0,.09-1.66V30.73a24.94,24.94,0,0,1-6.18,2.8,3.62,3.62,0,0,0-.62-1.07,22.42,22.42,0,0,0,8.31-4.15,13.26,13.26,0,0,0,3.06-3Z"/><path class="cls-3" d="M68.05,38.5a11,11,0,0,0,.09-1.68V26.87a10.3,10.3,0,0,0-.09-1.64h1.37a10.66,10.66,0,0,0-.08,1.67v3a39.32,39.32,0,0,1,7.13,3.38l-.69,1.18a32.87,32.87,0,0,0-6-3.17,2.08,2.08,0,0,1-.5-.27h0a5.49,5.49,0,0,1,.06.95V36.8a11.46,11.46,0,0,0,.08,1.7Z"/></g></g></svg>