<svg xmlns="http://www.w3.org/2000/svg" width="229.43" height="28.43" viewBox="0 0 229.43 28.43"><defs><style>.cls-1{fill:#80b0d9;}.cls-2{fill:#888;}</style></defs><title>saiyou_logo_sm</title><g id="レイヤー_2" data-name="レイヤー 2"><g id="レイヤー_1-2" data-name="レイヤー 1"><path class="cls-1" d="M1.54,14.09H0q0-.55,0-2.46c0-1.27,0-2.8,0-4.59,0-.72,0-1.57,0-2.53S0,2.58,0,1.59H1.54c0,1,0,2,0,3.23s0,2.24,0,3.11c0,1.79,0,3.17,0,4.14S1.53,13.72,1.54,14.09Zm8.09-.86-1.07,1c-1.49-1.45-2.92-2.79-4.31-4L1.88,8.07V8C2.27,7.65,3.1,6.8,4.36,5.49s2.53-2.66,3.8-4l1.05.94Q7.61,3.93,5.91,5.67L3.78,7.86v0c.14.14.76.71,1.85,1.71Z"/><path class="cls-1" d="M22.44,13.59,21,14.34c0-.07-.22-.53-.6-1.39s-.86-2-1.47-3.31H13.39c-.66,1.45-1.16,2.57-1.52,3.37l-.59,1.33L10,13.66q.24-.48,2-4.27c1.18-2.53,2.39-5.19,3.66-8H16.9c1.24,2.78,2.47,5.48,3.67,8.09ZM18.39,8.44c-.33-.76-.68-1.55-1.05-2.38s-.75-1.69-1.15-2.59h0C15.84,4.16,15.46,5,15,6L13.93,8.44h4.46Z"/><path class="cls-1" d="M35.48,1.59c0,1,0,2.1,0,3.35s0,2.17,0,2.72c0,1.77,0,3.17,0,4.21s0,1.6,0,1.67l-1.24.61Q31.41,10.34,29,7.27L26.13,3.73h0q0,2.51,0,6.15c0,2.42,0,3.83,0,4.2H24.73c0-.16,0-.71,0-1.66s0-2.28,0-4c0-.68,0-1.58,0-2.7s0-2.31,0-3.57l1.42-.67L29,5.14c1.79,2.27,3.48,4.39,5.07,6.34h0c0-1,0-2.57,0-4.84s0-3.94,0-5Z"/><path class="cls-1" d="M48.45,2.91H43.87q0,1.92,0,2.91c0,.66,0,1.56,0,2.69s0,2.21,0,3.34,0,1.89,0,2.26H42.33c0-.37,0-1.14,0-2.29s0-2.28,0-3.38V5.84c0-.64,0-1.62,0-2.95-1.33,0-2.4,0-3.23,0H37.77V1.62H48.45Z"/><path class="cls-1" d="M61.78,7.85a7.34,7.34,0,0,1-.52,2.77,6.29,6.29,0,0,1-1.35,2.09A5.93,5.93,0,0,1,58,14a6,6,0,0,1-2.22.41,6.1,6.1,0,0,1-2.18-.39,5.62,5.62,0,0,1-1.84-1.18,6.2,6.2,0,0,1-1.46-2.15,7.28,7.28,0,0,1-.56-2.9,7.54,7.54,0,0,1,.44-2.62,6.19,6.19,0,0,1,1.32-2.12,5.5,5.5,0,0,1,1.93-1.36,5.88,5.88,0,0,1,2.35-.48,6,6,0,0,1,2.34.45A5.53,5.53,0,0,1,59.92,3a6.25,6.25,0,0,1,1.39,2.19A7.78,7.78,0,0,1,61.78,7.85ZM60.19,8a7.28,7.28,0,0,0-.41-2.39,4.89,4.89,0,0,0-1.23-2,4.34,4.34,0,0,0-1.26-.84,3.88,3.88,0,0,0-1.56-.3,4,4,0,0,0-1.56.3,4.06,4.06,0,0,0-1.31.89,5.23,5.23,0,0,0-1.17,1.85,6.59,6.59,0,0,0-.41,2.3,6.5,6.5,0,0,0,.42,2.4,5.3,5.3,0,0,0,1.2,1.81,4.35,4.35,0,0,0,1.26.82,3.91,3.91,0,0,0,1.56.31,4,4,0,0,0,1.56-.3A4.16,4.16,0,0,0,58.59,12a5.19,5.19,0,0,0,1.15-1.71A5.8,5.8,0,0,0,60.19,8Z"/><path class="cls-1" d="M75.35,1.59c0,1.2,0,2.19,0,3s0,1.46,0,2V8.41c0,.5,0,.94,0,1.3A5.35,5.35,0,0,1,75,11.62a3.93,3.93,0,0,1-1,1.44,4.67,4.67,0,0,1-1.6,1A7.12,7.12,0,0,1,68,14a4.56,4.56,0,0,1-1.61-1,3.81,3.81,0,0,1-1-1.44,5.35,5.35,0,0,1-.32-1.91V8.41c0-.5,0-1.1,0-1.81s0-1.26,0-2,0-1.77,0-3h1.54c0,.16,0,.69,0,1.6s0,2.09,0,3.56c0,.45,0,.92,0,1.4V9.62a3.32,3.32,0,0,0,1,2.59,3.82,3.82,0,0,0,2.65.88,3.89,3.89,0,0,0,2.72-.84,3.45,3.45,0,0,0,.9-2.63c0-.5,0-1,0-1.47V6.75c0-1.47,0-2.68,0-3.62s0-1.45,0-1.54Z"/><path class="cls-1" d="M92,2.92H90.81l-2.61,0H85.92c0,.7,0,1.47,0,2.29s0,1.54,0,2.16h4.55l1.51,0V8.62H90.21l-2.76,0H85.88c0,1.1,0,2.14,0,3.12s0,1.77,0,2.37H84.38c0-.37,0-1,0-2s0-2.33,0-4.12c0-.71,0-1.63,0-2.78s0-2.35,0-3.58H92Z"/><path class="cls-1" d="M105.45,1.59c0,1.2,0,2.19,0,3s0,1.46,0,2,0,1.31,0,1.81v1.3a5.35,5.35,0,0,1-.32,1.91,3.93,3.93,0,0,1-1,1.44,4.57,4.57,0,0,1-1.6,1,6.47,6.47,0,0,1-2.2.35,6.39,6.39,0,0,1-2.2-.35,4.52,4.52,0,0,1-1.62-1,3.79,3.79,0,0,1-1-1.44,5.13,5.13,0,0,1-.33-1.91c0-.36,0-.8,0-1.3V6.6c0-.58,0-1.26,0-2s0-1.77,0-3h1.53c0,.16,0,.69,0,1.6s0,2.09,0,3.56v1.4c0,.47,0,1,0,1.47a3.28,3.28,0,0,0,1,2.59,3.79,3.79,0,0,0,2.65.88,3.86,3.86,0,0,0,2.71-.84,3.41,3.41,0,0,0,.91-2.63V8.15c0-.48,0-1,0-1.4,0-1.47,0-2.68,0-3.62s0-1.45,0-1.54Z"/><path class="cls-1" d="M111.24,14.09h-1.53q0-.55,0-2.46c0-1.27,0-2.8,0-4.59,0-.72,0-1.57,0-2.53s0-1.93,0-2.92h1.53c0,1,0,2,0,3.23s0,2.24,0,3.11c0,1.79,0,3.17,0,4.14S111.24,13.72,111.24,14.09Zm8.1-.86-1.08,1c-1.48-1.45-2.92-2.79-4.3-4l-2.37-2.15V8c.39-.38,1.21-1.23,2.48-2.54s2.53-2.66,3.79-4l1,.94q-1.6,1.54-3.29,3.28l-2.13,2.19v0l1.84,1.71C116.42,10.58,117.75,11.8,119.34,13.23Z"/><path class="cls-1" d="M131.94,1.59c0,1.2,0,2.19,0,3s0,1.46,0,2V8.41c0,.5,0,.94,0,1.3a5.13,5.13,0,0,1-.33,1.91,3.9,3.9,0,0,1-1,1.44A4.62,4.62,0,0,1,129,14a7.09,7.09,0,0,1-4.4,0,4.61,4.61,0,0,1-1.62-1,3.9,3.9,0,0,1-1-1.44,5.13,5.13,0,0,1-.32-1.91V8.41c0-.5,0-1.1,0-1.81s0-1.26,0-2,0-1.77,0-3h1.54c0,.16,0,.69,0,1.6s0,2.09,0,3.56c0,.45,0,.92,0,1.4V9.62a3.32,3.32,0,0,0,1,2.59,3.8,3.8,0,0,0,2.65.88,3.89,3.89,0,0,0,2.72-.84,3.45,3.45,0,0,0,.9-2.63c0-.5,0-1,0-1.47V6.75c0-1.47,0-2.68,0-3.62s0-1.45,0-1.54Z"/><path class="cls-1" d="M142.46,10.57a3.16,3.16,0,0,1-.45,1.69,3.51,3.51,0,0,1-1.22,1.17,5.81,5.81,0,0,1-1.61.62,8.86,8.86,0,0,1-2,.21c-.4,0-.81,0-1.24,0l-.74-.05-.07-1.34.72.07c.4,0,.87,0,1.41,0a7.75,7.75,0,0,0,1.28-.13,4.4,4.4,0,0,0,1.2-.34,2.31,2.31,0,0,0,.85-.65,1.51,1.51,0,0,0,.29-1,1.81,1.81,0,0,0-.29-1.06,2.88,2.88,0,0,0-1-.83,12.42,12.42,0,0,0-1.13-.59,12.16,12.16,0,0,1-1.26-.67,3.83,3.83,0,0,1-1.36-1.27,2.93,2.93,0,0,1-.41-1.52,2.94,2.94,0,0,1,.37-1.49,3.81,3.81,0,0,1,1-1.08,4.18,4.18,0,0,1,1.46-.67,7.66,7.66,0,0,1,1.92-.23c.39,0,.78,0,1.18,0l.67,0,.13,1.35-.68-.06q-.6-.06-1.47-.06a5.1,5.1,0,0,0-1.08.12,3.26,3.26,0,0,0-1,.36,2,2,0,0,0-.63.59,1.63,1.63,0,0,0,0,1.78,3.08,3.08,0,0,0,1,.87,9.63,9.63,0,0,0,1,.54q.63.3,1.23.66A4.27,4.27,0,0,1,142,8.94,2.93,2.93,0,0,1,142.46,10.57Z"/><path class="cls-1" d="M156.4,14.09h-1.54c0-.37,0-1.06,0-2.07s0-2.25,0-3.75h-7.57c0,1.73,0,3,0,3.92s0,1.53,0,1.9h-1.54c0-.37,0-1,0-2s0-2.56,0-4.82c0-.69,0-1.52,0-2.5s0-2.05,0-3.19h1.54c0,1,0,1.88,0,2.79s0,1.78,0,2.6h7.57c0-.82,0-1.69,0-2.6s0-1.83,0-2.79h1.54c0,.94,0,2,0,3.26s0,2.24,0,3c0,1.83,0,3.24,0,4.21S156.4,13.72,156.4,14.09Z"/><path class="cls-1" d="M162.31,14.09h-1.54c0-.37,0-1,0-2s0-2.33,0-4.12c0-.71,0-1.64,0-2.79s0-2.35,0-3.59h1.54c0,.89,0,1.93,0,3.11s0,2.14,0,2.88c0,1.9,0,3.36,0,4.4S162.3,13.72,162.31,14.09Z"/><path class="cls-2" d="M177.56,5.58a3.75,3.75,0,0,0-2-.61,1.57,1.57,0,0,0-1.76,1.55c0,.9.59,1.32,1.93,1.89,1.68.69,2.66,1.57,2.66,3.14,0,1.85-1.41,3.08-3.69,3.08a5.49,5.49,0,0,1-2.73-.71l.44-1.22a5,5,0,0,0,2.35.7c1.39,0,2.08-.74,2.08-1.68s-.55-1.51-1.93-2.06C173.12,9,172.22,8,172.22,6.71c0-1.62,1.3-3,3.41-3a4.59,4.59,0,0,1,2.39.63Z"/><path class="cls-2" d="M188.17,14a7.72,7.72,0,0,1-3.27.65c-3,0-4.86-2.15-4.86-5.26,0-3.27,1.84-5.62,4.65-5.62,3.21,0,4,2.94,4,4.76,0,.36,0,.63,0,.88h-7.09c0,2.88,1.66,4,3.53,4a6.56,6.56,0,0,0,2.74-.53Zm-1-5.78c0-1.41-.57-3.25-2.62-3.25s-2.75,1.82-2.9,3.25Z"/><path class="cls-2" d="M195.85,5.33c-.18,0-.35,0-.58,0-1.72,0-2.6,1.7-2.6,3.46v5.66h-1.58V7.11c0-1.11,0-2.12-.08-3.11h1.4l.07,2h.06a3.11,3.11,0,0,1,2.83-2.23,4.12,4.12,0,0,1,.48,0Z"/><path class="cls-2" d="M205.71,4l-4,10.42h-1.49L196.42,4h1.7L200.2,10c.33.93.61,1.81.84,2.67h.06c.23-.86.54-1.74.86-2.67L204,4Z"/><path class="cls-2" d="M208.29,2.16a1,1,0,0,1-1-1.09A1,1,0,0,1,208.3,0a1,1,0,0,1,1,1.07A1,1,0,0,1,208.29,2.16Zm.8,12.26H207.5V4h1.59Z"/><path class="cls-2" d="M219.28,14a6.62,6.62,0,0,1-2.83.6c-3,0-4.95-2.13-4.95-5.32a5.21,5.21,0,0,1,5.33-5.56,5.72,5.72,0,0,1,2.5.55l-.4,1.28a4.22,4.22,0,0,0-2.14-.53c-2.41,0-3.67,1.93-3.67,4.17,0,2.52,1.51,4.11,3.61,4.11a5.21,5.21,0,0,0,2.26-.52Z"/><path class="cls-2" d="M228.87,14a7.64,7.64,0,0,1-3.27.65c-3,0-4.85-2.15-4.85-5.26,0-3.27,1.83-5.62,4.64-5.62,3.21,0,4,2.94,4,4.76,0,.36,0,.63,0,.88h-7.1c0,2.88,1.67,4,3.54,4a6.59,6.59,0,0,0,2.74-.53Zm-1-5.78c0-1.41-.57-3.25-2.62-3.25s-2.75,1.82-2.91,3.25Z"/><path class="cls-1" d="M5.83,28.22a9.84,9.84,0,0,0-.6-1.83c-.62-1.59-1-2-1.9-2H1.62v2.34a8.83,8.83,0,0,0,.09,1.5H0a8.85,8.85,0,0,0,.09-1.49V20.55A10,10,0,0,0,0,19.06c.48,0,.84,0,1.47,0H4.22C6,19.09,7,20,7,21.48a2.36,2.36,0,0,1-.58,1.71,2.45,2.45,0,0,1-1.28.66c.73.23.94.55,2.08,3.24.09.2.38.82.54,1.13ZM3.92,23.07A1.55,1.55,0,0,0,5,22.66a1.36,1.36,0,0,0,.37-1c0-.82-.47-1.25-1.41-1.25H1.62v2.67Z"/><path class="cls-1" d="M15.38,28.3a9.5,9.5,0,0,0-1.48-.08H10.32c-.69,0-1,0-1.45,0A9.24,9.24,0,0,0,9,26.74v-6.2a10,10,0,0,0-.09-1.48c.45,0,.75,0,1.45,0h3.47A11.54,11.54,0,0,0,15.26,19v1.52a9.77,9.77,0,0,0-1.47-.08H10.48v2.36h2.79a11.36,11.36,0,0,0,1.49-.08v1.5a8.86,8.86,0,0,0-1.49-.08h-2.8v2.71h3.44a12.38,12.38,0,0,0,1.47-.08Z"/><path class="cls-1" d="M24.52,25.44a4.38,4.38,0,0,1-.77,1.72,3.9,3.9,0,0,1-3.13,1.25,3.89,3.89,0,0,1-2.94-1.11,5.13,5.13,0,0,1-1.25-3.6A5.19,5.19,0,0,1,17.77,20a4,4,0,0,1,2.86-1.09,4.08,4.08,0,0,1,2.21.55,3.61,3.61,0,0,1,1.21,1.25,4.12,4.12,0,0,1,.36.88l-1.6.37a2.47,2.47,0,0,0-.49-1,2.07,2.07,0,0,0-1.67-.71C19,20.26,18,21.54,18,23.65s1,3.4,2.62,3.4a2.17,2.17,0,0,0,1.85-.85,2.2,2.2,0,0,0,.38-1.05Z"/><path class="cls-1" d="M31.65,28.22a9.84,9.84,0,0,0-.6-1.83c-.62-1.59-1-2-1.91-2h-1.7v2.34a8.83,8.83,0,0,0,.09,1.5H25.82a8.85,8.85,0,0,0,.09-1.49V20.55a10,10,0,0,0-.09-1.49c.48,0,.84,0,1.47,0H30c1.74,0,2.74.88,2.74,2.39a2.36,2.36,0,0,1-.58,1.71,2.45,2.45,0,0,1-1.28.66c.73.23.94.55,2.08,3.24.09.2.38.82.54,1.13Zm-1.91-5.15a1.55,1.55,0,0,0,1.09-.41,1.36,1.36,0,0,0,.37-1c0-.82-.47-1.25-1.41-1.25H27.44v2.67Z"/><path class="cls-1" d="M42.57,19.09a10.44,10.44,0,0,0-.09,1.56v4.07c0,2.38-1.41,3.71-3.91,3.71a4,4,0,0,1-3-1.08,3.72,3.72,0,0,1-.86-2.64v-4a9.43,9.43,0,0,0-.09-1.58h1.71a9,9,0,0,0-.09,1.58v4a2.1,2.1,0,0,0,2.35,2.37A2.1,2.1,0,0,0,41,24.7v-4a9.36,9.36,0,0,0-.09-1.58Z"/><path class="cls-1" d="M45.94,19.09a8.57,8.57,0,0,0-.09,1.48v6.17a8.5,8.5,0,0,0,.09,1.48H44.19a8.35,8.35,0,0,0,.1-1.48V20.57a8.35,8.35,0,0,0-.1-1.48Z"/><path class="cls-1" d="M51.58,26.73a9.38,9.38,0,0,0,.09,1.49H49.94A9.45,9.45,0,0,0,50,26.73V20.47H48.48a11,11,0,0,0-1.57.08V19a11.22,11.22,0,0,0,1.56.08H53A11.83,11.83,0,0,0,54.7,19v1.54A11.65,11.65,0,0,0,53,20.47H51.58Z"/></g></g></svg>