<svg xmlns="http://www.w3.org/2000/svg" width="414" height="170" viewBox="0 0 414 170"><defs><style>.cls-1{fill:#80bee7;}.cls-2{fill:#fff;}</style></defs><title>ico-kawaguchi</title><g id="レイヤー_2" data-name="レイヤー 2"><g id="レイヤー_1-2" data-name="レイヤー 1"><rect class="cls-1" width="414" height="170"/><path class="cls-2" d="M24.94,90.15c1-.59,2.84-2.89,7.54-9.44a12.63,12.63,0,0,1,2.63-3.08,4.13,4.13,0,0,1,2.39-.74c1.75,0,2.56.62,5.23,4A129,129,0,0,0,54.1,93.31a21.1,21.1,0,0,0,3.33,2.92l-2.21,5.35A189.88,189.88,0,0,1,40.38,85.12c-2.25-2.73-2.25-2.73-2.84-2.73s-.71.11-2.15,2.26-4.38,6.2-6.28,8.7c-.56.74-.7.93-1.19,1.6Zm23.83-15a25.59,25.59,0,0,1,3.68,5.74L50,82.35a26.27,26.27,0,0,0-3.68-5.81Zm5.44,4.72a29.61,29.61,0,0,0-3.58-5.65L53,72.87a22,22,0,0,1,3.65,5.5Z"/><path class="cls-2" d="M87.76,77.12a7.29,7.29,0,0,0-1.09,2.62,68.36,68.36,0,0,1-4.49,10.72c-3.58,6.48-8.53,11.08-16,14.9a12.22,12.22,0,0,0-2.92-4,34,34,0,0,0,6.85-3.9A26.38,26.38,0,0,0,75.86,92a39.83,39.83,0,0,0-7.19-5.58L71.34,83a46.46,46.46,0,0,1,7,5.23A39.29,39.29,0,0,0,82.32,79l-10.91.12A39.32,39.32,0,0,1,63.19,89.6a11.34,11.34,0,0,0-3.51-3.12,32.59,32.59,0,0,0,8.81-11.11,25.59,25.59,0,0,0,2-5.42l4.56,1.13a23.63,23.63,0,0,0-1,2.18c-.42,1-.67,1.52-.84,1.87.56-.07.56-.07,9.12-.15a8.4,8.4,0,0,0,3.09-.47Z"/><path class="cls-2" d="M92.78,84.85a31.66,31.66,0,0,0,5.69.27h18.7a31.53,31.53,0,0,0,5.69-.27v5.42a33.81,33.81,0,0,0-5.72-.2H98.5a33.88,33.88,0,0,0-5.72.2Z"/><path class="cls-2" d="M155,83.67a20.46,20.46,0,0,0-1,2.46c-1.82,5.74-4.49,10.06-8.14,13.18-2.49,2.15-4.77,3.48-9.19,5.31a14.12,14.12,0,0,0-2.74-4.53A22,22,0,0,0,143.68,95c2.59-2.42,4.1-4.8,5.65-9.13H132.24a31.47,31.47,0,0,0-4.5.2V81.26a22.91,22.91,0,0,0,4.57.27H149a14,14,0,0,0,4-.35ZM130.73,71.86a18.19,18.19,0,0,0,4.1.27h12.25a18.35,18.35,0,0,0,4.11-.27v4.79a25.27,25.27,0,0,0-4-.19H134.76a25,25,0,0,0-4,.19Z"/><path class="cls-2" d="M187.83,74a15.2,15.2,0,0,0-1.3,1.37,63.93,63.93,0,0,1-8.28,8V100a33.19,33.19,0,0,0,.17,4.33h-4.91a24.07,24.07,0,0,0,.21-4.22V86.41c-4.1,2.73-6.07,3.74-12.53,6.31a14.91,14.91,0,0,0-2.35-4.44,49.59,49.59,0,0,0,18.43-10.14,29.8,29.8,0,0,0,6.52-7.3Z"/><path class="cls-2" d="M221.42,76.23a6.21,6.21,0,0,0-.6,1.75c-1.75,7.45-3.82,12.13-7.19,16.34s-7.2,7.14-13.06,10a14.23,14.23,0,0,0-3.09-4.64,27.66,27.66,0,0,0,7.69-4c5.48-3.94,8.91-9.44,10.63-17H199.1a24.45,24.45,0,0,0-4.42.24V73.81a22.6,22.6,0,0,0,4.49.27h16.11a11.61,11.61,0,0,0,3.75-.39Z"/><path class="cls-2" d="M232.9,100.6a34.6,34.6,0,0,0-4.32.16v-5A20.68,20.68,0,0,0,233,96h16V79H233.57a30.36,30.36,0,0,0-4.5.2V74.12a21.65,21.65,0,0,0,4.53.27h16.88c1.83,0,1.83,0,3.06-.08a25.3,25.3,0,0,0-.11,3.24V99a28.45,28.45,0,0,0,.18,4H248.9V100.6Z"/><path class="cls-2" d="M259.51,84.85a31.46,31.46,0,0,0,5.68.27H283.9a31.46,31.46,0,0,0,5.68-.27v5.42a33.81,33.81,0,0,0-5.72-.2H265.23a33.81,33.81,0,0,0-5.72.2Z"/><path class="cls-2" d="M299.66,104.27a30,30,0,0,0,.21-4.37v-25a27.9,27.9,0,0,0-.21-4h4.81a29.17,29.17,0,0,0-.14,4.1v7.25a98.17,98.17,0,0,1,15.93,8.23l-2.46,4.6a81.48,81.48,0,0,0-12.42-7.45,9.94,9.94,0,0,1-1.19-.66,23.53,23.53,0,0,1,.14,2.65v10.3c0,2,0,3,.14,4.33Z"/><path class="cls-2" d="M333,83.09c0,7.29-.56,11.74-1.93,15.52a30.89,30.89,0,0,1-3.4,6.91,17.1,17.1,0,0,0-3.27-3.67A19.33,19.33,0,0,0,327.39,96a23,23,0,0,0,1.19-5.42c.14-1.48.39-6.13.39-7.88V74.31a28.23,28.23,0,0,0-.25-4.09h4.53a23.33,23.33,0,0,0-.21,4.21ZM344.2,72a39.51,39.51,0,0,0-.21,4.49v20a44.11,44.11,0,0,0,.21,5h-4.49a44.78,44.78,0,0,0,.21-5v-20a35.8,35.8,0,0,0-.21-4.49Zm11.2-1.75a30.09,30.09,0,0,0-.25,4.6v25.27a38,38,0,0,0,.25,5.23h-4.53a48.57,48.57,0,0,0,.21-5.23V74.82a33.29,33.29,0,0,0-.21-4.6Z"/><path class="cls-2" d="M360.73,104.35a37.07,37.07,0,0,0,.25-5V77c0-1.72-.07-2.93-.18-4.29a29.41,29.41,0,0,0,3.9.19h19.83a30.18,30.18,0,0,0,3.93-.19,37.74,37.74,0,0,0-.18,4.29V99.39a49.07,49.07,0,0,0,.21,5h-4.38V101.5H365.16v2.85Zm4.43-7.3h18.95V77.32H365.16Z"/></g></g></svg>