<svg xmlns="http://www.w3.org/2000/svg" width="160" height="40" viewBox="0 0 160 40"><defs><style>.cls-1{fill:#80bee7;}.cls-2,.cls-4{fill:none;}.cls-2{stroke:#fff;stroke-miterlimit:10;}.cls-3{isolation:isolate;}.cls-5{fill:#e9e9e8;}.cls-6{fill:#fff;}</style></defs><title>bn_header_tel</title><g id="レイヤー_2" data-name="レイヤー 2"><g id="レイヤー_1-2" data-name="レイヤー 1"><rect class="cls-1" width="160" height="40"/><line class="cls-2" x1="38.43" y1="18" x2="156" y2="18"/><g class="cls-3"><circle class="cls-4" cx="20" cy="20" r="16"/></g><path class="cls-5" d="M20,5.76h-.73l-.72.06-.71.09-.7.13-.69.15-.68.2-.66.22-.64.26-.63.28-.62.32-.59.34-.58.37-.56.4L11,9l-.52.45-.49.48-.48.49L9,11l-.42.54-.4.56-.37.58-.34.59-.32.62-.28.63-.26.64-.22.66-.2.68-.15.69-.13.7-.09.71-.06.72v1.46l.06.72.09.71.13.7.15.69.2.68.22.66.26.64.28.63.32.62.34.59.37.58.4.56.42.54.45.52.48.49.49.48L11,31l.54.42.56.4.58.37.59.34.62.32.63.28.64.26.66.22.68.2.69.15.7.13.71.09.72.06h1.46l.72-.06.71-.09.7-.13.69-.15.68-.2.66-.22.64-.26.63-.28.62-.32.59-.34.58-.37.56-.4.54-.42.52-.45.49-.48.48-.49.45-.52.42-.54.4-.56.37-.58.34-.59.32-.62.28-.63.26-.64.22-.66.2-.68.15-.69.13-.7.09-.71.06-.72V19.27l-.06-.72-.09-.71-.13-.7-.15-.69-.2-.68-.22-.66-.26-.64-.28-.63-.32-.62-.34-.59-.37-.58-.4-.56L31,11l-.45-.52-.48-.49-.49-.48L29.05,9l-.54-.42L28,8.19l-.58-.37-.59-.34-.62-.32-.63-.28-.64-.26-.66-.22-.68-.2-.69-.15-.7-.13-.71-.09-.72-.06ZM20,4A16,16,0,1,1,4,20,16,16,0,0,1,20,4Z"/><path class="cls-6" d="M25,29.62l1.31-.76a.48.48,0,0,0,.22-.33.69.69,0,0,0-.15-.48l-2.41-4.18c-.25-.42-.49-.53-.79-.35l-1.29.74ZM14.4,23.29l.12.2c1.59,2.74,3.19,4.56,4.82,5.46,2,1.11,3.6,1.47,4.91,1.08l0,0-3.13-5.34a1.11,1.11,0,0,1-1.13,0,3.69,3.69,0,0,1-1.09-1.1c-.4-.62-.85-1.33-1.35-2.18-.61-1.06-1-1.77-1.17-2.11A3.63,3.63,0,0,1,16,17.8a1.05,1.05,0,0,1,.57-1l-3.12-5.39A4.56,4.56,0,0,0,12.22,14a9.14,9.14,0,0,0-.17,3.29A17.75,17.75,0,0,0,14.4,23.29Zm2.82-6.82,1.28-.74c.33-.19.35-.56.07-1.05l-2.26-3.91c-.21-.36-.37-.55-.51-.56a.88.88,0,0,0-.49.17l-1.21.7Z"/><path class="cls-6" d="M39.81,34.21a4.38,4.38,0,0,1-1-1.52,10,10,0,0,1-.58-3.45,8.86,8.86,0,0,1,.91-4.15A4.27,4.27,0,0,1,43,23a4.33,4.33,0,0,1,3.16,1.22,4.12,4.12,0,0,1,1,1.51,10.09,10.09,0,0,1,.59,3.48,7.9,7.9,0,0,1-1.11,4.44A4.27,4.27,0,0,1,43,35.42,4.35,4.35,0,0,1,39.81,34.21Zm4.79-1.16a5.79,5.79,0,0,0,1-3.85,5.84,5.84,0,0,0-1-3.84A2.15,2.15,0,0,0,43,24.73a2,2,0,0,0-1.68.76,5.6,5.6,0,0,0-1,3.65,6.75,6.75,0,0,0,.77,3.57,2.39,2.39,0,0,0,3.54.34Z"/><path class="cls-6" d="M58.64,32.51a11.67,11.67,0,0,0-1.5-.1H56.6v1.06a9.39,9.39,0,0,0,.12,1.71H54.59a9.6,9.6,0,0,0,.12-1.74v-1H50.55a18.47,18.47,0,0,0-1.87.06V30.62c.51-.55.67-.75,1.2-1.38l3.55-4.35a14.59,14.59,0,0,0,1.25-1.65h2a21.31,21.31,0,0,0-.1,2.54V30.7h.52a9.38,9.38,0,0,0,1.52-.11Zm-3.92-4.9a16.79,16.79,0,0,1,.08-1.8c-.3.43-.48.67-1,1.33L50.9,30.71h3.82Z"/><path class="cls-6" d="M60.89,28.1a2.85,2.85,0,0,1-.74-2c0-1.92,1.62-3.13,4.19-3.13,1.81,0,3.15.58,3.79,1.63a2.91,2.91,0,0,1,.41,1.5,2.79,2.79,0,0,1-2.16,2.81,3,3,0,0,1,2.67,3c0,2.24-1.68,3.47-4.76,3.47a5.11,5.11,0,0,1-3.79-1.21A3.07,3.07,0,0,1,59.63,32a2.83,2.83,0,0,1,1.23-2.46,3.12,3.12,0,0,1,1.48-.6A2.85,2.85,0,0,1,60.89,28.1Zm6,3.72c0-1.24-1-2-2.59-2s-2.61.76-2.61,2,1,2,2.58,2S66.93,33.08,66.93,31.82Zm-4.77-5.49c0,1.1.84,1.79,2.21,1.79s2.14-.68,2.14-1.77-.84-1.74-2.17-1.74S62.16,25.28,62.16,26.33Z"/><path class="cls-6" d="M71.85,34.21a4.38,4.38,0,0,1-1-1.52,10,10,0,0,1-.58-3.45,8.86,8.86,0,0,1,.91-4.15A4.27,4.27,0,0,1,75,23a4.33,4.33,0,0,1,3.16,1.22,4.12,4.12,0,0,1,1,1.51,10.09,10.09,0,0,1,.59,3.48,7.9,7.9,0,0,1-1.11,4.44A4.27,4.27,0,0,1,75,35.42,4.35,4.35,0,0,1,71.85,34.21Zm4.79-1.16a5.79,5.79,0,0,0,1-3.85,5.84,5.84,0,0,0-1-3.84A2.15,2.15,0,0,0,75,24.73a2,2,0,0,0-1.68.76,5.6,5.6,0,0,0-1,3.65,6.75,6.75,0,0,0,.77,3.57,2.39,2.39,0,0,0,3.54.34Z"/><path class="cls-6" d="M80.87,29.63a9.35,9.35,0,0,0,1.41.09H84.6A9.55,9.55,0,0,0,86,29.63v2a8.91,8.91,0,0,0-1.43-.08H82.28a8.79,8.79,0,0,0-1.41.08Z"/><path class="cls-6" d="M89.3,31.93a2,2,0,0,0,.7,1.23,2.91,2.91,0,0,0,1.82.58c1.48,0,2.43-.76,2.43-2a1.73,1.73,0,0,0-.84-1.57,3.9,3.9,0,0,0-1.73-.37,12.64,12.64,0,0,0-1.6.08V28.07a10.18,10.18,0,0,0,1.45.08c1.5,0,2.39-.69,2.39-1.85s-.71-1.62-2-1.62a2.51,2.51,0,0,0-1.64.47,2.19,2.19,0,0,0-.63,1.15l-2.14-.36A3.71,3.71,0,0,1,89,23.8,4.85,4.85,0,0,1,91.89,23C94.4,23,96,24.23,96,26.18a2.73,2.73,0,0,1-1,2.21,3.8,3.8,0,0,1-1.45.58,3.15,3.15,0,0,1,2.14,1A2.84,2.84,0,0,1,96.39,32a3.15,3.15,0,0,1-.9,2.19,5.14,5.14,0,0,1-3.69,1.22A4.69,4.69,0,0,1,88,34a4,4,0,0,1-.84-1.67Z"/><path class="cls-6" d="M101.67,35.18a12.41,12.41,0,0,0,.12-2V25h-.72a13.25,13.25,0,0,0-1.54.09V23.15a7.84,7.84,0,0,0,1.5.09h1.38a11.06,11.06,0,0,0,1.53-.07,22.45,22.45,0,0,0-.12,2.47v7.59a12.66,12.66,0,0,0,.12,2Z"/><path class="cls-6" d="M108.41,29.63a9.35,9.35,0,0,0,1.41.09h2.32a9.55,9.55,0,0,0,1.43-.09v2a8.91,8.91,0,0,0-1.43-.08h-2.32a8.79,8.79,0,0,0-1.41.08Z"/><path class="cls-6" d="M117.06,32.29a2.45,2.45,0,0,0,.47.82,2.23,2.23,0,0,0,1.72.62,2.28,2.28,0,0,0,1.7-.62c.75-.72,1.09-1.8,1.17-3.57a3,3,0,0,1-.8.86,4.1,4.1,0,0,1-2.43.68,3.74,3.74,0,0,1-4.08-3.94,4,4,0,0,1,1.91-3.52,4.85,4.85,0,0,1,2.62-.66,4.25,4.25,0,0,1,4.13,2.95A9.8,9.8,0,0,1,123.9,29c0,2.26-.6,4.24-1.59,5.2a4.12,4.12,0,0,1-3.19,1.14,4.35,4.35,0,0,1-2.9-.87A4.39,4.39,0,0,1,115,32.83ZM121.77,27a2.48,2.48,0,0,0-5,.05,2.24,2.24,0,0,0,2.38,2.4A2.46,2.46,0,0,0,121.77,27Z"/><path class="cls-6" d="M127.71,32.08a2.14,2.14,0,0,0,.45.87,2.27,2.27,0,0,0,1.85.76,2.33,2.33,0,0,0,2.46-2.47,2.24,2.24,0,0,0-2.36-2.42,2.65,2.65,0,0,0-1.86.69,1.72,1.72,0,0,0-.45.68L125.93,30c.15-1.07.16-1.14.19-1.56l.35-3.72c0-.27,0-.78.06-1.53.45,0,.79,0,1.59,0h3.69a10.93,10.93,0,0,0,2.08-.12V25a14.34,14.34,0,0,0-2.07-.12H128.3l-.24,2.63q0,.18-.09.63a3.68,3.68,0,0,1,2.56-.92,3.85,3.85,0,0,1,2.93,1.13,3.7,3.7,0,0,1,1.06,2.82c0,2.63-1.72,4.27-4.51,4.27a4.18,4.18,0,0,1-4.37-2.94Z"/><path class="cls-6" d="M138.18,35.18a14,14,0,0,0-1.93.07,7.59,7.59,0,0,1,.39-1.92,7.36,7.36,0,0,1,2.05-2.93,21.15,21.15,0,0,1,2.48-1.82c1.37-.94,1.79-1.44,1.79-2.2,0-1-.79-1.65-2.06-1.65a2.14,2.14,0,0,0-1.91.88,2.85,2.85,0,0,0-.46,1.38l-2.15-.25a4.45,4.45,0,0,1,1-2.4A4.35,4.35,0,0,1,140.85,23c2.63,0,4.24,1.26,4.24,3.32a3,3,0,0,1-1.06,2.4,18.52,18.52,0,0,1-2.52,1.84,13.47,13.47,0,0,0-1.78,1.5,3.69,3.69,0,0,0-.86,1.35h4.2a14.92,14.92,0,0,0,2.19-.12v2c-.7-.06-1.3-.09-2.26-.09Z"/><path class="cls-6" d="M148,28.1a2.89,2.89,0,0,1-.73-2c0-1.92,1.62-3.13,4.19-3.13,1.81,0,3.14.58,3.79,1.63a3,3,0,0,1,.41,1.5,2.79,2.79,0,0,1-2.16,2.81,3,3,0,0,1,2.67,3c0,2.24-1.68,3.47-4.76,3.47a5.11,5.11,0,0,1-3.79-1.21,3.07,3.07,0,0,1-.87-2.24A2.83,2.83,0,0,1,148,29.53a3.08,3.08,0,0,1,1.48-.6A2.92,2.92,0,0,1,148,28.1Zm6.05,3.72c0-1.24-1-2-2.59-2s-2.62.76-2.62,2,1,2,2.58,2S154.05,33.08,154.05,31.82Zm-4.77-5.49c0,1.1.84,1.79,2.21,1.79s2.14-.68,2.14-1.77-.84-1.74-2.17-1.74S149.28,25.28,149.28,26.33Z"/><path class="cls-6" d="M40.09,13.19A2.42,2.42,0,0,1,40,14a.78.78,0,0,1-.82.52,2.8,2.8,0,0,1-1.71-.64,1.33,1.33,0,0,1-.49-1,2,2,0,0,1,.77-1.34,4.79,4.79,0,0,1,1.32-.76V9.33l-.37,0H37.3v-1a5.2,5.2,0,0,0,1.09.08h.68V7.81a5.47,5.47,0,0,0-.06-1h1.13a6,6,0,0,0-.05,1v.57A10.37,10.37,0,0,0,41.81,8l0,1-1,.16-.82.12v1.17a6.22,6.22,0,0,1,1.83-.25,2.31,2.31,0,0,1,2.58,2.19,2,2,0,0,1-2.05,2.06,1.45,1.45,0,0,1-1.47-1,3,3,0,0,1-.16-1.16,3.72,3.72,0,0,0,1-.39c0,.17,0,.25,0,.39a1.78,1.78,0,0,0,.12.8.62.62,0,0,0,.57.3.92.92,0,0,0,.91-1c0-.77-.63-1.28-1.6-1.28a5.67,5.67,0,0,0-1.72.3Zm-1-1.45c-.68.36-1.07.75-1.07,1.08,0,.15.09.28.29.41a1.07,1.07,0,0,0,.58.2c.15,0,.2-.08.2-.38Zm5-1.82A7.61,7.61,0,0,0,42.25,8l.85-.56a7.51,7.51,0,0,1,1.78,1.84Z"/><path class="cls-6" d="M47.06,13.76a9.09,9.09,0,0,0,0,1.11h-1a7.64,7.64,0,0,0,0-1.12V7.86a9.58,9.58,0,0,0,0-1,7.9,7.9,0,0,0,.92,0h1.59a7.28,7.28,0,0,0,.92,0c0,.29,0,.49,0,.84V9.17a7.6,7.6,0,0,0,0,.81c-.22,0-.53,0-.83,0H47.06Zm0-5.68H48.6V7.61H47.06Zm0,1.17H48.6V8.77H47.06Zm4.56,3.57a5.35,5.35,0,0,0,0,.61,5.85,5.85,0,0,0-.64,0H49V14H48a7.17,7.17,0,0,0,.05-.87V11.2a5.92,5.92,0,0,0,0-.63,6.45,6.45,0,0,0,.67,0H51a6.6,6.6,0,0,0,.69,0,5.74,5.74,0,0,0,0,.63ZM49,12.58h1.71V11.4H49Zm4.64,1.18c0,.5-.08.73-.31.87a1.82,1.82,0,0,1-.95.15c-.14,0-.24,0-.84,0a2.87,2.87,0,0,0-.25-1c.38,0,.81.08,1.11.08s.3,0,.3-.23V10H51c-.3,0-.62,0-.82,0,0-.24,0-.42,0-.81V7.68c0-.34,0-.58,0-.84a7.72,7.72,0,0,0,.92,0h1.71a8.18,8.18,0,0,0,.93,0,7.21,7.21,0,0,0,0,1ZM51.05,8.08H52.7V7.61H51.05Zm0,1.17H52.7V8.77H51.05Z"/><path class="cls-6" d="M56.55,9.58a9.46,9.46,0,0,1-1.44.76,3.72,3.72,0,0,0-.53-.92,8.79,8.79,0,0,0,2.3-1.29,6.39,6.39,0,0,0,1.41-1.51h1.07a5.91,5.91,0,0,0,1.52,1.52,8.36,8.36,0,0,0,2.29,1.24,5.07,5.07,0,0,0-.49,1,8.92,8.92,0,0,1-1.47-.79v.63a6,6,0,0,0-.81,0H57.32a6,6,0,0,0-.77,0Zm-.73,5.27a8.52,8.52,0,0,0,0-.95V11.8c0-.37,0-.63,0-.89a7.24,7.24,0,0,0,.77,0h4.5a7.59,7.59,0,0,0,.78,0,7.21,7.21,0,0,0,0,.89v2.11a6.25,6.25,0,0,0,0,.94H60.82v-.46H56.89v.46Zm1.07-1.34h3.93V11.82H56.89Zm3.5-4.28h.31a8,8,0,0,1-1.86-1.75,6.24,6.24,0,0,1-1.76,1.75h3.31Z"/><path class="cls-6" d="M71.15,14.19l-.41.05c-.66.07-1.84.13-2.44.13-1.68,0-2.41-.32-2.68-1.18a8.82,8.82,0,0,1-.16-2.46V9.85A10.56,10.56,0,0,0,63.8,10L63.73,9H64l1.47-.08V8.61a8.45,8.45,0,0,0-.06-1.53h1.21a9,9,0,0,0-.08,1.76l2.6-.13a10.47,10.47,0,0,0,0-1.78H70.2a3.56,3.56,0,0,0,0,.62V8.67a14.69,14.69,0,0,0,1.74-.08l0,1.08a2.85,2.85,0,0,0-.51,0H70.16a5.62,5.62,0,0,1-.24,1.91,1.1,1.1,0,0,1-1.1.67,2.86,2.86,0,0,1-1.28-.31v-.36a4.11,4.11,0,0,0-.06-.73,2.79,2.79,0,0,0,1.18.44c.24,0,.33-.12.39-.47a8.76,8.76,0,0,0,.08-1.13l-2.62.13V10c0,.05,0,.05,0,.53v.18c0,.47,0,1.45,0,1.63.08.76.46.95,1.93.95a7.4,7.4,0,0,0,2.6-.34Z"/><path class="cls-6" d="M73.08,8a7.67,7.67,0,0,0,0-.91,7,7,0,0,0,.79,0h1.09a7.42,7.42,0,0,0,.79,0,6.1,6.1,0,0,0,0,.89v5.15a9,9,0,0,0,0,.9h-.92v-.45H74v.76H73a7.45,7.45,0,0,0,.06-1.07ZM74,9.85h.81V8H74Zm0,2.85h.81v-2H74Zm3.1-4.26a7,7,0,0,0-1,.05v-1a5.91,5.91,0,0,0,.94.06h.79V7.34a4.68,4.68,0,0,0,0-.67h1a4.3,4.3,0,0,0,0,.67v.25h1a6.08,6.08,0,0,0,.94-.06v1a6,6,0,0,0-.93-.05h-1V9.3H80a6,6,0,0,0,1-.06v1a5.27,5.27,0,0,0-.88,0H80v.77h.11a4.91,4.91,0,0,0,.89-.05v1a5.4,5.4,0,0,0-.89,0H80v2c0,.53-.09.74-.36.87a2.53,2.53,0,0,1-1,.14h-.71a2.28,2.28,0,0,0-.21-.94,9.23,9.23,0,0,0,1,.07c.27,0,.33-.05.33-.24V11.8H76.89a9.66,9.66,0,0,0-1,0v-1a6.11,6.11,0,0,0,1,.05H79v-.77H76.9a9.46,9.46,0,0,0-1,0v-1a6.31,6.31,0,0,0,1,.06h.93V8.44Zm.35,5.45a6.73,6.73,0,0,0-1.16-1.48l.77-.5a7,7,0,0,1,1.18,1.37Z"/><path class="cls-6" d="M83,13.77a7.14,7.14,0,0,0,.06,1.11H82a7.29,7.29,0,0,0,.06-1.12V7.88a9,9,0,0,0,0-1,7.41,7.41,0,0,0,.93,0h1.59a6.84,6.84,0,0,0,.92,0c0,.29,0,.49,0,.84V9.09a7.82,7.82,0,0,0,0,.82c-.23,0-.51,0-.83,0H83Zm0-5.68h1.55V7.64H83Zm0,1.1h1.55V8.73H83Zm4.62,3.87c0,.34,0,.55,0,.78.2,0,.52.05.68.05s.34-.07.34-.25V9.88H86.92c-.31,0-.6,0-.83,0,0-.26,0-.43,0-.82V7.71c0-.3,0-.56,0-.84a7,7,0,0,0,.92,0h1.73a7.31,7.31,0,0,0,.93,0,9.53,9.53,0,0,0,0,1v5.9c0,.54-.11.77-.43.91a2.77,2.77,0,0,1-1,.11l-.62,0a3.52,3.52,0,0,0-.23-.93H84.91v.51H84a5.8,5.8,0,0,0,.06-.9v-2.2c0-.31,0-.57,0-.81a6.47,6.47,0,0,0,.83,0h2a6.54,6.54,0,0,0,.84,0c0,.24,0,.46,0,.81Zm-2.74-1.31h1.84v-.54H84.91Zm0,1.32h1.84v-.59H84.91Zm2.1-5H88.7V7.64H87Zm0,1.1H88.7V8.73H87Z"/><path class="cls-6" d="M95.52,8.16V9.48H94.2V8.16Zm0,3.85v1.32H94.2V12Z"/><path class="cls-6" d="M101.15,12.54a1.4,1.4,0,0,0,.28.49,1.31,1.31,0,0,0,1,.37,1.36,1.36,0,0,0,1-.37,2.93,2.93,0,0,0,.7-2.14,1.8,1.8,0,0,1-.47.51,2.47,2.47,0,0,1-1.46.42A2.25,2.25,0,0,1,99.8,9.45a2.39,2.39,0,0,1,1.14-2.12,3,3,0,0,1,1.58-.39A2.54,2.54,0,0,1,105,8.71a5.56,5.56,0,0,1,.26,1.86,4.53,4.53,0,0,1-1,3.13,2.48,2.48,0,0,1-1.92.68,2.59,2.59,0,0,1-1.73-.52,2.5,2.5,0,0,1-.74-1ZM104,9.38a1.42,1.42,0,0,0-1.52-1.45A1.4,1.4,0,0,0,101,9.4a1.34,1.34,0,0,0,1.43,1.44A1.48,1.48,0,0,0,104,9.38Z"/><path class="cls-6" d="M107.64,9.11v1.31h-1.31V9.11Zm0,3.85v1.31h-1.31V13Z"/><path class="cls-6" d="M109.5,13.69a2.46,2.46,0,0,1-.59-.91,5.88,5.88,0,0,1-.35-2.07,5.19,5.19,0,0,1,.55-2.49A2.55,2.55,0,0,1,111.4,7a2.64,2.64,0,0,1,1.9.73,2.46,2.46,0,0,1,.59.91,5.92,5.92,0,0,1,.36,2.09,4.78,4.78,0,0,1-.67,2.67,2.55,2.55,0,0,1-2.19,1.06A2.59,2.59,0,0,1,109.5,13.69Zm2.87-.69a3.46,3.46,0,0,0,.63-2.32,3.46,3.46,0,0,0-.63-2.3,1.26,1.26,0,0,0-1-.38,1.2,1.2,0,0,0-1,.46,3.41,3.41,0,0,0-.59,2.19,4,4,0,0,0,.46,2.14,1.31,1.31,0,0,0,1.15.58A1.3,1.3,0,0,0,112.37,13Z"/><path class="cls-6" d="M115.91,13.69a2.46,2.46,0,0,1-.59-.91,5.89,5.89,0,0,1-.36-2.07,5.31,5.31,0,0,1,.55-2.49A2.58,2.58,0,0,1,117.81,7a2.66,2.66,0,0,1,1.9.73,2.46,2.46,0,0,1,.59.91,5.92,5.92,0,0,1,.35,2.09,4.78,4.78,0,0,1-.66,2.67,2.57,2.57,0,0,1-2.19,1.06A2.59,2.59,0,0,1,115.91,13.69Zm2.87-.69a3.46,3.46,0,0,0,.63-2.32,3.46,3.46,0,0,0-.63-2.3,1.26,1.26,0,0,0-1-.38,1.2,1.2,0,0,0-1,.46,3.41,3.41,0,0,0-.59,2.19,4,4,0,0,0,.46,2.14,1.44,1.44,0,0,0,2.12.21Z"/><path class="cls-6" d="M121.38,10.76a3.17,3.17,0,0,1,.89-.8,2.6,2.6,0,0,1,1.48-.47,2.66,2.66,0,0,1,1.16.27,7.84,7.84,0,0,1,.82.5,3,3,0,0,0,1.59.63,1.79,1.79,0,0,0,.67-.17,2.48,2.48,0,0,0,.94-.82l.72.72a3.7,3.7,0,0,1-.86.87,2.56,2.56,0,0,1-2.35.39,4.7,4.7,0,0,1-1.23-.67,2.58,2.58,0,0,0-1.55-.61,2,2,0,0,0-1.57.83Z"/><path class="cls-6" d="M132.69,14.27a8,8,0,0,0,.07-1.17v-5h-.43a7.14,7.14,0,0,0-.93.06V7.05a4.53,4.53,0,0,0,.9.06h.83a6,6,0,0,0,.92-.05A12.29,12.29,0,0,0,134,8.55V13.1a6.71,6.71,0,0,0,.08,1.17Z"/><path class="cls-6" d="M137.56,10a1.73,1.73,0,0,1-.45-1.19c0-1.16,1-1.88,2.52-1.88a2.51,2.51,0,0,1,2.27,1,1.69,1.69,0,0,1,.25.9,1.67,1.67,0,0,1-1.3,1.68,1.68,1.68,0,0,1,1,.42,1.7,1.7,0,0,1,.63,1.41c0,1.34-1,2.08-2.85,2.08a3.11,3.11,0,0,1-2.28-.72,1.89,1.89,0,0,1-.52-1.35,1.7,1.7,0,0,1,.74-1.48,1.85,1.85,0,0,1,.89-.36A1.71,1.71,0,0,1,137.56,10Zm3.62,2.23c0-.75-.58-1.2-1.55-1.2s-1.57.46-1.57,1.21.58,1.17,1.55,1.17S141.18,13,141.18,12.26ZM138.32,9c0,.66.5,1.07,1.32,1.07s1.29-.4,1.29-1.06-.5-1-1.3-1S138.32,8.33,138.32,9Z"/><path class="cls-6" d="M144.7,9.11v1.31h-1.31V9.11Zm0,3.85v1.31h-1.31V13Z"/><path class="cls-6" d="M146.56,13.69a2.59,2.59,0,0,1-.59-.91,6.12,6.12,0,0,1-.35-2.07,5.19,5.19,0,0,1,.55-2.49A2.55,2.55,0,0,1,148.46,7,2.57,2.57,0,0,1,151,8.6a6.15,6.15,0,0,1,.35,2.09,4.7,4.7,0,0,1-.67,2.67,2.55,2.55,0,0,1-2.18,1.06A2.6,2.6,0,0,1,146.56,13.69Zm2.88-.69a3.52,3.52,0,0,0,.63-2.32,3.51,3.51,0,0,0-.63-2.3,1.29,1.29,0,0,0-1-.38,1.19,1.19,0,0,0-1,.46,3.35,3.35,0,0,0-.6,2.19,4,4,0,0,0,.46,2.14,1.31,1.31,0,0,0,1.15.58A1.34,1.34,0,0,0,149.44,13Z"/><path class="cls-6" d="M153,13.69a2.59,2.59,0,0,1-.59-.91,5.88,5.88,0,0,1-.35-2.07,5.19,5.19,0,0,1,.55-2.49A2.55,2.55,0,0,1,154.87,7a2.57,2.57,0,0,1,2.5,1.64,6.15,6.15,0,0,1,.35,2.09,4.78,4.78,0,0,1-.67,2.67,2.55,2.55,0,0,1-2.19,1.06A2.59,2.59,0,0,1,153,13.69Zm2.87-.69a3.46,3.46,0,0,0,.63-2.32,3.46,3.46,0,0,0-.63-2.3,1.26,1.26,0,0,0-1-.38,1.22,1.22,0,0,0-1,.46,3.41,3.41,0,0,0-.59,2.19,4,4,0,0,0,.46,2.14,1.31,1.31,0,0,0,1.15.58A1.3,1.3,0,0,0,155.84,13Z"/></g></g></svg>