<svg xmlns="http://www.w3.org/2000/svg" xmlns:xlink="http://www.w3.org/1999/xlink" width="600" height="120" viewBox="0 0 600 120"><defs><style>.cls-1{fill:url(#ブルー);}.cls-2{fill:#fff;}.cls-3,.cls-5{fill:none;}.cls-3{stroke:#fff;stroke-miterlimit:10;stroke-width:2.07px;}.cls-4{isolation:isolate;}</style><linearGradient id="ブルー" x1="300" y1="118.97" x2="300" y2="1.03" gradientUnits="userSpaceOnUse"><stop offset="0" stop-color="#3fbff0"/><stop offset="0.5" stop-color="#00a1e9"/><stop offset="1" stop-color="#008dd7"/></linearGradient></defs><title>bn_tel</title><g id="レイヤー_2" data-name="レイヤー 2"><g id="レイヤー_1-2" data-name="レイヤー 1"><rect class="cls-1" x="1.03" y="1.03" width="597.95" height="117.95" rx="14.36" ry="14.36"/><path class="cls-2" d="M584.62,2.05A13.35,13.35,0,0,1,598,15.38v89.24A13.35,13.35,0,0,1,584.62,118H15.38A13.35,13.35,0,0,1,2.05,104.62V15.38A13.35,13.35,0,0,1,15.38,2.05H584.62m0-2H15.38A15.39,15.39,0,0,0,0,15.38v89.24A15.39,15.39,0,0,0,15.38,120H584.62A15.39,15.39,0,0,0,600,104.62V15.38A15.39,15.39,0,0,0,584.62,0Z"/><path class="cls-2" d="M163.81,53.52a13.45,13.45,0,0,1-3.18-4.82,31.74,31.74,0,0,1-1.88-11c0-5.06,1.16-10.31,2.94-13.22A13.73,13.73,0,0,1,174,17.86a14.06,14.06,0,0,1,10.17,3.87,13.19,13.19,0,0,1,3.18,4.82,31.65,31.65,0,0,1,1.88,11.07c0,5.88-1.3,11-3.56,14.13-2.7,3.72-6.7,5.63-11.71,5.63A14,14,0,0,1,163.81,53.52Zm15.38-3.68c2.17-2.24,3.37-6.68,3.37-12.26s-1.2-9.88-3.37-12.22a7,7,0,0,0-5.25-2,6.5,6.5,0,0,0-5.4,2.44c-2.12,2.48-3.18,6.39-3.18,11.6,0,5,.91,9.16,2.45,11.36a7.72,7.72,0,0,0,11.38,1.09Z"/><path class="cls-2" d="M224.31,48.12a39.83,39.83,0,0,0-4.82-.33h-1.74v3.39a29.31,29.31,0,0,0,.39,5.44h-6.85a30,30,0,0,0,.39-5.54V47.79H198.33c-2.85,0-4.39.05-6,.19V42.11c1.64-1.77,2.17-2.39,3.86-4.39l11.42-13.84a45.58,45.58,0,0,0,4-5.25h6.51a66.29,66.29,0,0,0-.34,8.06V42.35h1.69a33.27,33.27,0,0,0,4.87-.33Zm-12.58-15.6a54.25,54.25,0,0,1,.24-5.73c-1,1.38-1.54,2.15-3.28,4.25L199.44,42.4h12.29Z"/><path class="cls-2" d="M231.54,34.09a9.06,9.06,0,0,1-2.36-6.3c0-6.11,5.2-10,13.45-10,5.83,0,10.12,1.86,12.19,5.2a9.31,9.31,0,0,1,1.3,4.77c0,4.44-2.55,7.69-6.94,8.93A9.14,9.14,0,0,1,254.39,39a9,9,0,0,1,3.37,7.45c0,7.11-5.4,11-15.28,11-5.59,0-9.45-1.19-12.19-3.82a9.81,9.81,0,0,1-2.8-7.16,9,9,0,0,1,3.95-7.82,10.44,10.44,0,0,1,4.77-1.91A9.28,9.28,0,0,1,231.54,34.09ZM251,45.93c0-4-3.13-6.35-8.33-6.35S234.24,42,234.24,46s3.08,6.2,8.29,6.2C247.93,52.18,251,49.94,251,45.93ZM235.64,28.46c0,3.48,2.7,5.68,7.08,5.68s6.9-2.15,6.9-5.63-2.7-5.54-7-5.54S235.64,25.12,235.64,28.46Z"/><path class="cls-2" d="M266.78,53.52a13.35,13.35,0,0,1-3.19-4.82,31.74,31.74,0,0,1-1.88-11c0-5.06,1.16-10.31,3-13.22A13.73,13.73,0,0,1,277,17.86a14.1,14.1,0,0,1,10.17,3.87,13.45,13.45,0,0,1,3.18,4.82,31.88,31.88,0,0,1,1.88,11.07c0,5.88-1.3,11-3.57,14.13-2.7,3.72-6.7,5.63-11.71,5.63A13.94,13.94,0,0,1,266.78,53.52Zm15.37-3.68c2.17-2.24,3.38-6.68,3.38-12.26s-1.21-9.88-3.38-12.22a7,7,0,0,0-5.25-2,6.51,6.51,0,0,0-5.4,2.44c-2.12,2.48-3.18,6.39-3.18,11.6,0,5,.91,9.16,2.46,11.36a7.71,7.71,0,0,0,11.37,1.09Z"/><path class="cls-2" d="M295.75,39a30.55,30.55,0,0,0,4.53.29h7.47a30.8,30.8,0,0,0,4.58-.29v6.35a26.53,26.53,0,0,0-4.58-.29h-7.47a26.61,26.61,0,0,0-4.53.29Z"/><path class="cls-2" d="M322.84,46.26c.62,2.2,1.06,3,2.26,3.92A9.17,9.17,0,0,0,330.94,52c4.77,0,7.81-2.44,7.81-6.21a5.56,5.56,0,0,0-2.7-5,12.62,12.62,0,0,0-5.55-1.14,39.9,39.9,0,0,0-5.16.24V34a33.65,33.65,0,0,0,4.68.24c4.82,0,7.66-2.2,7.66-5.87,0-3.3-2.26-5.16-6.36-5.16a8.1,8.1,0,0,0-5.25,1.48,7,7,0,0,0-2,3.68l-6.89-1.15c1.21-3.53,2.31-5.2,4.58-6.83a15.81,15.81,0,0,1,9.45-2.62c8.05,0,13.25,4,13.25,10.21a8.67,8.67,0,0,1-3.32,7c-1.06.81-2.12,1.19-4.68,1.86,3.42.53,5.21,1.34,6.89,3.2a9.07,9.07,0,0,1,2.32,6.59,10.05,10.05,0,0,1-2.89,7c-2.66,2.53-6.7,3.87-11.86,3.87-5.64,0-9.5-1.43-12.25-4.53-1.2-1.34-1.83-2.58-2.69-5.35Z"/><path class="cls-2" d="M362.61,56.62a39.14,39.14,0,0,0,.38-6.2V24.12h-2.31a43.58,43.58,0,0,0-5,.28V18.34a26.94,26.94,0,0,0,4.82.29H365a35.35,35.35,0,0,0,4.91-.24,73.54,73.54,0,0,0-.38,7.87V50.42a40.79,40.79,0,0,0,.38,6.2Z"/><path class="cls-2" d="M384.25,39a30.55,30.55,0,0,0,4.53.29h7.47a30.8,30.8,0,0,0,4.58-.29v6.35a26.53,26.53,0,0,0-4.58-.29h-7.47a26.61,26.61,0,0,0-4.53.29Z"/><path class="cls-2" d="M412.06,47.41a7.9,7.9,0,0,0,1.5,2.62,8.68,8.68,0,0,0,11,0c2.41-2.29,3.52-5.72,3.76-11.36a9.34,9.34,0,0,1-2.56,2.72,13.11,13.11,0,0,1-7.81,2.2c-8,0-13.11-4.87-13.11-12.55A12.55,12.55,0,0,1,411,19.82a15.87,15.87,0,0,1,8.43-2.1,13.67,13.67,0,0,1,13.26,9.4A30.51,30.51,0,0,1,434,37c0,7.21-1.92,13.51-5.11,16.57-2.55,2.53-5.68,3.62-10.26,3.62-4.05,0-6.9-.86-9.31-2.77-1.63-1.28-2.55-2.52-3.95-5.29ZM427.2,30.66c0-4.49-3.33-7.69-8.1-7.69a7.52,7.52,0,0,0-7.86,7.83c0,4.63,3,7.64,7.67,7.64S427.2,35.09,427.2,30.66Z"/><path class="cls-2" d="M446.29,46.74a6.43,6.43,0,0,0,1.45,2.77,7.32,7.32,0,0,0,5.92,2.43c4.78,0,7.91-3.15,7.91-7.87s-3-7.69-7.57-7.69a8.55,8.55,0,0,0-6,2.2,5.49,5.49,0,0,0-1.44,2.15l-6-.58c.49-3.38.53-3.62.63-5l1.11-11.84c0-.86.14-2.48.19-4.87,1.45.1,2.56.15,5.11.15h11.86a37.51,37.51,0,0,0,6.7-.38v6a46.16,46.16,0,0,0-6.65-.38H448.17l-.77,8.35c0,.38-.15,1.05-.29,2a11.91,11.91,0,0,1,8.24-2.92c3.9,0,7,1.15,9.4,3.58s3.42,5.16,3.42,9c0,8.4-5.54,13.6-14.51,13.6-4.77,0-8.33-1.34-11-4.15a14.09,14.09,0,0,1-3-5.21Z"/><path class="cls-2" d="M479.94,56.62a44.9,44.9,0,0,0-6.22.24A24.11,24.11,0,0,1,475,50.75a23.63,23.63,0,0,1,6.6-9.36,68.53,68.53,0,0,1,8-5.77c4.43-3,5.78-4.58,5.78-7,0-3.24-2.55-5.25-6.65-5.25-2.8,0-4.92,1-6.12,2.82a9,9,0,0,0-1.5,4.39l-6.89-.81c.68-3.63,1.54-5.59,3.33-7.64,2.41-2.77,6.22-4.25,11-4.25,8.43,0,13.64,4,13.64,10.55a9.64,9.64,0,0,1-3.43,7.64c-1.35,1.24-1.83,1.62-8.09,5.87a42.43,42.43,0,0,0-5.74,4.77,11.52,11.52,0,0,0-2.75,4.3h13.5a51,51,0,0,0,7-.38v6.3c-2.27-.19-4.2-.29-7.28-.29Z"/><path class="cls-2" d="M511.51,34.09a9.06,9.06,0,0,1-2.36-6.3c0-6.11,5.2-10,13.45-10,5.83,0,10.12,1.86,12.19,5.2a9.31,9.31,0,0,1,1.3,4.77c0,4.44-2.55,7.69-6.94,8.93A9.14,9.14,0,0,1,534.36,39a9,9,0,0,1,3.37,7.45c0,7.11-5.4,11-15.28,11-5.59,0-9.45-1.19-12.19-3.82a9.81,9.81,0,0,1-2.8-7.16,9,9,0,0,1,4-7.82,10.44,10.44,0,0,1,4.77-1.91A9.28,9.28,0,0,1,511.51,34.09Zm19.42,11.84c0-4-3.13-6.35-8.33-6.35S514.21,42,514.21,46s3.08,6.2,8.29,6.2C527.9,52.18,530.93,49.94,530.93,45.93ZM515.61,28.46c0,3.48,2.7,5.68,7.08,5.68s6.89-2.15,6.89-5.63-2.69-5.54-7-5.54S515.61,25.12,515.61,28.46Z"/><path class="cls-2" d="M139.42,92.86a6.16,6.16,0,0,0-.71.73,18.61,18.61,0,0,1-4.2,3.94,22.1,22.1,0,0,0,8.18,2.54,6,6,0,0,0-.75,1.33,21.16,21.16,0,0,1-8.63-3.12,25.11,25.11,0,0,1-8.42,3.08,5.07,5.07,0,0,0-.74-1.29,22.76,22.76,0,0,0,8-2.58,13.52,13.52,0,0,1-3.71-4.37,12.34,12.34,0,0,0-1.53.13V91.87A12.49,12.49,0,0,0,129,92h7.7a9.18,9.18,0,0,0,1.82-.11Zm-10.93-4.34a16.61,16.61,0,0,0-1.1-2.75c-.43,0-.76,0-1.84,0a3.55,3.55,0,0,0-.47-1.21,67.18,67.18,0,0,0,9.68-.59,21.77,21.77,0,0,0,5.42-1.19l.91,1.21a5.28,5.28,0,0,0-.83.19,57.89,57.89,0,0,1-7.07,1.16,22,22,0,0,1,1.1,3.14h2.39a17,17,0,0,0,1.74-3.65l1.35.47a34.85,34.85,0,0,1-1.68,3.18h1.76a19.75,19.75,0,0,0,2.36-.09,12.59,12.59,0,0,0-.08,1.56v1.33a6.17,6.17,0,0,0,.1,1.27h-1.41V89.72h-15v3h-1.4a10.54,10.54,0,0,0,.1-1.45V90c0-.53,0-1-.08-1.54a17.87,17.87,0,0,0,2.54.11Zm4.51,0a18.9,18.9,0,0,0-1.09-3c-1,.08-1.74.14-3.25.2a20.82,20.82,0,0,1,1.16,2.81Zm-3.1,4.6a11.2,11.2,0,0,0,3.45,3.69,16.13,16.13,0,0,0,4.1-3.69Z"/><path class="cls-2" d="M149.06,99c0,.94,0,1.72.1,2.44h-1.55a21.37,21.37,0,0,0,.12-2.48V92.12c0-.9,0-1.54.09-2.48a17.33,17.33,0,0,1-2.32,3.16l-.15-.23a3.24,3.24,0,0,0-.76-.9,20.22,20.22,0,0,0,4.16-6.25,11.69,11.69,0,0,0,.91-2.62l1.49.47a8.41,8.41,0,0,0-.52,1.17c-.29.72-.95,2.13-1.57,3.3Zm11.19.25c0,1.35-.43,1.68-2.3,1.68-.8,0-1.59-.05-2.5-.13a4.63,4.63,0,0,0-.39-1.39,17.6,17.6,0,0,0,2.83.25c.85,0,1-.11,1-.54V89h-6.5a16.68,16.68,0,0,0-2.22.12V87.7a15.91,15.91,0,0,0,2.16.12h6.56V85.46a15.37,15.37,0,0,0-.15-2.39h1.6a17.86,17.86,0,0,0-.13,2.39v2.36h1a13.18,13.18,0,0,0,2-.12v1.39c-.64-.06-1.3-.08-2-.08h-1Zm-7.59-8.42a25.89,25.89,0,0,1,3.49,4.63l-1.15.88a20.78,20.78,0,0,0-3.42-4.77Z"/><path class="cls-2" d="M166.35,86.06a17.41,17.41,0,0,0-.08-2,19,19,0,0,0,1.9.06h1.54a18.48,18.48,0,0,0,1.86-.06,13.35,13.35,0,0,0-.07,2V97.32c0,1,0,1.52.07,2h-1.29v-1h-2.71v1.68h-1.34a16.7,16.7,0,0,0,.12-2.17Zm1.22,4.32h2.71V85.3h-2.71Zm0,6.74h2.71V91.49h-2.71Zm7.22-10.57a18.62,18.62,0,0,0-2,.1V85.3a12.58,12.58,0,0,0,2,.12H177v-.65a9.56,9.56,0,0,0-.13-1.66h1.53a10.16,10.16,0,0,0-.12,1.66v.65h2.94a12.76,12.76,0,0,0,2-.12v1.35a17.53,17.53,0,0,0-2-.1h-2.94v2.66h3.66a14,14,0,0,0,2.09-.12v1.37a13.72,13.72,0,0,0-2-.12h-.69v2.39H182a13.15,13.15,0,0,0,2-.12V94a14.27,14.27,0,0,0-2-.12h-.64v5.73c0,1.32-.45,1.62-2.38,1.62-.33,0-.66,0-1.86-.08a3.53,3.53,0,0,0-.33-1.35,15.71,15.71,0,0,0,2.36.25c.78,0,.93-.09.93-.54V93.9h-5.84a16.16,16.16,0,0,0-2.07.12V92.61a13.67,13.67,0,0,0,2.09.12H180V90.34h-5.82a15.83,15.83,0,0,0-2.09.12V89.09a14.32,14.32,0,0,0,2.09.12H177V86.55Zm1.6,12.31a18.47,18.47,0,0,0-2.88-3.44l1-.72a21.67,21.67,0,0,1,3,3.34Z"/><path class="cls-2" d="M188.33,99.1a15.24,15.24,0,0,0,.12,2.3h-1.53a15.8,15.8,0,0,0,.12-2.3V85.87c0-1,0-1.59-.08-2.25a19.83,19.83,0,0,0,2.17.08h3a18.83,18.83,0,0,0,2.11-.08c0,.58-.06,1.19-.06,1.95v2.54c0,.82,0,1.39.06,1.9-.56,0-1.26-.06-2.09-.06h-3.78Zm0-12.75H193V84.71h-4.63Zm0,2.62H193V87.31h-4.63Zm10.86,7.76c0,.78,0,1.33.06,1.86-.58,0-1.26-.06-2.11-.06h-4.53V100h-1.28a12.83,12.83,0,0,0,.1-1.92V93.49c0-.74,0-1.33-.06-1.92a19.12,19.12,0,0,0,2,.08h3.78a19,19,0,0,0,2.05-.08c0,.57-.06,1.1-.06,1.92Zm-6.58-2.23H198V92.67h-5.4Zm0,3H198v-2h-5.4Zm11.09,1.9c0,1.35-.44,1.7-2.11,1.7-.44,0-1.55,0-2.07-.08a4.71,4.71,0,0,0-.37-1.31c1,.12,1.84.2,2.27.2.85,0,1-.1,1-.59V90h-4.25c-.86,0-1.53,0-2.09.06.05-.53.07-1.15.07-1.9V85.57c0-.72,0-1.33-.07-1.95a18.6,18.6,0,0,0,2.11.08h3.42a19.71,19.71,0,0,0,2.17-.08,19.82,19.82,0,0,0-.1,2.25Zm-6.35-13.06h5.09V84.71h-5.09Zm0,2.62h5.09V87.31h-5.09Z"/><path class="cls-2" d="M217.08,88.66h-2v-2h2Zm-2,9v-2h2v2Z"/><path class="cls-2" d="M229.46,96.42a3.14,3.14,0,0,0,.74,1.31,3.38,3.38,0,0,0,2.61,1,3.58,3.58,0,0,0,3.33-1.88,8.4,8.4,0,0,0,.89-2.62,23.4,23.4,0,0,0,.18-2.4,4.08,4.08,0,0,1-.82,1.15,5.12,5.12,0,0,1-8.9-3.61c0-3.25,2.21-5.38,5.61-5.38a5.16,5.16,0,0,1,5,3.44,12.15,12.15,0,0,1,.6,4.26c0,2.85-.6,5.16-1.71,6.53a5.12,5.12,0,0,1-4.31,1.91A4.88,4.88,0,0,1,227.76,97Zm7.36-7.21A3.77,3.77,0,0,0,233,85.34a3.88,3.88,0,0,0-3.29,1.74,4.33,4.33,0,0,0-.54,2.15A3.47,3.47,0,0,0,232.81,93,3.81,3.81,0,0,0,236.82,89.21Z"/><path class="cls-2" d="M243.5,90.81h-2v-2h2Zm-2,9v-2h2v2Z"/><path class="cls-2" d="M248,98.67a5,5,0,0,1-1.24-1.88,13.93,13.93,0,0,1-.79-4.73,11.93,11.93,0,0,1,1.2-5.57,5.59,5.59,0,0,1,8.43-1.07,5.34,5.34,0,0,1,1.24,1.89,14.13,14.13,0,0,1,.78,4.75A10.6,10.6,0,0,1,256.14,98a5.07,5.07,0,0,1-4.38,2.15A5.21,5.21,0,0,1,248,98.67Zm1.2-12.24a4.29,4.29,0,0,0-.93,1.49,12.7,12.7,0,0,0-.64,4.14,11.19,11.19,0,0,0,1,4.87,3.53,3.53,0,0,0,3.21,1.78,3.44,3.44,0,0,0,2.54-1,4,4,0,0,0,1-1.6,12.69,12.69,0,0,0,.64-4.13,11.62,11.62,0,0,0-.93-4.77,3.51,3.51,0,0,0-3.25-1.87A3.38,3.38,0,0,0,249.17,86.43Z"/><path class="cls-2" d="M261.56,98.67a5.14,5.14,0,0,1-1.24-1.88,14.18,14.18,0,0,1-.78-4.73,11.81,11.81,0,0,1,1.2-5.57A5.08,5.08,0,0,1,265.37,84a5.14,5.14,0,0,1,3.79,1.45,5.21,5.21,0,0,1,1.24,1.89,13.88,13.88,0,0,1,.79,4.75A10.6,10.6,0,0,1,269.74,98a5.1,5.1,0,0,1-4.39,2.15A5.23,5.23,0,0,1,261.56,98.67Zm1.2-12.24a4.29,4.29,0,0,0-.93,1.49,12.7,12.7,0,0,0-.64,4.14,11.17,11.17,0,0,0,1,4.87,3.51,3.51,0,0,0,3.2,1.78,3.45,3.45,0,0,0,2.55-1,4.08,4.08,0,0,0,1-1.6,12.69,12.69,0,0,0,.64-4.13,11.46,11.46,0,0,0-.93-4.77,3.5,3.5,0,0,0-3.25-1.87A3.41,3.41,0,0,0,262.76,86.43Z"/><path class="cls-2" d="M273.21,92.12c1.84-1.78,3.13-2.42,5-2.42a5.66,5.66,0,0,1,2.59.6,12.68,12.68,0,0,1,1.94,1.23c1.74,1.22,2.79,1.68,4,1.68a4.18,4.18,0,0,0,1.66-.35,5.5,5.5,0,0,0,2.36-2l1.07.92a8.3,8.3,0,0,1-2.38,2.11,5.63,5.63,0,0,1-2.73.7,6.71,6.71,0,0,1-2-.33,10.57,10.57,0,0,1-2.88-1.66c-1.63-1.21-2.46-1.55-3.72-1.55a4.24,4.24,0,0,0-2.13.53A7.15,7.15,0,0,0,274.25,93Z"/><path class="cls-2" d="M296.18,84.15a9.28,9.28,0,0,0,1.72.11h1.3a11,11,0,0,0,1.72-.11,31.82,31.82,0,0,0-.19,3.4v10a12.37,12.37,0,0,0,.17,2.31h-2a13.13,13.13,0,0,0,.17-2.31V85.65H298a13,13,0,0,0-1.8.12Z"/><path class="cls-2" d="M317.47,92.55A3.77,3.77,0,0,1,319,95.76c0,2.81-2.07,4.39-5.71,4.39-3.79,0-5.88-1.56-5.88-4.39a3.77,3.77,0,0,1,1.84-3.39,4.3,4.3,0,0,1,1.87-.7,3.58,3.58,0,0,1-3-3.69c0-2.47,2-4,5.09-4s5.11,1.53,5.11,4a3.58,3.58,0,0,1-3,3.69A4.17,4.17,0,0,1,317.47,92.55Zm-8.34,3.11c0,2,1.51,3.09,4.08,3.09a4.7,4.7,0,0,0,3.33-1.06,2.7,2.7,0,0,0,.78-2c0-2-1.55-3.21-4.09-3.21S309.13,93.68,309.13,95.66Zm.62-7.55c0,1.82,1.32,2.93,3.5,2.93s3.47-1.11,3.47-2.93-1.36-2.81-3.49-2.81S309.75,86.41,309.75,88.11Z"/><path class="cls-2" d="M323.53,90.81h-2v-2h2Zm-2,9v-2h2v2Z"/><path class="cls-2" d="M328,98.67a4.9,4.9,0,0,1-1.24-1.88,13.93,13.93,0,0,1-.79-4.73,11.93,11.93,0,0,1,1.2-5.57,5.58,5.58,0,0,1,8.42-1.07,5.21,5.21,0,0,1,1.24,1.89,13.88,13.88,0,0,1,.79,4.75A10.6,10.6,0,0,1,336.17,98a5.08,5.08,0,0,1-4.39,2.15A5.19,5.19,0,0,1,328,98.67Zm1.2-12.24a4,4,0,0,0-.93,1.49,12.44,12.44,0,0,0-.65,4.14,11.17,11.17,0,0,0,1,4.87,3.52,3.52,0,0,0,3.2,1.78,3.45,3.45,0,0,0,2.55-1,4,4,0,0,0,1-1.6A12.42,12.42,0,0,0,336,92a11.46,11.46,0,0,0-.93-4.77,3.5,3.5,0,0,0-3.25-1.87A3.37,3.37,0,0,0,329.2,86.43Z"/><path class="cls-2" d="M341.59,98.67a5,5,0,0,1-1.24-1.88,13.93,13.93,0,0,1-.79-4.73,11.93,11.93,0,0,1,1.2-5.57,5.39,5.39,0,0,1,9.66.82,13.88,13.88,0,0,1,.79,4.75A10.6,10.6,0,0,1,349.76,98a5.07,5.07,0,0,1-4.38,2.15A5.21,5.21,0,0,1,341.59,98.67Zm1.2-12.24a4.15,4.15,0,0,0-.93,1.49,12.44,12.44,0,0,0-.64,4.14,11.19,11.19,0,0,0,1,4.87,3.52,3.52,0,0,0,3.21,1.78,3.44,3.44,0,0,0,2.54-1,4,4,0,0,0,1-1.6,12.69,12.69,0,0,0,.64-4.13,11.44,11.44,0,0,0-.94-4.77,3.49,3.49,0,0,0-3.24-1.87A3.38,3.38,0,0,0,342.79,86.43Z"/><path class="cls-2" d="M376.18,92.24c0-.94,0-1.53.07-2.49A16,16,0,0,1,374,92.86a3.78,3.78,0,0,0-.85-1.17A19.63,19.63,0,0,0,377,86.14a14.69,14.69,0,0,0,1.14-3.46l1.47.45c-.27.7-.54,1.35-.77,2a26.56,26.56,0,0,1-1.28,2.84V99a21.73,21.73,0,0,0,.1,2.4h-1.55a21.73,21.73,0,0,0,.12-2.46Zm4.74-3.6a15.51,15.51,0,0,0-2.07.12V87.29a15.09,15.09,0,0,0,2.07.12h3.77V85.14a16.08,16.08,0,0,0-.15-2h1.59a16.45,16.45,0,0,0-.12,2v2.27h4.39a15.84,15.84,0,0,0,2.13-.12v1.47a15.94,15.94,0,0,0-2.11-.12h-4C388.47,92.71,390.25,95,393,97a5,5,0,0,0-1.12,1.09,20,20,0,0,1-6-8.34c0,.8.06,1.42.06,2.32v7.27a13.66,13.66,0,0,0,.14,2.11h-1.61a14.65,14.65,0,0,0,.17-2.11V92.12c0-.82,0-1.62,0-2.31A19,19,0,0,1,379,98,4.31,4.31,0,0,0,378,97a19,19,0,0,0,4.33-4.71,21.55,21.55,0,0,0,2-3.6Z"/><path class="cls-2" d="M397.18,86a14.69,14.69,0,0,0-.1-2,17.39,17.39,0,0,0,2.21.1h9.31a15.68,15.68,0,0,0,2.14-.1,11.74,11.74,0,0,0-.11,1.88V99a14.33,14.33,0,0,0,.13,2.19h-1.51V99.86H398.57v1.33h-1.51a16.07,16.07,0,0,0,.12-2.17Zm1.39,5.08h10.68V85.34H398.57Zm0,7.53h10.68V92.33H398.57Z"/><path class="cls-2" d="M425.61,88.66h-2.05v-2h2.05Zm-2.05,9v-2h2.05v2Z"/><path class="cls-2" d="M444.4,85.22a14.71,14.71,0,0,0-.15-2.15H446a13,13,0,0,0-.15,2.15v4.4h4.82a15.32,15.32,0,0,0,2.24-.12V91a17,17,0,0,0-2.24-.1H445.8v8.17h6.38a18.54,18.54,0,0,0,2.33-.12v1.56a15.38,15.38,0,0,0-2.33-.15h-13.6a16.92,16.92,0,0,0-2.46.15V98.94a20,20,0,0,0,2.46.12h5.82V90.89h-4.35a16.94,16.94,0,0,0-2.25.1V89.5a15.67,15.67,0,0,0,2.25.12h4.35Z"/><path class="cls-2" d="M467.67,92.16A1.7,1.7,0,1,1,466,90.48,1.69,1.69,0,0,1,467.67,92.16Z"/><path class="cls-2" d="M479.94,86a14.69,14.69,0,0,0-.1-2,17.39,17.39,0,0,0,2.21.1h9.31a15.52,15.52,0,0,0,2.13-.1,13.16,13.16,0,0,0-.1,1.88V99a16,16,0,0,0,.12,2.19H492V99.86H481.33v1.33h-1.51a16.07,16.07,0,0,0,.12-2.17Zm1.39,5.08H492V85.34H481.33Zm0,7.53H492V92.33H481.33Z"/><path class="cls-2" d="M509.05,92.16a1.7,1.7,0,1,1-1.7-1.68A1.69,1.69,0,0,1,509.05,92.16Z"/><path class="cls-2" d="M523.1,99.21a11,11,0,0,0,.14,2.12h-1.55a13.13,13.13,0,0,0,.13-2.12V93a18.85,18.85,0,0,1-3,2.58,5.9,5.9,0,0,0-.7-1.13,17.11,17.11,0,0,0,3.73-3,14.63,14.63,0,0,0,2.6-3.89h-3.78a11.38,11.38,0,0,0-1.68.09V86.3a10.26,10.26,0,0,0,1.63.09h1.25v-2a11.22,11.22,0,0,0-.13-1.64h1.55a9,9,0,0,0-.12,1.64v2h1a10.23,10.23,0,0,0,1.29-.06l.68.73c-.17.29-.17.29-.85,1.62a16.3,16.3,0,0,1-1.88,2.7,11.58,11.58,0,0,0,3.2,2.42,4.31,4.31,0,0,0-.66,1.15,15.66,15.66,0,0,1-2.79-2.28Zm5.17-7.77a11.8,11.8,0,0,0-1.65.09,15,15,0,0,0,.08-1.81V85.61a14.59,14.59,0,0,0-.08-1.7,17.67,17.67,0,0,0,2,.08h5.82a16.31,16.31,0,0,0,1.86-.08,13.16,13.16,0,0,0-.09,1.68v4.28a13,13,0,0,0,.09,1.66,12.16,12.16,0,0,0-1.68-.09h-1.09c0,7.89,0,7.89,0,8s.31.29.93.29c1,0,1.53-.07,1.67-.23s.38-1.06.4-3.27a4,4,0,0,0,1.24.57c-.21,3-.31,3.5-.89,3.83a4.89,4.89,0,0,1-2.28.31,3.47,3.47,0,0,1-2-.31c-.29-.19-.4-.43-.4-1V91.44h-1.84a13.68,13.68,0,0,1-.93,5.27,8.09,8.09,0,0,1-2,3,8.86,8.86,0,0,1-2.31,1.55,5.85,5.85,0,0,0-1-1.1,7.13,7.13,0,0,0,2.92-2c1.39-1.6,2-3.48,2.05-6.74ZM528,90.3h6.91V85.18H528Z"/><path class="cls-2" d="M542,88.29a14.41,14.41,0,0,1,2,1.54,14,14,0,0,0,1.46-1.42,9.91,9.91,0,0,0-2.15-1.47l.75-.72a10.41,10.41,0,0,1,2.07,1.44,12.94,12.94,0,0,0,1.53-2.44h-3.73a14.06,14.06,0,0,1-4,3.85,3.09,3.09,0,0,0-.85-.9,11.94,11.94,0,0,0,3.1-2.6,8.71,8.71,0,0,0,1.7-2.93l1.41.31a5.32,5.32,0,0,0-.27.49,5.37,5.37,0,0,1-.42.73h2.65a6.17,6.17,0,0,0,1.2-.08l.75.9c-.21.35-.21.35-.46.8a16.44,16.44,0,0,1-3.27,4.28,23.64,23.64,0,0,1-5.64,4.1,3.46,3.46,0,0,0-.81-1.11,18.78,18.78,0,0,0,4.18-2.54,10.67,10.67,0,0,0-2-1.53Zm3.58,8.15a17.2,17.2,0,0,1-4.49,4.38,4.08,4.08,0,0,0-1-1,11.84,11.84,0,0,0,4.3-3.91ZM543,95.09a15.4,15.4,0,0,0-2.07.12V93.82a19.89,19.89,0,0,0,2.07.1h11.82a19.58,19.58,0,0,0,2.09-.1v1.39a15,15,0,0,0-2.09-.12h-5.2v4.69c0,1.17-.45,1.55-1.84,1.55l-1.53,0c-.64,0-.64,0-.89,0a5.47,5.47,0,0,0-.35-1.35,13.64,13.64,0,0,0,2.44.21c.73,0,.87-.09.87-.5V95.09Zm9.71-3.36a14.41,14.41,0,0,0-1.78-.08h-3.81a14.46,14.46,0,0,0-1.8.08V90.4a12.54,12.54,0,0,0,1.8.08H551a10.81,10.81,0,0,0,1.78-.1ZM557.2,85a4.41,4.41,0,0,0-.77.92,23.18,23.18,0,0,1-2.92,3.17,16.08,16.08,0,0,0,5,3.3,4.15,4.15,0,0,0-.76,1.27,21.41,21.41,0,0,1-3.19-2,16.83,16.83,0,0,1-3.83-4.1,21.32,21.32,0,0,1-1.43-2.82,7.74,7.74,0,0,0-.58-1.19l1.31-.33a12.16,12.16,0,0,0,2.65,5.08,14.87,14.87,0,0,0,2.69-3h-2.8a10.72,10.72,0,0,0-1.51.08V84a9.46,9.46,0,0,0,1.66.14h2.19a9.21,9.21,0,0,0,1.51-.08Zm-4.08,10.77a14.69,14.69,0,0,0,4.68,3.87,5.28,5.28,0,0,0-.94,1.1A21.43,21.43,0,0,1,552,96.4Z"/><path class="cls-2" d="M562.7,86a13.11,13.11,0,0,0-.11-2,17.66,17.66,0,0,0,2.22.1h9.31a15.52,15.52,0,0,0,2.13-.1,13.16,13.16,0,0,0-.1,1.88V99a16,16,0,0,0,.12,2.19h-1.51V99.86H564.08v1.33h-1.51A14.4,14.4,0,0,0,562.7,99Zm1.38,5.08h10.68V85.34H564.08Zm0,7.53h10.68V92.33H564.08Z"/><line class="cls-3" x1="124.82" y1="69.31" x2="577.92" y2="69.31"/><g class="cls-4"><circle class="cls-5" cx="67.78" cy="60.53" r="41.15"/></g><path class="cls-2" d="M67.78,23.89l-1.88.05L64,24.08l-1.83.23-1.8.33-1.76.41-1.74.49-1.7.58-1.66.65-1.62.74-1.58.81-1.53.88-1.49,1-1.44,1-1.38,1.09-1.34,1.16L41.9,34.64l-1.22,1.28-1.15,1.33-1.09,1.39-1,1.44-.95,1.48-.89,1.54-.81,1.58L34,46.3,33.37,48l-.58,1.7-.49,1.73-.41,1.77L31.57,55l-.24,1.83-.14,1.85-.05,1.89.05,1.88.14,1.86.24,1.83.32,1.79.41,1.77.49,1.74.58,1.7L34,74.76l.73,1.62L35.57,78l.89,1.53L37.41,81l1,1.44,1.09,1.38,1.15,1.34,1.22,1.27,1.27,1.22,1.34,1.15,1.38,1.09,1.44,1,1.49.95,1.53.89,1.58.81,1.62.73,1.66.66,1.7.58,1.74.49,1.76.41,1.8.32L64,97l1.86.14,1.88,0,1.88,0L71.52,97l1.83-.24,1.8-.32L76.92,96l1.73-.49,1.7-.58L82,94.28l1.62-.73,1.58-.81,1.54-.89,1.48-.95,1.44-1,1.39-1.09,1.33-1.15,1.28-1.22,1.21-1.27L96,83.8l1.09-1.38,1-1.44,1-1.49L100,78l.81-1.58.74-1.62.65-1.66.58-1.7.49-1.74.41-1.77L104,66.1l.23-1.83.14-1.86,0-1.88,0-1.89-.14-1.85L104,55l-.33-1.8-.41-1.77-.49-1.73-.58-1.7-.65-1.66-.74-1.62L100,43.1l-.88-1.54-1-1.48-1-1.44L96,37.25l-1.16-1.33-1.21-1.28-1.28-1.21-1.33-1.16-1.39-1.09-1.44-1-1.48-1-1.54-.88-1.58-.81L82,26.77l-1.66-.65-1.7-.58-1.73-.49-1.77-.41-1.8-.33-1.83-.23-1.86-.14Zm0-4.52A41.16,41.16,0,1,1,26.63,60.53,41.24,41.24,0,0,1,67.78,19.37Z"/><path class="cls-2" d="M80.53,85.28l3.38-2a1.22,1.22,0,0,0,.56-.84,1.81,1.81,0,0,0-.37-1.24L77.88,70.48c-.63-1.09-1.25-1.35-2-.9l-3.3,1.91ZM53.38,69l.3.52c4.11,7,8.21,11.74,12.41,14,5.13,2.86,9.26,3.8,12.62,2.79l.08,0L70.73,72.54a2.9,2.9,0,0,1-2.89,0A9.44,9.44,0,0,1,65,69.7c-1-1.59-2.2-3.41-3.46-5.59-1.58-2.72-2.53-4.57-3-5.42a9.39,9.39,0,0,1-.94-3.83,2.61,2.61,0,0,1,1.45-2.5L51,38.49c-1.46,1.26-2.61,3.49-3.26,6.57a23.74,23.74,0,0,0-.43,8.46C48,58,50,63.1,53.38,69Zm7.24-17.52,3.3-1.91c.87-.5.89-1.46.17-2.7L58.28,36.79c-.54-.93-.94-1.43-1.29-1.43a2.23,2.23,0,0,0-1.27.42l-3.12,1.8Z"/></g></g></svg>