<svg xmlns="http://www.w3.org/2000/svg" width="305" height="120" viewBox="0 0 305 120"><defs><style>.cls-1{fill:#80bee7;}.cls-2{fill:#fff;}</style></defs><title>bt_day_service</title><g id="レイヤー_2" data-name="レイヤー 2"><g id="レイヤー_1-2" data-name="レイヤー 1"><rect class="cls-1" width="305" height="120" rx="10" ry="10"/><path class="cls-2" d="M74.77,56.14c-.35,7.91-3.36,12.13-10.59,14.91a10.22,10.22,0,0,0-2.62-3.55c6.27-2,8.76-5.15,9-11.36H62.77a27.81,27.81,0,0,0-4.06.16V52.49a20.18,20.18,0,0,0,4.13.23H81.55a20.18,20.18,0,0,0,4.13-.23V56.3a27.81,27.81,0,0,0-4.06-.16ZM79.6,48.3a25.85,25.85,0,0,0-4.06-.16H66a26.1,26.1,0,0,0-4.06.16V44.4a20.82,20.82,0,0,0,4.13.22h9.4a20.33,20.33,0,0,0,4.13-.22Zm1.86-6a22.89,22.89,0,0,1,2.85,5l-2.4.9a23.94,23.94,0,0,0-2.82-5.12ZM86,46.86a23.13,23.13,0,0,0-2.75-5l2.31-.83a19.86,19.86,0,0,1,2.81,4.86Z"/><path class="cls-2" d="M116.63,45.65a11.56,11.56,0,0,0-1.19,1.12,57.41,57.41,0,0,1-7.55,6.59V67a23.86,23.86,0,0,0,.16,3.55h-4.48a18,18,0,0,0,.19-3.45V55.85C100,58.09,98.23,58.93,92.34,61a11.92,11.92,0,0,0-2.14-3.65A46.77,46.77,0,0,0,107,49.07a26,26,0,0,0,6-6Z"/><path class="cls-2" d="M140.63,49.36l0-1.44v-1a20.2,20.2,0,0,0-.16-3.55h4.13a11.5,11.5,0,0,0-.13,2.15c0,1.95,0,1.95,0,3.87h2a21.79,21.79,0,0,0,4.16-.23V53a32.08,32.08,0,0,0-4.09-.16h-2.15a38.47,38.47,0,0,1-.22,5.28c-.45,4.09-1.82,6.81-4.61,9.18a17.76,17.76,0,0,1-6.24,3.36,9.46,9.46,0,0,0-2.4-3.39,15,15,0,0,0,6.12-3c2.17-1.89,3.1-4,3.39-7.68.06-.74.06-1.5.12-3.71h-8.28v4.8a19.15,19.15,0,0,0,.13,2.69h-4.16a22.61,22.61,0,0,0,.12-2.76V52.88h-2a32.08,32.08,0,0,0-4.09.16V49.13a21.79,21.79,0,0,0,4.16.23h1.88v-3.2a16.81,16.81,0,0,0-.16-2.85h4.2a15.77,15.77,0,0,0-.13,2.75v3.3Z"/><path class="cls-2" d="M154.77,54.57a30.39,30.39,0,0,0,5.19.23h17a30.17,30.17,0,0,0,5.18-.23V59a35.06,35.06,0,0,0-5.21-.16H160a35.15,35.15,0,0,0-5.22.16Z"/><path class="cls-2" d="M194.07,53.74c4.83-.89,11.9-3.74,14-5.69l2.56,3.61c-.22.1-1.18.55-2.88,1.38a53.9,53.9,0,0,1-13.66,4.41v4.23a2.24,2.24,0,0,0,0,.41c0,1.86.12,2.59.57,3s2.37.84,5.47.84a60.47,60.47,0,0,0,7.43-.52,18.36,18.36,0,0,0,3.64-.77l.2,4.26c-.68,0-.84,0-4.23.35-1.89.19-5.92.39-7.87.39-4,0-6.24-.42-7.49-1.38A4.43,4.43,0,0,1,190.2,65a22.63,22.63,0,0,1-.1-3l0-14.84a16.67,16.67,0,0,0-.13-3h4.29a16.14,16.14,0,0,0-.16,3Zm15.2-10.94a20.48,20.48,0,0,1,3.2,4.86l-2.31,1.06a20.26,20.26,0,0,0-3.17-4.9Zm4.8,4.06A23.82,23.82,0,0,0,211,42.1l2.21-1a19,19,0,0,1,3.14,4.64Z"/><path class="cls-2" d="M243.28,70.12a61.47,61.47,0,0,0-9.82-9.5,38.16,38.16,0,0,1-12.19,9.25,12.77,12.77,0,0,0-2.59-3.55,26.7,26.7,0,0,0,6.4-3.52,30.81,30.81,0,0,0,10.75-13l.35-.83c-.51,0-.51,0-10.59.19a26.46,26.46,0,0,0-3.49.26l-.13-4.1a14,14,0,0,0,2.82.2h.77l11.26-.16a7,7,0,0,0,2.85-.36l2.11,2.18a6.27,6.27,0,0,0-1,1.73,42.36,42.36,0,0,1-5,8.83,48.61,48.61,0,0,1,5.92,4.64c.8.7.8.7,4.67,4.45Z"/></g></g></svg>