<svg xmlns="http://www.w3.org/2000/svg" width="305" height="120" viewBox="0 0 305 120"><defs><style>.cls-1{fill:#80bee7;}.cls-2{fill:#fff;}</style></defs><title>bt_home</title><g id="レイヤー_2" data-name="レイヤー 2"><g id="レイヤー_1-2" data-name="レイヤー 1"><rect class="cls-1" width="305" height="120" rx="10" ry="10"/><path class="cls-2" d="M11.56,58.64c0-.84,0-1.47.1-3.65a23.9,23.9,0,0,1-2.37,3.42,18.06,18.06,0,0,0-1.37-3.87,26.05,26.05,0,0,0,5-8.45,21,21,0,0,0,1.16-4.16l3.49.93a53.78,53.78,0,0,1-2.7,7v18a28.56,28.56,0,0,0,.21,3.71H11.35a23.39,23.39,0,0,0,.21-3.74ZM27.13,48.46a30.1,30.1,0,0,0-6-4l2.34-2.37a37.1,37.1,0,0,1,6.38,4l-2.28,2.43h4.59a27.6,27.6,0,0,0,3.62-.19v3.58c-1.06-.09-2.22-.16-3.53-.16H27.67v5.6h3.77a25.34,25.34,0,0,0,3.38-.19v3.52c-1-.09-2.07-.16-3.35-.16h-3.8v6.72h5.26A29.22,29.22,0,0,0,36.55,67v3.58c-1.09-.09-2.13-.16-3.65-.16H19.47c-1.49,0-2.49.07-3.62.16V67a27.52,27.52,0,0,0,3.5.19h4.92V60.46H21.05c-1.28,0-2.34.07-3.34.16V57.1a24.3,24.3,0,0,0,3.34.19h3.22v-5.6h-4c-1.28,0-2.4.07-3.47.16V48.27a19.8,19.8,0,0,0,3.44.19Z"/><path class="cls-2" d="M47.89,55.21c-3.71.64-3.71.64-7.41,1.16a15.85,15.85,0,0,0-1.4-3.24,76.83,76.83,0,0,0,12.43-1.82A21.57,21.57,0,0,0,58,49l2.83,2.88a21.34,21.34,0,0,0-2.34.68,74.22,74.22,0,0,1-7.26,2v3.36l10.39-1.18a20.18,20.18,0,0,0,3.28-.61l.34,3.65a4,4,0,0,0-.55,0c-.55,0-2,.09-2.79.19L51.27,61.17v5.31c0,.8.15,1,.85,1.18a26.91,26.91,0,0,0,3.71.19c2.94,0,4.4-.19,5-.61S61.48,66,61.6,63a9.62,9.62,0,0,0,3.34,1.28,12,12,0,0,1-.69,4.12,3.46,3.46,0,0,1-2.71,2.37,26.19,26.19,0,0,1-6.17.39c-6.41,0-7.48-.52-7.48-3.62v-6l-6.59.77a23.52,23.52,0,0,0-3.32.57l-.33-3.61h.61c.61,0,1.91-.1,2.73-.16l6.9-.8Zm1.55-11.16a9.46,9.46,0,0,0-.18-1.86H53a9.47,9.47,0,0,0-.15,1.86v1h8.39a31.21,31.21,0,0,0,3.37-.13,16.1,16.1,0,0,0-.12,2.37v2.43a20.2,20.2,0,0,0,.12,2.47H61.3V48.33H41.63v3.88H38.29a15.16,15.16,0,0,0,.15-2.5v-2.4a17.92,17.92,0,0,0-.12-2.37,30.26,30.26,0,0,0,3.34.13h7.78Z"/><path class="cls-2" d="M70,46.32a19.64,19.64,0,0,0-2.76.13V43a28.91,28.91,0,0,0,3.25.16h8.18A20.51,20.51,0,0,0,81.94,43v3.43a16.38,16.38,0,0,0-2.58-.13v3.2h.21a22.13,22.13,0,0,0,3-.13v3.46a22.84,22.84,0,0,0-2.89-.13h-.27v3.07c0,1.15,0,1.63.06,2.53h2.49a9.17,9.17,0,0,0-.15,2v1h6.08a22.93,22.93,0,0,0,3.58-.2v3.49a31.92,31.92,0,0,0-3.52-.16H81.76v2.91h8.57a29.88,29.88,0,0,0,3.55-.16V70.8a29.77,29.77,0,0,0-3.82-.2H70.42a28.73,28.73,0,0,0-3.74.2V67.21a30.37,30.37,0,0,0,3.5.16h8.17V64.46H72.64a33.69,33.69,0,0,0-3.5.16V61.17a20.25,20.25,0,0,0,3.13.16h6.08v-1c0-.36,0-.58,0-1.06H76a28.35,28.35,0,0,0,.19-3.49v-3.1h-3a13.23,13.23,0,0,1-1.1,4,11,11,0,0,1-3.25,4.06,11,11,0,0,0-2.43-2.65,7.54,7.54,0,0,0,3.49-5.44h-.45a18,18,0,0,0-2.89.16V49.36a19.46,19.46,0,0,0,3,.16h.67c0-.26,0-1.31,0-3.2Zm3.44,0v1c0,.8,0,1.54,0,2.21h2.74v-3.2Zm10,8.89a19.57,19.57,0,0,0,.15-2.56V46.38a20.25,20.25,0,0,0-.15-2.62h3.46a17.57,17.57,0,0,0-.12,2.43v6.72a22.71,22.71,0,0,0,.09,2.3ZM93,56.27c0,2.75-.82,3.36-4.4,3.36a22.58,22.58,0,0,1-2.53-.13A10.7,10.7,0,0,0,85.19,56a20.85,20.85,0,0,0,3.22.29c1.16,0,1.25-.06,1.25-.73V45.07a17.52,17.52,0,0,0-.15-2.75h3.65a21.07,21.07,0,0,0-.16,3Z"/><path class="cls-2" d="M101.16,57.17a33.47,33.47,0,0,1-4.41,4,9.67,9.67,0,0,0-2.07-3.11,27.24,27.24,0,0,0,5.11-4.38,20.94,20.94,0,0,0,3.61-5H99.12a28.24,28.24,0,0,0-3.62.19V45.33a30.86,30.86,0,0,0,3.65.19h5.71a14.29,14.29,0,0,0,.88-3.46l3.8.45a15.25,15.25,0,0,0-.66,1.79c-.13.39-.19.55-.43,1.22H119.3a28.87,28.87,0,0,0,3.56-.19v3.55a27.66,27.66,0,0,0-3.56-.19H107.08c-.54,1.05-.91,1.69-1.49,2.68H116a28.54,28.54,0,0,0,3.16-.12c-.09,1-.12,2-.12,3.64V68.24a2.81,2.81,0,0,1-1.16,2.59,7.73,7.73,0,0,1-3.55.51c-.7,0-1.28,0-2.8-.1a10.35,10.35,0,0,0-.79-3.35,25.46,25.46,0,0,0,3.52.28c1.34,0,1.53-.12,1.53-.89V64.85H104.41v2.71c0,1.73.06,2.85.15,4H101a37.81,37.81,0,0,0,.19-4Zm14.62-2.72H104.41v2.33h11.37Zm-11.37,5.18V62h11.37V59.63Z"/><path class="cls-2" d="M135.9,63c-.15.41-.18.57-.33,1.09a23.6,23.6,0,0,1-3.07-4.51c.15,2.17.18,2.62.18,3.64v5.28a20.17,20.17,0,0,0,.18,3.33h-3.52a22,22,0,0,0,.21-3.39V64.3c0-1.28.06-2.78.12-3.84a22.47,22.47,0,0,1-3.95,7.2,10,10,0,0,0-1.55-3.3,20.67,20.67,0,0,0,3.28-4.73A26.68,26.68,0,0,0,129.06,56h-1.58a15.63,15.63,0,0,0-2.73.16V52.78a14.11,14.11,0,0,0,2.73.16h2V45.36a21.18,21.18,0,0,0-.15-3.14h3.46a20.4,20.4,0,0,0-.15,3.11v7.61h1.43a14.17,14.17,0,0,0,2.34-.13v3.33a17.71,17.71,0,0,0-2.4-.13H133a16.89,16.89,0,0,0,3.92,4.9c-.42.8-.54,1.09-.85,1.79a18.34,18.34,0,0,0,2.8-.45l7.11-1.66V46a23.49,23.49,0,0,0-.18-3.72h3.68a24.14,24.14,0,0,0-.18,3.68V59.82a18,18,0,0,0,2.58-.8l.64,3.65a20.3,20.3,0,0,0-2.92.58l-.3.06V68a25.13,25.13,0,0,0,.18,3.78h-3.68a24.79,24.79,0,0,0,.18-3.81V64.08l-6.44,1.53c-1.34.32-2.22.58-2.89.8Zm-8.78-19A41.24,41.24,0,0,1,129,50.89l-2.55,1.16a27,27,0,0,0-1.89-6.85Zm10.42,1.12a39.59,39.59,0,0,1-2.43,6.95l-2.22-1.22a27.8,27.8,0,0,0,2.1-6.91Zm1.52,7.27a28,28,0,0,1,5.29,4.7l-2.07,2.59a26.87,26.87,0,0,0-5.35-4.93Zm.94-8a29.59,29.59,0,0,1,5.32,4.7l-2.06,2.69a26,26,0,0,0-5.38-4.93Z"/><path class="cls-2" d="M157.06,55.6a28.72,28.72,0,0,0-3.68.19V52.21a27,27,0,0,0,3.68.19h6.84V49.17h-4.62a34.12,34.12,0,0,0-3.49.12V45.77a22.84,22.84,0,0,0,3.52.2h4.59V45a17.8,17.8,0,0,0-.18-2.82h3.74a14,14,0,0,0-.19,2.88V46h2.65a22.35,22.35,0,0,0,3.34-.2v2.5a20.28,20.28,0,0,0,3.07-4.48l3.22,2c-.33.42-.42.51-.85,1.06a52.5,52.5,0,0,1-4.92,5.6h3.31a25.24,25.24,0,0,0,3.47-.19v3.58a29,29,0,0,0-3.62-.19h-6.69a61,61,0,0,1-6.41,4.64v1.44A53.69,53.69,0,0,0,172,59a17.44,17.44,0,0,0,2.94-1.5l2.56,2.94a4,4,0,0,1-.58.22l-1,.45c-.95.39-3.86,1.44-5.38,2-2.35.73-3.17,1-6.63,1.79V66.7c0,1.09.55,1.22,6,1.22,3.16,0,4.44-.16,4.89-.68s.58-1.44.64-4.25a11,11,0,0,0,3.34,1.31c-.3,4-.67,5.28-1.76,6s-2.95.89-8.78.89c-6.75,0-7.75-.44-7.75-3.48V62.22c-2.1,1.09-3.38,1.7-5.72,2.72a11.23,11.23,0,0,0-2-3.17A50.73,50.73,0,0,0,165,55.6Zm12-3.2a38.66,38.66,0,0,0,3.31-3.17,22.2,22.2,0,0,0-2.25-.06h-2.89V52.4Z"/><path class="cls-2" d="M197.7,42.61a22.44,22.44,0,0,0-.21,3.29,23.92,23.92,0,0,0,3,12.61,21.34,21.34,0,0,0,4.8,6.08A20.66,20.66,0,0,0,210,68.05a11.87,11.87,0,0,0-2.37,3.55,30.56,30.56,0,0,1-7.72-7.55,26,26,0,0,1-4-8.74,23.55,23.55,0,0,1-2.37,6.46,22.13,22.13,0,0,1-4.68,6.15,26.46,26.46,0,0,1-4.71,3.68,9.51,9.51,0,0,0-2.37-3.3A20.42,20.42,0,0,0,188.34,63c3.92-4.74,5.57-10,5.57-17.67a21.93,21.93,0,0,0-.13-2.68Z"/><path class="cls-2" d="M219.66,55c-.1.38-.13.42-.25,1a33.9,33.9,0,0,1-5.1,12.42,13,13,0,0,0-3.53-2.05A23.41,23.41,0,0,0,215,57.93a17.68,17.68,0,0,0,.88-3.93Zm3.06-8.64a18.94,18.94,0,0,0-.18-3.3h4.11a25.73,25.73,0,0,0-.13,3.4v1.69h7a20.64,20.64,0,0,0,3.92-.22v3.93a30.43,30.43,0,0,0-3.86-.16h-7V67.21a27,27,0,0,0,.16,3.59h-4.14a23.74,23.74,0,0,0,.18-3.62V51.69H216a30,30,0,0,0-3.83.16V47.92a20.35,20.35,0,0,0,3.89.22h6.68ZM233.15,54a21.56,21.56,0,0,0,1.06,3.58,30.43,30.43,0,0,0,4.32,8.61A21.21,21.21,0,0,0,235,68.43a43.89,43.89,0,0,1-5-12,8.15,8.15,0,0,0-.49-1.5Z"/><path class="cls-2" d="M240.54,54.57a27.38,27.38,0,0,0,4.92.23h16.21a27.38,27.38,0,0,0,4.92-.23V59a31.7,31.7,0,0,0-4.95-.16H245.5a31.79,31.79,0,0,0-5,.16Z"/><path class="cls-2" d="M283.56,44a9.7,9.7,0,0,0-.79,2.31c-2.31,8-4.08,13.31-6,18.24a117.29,117.29,0,0,0,12.64-1.63c-.33-.77-.7-1.48-1.43-2.92a39.73,39.73,0,0,0-2.88-5.08l3.43-1.41a76.6,76.6,0,0,1,7.36,14.81l-3.68,2a36.16,36.16,0,0,0-1.46-4l-1.1.26c-3.07.67-8.11,1.34-17.2,2.27a15.79,15.79,0,0,0-2.76.38L269.12,65h.79c.61,0,1.34,0,2.61-.09,1.61-4,2.83-7.65,4.41-12.9a52.25,52.25,0,0,0,2.22-8.86Z"/></g></g></svg>