<svg xmlns="http://www.w3.org/2000/svg" width="305" height="120" viewBox="0 0 305 120"><defs><style>.cls-1{fill:#80bee7;}.cls-2{fill:#fff;}</style></defs><title>bt_second_life</title><g id="レイヤー_2" data-name="レイヤー 2"><g id="レイヤー_1-2" data-name="レイヤー 1"><rect class="cls-1" width="305" height="120" rx="10" ry="10"/><path class="cls-2" d="M86.83,64.68a26.53,26.53,0,0,1-11.1,6.69,16.13,16.13,0,0,0-2.08-3,24.41,24.41,0,0,0,10.91-5.4H79c-.16.54-.26.83-.48,1.59l-3.75-.06a28,28,0,0,0,1.83-5.92,34,34,0,0,0,.48-3.49,28.2,28.2,0,0,0,3,.1h6.56l0-2.08H79.51a24.72,24.72,0,0,0-3,.13V50.09c-.35.36-.51.48-1,.9a11.29,11.29,0,0,0-2.08-2.59c2.72-2.08,4.29-4.1,5-6.5l3.42.64c-.45.83-.57,1.09-1,1.73h4.1a15.46,15.46,0,0,0,3.13-.19v2.59a12.24,12.24,0,0,0,2.59-4.77l3.4.61a17,17,0,0,1-.8,1.79h6.08a20.84,20.84,0,0,0,3.52-.19v3.3a24.81,24.81,0,0,0-3.36-.16h-2.5c.61.89.9,1.37,1.41,2.2L96,50.22h1.54a21.79,21.79,0,0,0,3-.13,13.54,13.54,0,0,0-.13,2.31v3.29a14.09,14.09,0,0,0,.13,2.34c-.8-.06-1.7-.1-3-.1H90.1l0,2.15h9.12A20.57,20.57,0,0,0,102,60c-.06.45-.09.64-.13,1-.09,1.22-.22,2.24-.28,3-.32,3.11-.55,3.94-1.19,4.67s-1.57,1-3.74,1c-1,0-1.6,0-3-.13a13.3,13.3,0,0,0-.8-3.13c1.22.16,2.75.32,3.46.32,1.76,0,1.85-.16,2.08-3.74H90.16l.07,5.34a23.14,23.14,0,0,0,.25,3.55H86.71a13.88,13.88,0,0,0,.19-2.75v-.83ZM82.29,50.22a18.17,18.17,0,0,0-1.44-3H79.09a18.77,18.77,0,0,1-2.49,2.88,20.54,20.54,0,0,0,2.91.13Zm4.45,7.71H80.18c-.13.8-.16,1-.42,2.15h7Zm1.82-7.71a9.89,9.89,0,0,0-2-1.92c.55-.45.71-.61,1.16-1-.51,0-1.12-.07-1.79-.07H84.12c.38.61.57.93,1.28,2.18l-2.66.83Zm6.79,0a22,22,0,0,0-1.64-3H91.76a15.88,15.88,0,0,1-2.59,3Zm-5.28,4.93H97V53.07H90Z"/><path class="cls-2" d="M134.61,68.2A43.52,43.52,0,0,0,130,68H111.22a47.73,47.73,0,0,0-4.83.22V64.05a36.07,36.07,0,0,0,4.73.22h18.75a39.14,39.14,0,0,0,4.74-.22ZM109.36,45.52a38.94,38.94,0,0,0,4.36.19h13.34a32.12,32.12,0,0,0,4.45-.19v4.06a34.19,34.19,0,0,0-4.42-.19H113.78a36.49,36.49,0,0,0-4.42.19Z"/><path class="cls-2" d="M151.67,61.61c-1.83,4.13-3.88,6-6.5,6-3.65,0-6.27-3.71-6.27-8.87a13.78,13.78,0,0,1,3.52-9.31,14.38,14.38,0,0,1,11-4.48c7.68,0,12.67,4.68,12.67,11.88a12.32,12.32,0,0,1-7.78,11.93,20.64,20.64,0,0,1-5,1.34,10.36,10.36,0,0,0-2-3.74,17,17,0,0,0,6.36-1.76,8.94,8.94,0,0,0,4.45-8,7.91,7.91,0,0,0-3.93-7.1,7,7,0,0,0-3.23-1A46.3,46.3,0,0,1,151.67,61.61ZM147,50.16a10.73,10.73,0,0,0-4.35,8.64c0,2.62,1.12,4.7,2.53,4.7,1.06,0,2.14-1.34,3.3-4.09a42.25,42.25,0,0,0,2.65-10.82A8.16,8.16,0,0,0,147,50.16Z"/><path class="cls-2" d="M186.48,42.61a20.9,20.9,0,0,0-.22,3.29,23,23,0,0,0,3.13,12.61,21.68,21.68,0,0,0,5.06,6.08,21.54,21.54,0,0,0,5,3.46,11.72,11.72,0,0,0-2.5,3.55,31.27,31.27,0,0,1-8.12-7.55,25.29,25.29,0,0,1-4.26-8.74A23,23,0,0,1,182,61.77a22.47,22.47,0,0,1-4.93,6.15,27.67,27.67,0,0,1-5,3.68,9.56,9.56,0,0,0-2.5-3.3,21.4,21.4,0,0,0,7-5.34c4.12-4.74,5.85-10,5.85-17.67a22.21,22.21,0,0,0-.12-2.68Z"/><path class="cls-2" d="M208.53,51.66a28.29,28.29,0,0,1-4.35,6.72,9.89,9.89,0,0,0-2.62-2.72,23.09,23.09,0,0,0,5.4-9.34,17.36,17.36,0,0,0,.71-3l3.65.9a7.13,7.13,0,0,1-.29.83,6.52,6.52,0,0,0-.32,1.06q-.24.72-.87,2.4h5.22V46.09a24.78,24.78,0,0,0-.23-3.84h4.1a29.67,29.67,0,0,0-.19,3.81v2.47h6.65a42.85,42.85,0,0,0,4.32-.2v3.52c-1.37-.12-2.68-.19-4.22-.19h-6.75v5.89h5.53a33,33,0,0,0,3.94-.19v3.52a34.9,34.9,0,0,0-3.94-.2h-5.53v6.79h7.68a35,35,0,0,0,4.45-.23v3.65a37.5,37.5,0,0,0-4.36-.22H206.93a41.11,41.11,0,0,0-4.54.22V67.24a37.35,37.35,0,0,0,4.45.23h8.22V60.68h-4.93a33,33,0,0,0-3.87.2V57.36a29,29,0,0,0,3.84.19h5V51.66Z"/></g></g></svg>