<svg xmlns="http://www.w3.org/2000/svg" width="230.42" height="36.52" viewBox="0 0 230.42 36.52"><defs><style>.cls-1,.cls-7{fill:#fff;}.cls-1{stroke:#fff;stroke-width:0.78px;}.cls-2{fill:#80bee7;}.cls-3{fill:#009c5a;}.cls-4{fill:#c08400;}.cls-5{fill:#fff162;}.cls-6{fill:#00b6ec;}</style></defs><title>logo</title><g id="レイヤー_2" data-name="レイヤー 2"><g id="レイヤー_1-2" data-name="レイヤー 1"><path class="cls-1" d="M36.14,18.26A17.88,17.88,0,1,1,18.26.39,17.88,17.88,0,0,1,36.14,18.26Z"/><path class="cls-2" d="M36.14,18.26A17.88,17.88,0,1,1,18.26.39,17.88,17.88,0,0,1,36.14,18.26Z"/><path class="cls-3" d="M18.26,3.35c-2.64,0-4.79,6.68-4.79,14.91s2.15,14.92,4.79,14.92,4.79-6.68,4.79-14.92S20.91,3.35,18.26,3.35Zm0,26.48c-2.26,0-4.09-5.18-4.09-11.57S16,6.7,18.26,6.7s4.1,5.18,4.1,11.56S20.53,29.83,18.26,29.83Z"/><path class="cls-4" d="M3.35,18.26c0,2.65,6.68,4.79,14.91,4.79s14.92-2.14,14.92-4.79-6.68-4.79-14.92-4.79S3.35,15.62,3.35,18.26Zm26.48,0c0,2.27-5.18,4.1-11.57,4.1S6.7,20.53,6.7,18.26s5.18-4.09,11.56-4.09S29.83,16,29.83,18.26Z"/><path class="cls-5" d="M7.72,7.72c-1.87,1.87,1.33,8.11,7.16,13.93s12.06,9,13.93,7.16-1.34-8.11-7.16-13.94S9.59,5.84,7.72,7.72ZM26.44,26.44c-1.6,1.6-6.56-.76-11.07-5.28s-6.88-9.47-5.28-11.07,6.56.76,11.07,5.27S28,24.84,26.44,26.44Z"/><path class="cls-6" d="M14.88,14.87c-5.83,5.83-9,12.07-7.16,13.94s8.11-1.34,13.93-7.16,9-12.06,7.16-13.93S20.7,9.05,14.88,14.87Zm.49.49c4.51-4.51,9.47-6.87,11.07-5.27s-.76,6.56-5.28,11.07S11.69,28,10.09,26.44,10.85,19.88,15.37,15.36Z"/><path class="cls-7" d="M15,17.16h.68V18l.71-.83h.91l-.8.83.83,1.37h-.83l-.47-.9-.35.37v.53H15Z"/><path class="cls-7" d="M17.58,17.16h1.68v.48h-1V18h.86v.44h-.86v.9h-.68Z"/><path class="cls-7" d="M19.51,18.64l.64,0a.67.67,0,0,0,.09.24.38.38,0,0,0,.3.13.33.33,0,0,0,.23-.07.23.23,0,0,0,.08-.16.19.19,0,0,0-.08-.15.81.81,0,0,0-.35-.13,1.42,1.42,0,0,1-.64-.27.56.56,0,0,1-.09-.74.62.62,0,0,1,.3-.24,1.32,1.32,0,0,1,.54-.09,1.14,1.14,0,0,1,.64.16.65.65,0,0,1,.26.5l-.64,0a.31.31,0,0,0-.11-.22.36.36,0,0,0-.22-.07.3.3,0,0,0-.18,0,.18.18,0,0,0-.06.13.14.14,0,0,0,.05.09.48.48,0,0,0,.23.08,3.06,3.06,0,0,1,.64.2.61.61,0,0,1,.28.24.63.63,0,0,1,.09.33.69.69,0,0,1-.12.39.73.73,0,0,1-.33.27,1.36,1.36,0,0,1-.53.09,1.14,1.14,0,0,1-.78-.21A.9.9,0,0,1,19.51,18.64Z"/><path class="cls-2" d="M43.26,5.28a5.43,5.43,0,0,0,.06.86h-1a5.52,5.52,0,0,0,.06-.86V1.64h-.9a7,7,0,0,0-.91.05V.8a7.09,7.09,0,0,0,.9,0H44.1a7.41,7.41,0,0,0,1,0v.89a7.3,7.3,0,0,0-1-.05h-.84Z"/><path class="cls-2" d="M46.58,5.18a7.23,7.23,0,0,0,.05,1h-1a5.49,5.49,0,0,0,.06-.94V1.69a5.61,5.61,0,0,0-.06-.86l.85,0h1.86a7.27,7.27,0,0,0,.91,0v.9a5.38,5.38,0,0,0-.91-.05H46.58V3.06H48A5.6,5.6,0,0,0,48.91,3V3.9a7,7,0,0,0-.91,0H46.58Z"/><path class="cls-2" d="M50.71,4.49a1,1,0,0,0,.19.59,1.18,1.18,0,0,0,1,.39c.66,0,1.06-.3,1.06-.8a.66.66,0,0,0-.33-.61,4.27,4.27,0,0,0-1.16-.33,2.37,2.37,0,0,1-1-.4,1.32,1.32,0,0,1-.51-1.08c0-.92.74-1.52,1.88-1.52a2,2,0,0,1,1.66.67,1.76,1.76,0,0,1,.33.77l-.95.11a.89.89,0,0,0-.2-.47,1.06,1.06,0,0,0-.84-.32c-.57,0-1,.29-1,.73a.63.63,0,0,0,.46.6,5.88,5.88,0,0,0,.93.24,2.81,2.81,0,0,1,1.09.41,1.3,1.3,0,0,1,.55,1.14,1.56,1.56,0,0,1-.42,1.13,2.2,2.2,0,0,1-1.59.51,2.66,2.66,0,0,1-1.39-.35,1.56,1.56,0,0,1-.59-.76,2.22,2.22,0,0,1-.13-.55Z"/><path class="cls-2" d="M61.54,1.93a1.38,1.38,0,0,0-.16.4A6.55,6.55,0,0,1,60,4.84a6.69,6.69,0,0,1-2.37,1.69,2.12,2.12,0,0,0-.56-.7,5.39,5.39,0,0,0,3.4-3.59l-2,0A6.68,6.68,0,0,1,57,4a1.75,1.75,0,0,0-.65-.57A5.33,5.33,0,0,0,58,1.48a2.67,2.67,0,0,0,.33-.89l.92.19a.64.64,0,0,0-.12.2q-.07.18-.18.39l0,.09-.06.1.32,0,1.46,0H61a4.27,4.27,0,0,0-.48-.83L61,.51a4.33,4.33,0,0,1,.59,1.06l-.28.1ZM62,1.45a4.84,4.84,0,0,0-.58-1l.48-.16a3.82,3.82,0,0,1,.59,1Z"/><path class="cls-2" d="M65,.91c0,.18,0,.18-.06,1.49a6.38,6.38,0,0,1-.54,2.73,4.25,4.25,0,0,1-.92,1.23,2.57,2.57,0,0,0-.67-.65A2.56,2.56,0,0,0,63.46,5c.48-.77.64-1.62.64-3.48a3,3,0,0,0,0-.61ZM66.74.83a3.17,3.17,0,0,0,0,.63l0,3.78a2.64,2.64,0,0,0,1-.76,3.3,3.3,0,0,0,.66-1.21,2.61,2.61,0,0,0,.62.62,4.06,4.06,0,0,1-1.06,1.55,4.26,4.26,0,0,1-1.41.8,2.35,2.35,0,0,0-.29.12l-.42-.45a3.72,3.72,0,0,0,.06-.71l0-3.75v-.2a2.94,2.94,0,0,0,0-.44Z"/><path class="cls-2" d="M69.64,3.05a6.79,6.79,0,0,0,1.08,0h3.54a6.79,6.79,0,0,0,1.08,0V4a8.09,8.09,0,0,0-1.08,0H70.72a8.09,8.09,0,0,0-1.08,0Z"/><path class="cls-2" d="M80.45,1.23a3.38,3.38,0,0,0,.39,0A.77.77,0,0,1,81.6.44a.78.78,0,0,1,.78.77A.78.78,0,0,1,81.6,2l-.12,0a6,6,0,0,1-3.82,4.41,2.56,2.56,0,0,0-.58-.79A4.83,4.83,0,0,0,80.55,2H77.38a5.2,5.2,0,0,0-.84,0V1.18a4.48,4.48,0,0,0,.85.05Zm.72,0a.44.44,0,0,0,.87,0,.44.44,0,1,0-.87,0Z"/><path class="cls-2" d="M217.59,12h1.21A9.43,9.43,0,0,0,220,12v1.56a10.07,10.07,0,0,0-1.2-.06H218a6.9,6.9,0,0,0,1,1.3,6.31,6.31,0,0,0,1.25.9,8,8,0,0,0-.77,1.61,6.73,6.73,0,0,1-2-2.37c0,.33,0,.65,0,.91v.73a11.77,11.77,0,0,0,.06,1.29H216a12,12,0,0,0,.06-1.29V15.9c0-.27,0-.58,0-1A6.69,6.69,0,0,1,214,17.22a7.09,7.09,0,0,0-.83-1.38v.65a12,12,0,0,0,.06,1.32H211.6a11.94,11.94,0,0,0,.07-1.32V15.12c0-.23,0-.63,0-1a5.51,5.51,0,0,1-.8,1.65,8.48,8.48,0,0,0-.5-1.74,6.92,6.92,0,0,0,1.15-2.71h-.23a2.94,2.94,0,0,0-.66.05V9.86a2.89,2.89,0,0,0,.66.05h.34V9.25a7,7,0,0,0-.07-1.06h1.63a7.29,7.29,0,0,0-.06,1.06v.66h.18a2.17,2.17,0,0,0,.47,0v.72a6.24,6.24,0,0,0,.56-2.15l1.42.36c0,.13-.07.25-.15.6,0,.07,0,.08-.06.26h.5V9.23a7.32,7.32,0,0,0-.06-1h1.63a7.12,7.12,0,0,0-.06,1v.43h.93a9.5,9.5,0,0,0,1.2-.06v1.56a10.49,10.49,0,0,0-1.21-.06h-.92Zm-4.43,3.78a6.31,6.31,0,0,0,1.34-1,6.14,6.14,0,0,0,1.07-1.36h-.34a7.63,7.63,0,0,0-1.2.07V13a12.31,12.31,0,0,0-.44,1.22,3.14,3.14,0,0,1-.45-.85c0,.27,0,.66,0,1Zm.87-3.85a3.71,3.71,0,0,0,.53.06,5.65,5.65,0,0,0-.75-.64h0a2,2,0,0,0-.44,0h-.18a3.92,3.92,0,0,0,.84,1.35Zm1.1-.84a5.56,5.56,0,0,1-.42.9h1.37V11.1Z"/><path class="cls-2" d="M222.32,13.53c-.37,0-.81,0-1.13,0V12.1a11.39,11.39,0,0,0,1.17.05h2.31a10.74,10.74,0,0,0,1.14-.05v1.47c-.31,0-.75,0-1.13,0h-.4v1.89c.64-.11,1-.19,1.91-.4v1.45c-1.91.44-2.89.63-4.42.85a5.14,5.14,0,0,0-.71.13l-.22-1.61a14.58,14.58,0,0,0,1.91-.18V13.53Zm6.85-3.79a6,6,0,0,0,1-.05v1.55a11.56,11.56,0,0,0-1.33-.06h-1.18a12.56,12.56,0,0,0,.5,3.14,4.56,4.56,0,0,0,.72,1.45,5.93,5.93,0,0,0,.29-1.49,5.6,5.6,0,0,0,1.26.75,5.41,5.41,0,0,1-.58,2.11,1,1,0,0,1-.87.57c-.59,0-1.27-.59-1.79-1.58a12.17,12.17,0,0,1-1.1-4.95h-3.89c-.48,0-.88,0-1.33.06V9.68a11.68,11.68,0,0,0,1.33.06H226A11.25,11.25,0,0,0,226,8.3h1.68a3.78,3.78,0,0,0,0,.6c0,.09,0,.31,0,.84h.94a5.27,5.27,0,0,0-.77-.88l1.16-.59a8.46,8.46,0,0,1,.92,1.06l-.8.41Z"/><path class="cls-2" d="M212.57,22.08a8.24,8.24,0,0,1-1.43.69,6.39,6.39,0,0,0-.76-1.5,7.7,7.7,0,0,0,2.35-1.12,6,6,0,0,0,1.72-1.66h1.65a6,6,0,0,0,1.73,1.58,9,9,0,0,0,2.44,1.13,6.54,6.54,0,0,0-.71,1.61,8.93,8.93,0,0,1-1.53-.74v.58a8.93,8.93,0,0,0-1,0h-3.52c-.34,0-.67,0-1,0Zm-.45,2.54a8.81,8.81,0,0,0-1.25.07V23.12c.36,0,.77.05,1.25.05h6.41c.49,0,.87,0,1.24-.05v1.57a8.75,8.75,0,0,0-1.24-.07h-1a23.87,23.87,0,0,1,2.16,2.64l-1.41.87c-.24-.37-.24-.37-.48-.76-1.19.14-1.19.14-1.75.19s-3.43.3-3.86.32-.65.07-.9.11l-.2-1.71c.27,0,.45,0,.68,0l.71,0a11.11,11.11,0,0,0,.89-1.67Zm4.61-3.39a7.71,7.71,0,0,1-1.43-1.36,7,7,0,0,1-1.44,1.36Zm-1.57,3.39a11.42,11.42,0,0,1-.89,1.62c1.49-.06,1.49-.06,2.56-.15-.29-.35-.43-.52-.87-1l1.2-.48Z"/><path class="cls-2" d="M223.7,26.94a10.44,10.44,0,0,0,0,1.09H222.1a7.83,7.83,0,0,0,.07-1.13V24.83a7.32,7.32,0,0,1-.91.64,5.83,5.83,0,0,0-.66-1.53,6.16,6.16,0,0,0,1.6-1.17,4.48,4.48,0,0,0,1.06-1.42h-1.44a7,7,0,0,0-.89,0V19.88a5.45,5.45,0,0,0,.79,0h.46v-.75a3.9,3.9,0,0,0-.07-.78h1.63a4.49,4.49,0,0,0-.05.79v.74H224a3.86,3.86,0,0,0,.6,0l.66.71a3.05,3.05,0,0,0-.23.48,9.11,9.11,0,0,1-.92,1.66A5.07,5.07,0,0,0,225.7,24a6.82,6.82,0,0,0-.76,1.46,4.7,4.7,0,0,1-1.24-1.05Zm4.51-.71H229a11.05,11.05,0,0,0,1.25-.05v1.6c-.43,0-.84-.06-1.24-.06h-3.32a11.71,11.71,0,0,0-1.19.06v-1.6a11,11,0,0,0,1.22.05h.85V22.49h-.53c-.35,0-.68,0-1,.05V21a5.49,5.49,0,0,0,1,.06h.53V19.63a9.17,9.17,0,0,0-.07-1.21h1.75a8.55,8.55,0,0,0-.06,1.21V21h.8a5.48,5.48,0,0,0,1-.06v1.59c-.33,0-.65-.05-1-.05h-.8Z"/><path class="cls-2" d="M45.28,24.68a22.06,22.06,0,0,0,.12,2.72H42.06a22.24,22.24,0,0,0,.12-2.8V10.81c0-1.14,0-1.7-.08-2.37a16.4,16.4,0,0,0,2.1.09h4.38a15.05,15.05,0,0,0,2.12-.09c-.05.63-.07,1.08-.07,1.89V13.7c0,1,0,1.45,0,1.8-.63,0-1.13,0-1.71,0H45.28Zm0-13.43h2.49v-.71H45.28Zm0,2.28h2.49v-.7H45.28Zm7.85,9.06A7.29,7.29,0,0,0,56,23.73a3.92,3.92,0,0,0-.29.58,4.4,4.4,0,0,0,.62,0c.79,0,.88,0,.88-.5V15.48H53.31c-.58,0-1.1,0-1.7,0,0-.47,0-.85,0-1.82V10.33c0-.72,0-1.31-.06-1.89a16,16,0,0,0,2.12.09h4.55a16.32,16.32,0,0,0,2.09-.09c-.06.73-.08,1.25-.08,2.35V24.33c0,2.51-.58,3-3.68,3l-.89,0a11,11,0,0,0-.39-2.14,13.24,13.24,0,0,0-.48,1.43,9.21,9.21,0,0,1-3.61-2.36,7.48,7.48,0,0,1-4.28,2.84,8.13,8.13,0,0,0-1.56-2.53,7.28,7.28,0,0,0,2.24-.75A3.73,3.73,0,0,0,49,22.59H47.64a15.91,15.91,0,0,0-1.72.1V20.2a10.13,10.13,0,0,0,1.5.08h2.16c0-.23,0-.23,0-.73H47.46a8.24,8.24,0,0,0-1.23.07V17.23a8.37,8.37,0,0,0,1.14.06h.36A8.81,8.81,0,0,0,47,16.15l2.74-.54a12,12,0,0,1,.93,1.68h1.21a11.7,11.7,0,0,0,.66-1.64l2.85.46a9.87,9.87,0,0,1-.65,1.18H55a9.61,9.61,0,0,0,1.2-.06v2.39a8,8,0,0,0-1.2-.07H52.46c0,.34,0,.44,0,.73H55a9.16,9.16,0,0,0,1.49-.08v2.47A11.28,11.28,0,0,0,55,22.59Zm1.43-11.34h2.62v-.71H54.56Zm0,2.28h2.62v-.7H54.56Z"/><path class="cls-2" d="M65,12.35c-.94,0-1.71,0-2.56.1v-3a26.82,26.82,0,0,0,2.8.12h5.09A12.48,12.48,0,0,0,70.22,8h3.45a10.51,10.51,0,0,0-.13,1.53h5.21A25.92,25.92,0,0,0,81.6,9.4v3c-.83-.06-1.66-.1-2.6-.1H73.54v.79h4.22A18.31,18.31,0,0,0,80,13.07c-.06.75-.08,1.37-.08,2v4.24a18.18,18.18,0,0,0,.08,2,21.43,21.43,0,0,0-2.24-.08H75.93a13.1,13.1,0,0,0,6.29,2.8,19.31,19.31,0,0,0-1.58,3.12,17,17,0,0,1-7.14-4.39c0,.59,0,.94,0,1.31V25a16.23,16.23,0,0,0,.15,2.43H70.2A21.36,21.36,0,0,0,70.34,25v-.87c0-.08,0-.5.06-1.27a15.89,15.89,0,0,1-6.87,4.39,14.61,14.61,0,0,0-1.58-3A14.47,14.47,0,0,0,68,21.28H66.33a16.6,16.6,0,0,0-2.26.08c0-.21,0-.21.06-.73,0-.1,0-.1,0-1.3V15.09c0-.91,0-1.29-.08-2a16.74,16.74,0,0,0,2.24.09h4v-.79Zm2.26,3.05v.77h3.07V15.4Zm0,2.87v.79h3.07v-.79Zm6.27-2.1H76.8V15.4H73.54Zm0,2.89H76.8v-.79H73.54Z"/><path class="cls-2" d="M85.23,21.05a15.09,15.09,0,0,1-1.43,1.2,12.7,12.7,0,0,0-1.2-3.34,12.51,12.51,0,0,0,2.78-2.45A9.59,9.59,0,0,0,87,13.82H84.9a12,12,0,0,0-1.72.09V10.85a10.36,10.36,0,0,0,1.53.09h.5V9.48a12.86,12.86,0,0,0-.1-1.58h3.26a12.84,12.84,0,0,0-.11,1.6v1.44a5.17,5.17,0,0,0,1.06-.07l1.37,1.77c-.14.29-.16.35-.49,1.14A19.39,19.39,0,0,1,88.56,17a7.8,7.8,0,0,0,1.64,1.43c0-.41,0-.48-.07-.81.69.06,1.17.08,2.18.08h7.52a20.52,20.52,0,0,0,2.22-.08c-.06.73-.08,1.25-.08,2.31v5.33a14.08,14.08,0,0,0,.11,2.21H98.9v-.71H93.19v.68H90.11a14.16,14.16,0,0,0,.11-2.2V19.08a8.39,8.39,0,0,0-1,2.36,13.72,13.72,0,0,1-1-1V25.2a17.11,17.11,0,0,0,.11,2.29H85.13c.06-.71.1-1.54.1-2.35ZM90,8.36c.72.06,1.47.1,2.47.1H100a18,18,0,0,0,2.39-.1v2.87a12.47,12.47,0,0,0-2-.11H92a12.33,12.33,0,0,0-2,.11Zm1,4.8a10.42,10.42,0,0,0-.08-1.46c.62.05,1.16.07,2.1.07h6.5c.85,0,1.35,0,2-.07a9.76,9.76,0,0,0-.08,1.44v2.45a10,10,0,0,0,.08,1.45c-.58,0-1.1-.06-2.06-.06H92.9c-.92,0-1.5,0-2.08.06a10.06,10.06,0,0,0,.08-1.43Zm2.33,7.91H94.7v-1H93.23Zm0,3.18H94.7v-1H93.23Zm.6-9.39h4.4V14h-4.4Zm3.61,6.21h1.48v-1H97.44Zm0,3.18h1.48v-1H97.44Z"/><path class="cls-2" d="M109.51,24.85c0,1,0,1.91.1,2.64h-3.28a22.94,22.94,0,0,0,.13-2.64V20.72a21.69,21.69,0,0,1-1.83,1.45,12.9,12.9,0,0,0-1.14-3.32,14.27,14.27,0,0,0,2.78-2.22,10.78,10.78,0,0,0,2-2.85h-2.36a16.3,16.3,0,0,0-1.81.1v-3a12,12,0,0,0,1.62.09h.75V9.5a11.69,11.69,0,0,0-.11-1.56h3.24a9.08,9.08,0,0,0-.1,1.6v1.4h.21a7.08,7.08,0,0,0,1.2-.07l1.37,1.37a7.19,7.19,0,0,0-.48,1,18.28,18.28,0,0,1-1.66,3.16,10.55,10.55,0,0,0,2.08,1.95V14.3a7.28,7.28,0,0,0-.1-1.37h3.26a18.25,18.25,0,0,0-.11,2.51V24h1.25V11a20.44,20.44,0,0,0-.13-2.78h3.35a17.81,17.81,0,0,0-.13,2.78v3.22h1.27a12.44,12.44,0,0,0,2.06-.11v3.18a14.42,14.42,0,0,0-2.06-.1h-1.27V24h1.58a15.73,15.73,0,0,0,2.16-.1v3.13c-.85-.08-1.87-.12-2.8-.12h-7.42c-1,0-2,0-2.82.12V24A13.12,13.12,0,0,0,112,24h.21V19.12a15.55,15.55,0,0,0-1.1,2.28,10.18,10.18,0,0,1-1.62-1.62Z"/><path class="cls-2" d="M136.55,12.43V11.06a16,16,0,0,0-.1-2.33h3.73a27.46,27.46,0,0,0-.1,3.7h.81a18.93,18.93,0,0,0,3-.14v3.55a27.61,27.61,0,0,0-2.93-.11H140a28.29,28.29,0,0,1-.15,2.89,8.88,8.88,0,0,1-3.07,6.27,12.52,12.52,0,0,1-4.3,2.35,10.08,10.08,0,0,0-2.26-3.18,10.86,10.86,0,0,0,4-1.83c1.42-1.12,2-2.47,2.19-4.79,0-.38,0-.52,0-1.71H132.1v2.33a18.81,18.81,0,0,0,.09,2.14h-3.8a16,16,0,0,0,.12-2.18V15.73h-.77a23.12,23.12,0,0,0-2.92.11V12.29a18.93,18.93,0,0,0,3,.14h.7V10.91a14.57,14.57,0,0,0-.12-2.2h3.8a13.86,13.86,0,0,0-.09,2.12v1.6Z"/><path class="cls-2" d="M145.92,15.67a28.47,28.47,0,0,0,4.25.19h9.93a33.11,33.11,0,0,0,4.26-.19v4a38.05,38.05,0,0,0-4.28-.13h-9.89a41.34,41.34,0,0,0-4.27.13Z"/><path class="cls-2" d="M183.38,14.44c-.5.25-.54.28-1,.5a37,37,0,0,1-9.88,3.22v2.33a5.1,5.1,0,0,0,.08,1.6c.12.39.39.56,1,.64a18.74,18.74,0,0,0,2.2.13c1.18,0,2.8-.09,4-.21a18.16,18.16,0,0,0,3.57-.67l.14,3.85c-.49,0-1.1,0-2.13.14-2.08.19-4.41.31-6.07.31-2.84,0-4.28-.25-5.23-.91a3,3,0,0,1-1.16-2.24,15,15,0,0,1-.09-2.21v-9a21.93,21.93,0,0,0-.12-2.76h3.88a16.93,16.93,0,0,0-.12,2.78v2.81a29.16,29.16,0,0,0,7.91-3A12.88,12.88,0,0,0,179,9.23l2-.66a13.85,13.85,0,0,1,1.73,3.18l-1,.37Zm.54-6.81a15.14,15.14,0,0,1,1.72,3.1l-2,.72A16.39,16.39,0,0,0,182,8.28Z"/><path class="cls-2" d="M203.27,26.91a32.65,32.65,0,0,0-6-5.9,22.58,22.58,0,0,1-7.64,5.69,10.66,10.66,0,0,0-2.32-3.28,19.53,19.53,0,0,0,6.72-4.2,16.73,16.73,0,0,0,4.18-6.1l-5.4.08a23.32,23.32,0,0,0-3.3.21l-.11-3.7a16,16,0,0,0,2.18.15c.17,0,.56,0,1.17,0l7.1-.1a3.74,3.74,0,0,0,1.66-.23l1.83,1.87a3.26,3.26,0,0,0-.75,1.23,24.48,24.48,0,0,1-3,5.6,49.54,49.54,0,0,1,6.6,5.63Z"/><path class="cls-2" d="M41.22,33.14c0-.17,0-.3,0-.75a4.85,4.85,0,0,1-.52.71,3.1,3.1,0,0,0-.3-.81,5.36,5.36,0,0,0,1.1-1.75,4.12,4.12,0,0,0,.25-.86l.77.19A11.68,11.68,0,0,1,42,31.32v3.74a6.29,6.29,0,0,0,0,.77h-.82a4.58,4.58,0,0,0,0-.78ZM44.62,31a7.07,7.07,0,0,0-1.31-.84l.51-.49a7.63,7.63,0,0,1,1.39.83l-.49.5h1a5.82,5.82,0,0,0,.79,0v.74c-.23,0-.49,0-.77,0h-1v1.16h.83a5.16,5.16,0,0,0,.73,0v.73c-.21,0-.45,0-.73,0h-.83v1.4h1.15c.3,0,.57,0,.79,0v.74c-.24,0-.46,0-.8,0H43c-.33,0-.55,0-.79,0v-.74c.21,0,.48,0,.76,0H44v-1.4h-.71c-.28,0-.51,0-.73,0v-.73a5.16,5.16,0,0,0,.73,0H44V31.7h-.87c-.28,0-.53,0-.76,0V31a4.94,4.94,0,0,0,.75,0Z"/><path class="cls-2" d="M55.92,32.43c-.81.14-.81.14-1.62.24A2.79,2.79,0,0,0,54,32a17.81,17.81,0,0,0,2.72-.38,5,5,0,0,0,1.43-.48l.62.59a5.06,5.06,0,0,0-.51.14,15,15,0,0,1-1.59.43V33l2.27-.25a4.87,4.87,0,0,0,.72-.12l.07.75H59.6l-.61,0-2.33.25v1.1c0,.17,0,.21.18.25a6.43,6.43,0,0,0,.81,0,2.35,2.35,0,0,0,1.09-.13c.12-.09.15-.25.18-.89a2,2,0,0,0,.73.27,2.21,2.21,0,0,1-.16.85.73.73,0,0,1-.59.49,6,6,0,0,1-1.35.08c-1.4,0-1.63-.1-1.63-.75V33.75l-1.44.16a4.11,4.11,0,0,0-.73.12l-.07-.75h.13l.6,0,1.51-.16Zm.34-2.32a1.64,1.64,0,0,0,0-.38H57a1.64,1.64,0,0,0,0,.38v.22h1.84a7,7,0,0,0,.73,0,3.26,3.26,0,0,0,0,.49v.51a3.94,3.94,0,0,0,0,.51h-.72V31h-4.3v.81h-.73a2.69,2.69,0,0,0,0-.52v-.5a3.55,3.55,0,0,0,0-.49,7,7,0,0,0,.73,0h1.7Z"/><path class="cls-2" d="M67.52,30.59a5,5,0,0,0-.61,0V29.9c.21,0,.42,0,.71,0h1.79a4.4,4.4,0,0,0,.71,0v.71a4,4,0,0,0-.56,0v.66h0a5.21,5.21,0,0,0,.65,0v.72a5.41,5.41,0,0,0-.63,0h-.06v.64c0,.24,0,.34,0,.53h.54a2.26,2.26,0,0,0,0,.42v.2h1.33a4.88,4.88,0,0,0,.78,0v.73a7,7,0,0,0-.77,0H70.08V35H72a6.7,6.7,0,0,0,.77,0v.75a6.28,6.28,0,0,0-.83,0H67.6a6,6,0,0,0-.81,0v-.75a6.79,6.79,0,0,0,.76,0h1.79v-.61H68.09a7.59,7.59,0,0,0-.76,0v-.72a5.43,5.43,0,0,0,.68,0h1.33v-.2a1.86,1.86,0,0,0,0-.22h-.51a4.92,4.92,0,0,0,0-.72v-.65h-.65a2.49,2.49,0,0,1-.24.84,2.25,2.25,0,0,1-.71.84,2.74,2.74,0,0,0-.53-.55,1.56,1.56,0,0,0,.76-1.13h-.1a3.69,3.69,0,0,0-.63,0v-.73a5.79,5.79,0,0,0,.65,0h.15v-.66Zm.75,0v.2c0,.17,0,.32,0,.46h.6v-.66Zm2.18,1.84a3.59,3.59,0,0,0,0-.53V30.6a3.9,3.9,0,0,0,0-.55h.76a3.63,3.63,0,0,0,0,.51V32c0,.22,0,.36,0,.48Zm2.09.22c0,.57-.18.7-1,.7l-.55,0a2,2,0,0,0-.2-.72,5.08,5.08,0,0,0,.71.06c.25,0,.27,0,.27-.15V30.33a4.34,4.34,0,0,0,0-.57h.79a4.47,4.47,0,0,0,0,.62Z"/><path class="cls-2" d="M81.08,32.84a6.31,6.31,0,0,1-1,.83,2,2,0,0,0-.45-.64,6.12,6.12,0,0,0,1.11-.91,4.27,4.27,0,0,0,.79-1h-.93a5.82,5.82,0,0,0-.79,0v-.74a5.91,5.91,0,0,0,.79,0h1.25a2.49,2.49,0,0,0,.19-.72l.83.1a2.46,2.46,0,0,0-.14.37c0,.08,0,.11-.1.25h2.38a5.59,5.59,0,0,0,.77,0v.74a5.69,5.69,0,0,0-.77,0H82.38c-.12.22-.2.35-.33.56h2.27a6,6,0,0,0,.69,0c0,.2,0,.42,0,.76v2.77a.54.54,0,0,1-.26.53,1.61,1.61,0,0,1-.77.11l-.61,0a2.25,2.25,0,0,0-.18-.7,5.38,5.38,0,0,0,.77.06c.3,0,.34,0,.34-.18v-.51H81.79V35c0,.36,0,.59,0,.83H81a6.74,6.74,0,0,0,0-.84Zm3.2-.57H81.79v.49h2.49Zm-2.49,1.08v.49h2.49v-.49Z"/><path class="cls-2" d="M95.43,34.05c0,.08,0,.12-.07.22a5.11,5.11,0,0,1-.67-.93c0,.45,0,.54,0,.75v1.1a4.25,4.25,0,0,0,0,.69H94a4.58,4.58,0,0,0,0-.7v-.86c0-.27,0-.58,0-.8a4.78,4.78,0,0,1-.86,1.5,1.94,1.94,0,0,0-.34-.69,4.44,4.44,0,0,0,.72-1,6.32,6.32,0,0,0,.35-.75h-.35a4.27,4.27,0,0,0-.59,0v-.7a4.07,4.07,0,0,0,.59,0H94V30.39a5.1,5.1,0,0,0,0-.65h.75a4.92,4.92,0,0,0,0,.64V32H95a3.13,3.13,0,0,0,.51,0v.7a3.74,3.74,0,0,0-.52,0h-.24a3.37,3.37,0,0,0,.86,1,3.36,3.36,0,0,0-.19.38,4.49,4.49,0,0,0,.61-.1l1.56-.34v-3a5,5,0,0,0,0-.77h.8a5.15,5.15,0,0,0,0,.77v2.88a4.54,4.54,0,0,0,.57-.17l.14.76a4.29,4.29,0,0,0-.64.12h-.07v1a5.37,5.37,0,0,0,0,.79h-.8a5.28,5.28,0,0,0,0-.79v-.81l-1.41.32c-.29.07-.49.12-.63.17ZM93.52,30.1a7.9,7.9,0,0,1,.4,1.44l-.56.23A5,5,0,0,0,93,30.35Zm2.27.23a7.81,7.81,0,0,1-.53,1.44l-.48-.25a5.86,5.86,0,0,0,.46-1.43Zm.34,1.51a6.12,6.12,0,0,1,1.15,1l-.45.54a6,6,0,0,0-1.17-1Zm.2-1.66a6,6,0,0,1,1.16,1l-.45.55a5.64,5.64,0,0,0-1.17-1Z"/><path class="cls-2" d="M106.82,32.51c-.35,0-.57,0-.8,0v-.74a6.9,6.9,0,0,0,.8,0h1.49v-.67h-1c-.35,0-.57,0-.76,0v-.73a5,5,0,0,0,.77,0h1v-.19a3,3,0,0,0,0-.58h.82a3.07,3.07,0,0,0,0,.59v.18h.58a4.73,4.73,0,0,0,.73,0V31a4,4,0,0,0,.67-.93l.71.41a1.51,1.51,0,0,0-.19.22,11.38,11.38,0,0,1-1.08,1.16h.73a6.58,6.58,0,0,0,.75,0v.74c-.23,0-.46,0-.79,0H109.7a14.43,14.43,0,0,1-1.4,1v.29a10.51,10.51,0,0,0,1.77-.55,3.63,3.63,0,0,0,.65-.31l.56.61-.13,0-.22.09-1.18.41c-.51.15-.69.2-1.45.37v.38c0,.22.12.25,1.32.25.69,0,1,0,1.07-.14s.12-.3.14-.88a2.29,2.29,0,0,0,.73.27c-.07.84-.15,1.1-.39,1.25s-.64.19-1.92.19c-1.47,0-1.69-.09-1.69-.72V33.89c-.46.22-.74.35-1.25.56a2.38,2.38,0,0,0-.44-.66,10.9,10.9,0,0,0,2.68-1.28Zm2.63-.66a8.43,8.43,0,0,0,.72-.66h-1.12v.67Z"/><path class="cls-2" d="M122.46,29.82a5.5,5.5,0,0,0,0,.68,4.78,4.78,0,0,0,.65,2.62,4.58,4.58,0,0,0,1.05,1.26,4.78,4.78,0,0,0,1,.72,2.32,2.32,0,0,0-.52.73,6.44,6.44,0,0,1-1.69-1.56,5.23,5.23,0,0,1-.88-1.82,4.9,4.9,0,0,1-.52,1.34,4.64,4.64,0,0,1-1,1.28,5.61,5.61,0,0,1-1,.76,2.09,2.09,0,0,0-.52-.68A4.42,4.42,0,0,0,120.42,34a5.14,5.14,0,0,0,1.21-3.67,4.28,4.28,0,0,0,0-.55Z"/><path class="cls-2" d="M134,32.39a1.43,1.43,0,0,0-.05.2,7.06,7.06,0,0,1-1.12,2.58,3.31,3.31,0,0,0-.77-.43A4.67,4.67,0,0,0,133,33a3,3,0,0,0,.19-.82Zm.67-1.8a3.89,3.89,0,0,0,0-.68h.9a5.16,5.16,0,0,0,0,.7V31H137a4.82,4.82,0,0,0,.86,0v.81c-.23,0-.41,0-.84,0h-1.54v3.22a7.34,7.34,0,0,0,0,.75h-.9a5,5,0,0,0,0-.75V31.7h-1.47a8.28,8.28,0,0,0-.84,0v-.81a4.75,4.75,0,0,0,.85,0h1.46ZM137,32.18a4.51,4.51,0,0,0,.23.74,6.35,6.35,0,0,0,.94,1.79,5.35,5.35,0,0,0-.76.47,9,9,0,0,1-1.09-2.49,1.51,1.51,0,0,0-.11-.31Z"/><path class="cls-2" d="M145.34,32.3a6.47,6.47,0,0,0,1.08.05H150A6.47,6.47,0,0,0,151,32.3v.92a8.19,8.19,0,0,0-1.09,0h-3.52a8.19,8.19,0,0,0-1.09,0Z"/><path class="cls-2" d="M161.51,30.11a1.85,1.85,0,0,0-.18.48A39.29,39.29,0,0,1,160,34.37a26.14,26.14,0,0,0,2.76-.34c-.07-.16-.15-.3-.31-.6a8,8,0,0,0-.63-1.06l.75-.29a15.52,15.52,0,0,1,1.61,3.08l-.81.41a5.07,5.07,0,0,0-.32-.82l-.24,0c-.67.14-1.77.28-3.76.48a2.69,2.69,0,0,0-.6.08l-.12-.9h.17l.57,0c.36-.84.62-1.59,1-2.68a10.07,10.07,0,0,0,.48-1.84Z"/><path class="cls-2" d="M173.86,29.85a11.83,11.83,0,0,0,.44,2.08c.43-.16.43-.16,1.72-.59l.25-.1.29.84a16.43,16.43,0,0,0-2.2.64c-1,.36-1.45.78-1.45,1.26s.45.69,1.52.69a7.42,7.42,0,0,0,2.15-.27l.07.91a4.38,4.38,0,0,0-.54,0,14.9,14.9,0,0,1-1.55.1,3.75,3.75,0,0,1-1.93-.37,1.27,1.27,0,0,1-.58-1.11,1.6,1.6,0,0,1,.59-1.19,4.23,4.23,0,0,1,.91-.57,16.71,16.71,0,0,1-.45-1.8A2.71,2.71,0,0,0,173,30Z"/><path class="cls-2" d="M184.34,32.23a2.51,2.51,0,0,0,.51,0h.46a2.64,2.64,0,0,0,.51,0,6.65,6.65,0,0,0,0,.73v1.42a1,1,0,0,0,.32.37,1,1,0,0,0,.34.17,5.3,5.3,0,0,0,1.32.12,19.16,19.16,0,0,0,2.78-.17,4.56,4.56,0,0,0-.2.79c-.87,0-1.54.05-2.65.05a5.23,5.23,0,0,1-1.5-.16,1.59,1.59,0,0,1-.77-.57l-.11.1a5.71,5.71,0,0,1-.73.65l-.36-.73a4,4,0,0,0,.87-.64V32.94h-.33a2,2,0,0,0-.43,0Zm.51-2.43A8,8,0,0,1,186,31l-.55.54a6.42,6.42,0,0,0-1.13-1.24Zm2.67,1.35a4.4,4.4,0,0,0-.55-.35l.51-.29h-.63a4.52,4.52,0,0,0-.69,0v-.68a5.37,5.37,0,0,0,.79,0h2.15a2.88,2.88,0,0,0,.75,0l.34.42a2.13,2.13,0,0,0-.33.25,8.2,8.2,0,0,1-.86.63h.54a5.25,5.25,0,0,0,.67,0,7.67,7.67,0,0,0,0,.77v2c0,.38,0,.52-.12.61s-.29.16-.7.16h-.3a1.72,1.72,0,0,0-.15-.63,2.73,2.73,0,0,0,.44,0c.14,0,.15,0,.15-.19v-.26h-1v.28a4.55,4.55,0,0,0,0,.74h-.74a4.63,4.63,0,0,0,0-.74v-.28H187V34a3.17,3.17,0,0,0,0,.73h-.75a6.53,6.53,0,0,0,0-.73v-2.1a7.37,7.37,0,0,0,0-.77,7.2,7.2,0,0,0,.75,0Zm-.56.56v.44h.89v-.44Zm0,1.41h.89v-.44H187Zm.58-2.61.69.49a5.62,5.62,0,0,0,.66-.49Zm1,1.64h1v-.44h-1Zm1,.53h-1v.44h1Z"/><path class="cls-2" d="M200.27,32.94c0,.29,0,.36,0,.53h-1.75a4.61,4.61,0,0,1-.59,2.36,2,2,0,0,0-.59-.52c.41-.71.52-1.39.52-3.18,0-.44,0-.68,0-.92l.7,0h1.08l.67,0c0,.14,0,.34,0,.59ZM197.59,30a6.24,6.24,0,0,0,.71,0h1.44a5.64,5.64,0,0,0,.72,0v.74a5.51,5.51,0,0,0-.69,0h-1.51a5.82,5.82,0,0,0-.67,0Zm2,2.83v-1h-1v.48c0,.25,0,.31,0,.5Zm1.82-.37a5.83,5.83,0,0,1-.29,1.81,3.52,3.52,0,0,1-.58,1.08,4.93,4.93,0,0,1-.42.49,2.39,2.39,0,0,0-.55-.55,3,3,0,0,0,.94-1.47,9.21,9.21,0,0,0,.21-2.45c0-.63,0-.83,0-1.05a6.34,6.34,0,0,0,2.48-.56l.37.68a2.26,2.26,0,0,0-.3.08,10.61,10.61,0,0,1-1.82.41v.83h1.51a3.8,3.8,0,0,0,.65,0v.77a3.45,3.45,0,0,0-.59,0h-.1v2.63a4.37,4.37,0,0,0,0,.71h-.78a4.67,4.67,0,0,0,0-.72V32.45Z"/><path class="cls-2" d="M214,29.8a3.39,3.39,0,0,0,.59.76A6.38,6.38,0,0,0,216.72,32a4.68,4.68,0,0,0-.38.78,8.67,8.67,0,0,1-1.67-1.09,5.14,5.14,0,0,1-1.13-1.24,6.34,6.34,0,0,1-1.09,1.22,7.44,7.44,0,0,1-1.63,1.11,2.7,2.7,0,0,0-.4-.74,5.69,5.69,0,0,0,1.6-1,4.77,4.77,0,0,0,1.06-1.25Zm-1,2.27a3.63,3.63,0,0,0,0,.55,4,4,0,0,1-.41,2,3,3,0,0,1-1.35,1.26,2.62,2.62,0,0,0-.55-.67,2.78,2.78,0,0,0,.83-.5c.54-.47.7-1,.7-2.18a2.74,2.74,0,0,0,0-.48Zm2.1,0a4.9,4.9,0,0,0,0,.73V35a6.56,6.56,0,0,0,0,.79h-.85a6.35,6.35,0,0,0,0-.78V32.8a5.35,5.35,0,0,0,0-.73Z"/><path class="cls-2" d="M223.58,30.8a3.85,3.85,0,0,0,.54,0h1.09a3.48,3.48,0,0,0,.54,0v.68c-.14,0-.22,0-.51,0h-1.12a4,4,0,0,0-.54,0Zm5.76,3.42a5.74,5.74,0,0,1-1,.82,7.88,7.88,0,0,0,1.48.18,2.28,2.28,0,0,0-.23.65,6.5,6.5,0,0,1-1.95-.46,7.67,7.67,0,0,1-1.83.47,3.25,3.25,0,0,0-.16-.39h-1.21v.33h-.65c0-.2,0-.44,0-.65v-1a4.17,4.17,0,0,0,0-.52,3,3,0,0,0,.45,0h1a1.85,1.85,0,0,0,.4,0,2.65,2.65,0,0,0,0,.48v1.16a5.48,5.48,0,0,0,1.36-.21,5.61,5.61,0,0,1-.66-.49l.46-.15h-.33a4.22,4.22,0,0,0-.55,0v-.57l.55,0h2a2.93,2.93,0,0,0,.49,0Zm-1.08-1h.94a2.51,2.51,0,0,0,.45,0v.55a3.79,3.79,0,0,0-.53,0h-2.61l-.46,0a3.4,3.4,0,0,0,0-.48v-.46s0-.21,0-.33a2.43,2.43,0,0,1-.28.28,2.47,2.47,0,0,0-.24-.29,3.31,3.31,0,0,0-.4,0h-.94a2.56,2.56,0,0,0-.42,0v-.63a2.49,2.49,0,0,0,.42,0h.94a2.25,2.25,0,0,0,.41,0v.27a3.1,3.1,0,0,0,.78-1.28l.23.06v-.18h-.27a4.07,4.07,0,0,0-.5,0v-.64a4.18,4.18,0,0,0,.56,0h.21a1.77,1.77,0,0,0,0-.37h.71a1.31,1.31,0,0,0,0,.37h.89a1.52,1.52,0,0,0,0-.37h.71a1.46,1.46,0,0,0,0,.37h.35a2.78,2.78,0,0,0,.57,0v.64a4.17,4.17,0,0,0-.56,0h-.36a1.37,1.37,0,0,0,0,.33h-.35l-.1.18h.76a3,3,0,0,0,.51,0v.55a2.92,2.92,0,0,0-.49,0h-.86v.2H229a2.08,2.08,0,0,0,.42,0v.48a3.73,3.73,0,0,0-.42,0h-.74v.22H229a3.4,3.4,0,0,0,.43,0V33a3.53,3.53,0,0,0-.43,0h-.73Zm-4.46-3.31a3.75,3.75,0,0,0,.54,0h.74a3.85,3.85,0,0,0,.54,0v.64a4.19,4.19,0,0,0-.54,0h-.74a4.36,4.36,0,0,0-.54,0Zm0,2.85a2.49,2.49,0,0,0,.42,0h.94a2.25,2.25,0,0,0,.41,0v.63a2.49,2.49,0,0,0-.42,0h-.94a2.43,2.43,0,0,0-.41,0Zm.59,2.17H225V34.2h-.63Zm3.26-3.22h-1v.2h1Zm0,.64h-1v.22h1Zm-1,.65v.22h1V33Zm.33-2-.09.19h.78a1.46,1.46,0,0,0,.16-.36l.26.07a1.7,1.7,0,0,0,0-.22h-.89a2.1,2.1,0,0,0,0,.32Zm-.07,3.44a3.9,3.9,0,0,0,.71.4,3.83,3.83,0,0,0,.65-.4Z"/></g></g></svg>