<svg xmlns="http://www.w3.org/2000/svg" width="334.58" height="43.37" viewBox="0 0 334.58 43.37"><defs><style>.cls-1,.cls-7{fill:#fff;}.cls-1{stroke:#fff;stroke-width:0.93px;}.cls-2{fill:#80bee7;}.cls-3{fill:#009c5a;}.cls-4{fill:#c08400;}.cls-5{fill:#fff162;}.cls-6{fill:#00b6ec;}</style></defs><title>logo_white</title><g id="レイヤー_2" data-name="レイヤー 2"><g id="レイヤー_1-2" data-name="レイヤー 1"><path class="cls-1" d="M42.91,21.68A21.22,21.22,0,1,1,21.69.47,21.22,21.22,0,0,1,42.91,21.68Z"/><path class="cls-2" d="M42.91,21.68A21.22,21.22,0,1,1,21.69.47,21.22,21.22,0,0,1,42.91,21.68Z"/><path class="cls-3" d="M21.69,4C18.55,4,16,11.91,16,21.69S18.55,39.4,21.69,39.4s5.69-7.93,5.69-17.71S24.83,4,21.69,4Zm0,31.44c-2.69,0-4.87-6.15-4.87-13.73S19,8,21.69,8s4.87,6.14,4.87,13.73S24.38,35.42,21.69,35.42Z"/><path class="cls-4" d="M4,21.69c0,3.14,7.94,5.68,17.72,5.68S39.4,24.83,39.4,21.69,31.47,16,21.69,16,4,18.54,4,21.69Zm31.45,0c0,2.69-6.15,4.87-13.73,4.87S8,24.38,8,21.69s6.15-4.87,13.73-4.87S35.42,19,35.42,21.69Z"/><path class="cls-5" d="M9.16,9.16c-2.22,2.23,1.59,9.63,8.5,16.55S32,36.43,34.21,34.21s-1.58-9.63-8.5-16.55S11.38,6.94,9.16,9.16ZM31.4,31.4c-1.91,1.9-7.79-.91-13.15-6.27S10.08,13.88,12,12s7.79.9,13.15,6.26S33.3,29.49,31.4,31.4Z"/><path class="cls-6" d="M17.66,17.66C10.75,24.58,6.94,32,9.16,34.21s9.63-1.58,16.55-8.5,10.72-14.32,8.5-16.55S24.58,10.75,17.66,17.66Zm.59.58C23.61,12.88,29.49,10.08,31.4,12s-.91,7.79-6.27,13.15S13.88,33.3,12,31.4,12.88,23.61,18.25,18.24Z"/><path class="cls-7" d="M17.84,20.38h.8v1l.85-1h1.07l-.95,1,1,1.62h-1l-.55-1.07-.42.44V23h-.8Z"/><path class="cls-7" d="M20.88,20.38h2v.56H21.69v.46h1v.52h-1V23h-.81Z"/><path class="cls-7" d="M23.17,22.13l.76-.05a.55.55,0,0,0,.11.29.43.43,0,0,0,.35.16.37.37,0,0,0,.27-.09.23.23,0,0,0,.09-.19.26.26,0,0,0-.09-.18,1,1,0,0,0-.41-.15,1.69,1.69,0,0,1-.76-.32.63.63,0,0,1-.23-.5.68.68,0,0,1,.12-.38.82.82,0,0,1,.35-.28,1.62,1.62,0,0,1,.65-.11,1.35,1.35,0,0,1,.76.19.82.82,0,0,1,.31.59l-.76.05a.38.38,0,0,0-.13-.26.41.41,0,0,0-.27-.08.33.33,0,0,0-.21.06A.21.21,0,0,0,24,21a.14.14,0,0,0,.06.11.76.76,0,0,0,.27.1,3.64,3.64,0,0,1,.76.22.86.86,0,0,1,.33.29.77.77,0,0,1,.11.39.89.89,0,0,1-.14.47.83.83,0,0,1-.39.32,1.65,1.65,0,0,1-.63.11,1.3,1.3,0,0,1-.92-.26A1,1,0,0,1,23.17,22.13Z"/><path class="cls-7" d="M315.42,6.67h1.8A14.4,14.4,0,0,0,319,6.58V8.92a15.17,15.17,0,0,0-1.8-.1h-1.15a9.16,9.16,0,0,0,1.56,1.94,8.52,8.52,0,0,0,1.86,1.35,12.26,12.26,0,0,0-1.15,2.41,10.1,10.1,0,0,1-3-3.54c0,.48.05,1,.05,1.35v1.09a17.94,17.94,0,0,0,.09,1.94h-2.41a18.34,18.34,0,0,0,.09-1.94v-.93c0-.41,0-.87,0-1.45A10,10,0,0,1,310,14.45a9.42,9.42,0,0,0-1.23-2v1a18,18,0,0,0,.09,2h-2.41a18.41,18.41,0,0,0,.09-2V11.31c0-.33,0-.93.05-1.46a8.47,8.47,0,0,1-1.19,2.45,12.9,12.9,0,0,0-.75-2.59,10.43,10.43,0,0,0,1.72-4h-.35a4.36,4.36,0,0,0-1,.07V3.47a4.16,4.16,0,0,0,1,.08h.5v-1A10.74,10.74,0,0,0,306.46,1h2.43a10.93,10.93,0,0,0-.09,1.58v1h.27a3,3,0,0,0,.7-.07V4.55a9.17,9.17,0,0,0,.84-3.2l2.12.53c-.06.2-.1.38-.22.9a2.51,2.51,0,0,0-.1.38h.75V2.52A11.1,11.1,0,0,0,313.07,1h2.44a10.8,10.8,0,0,0-.09,1.54v.64h1.39a13.79,13.79,0,0,0,1.78-.09V5.41a15.28,15.28,0,0,0-1.8-.09h-1.37Zm-6.62,5.65a9.43,9.43,0,0,0,3.6-3.5h-.5a12.28,12.28,0,0,0-1.81.11V8.08c-.24.59-.5,1.31-.65,1.83a5,5,0,0,1-.67-1.28c0,.41,0,1,0,1.55Zm1.29-5.75a6.1,6.1,0,0,0,.8.09,7.72,7.72,0,0,0-1.12-1v0a2.71,2.71,0,0,0-.65-.06h-.28a6.35,6.35,0,0,0,1.25,2Zm1.65-1.25a10.52,10.52,0,0,1-.62,1.34h2V5.32Z"/><path class="cls-7" d="M322.48,9c-.55,0-1.21,0-1.68.06V6.81a15.11,15.11,0,0,0,1.74.08H326a14.58,14.58,0,0,0,1.7-.08V9C327.22,9,326.56,9,326,9h-.59v2.82c1-.17,1.52-.29,2.85-.6v2.17c-2.85.66-4.32.93-6.61,1.27a8.51,8.51,0,0,0-1,.18l-.34-2.39a21.43,21.43,0,0,0,2.86-.28V9ZM332.7,3.29a8.64,8.64,0,0,0,1.48-.08V5.53a17,17,0,0,0-2-.09h-1.76a17.72,17.72,0,0,0,.75,4.68,6.65,6.65,0,0,0,1.07,2.17,7.87,7.87,0,0,0,.42-2.23,8.92,8.92,0,0,0,1.9,1.13,8.38,8.38,0,0,1-.87,3.14,1.57,1.57,0,0,1-1.3.86c-.89,0-1.89-.89-2.67-2.37a18,18,0,0,1-1.65-7.38h-5.81c-.72,0-1.31,0-2,.09V3.19a15.29,15.29,0,0,0,2,.1H328a17.27,17.27,0,0,0-.12-2.16h2.52a5.17,5.17,0,0,0-.06.9c0,.14,0,.46,0,1.26h1.41A8.15,8.15,0,0,0,330.61,2l1.74-.88a11.8,11.8,0,0,1,1.37,1.59l-1.19.61Z"/><path class="cls-7" d="M307.93,21.71a13.71,13.71,0,0,1-2.14,1,9.88,9.88,0,0,0-1.14-2.25,11.57,11.57,0,0,0,3.51-1.67,9.22,9.22,0,0,0,2.56-2.48h2.47a8.92,8.92,0,0,0,2.58,2.35,13.15,13.15,0,0,0,3.65,1.7,10.1,10.1,0,0,0-1.07,2.41,14,14,0,0,1-2.27-1.12v.87c-.46,0-.83-.06-1.45-.06h-5.27c-.5,0-1,0-1.43.06Zm-.69,3.8a16.15,16.15,0,0,0-1.86.09V23.27c.53,0,1.16.07,1.86.07h9.58c.74,0,1.3,0,1.85-.07V25.6a16,16,0,0,0-1.85-.09h-1.51a32.21,32.21,0,0,1,3.22,3.94l-2.1,1.29-.72-1.13c-1.77.2-1.77.2-2.61.28-1,.1-5.13.46-5.77.49s-1,.09-1.34.15L305.7,28c.4,0,.67.05,1,.05l1.07,0a19.1,19.1,0,0,0,1.32-2.49Zm6.9-5.07a11.18,11.18,0,0,1-2.14-2,10.55,10.55,0,0,1-2.15,2Zm-2.35,5.07a19.16,19.16,0,0,1-1.33,2.41c2.23-.09,2.23-.09,3.82-.23-.43-.52-.64-.76-1.3-1.46l1.8-.72Z"/><path class="cls-7" d="M324.54,29a14,14,0,0,0,.06,1.62h-2.44a11.82,11.82,0,0,0,.09-1.68v-3.1a10.38,10.38,0,0,1-1.36,1,8.56,8.56,0,0,0-1-2.28,9.29,9.29,0,0,0,2.38-1.74,6.75,6.75,0,0,0,1.59-2.12h-2.15a9.65,9.65,0,0,0-1.33.06V18.43a8.94,8.94,0,0,0,1.18.06h.68V17.36a7.27,7.27,0,0,0-.09-1.16h2.43a6.69,6.69,0,0,0-.08,1.18v1.11h.41a5.4,5.4,0,0,0,.89,0l1,1.06a5.21,5.21,0,0,0-.35.71,12.37,12.37,0,0,1-1.37,2.49,7.38,7.38,0,0,0,2.44,1.83,11,11,0,0,0-1.15,2.18,7,7,0,0,1-1.84-1.57Zm6.72-1.07h1.23a16.6,16.6,0,0,0,1.86-.07v2.39c-.64-.06-1.25-.09-1.85-.09h-5a17.68,17.68,0,0,0-1.78.09V27.83a16.65,16.65,0,0,0,1.83.07h1.26V22.32h-.79a14.6,14.6,0,0,0-1.5.08V20a10.22,10.22,0,0,0,1.5.08h.79V18.05a14.35,14.35,0,0,0-.1-1.8h2.61a11.77,11.77,0,0,0-.1,1.8v2.06h1.21A10.11,10.11,0,0,0,334,20V22.4a14.8,14.8,0,0,0-1.51-.08h-1.21Z"/><path class="cls-7" d="M58.15,25.6a30.57,30.57,0,0,0,.19,4.06h-5a30.92,30.92,0,0,0,.19-4.19V4.89c0-1.71,0-2.55-.12-3.54a28.16,28.16,0,0,0,3.13.12h6.54a25.68,25.68,0,0,0,3.16-.12c-.06.93-.09,1.61-.09,2.82v5c0,1.51,0,2.17.06,2.69-.93,0-1.67-.06-2.54-.06H58.15Zm0-20.06h3.72V4.48H58.15Zm0,3.41h3.72V7.89H58.15ZM69.87,22.47a10.77,10.77,0,0,0,4.25,1.7,5.92,5.92,0,0,0-.44.87,6.64,6.64,0,0,0,.93.06c1.18,0,1.31-.06,1.31-.74V11.86H70.15c-.87,0-1.64,0-2.54.06.06-.71.06-1.27.06-2.72v-5c0-1.08,0-1.95-.09-2.82a27.19,27.19,0,0,0,3.16.12h6.79a28.16,28.16,0,0,0,3.13-.12c-.09,1.09-.12,1.86-.12,3.5V25.07c0,3.75-.87,4.43-5.49,4.43l-1.33,0a16.27,16.27,0,0,0-.59-3.19,19.76,19.76,0,0,0-.72,2.14A13.69,13.69,0,0,1,67,24.88c-1.46,2.05-3.26,3.26-6.39,4.25a12.06,12.06,0,0,0-2.33-3.78,10.6,10.6,0,0,0,3.35-1.12,5.62,5.62,0,0,0,2.08-1.76h-2a23.68,23.68,0,0,0-2.57.15V18.9a14.94,14.94,0,0,0,2.23.12h3.23c0-.34,0-.34.06-1.08H61.41a14.89,14.89,0,0,0-1.83.09V14.47a12.34,12.34,0,0,0,1.7.09h.53a12.8,12.8,0,0,0-1.15-1.71l4.09-.8a18.17,18.17,0,0,1,1.4,2.51H68a17.43,17.43,0,0,0,1-2.45l4.25.68a17.09,17.09,0,0,1-1,1.77h.46a14.47,14.47,0,0,0,1.8-.09V18a14.81,14.81,0,0,0-1.8-.09H68.88c0,.5,0,.65,0,1.08h3.84a13.56,13.56,0,0,0,2.23-.12v3.69a16.75,16.75,0,0,0-2.26-.12ZM72,5.54h3.91V4.48H72ZM72,9h3.91V7.89H72Z"/><path class="cls-7" d="M87.61,7.18c-1.4,0-2.55.06-3.82.15V2.78A40,40,0,0,0,88,3h7.59A18.64,18.64,0,0,0,95.39.67h5.15A16.44,16.44,0,0,0,100.35,3h7.78a38.37,38.37,0,0,0,4.25-.18V7.33c-1.24-.09-2.48-.15-3.88-.15h-8.15V8.36h6.29A31.81,31.81,0,0,0,110,8.27c-.09,1.11-.12,2-.12,3V17.6a27.14,27.14,0,0,0,.12,3,29,29,0,0,0-3.35-.13h-2.73c2.36,2,5.28,3.35,9.4,4.19A28.39,28.39,0,0,0,111,29.35a25.37,25.37,0,0,1-10.66-6.54c0,.87.06,1.39.06,2V26a24.91,24.91,0,0,0,.22,3.63H95.36A32.11,32.11,0,0,0,95.57,26V24.7c0-.13,0-.75.1-1.89C93.34,25.54,90,27.67,85.4,29.35a22.72,22.72,0,0,0-2.35-4.43,21.56,21.56,0,0,0,9-4.41H89.59a22.82,22.82,0,0,0-3.38.13c0-.31,0-.31.09-1.09,0-.15,0-.15,0-1.95V11.27c0-1.36,0-1.92-.12-3a26.1,26.1,0,0,0,3.35.13h6V7.18ZM91,11.74v1.15h4.58V11.74ZM91,16V17.2h4.58V16Zm9.36-3.13h4.87V11.74h-4.87Zm0,4.31h4.87V16h-4.87Z"/><path class="cls-7" d="M117.81,20.17a26,26,0,0,1-2.14,1.8,19,19,0,0,0-1.8-5A18.84,18.84,0,0,0,118,13.32a14.2,14.2,0,0,0,2.48-3.94h-3.19a18.61,18.61,0,0,0-2.57.13V5a15.84,15.84,0,0,0,2.29.12h.74V2.9a19.13,19.13,0,0,0-.15-2.36h4.87a17.41,17.41,0,0,0-.16,2.39V5.07A8.19,8.19,0,0,0,123.91,5l2,2.63c-.22.44-.25.53-.74,1.71a28.76,28.76,0,0,1-2.45,4.77,11.3,11.3,0,0,0,2.45,2.14c0-.62-.07-.71-.1-1.21a29.36,29.36,0,0,0,3.26.13H139.6a27.79,27.79,0,0,0,3.32-.13c-.09,1.09-.12,1.86-.12,3.45v8a23.09,23.09,0,0,0,.15,3.29h-4.74v-1h-8.53v1h-4.59a22,22,0,0,0,.16-3.29V17.23a12.3,12.3,0,0,0-1.49,3.53,20.19,20.19,0,0,1-1.43-1.55v7.16a23.78,23.78,0,0,0,.16,3.41h-4.84c.09-1.05.16-2.29.16-3.5Zm7-18.94c1.09.09,2.21.15,3.69.15h11.26a26.45,26.45,0,0,0,3.56-.15V5.51a19,19,0,0,0-3-.16H127.88a19.07,19.07,0,0,0-3,.16Zm1.43,7.16a15.37,15.37,0,0,0-.12-2.17c.93.06,1.73.09,3.13.09H139c1.27,0,2,0,3-.09a14.4,14.4,0,0,0-.12,2.14V12a14.92,14.92,0,0,0,.12,2.17c-.87-.06-1.64-.1-3.07-.1h-9.64c-1.37,0-2.24,0-3.1.1a15,15,0,0,0,.12-2.14Zm3.47,11.81h2.2V18.74h-2.2Zm0,4.75h2.2V23.49h-2.2Zm.9-14h6.58V9.63h-6.58ZM136,20.2h2.2V18.74H136ZM136,25h2.2V23.49H136Z"/><path class="cls-7" d="M154.05,25.85c0,1.52.06,2.85.16,3.93h-4.9a38,38,0,0,0,.18-3.93V19.68a32.58,32.58,0,0,1-2.73,2.17,19.53,19.53,0,0,0-1.7-5,21,21,0,0,0,4.15-3.31,16,16,0,0,0,3-4.25h-3.53a24.23,24.23,0,0,0-2.7.15V5a18.06,18.06,0,0,0,2.42.12h1.11V2.93a20.08,20.08,0,0,0-.15-2.32h4.84A12.33,12.33,0,0,0,154.05,3V5.07h.31a11.15,11.15,0,0,0,1.8-.09L158.21,7a8.64,8.64,0,0,0-.72,1.51A28.25,28.25,0,0,1,155,13.26a15.78,15.78,0,0,0,3.1,2.91V10.09a10.77,10.77,0,0,0-.15-2h4.87a28.13,28.13,0,0,0-.16,3.75V24.64h1.86V5.23a31.71,31.71,0,0,0-.19-4.16h5a27.36,27.36,0,0,0-.19,4.16V10H171a20.54,20.54,0,0,0,3.07-.15v4.74a21.29,21.29,0,0,0-3.07-.15h-1.89V24.64h2.36a21.73,21.73,0,0,0,3.22-.16v4.68c-1.27-.12-2.79-.18-4.18-.18H159.48c-1.43,0-2.95.06-4.22.18V24.51a17.7,17.7,0,0,0,2.54.13h.31V17.29a25.08,25.08,0,0,0-1.64,3.41,14.74,14.74,0,0,1-2.42-2.42Z"/><path class="cls-7" d="M194.42,7.3v-2a23.56,23.56,0,0,0-.15-3.47h5.58a37.15,37.15,0,0,0-.16,5.51h1.21a28.3,28.3,0,0,0,4.47-.21v5.3c-1.49-.12-2.36-.16-4.38-.16h-1.36c-.06,2.45-.09,3.14-.22,4.31-.46,4.19-1.86,7-4.59,9.37a18.73,18.73,0,0,1-6.41,3.5A15.34,15.34,0,0,0,185,24.67a16.43,16.43,0,0,0,6-2.73c2.11-1.68,3-3.69,3.26-7.16,0-.56,0-.78.06-2.55h-6.54v3.48a28.69,28.69,0,0,0,.12,3.19h-5.67a23.83,23.83,0,0,0,.18-3.26V12.23h-1.15a35.63,35.63,0,0,0-4.37.16V7.09a28.3,28.3,0,0,0,4.47.21h1V5a21.64,21.64,0,0,0-.18-3.29h5.67a23.16,23.16,0,0,0-.12,3.17V7.3Z"/><path class="cls-7" d="M208.4,12.14a43.59,43.59,0,0,0,6.36.28h14.82a50.38,50.38,0,0,0,6.36-.28v6a61.86,61.86,0,0,0-6.39-.18H214.79c-3.47,0-4.49,0-6.39.18Z"/><path class="cls-7" d="M264.34,10.31l-1.55.75A55.71,55.71,0,0,1,248,15.86v3.47a7.56,7.56,0,0,0,.12,2.39c.19.59.59.84,1.49,1a26.15,26.15,0,0,0,3.29.19c1.77,0,4.19-.13,6-.31a28,28,0,0,0,5.34-1l.22,5.73c-.75,0-1.65.07-3.2.22-3.1.28-6.57.47-9,.47-4.25,0-6.39-.38-7.81-1.37a4.57,4.57,0,0,1-1.74-3.35A24.83,24.83,0,0,1,242.6,20V6.5a32.87,32.87,0,0,0-.18-4.13h5.8A23.9,23.9,0,0,0,248,6.53v4.18a42.94,42.94,0,0,0,11.81-4.43,18.51,18.51,0,0,0-2.11-3.75l3.07-1a20.53,20.53,0,0,1,2.58,4.74l-1.55.56ZM265.15.14a22.55,22.55,0,0,1,2.57,4.62l-3,1.09a24.3,24.3,0,0,0-2.54-4.75Z"/><path class="cls-7" d="M294,28.91a49.77,49.77,0,0,0-8.9-8.8,33.63,33.63,0,0,1-11.41,8.5,15.87,15.87,0,0,0-3.47-4.9,29.32,29.32,0,0,0,10.05-6.27,25.05,25.05,0,0,0,6.23-9.11l-8.06.12a37.47,37.47,0,0,0-4.93.31l-.16-5.52a22.32,22.32,0,0,0,3.26.22c.25,0,.83,0,1.73,0L289,3.27a5.68,5.68,0,0,0,2.48-.34l2.73,2.79a5,5,0,0,0-1.12,1.83,36.07,36.07,0,0,1-4.56,8.37,72.76,72.76,0,0,1,9.86,8.41Z"/><path class="cls-7" d="M52.1,38.23c0-.26,0-.46,0-1.13a7.68,7.68,0,0,1-.78,1.06,5.58,5.58,0,0,0-.44-1.2,8.1,8.1,0,0,0,1.63-2.62,6.3,6.3,0,0,0,.38-1.29l1.14.29a17.07,17.07,0,0,1-.88,2.17v5.57a8.16,8.16,0,0,0,.07,1.15H52a6.68,6.68,0,0,0,.07-1.16Zm5.07-3.16a10.23,10.23,0,0,0-2-1.25l.76-.73a12.22,12.22,0,0,1,2.09,1.23l-.75.75h1.5A9.48,9.48,0,0,0,60,35v1.12c-.35,0-.72-.05-1.15-.05H57.35v1.73h1.23a8.55,8.55,0,0,0,1.1-.06v1.09c-.31,0-.67-.05-1.09-.05H57.35v2.09h1.72a10.18,10.18,0,0,0,1.18-.06v1.11c-.36,0-.7,0-1.19,0H54.67c-.48,0-.81,0-1.18,0V40.82a9.64,9.64,0,0,0,1.15.06h1.6V38.79H55.19c-.42,0-.76,0-1.09.05V37.75a8.38,8.38,0,0,0,1.09.06h1.05V36.08h-1.3c-.41,0-.78,0-1.13.05V35a6.74,6.74,0,0,0,1.12.06Z"/><path class="cls-7" d="M74,37.17c-1.21.2-1.21.2-2.42.35a5.58,5.58,0,0,0-.45-1,27.59,27.59,0,0,0,4-.56,7.21,7.21,0,0,0,2.13-.73l.93.9a5.19,5.19,0,0,0-.77.2c-1.15.35-1.7.5-2.37.64v1l3.4-.37a7.24,7.24,0,0,0,1.07-.19l.11,1.13h-.18c-.18,0-.65,0-.92.05L75.14,39v1.65c0,.25,0,.31.28.36a9.49,9.49,0,0,0,1.21.06,3.93,3.93,0,0,0,1.63-.18c.17-.13.22-.38.25-1.33a3.43,3.43,0,0,0,1.1.39,3.44,3.44,0,0,1-.23,1.28,1.12,1.12,0,0,1-.88.74,9.11,9.11,0,0,1-2,.12C74.39,42.1,74,41.94,74,41V39.13l-2.15.24a7.54,7.54,0,0,0-1.08.18l-.11-1.12h.2c.2,0,.62,0,.89,0L74,38.13Zm.51-3.46a2.78,2.78,0,0,0-.06-.58h1.22a2.78,2.78,0,0,0,0,.58V34H78.4c.5,0,.76,0,1.1,0a4.71,4.71,0,0,0,0,.74v.75a5.62,5.62,0,0,0,0,.76H78.42V35H72v1.2H70.91a4.25,4.25,0,0,0,0-.77v-.74a5.22,5.22,0,0,0,0-.74A10.68,10.68,0,0,0,72,34h2.54Z"/><path class="cls-7" d="M91.36,34.41a7.05,7.05,0,0,0-.91,0V33.39a10.39,10.39,0,0,0,1.07,0h2.66a7.2,7.2,0,0,0,1.07,0v1.06a5.86,5.86,0,0,0-.85,0v1h.07a7.64,7.64,0,0,0,1,0v1.07a7.9,7.9,0,0,0-.94,0H94.4v1c0,.35,0,.5,0,.78h.81a3.49,3.49,0,0,0,0,.62v.31h2A8.08,8.08,0,0,0,98.34,39v1.08a11.39,11.39,0,0,0-1.15,0h-2v.91H98a10.35,10.35,0,0,0,1.16,0V42a10.28,10.28,0,0,0-1.25-.06h-6.4a9.85,9.85,0,0,0-1.22.06V40.89a10.46,10.46,0,0,0,1.14,0h2.66V40H92.21c-.47,0-.82,0-1.14,0V39a6.61,6.61,0,0,0,1,.05h2v-.3c0-.11,0-.18,0-.32H93.3a8.32,8.32,0,0,0,.06-1.08v-1h-1A3.79,3.79,0,0,1,92,37.64,3.35,3.35,0,0,1,91,38.9a3.81,3.81,0,0,0-.79-.82,2.35,2.35,0,0,0,1.14-1.69h-.15a6.09,6.09,0,0,0-.94,0V35.35a6.6,6.6,0,0,0,1,0h.22c0-.08,0-.41,0-1Zm1.12,0v.31c0,.24,0,.47,0,.68h.89v-1Zm3.26,2.76a5.77,5.77,0,0,0,.05-.8V34.43a5.71,5.71,0,0,0-.05-.81h1.13a4.94,4.94,0,0,0,0,.75v2.08a6.7,6.7,0,0,0,0,.72Zm3.11.32c0,.86-.26,1-1.43,1a8.07,8.07,0,0,1-.83,0,3.48,3.48,0,0,0-.28-1.09,7.31,7.31,0,0,0,1,.09c.37,0,.4,0,.4-.22V34a5.1,5.1,0,0,0-.05-.85H98.9a8.82,8.82,0,0,0-.05.93Z"/><path class="cls-7" d="M111.61,37.77A10.26,10.26,0,0,1,110.17,39a2.93,2.93,0,0,0-.68-1,8.86,8.86,0,0,0,1.67-1.36,6.54,6.54,0,0,0,1.18-1.56h-1.4a9.82,9.82,0,0,0-1.18.06V34.1a10,10,0,0,0,1.19.06h1.87a4.72,4.72,0,0,0,.28-1.07l1.24.14a5.66,5.66,0,0,0-.21.55c0,.12-.06.17-.14.38h3.54a9.35,9.35,0,0,0,1.16-.06v1.1a9.58,9.58,0,0,0-1.16-.06h-4c-.18.33-.3.53-.49.84h3.4a9.2,9.2,0,0,0,1,0,11.18,11.18,0,0,0,0,1.13V41.2a.86.86,0,0,1-.38.81,2.6,2.6,0,0,1-1.16.16l-.91,0a3.18,3.18,0,0,0-.26-1,8.59,8.59,0,0,0,1.15.09c.44,0,.5,0,.5-.27v-.76h-3.71V41c0,.54,0,.89,0,1.24h-1.17a10.81,10.81,0,0,0,.06-1.24Zm4.77-.84h-3.71v.72h3.71Zm-3.71,1.61v.73h3.71v-.73Z"/><path class="cls-7" d="M133,39.58c0,.13-.06.18-.11.33a6.81,6.81,0,0,1-1-1.39c0,.67.06.81.06,1.13v1.63a5.72,5.72,0,0,0,.06,1h-1.16a6.27,6.27,0,0,0,.07-1.05V40c0-.39,0-.86,0-1.19A6.79,6.79,0,0,1,129.72,41a3.05,3.05,0,0,0-.51-1,6.41,6.41,0,0,0,1.07-1.46,8.43,8.43,0,0,0,.53-1.13h-.52a5,5,0,0,0-.89.05V36.41a4.84,4.84,0,0,0,.89.05H131V34.11a6.12,6.12,0,0,0,0-1H132a5.91,5.91,0,0,0,0,1v2.36h.46a5.06,5.06,0,0,0,.77,0v1a5.82,5.82,0,0,0-.79,0h-.35a5.08,5.08,0,0,0,1.27,1.52c-.13.25-.17.34-.27.56a6.82,6.82,0,0,0,.91-.14l2.32-.52V34.3a6.71,6.71,0,0,0-.06-1.15h1.2a6.93,6.93,0,0,0-.06,1.14V38.6a5.52,5.52,0,0,0,.84-.25l.21,1.13a7.52,7.52,0,0,0-.95.18l-.1,0v1.44a7.12,7.12,0,0,0,.06,1.17h-1.2a7,7,0,0,0,.06-1.18v-1.2l-2.1.48c-.44.1-.73.18-.94.25Zm-2.87-5.89a11.76,11.76,0,0,1,.61,2.14l-.84.35a8,8,0,0,0-.61-2.12Zm3.4.34a11.6,11.6,0,0,1-.79,2.15l-.72-.37a8.7,8.7,0,0,0,.68-2.14Zm.5,2.25a9.3,9.3,0,0,1,1.72,1.46l-.67.81A8.1,8.1,0,0,0,133.37,37Zm.31-2.48a9.92,9.92,0,0,1,1.73,1.46l-.67.84a8.31,8.31,0,0,0-1.76-1.53Z"/><path class="cls-7" d="M150,37.29a10,10,0,0,0-1.2.06V36.23a8.76,8.76,0,0,0,1.2.06h2.24v-1h-1.51a10.9,10.9,0,0,0-1.14,0V34.24a8,8,0,0,0,1.15.06h1.5V34a5.14,5.14,0,0,0-.06-.87h1.22a4.31,4.31,0,0,0-.06.89v.27h.86a7.76,7.76,0,0,0,1.09-.06V35a6.17,6.17,0,0,0,1-1.38l1.05.6-.27.33a17.44,17.44,0,0,1-1.61,1.73h1.08a8.11,8.11,0,0,0,1.13-.06v1.12a9.94,9.94,0,0,0-1.18-.06h-2.18a20.78,20.78,0,0,1-2.09,1.43v.45a19.1,19.1,0,0,0,2.64-.82,5.89,5.89,0,0,0,1-.47l.83.91-.19.07-.34.14c-.3.12-1.26.45-1.75.61-.77.22-1,.29-2.16.55v.57c0,.33.18.37,2,.37,1,0,1.45-.05,1.6-.2s.19-.45.21-1.32a3.48,3.48,0,0,0,1.09.4c-.1,1.25-.22,1.64-.58,1.88s-1,.28-2.86.28c-2.21,0-2.53-.14-2.53-1.09V39.34c-.69.34-1.11.52-1.87.84a3.79,3.79,0,0,0-.65-1,17.12,17.12,0,0,0,4-1.91Zm3.93-1a10.1,10.1,0,0,0,1.08-1,7,7,0,0,0-.73,0h-.94v1Z"/><path class="cls-7" d="M173.39,33.26a6.47,6.47,0,0,0-.07,1,7.16,7.16,0,0,0,1,3.91,6.76,6.76,0,0,0,1.57,1.88,6.09,6.09,0,0,0,1.54,1.07,3.81,3.81,0,0,0-.78,1.1,9.57,9.57,0,0,1-2.52-2.34,7.92,7.92,0,0,1-1.32-2.7,6.73,6.73,0,0,1-.77,2,6.85,6.85,0,0,1-1.53,1.9A7.81,7.81,0,0,1,169,42.24a3,3,0,0,0-.78-1,6.69,6.69,0,0,0,2.17-1.65,7.7,7.7,0,0,0,1.81-5.48,6.47,6.47,0,0,0,0-.83Z"/><path class="cls-7" d="M190.64,37.1c0,.12,0,.13-.08.3a10.16,10.16,0,0,1-1.66,3.85,4.68,4.68,0,0,0-1.15-.63A7.3,7.3,0,0,0,189.14,38a5.44,5.44,0,0,0,.28-1.22Zm1-2.68a5.41,5.41,0,0,0-.06-1h1.34a8.08,8.08,0,0,0,0,1.05V35h2.27a8.31,8.31,0,0,0,1.28-.06v1.22a9.91,9.91,0,0,0-1.26-.05h-2.29v4.81c0,.5,0,.79,0,1.11h-1.34a6.88,6.88,0,0,0,.06-1.12v-4.8h-2.21a9.83,9.83,0,0,0-1.25.05V34.91a8.24,8.24,0,0,0,1.27.06h2.19Zm3.4,2.37a6.82,6.82,0,0,0,.34,1.11,9.5,9.5,0,0,0,1.41,2.67,8.63,8.63,0,0,0-1.14.69A13.13,13.13,0,0,1,194,37.55a2.89,2.89,0,0,0-.16-.46Z"/><path class="cls-7" d="M207.55,37a9.75,9.75,0,0,0,1.61.07h5.29a9.53,9.53,0,0,0,1.6-.07v1.38a10.64,10.64,0,0,0-1.61-.05h-5.27a10.89,10.89,0,0,0-1.62.05Z"/><path class="cls-7" d="M231.68,33.7a2.76,2.76,0,0,0-.26.71,58.44,58.44,0,0,1-2,5.65,39.56,39.56,0,0,0,4.13-.5c-.11-.24-.23-.46-.47-.91a13.32,13.32,0,0,0-.94-1.57l1.12-.44a23.81,23.81,0,0,1,2.4,4.59l-1.2.63a9.69,9.69,0,0,0-.48-1.23l-.36.08c-1,.21-2.64.41-5.61.7a5.46,5.46,0,0,0-.9.12L227,40.19h.26l.85,0c.53-1.25.92-2.37,1.44-4a16.11,16.11,0,0,0,.72-2.74Z"/><path class="cls-7" d="M250.13,33.31a16.43,16.43,0,0,0,.65,3.1c.65-.24.65-.24,2.57-.87a2.74,2.74,0,0,0,.38-.15l.42,1.25a25.49,25.49,0,0,0-3.27,1c-1.45.54-2.17,1.17-2.17,1.89s.67,1,2.27,1a10.73,10.73,0,0,0,3.2-.41l.11,1.36a6,6,0,0,0-.8.07,20.82,20.82,0,0,1-2.32.15,5.54,5.54,0,0,1-2.88-.55,1.87,1.87,0,0,1-.86-1.65,2.35,2.35,0,0,1,.88-1.78,6.08,6.08,0,0,1,1.35-.85,23,23,0,0,1-.66-2.69,4.32,4.32,0,0,0-.16-.64Z"/><path class="cls-7" d="M265.77,36.87a4.2,4.2,0,0,0,.76.05h.69a4.33,4.33,0,0,0,.76-.05,9.87,9.87,0,0,0,0,1.08v2.12a1.42,1.42,0,0,0,.48.56,1.85,1.85,0,0,0,.5.26,8,8,0,0,0,2,.17,27.7,27.7,0,0,0,4.15-.25,6.37,6.37,0,0,0-.29,1.18c-1.3.06-2.3.08-4,.08a7.33,7.33,0,0,1-2.23-.25A2.45,2.45,0,0,1,267.4,41l-.16.14a8.79,8.79,0,0,1-1.1,1L265.6,41a5.16,5.16,0,0,0,1.31-1V37.93h-.5a3.32,3.32,0,0,0-.64,0Zm.77-3.63A11.33,11.33,0,0,1,268.25,35l-.82.81A9.47,9.47,0,0,0,265.74,34Zm4,2a5.86,5.86,0,0,0-.82-.51l.77-.45h-1a7.34,7.34,0,0,0-1,.05v-1a8.84,8.84,0,0,0,1.18.06h3.22a5,5,0,0,0,1.12-.07l.5.61a3.3,3.3,0,0,0-.49.38,14.36,14.36,0,0,1-1.28.94h.79a6.23,6.23,0,0,0,1,0,10.75,10.75,0,0,0,0,1.15v3.06c0,.56,0,.76-.18.91s-.42.23-1,.23h-.44a2.36,2.36,0,0,0-.23-.94,4.7,4.7,0,0,0,.65.06c.22,0,.23,0,.23-.28V39H272v.42a6.34,6.34,0,0,0,.06,1.1H271a7.63,7.63,0,0,0,.06-1.1V39h-1.34v.51a5.38,5.38,0,0,0,.06,1.08h-1.12a7.52,7.52,0,0,0,.05-1.08V36.36a11.59,11.59,0,0,0,0-1.16,8.17,8.17,0,0,0,1.11,0Zm-.84.85v.64H271V36.1Zm0,2.1H271v-.67h-1.34Zm.86-3.91c.36.25.45.31,1,.74a9.09,9.09,0,0,0,1-.74ZM272,36.74h1.49V36.1H272Zm1.49.79H272v.67h1.49Z"/><path class="cls-7" d="M289.55,37.92c0,.44,0,.55,0,.79l-1,0H287a6.84,6.84,0,0,1-.89,3.53,3.09,3.09,0,0,0-.88-.78c.62-1,.78-2.06.78-4.74a12.82,12.82,0,0,0,0-1.38c.32,0,.57,0,1.05,0h1.6c.46,0,.7,0,1,0a6.9,6.9,0,0,0,0,.89Zm-4-4.4a7.36,7.36,0,0,0,1.07,0h2.14a6.63,6.63,0,0,0,1.08,0v1.11a6.44,6.44,0,0,0-1-.05h-2.25a6.87,6.87,0,0,0-1,.05Zm3,4.23V36.28H287V37c0,.37,0,.46,0,.75Zm2.72-.56a9.21,9.21,0,0,1-.44,2.7A5.2,5.2,0,0,1,290,41.5a7.66,7.66,0,0,1-.63.74,3.4,3.4,0,0,0-.83-.82,4.49,4.49,0,0,0,1.41-2.19,14,14,0,0,0,.32-3.67c0-.93,0-1.24,0-1.57a9.22,9.22,0,0,0,3.7-.83l.56,1-.45.13a15.14,15.14,0,0,1-2.71.61v1.24h2.25a4.9,4.9,0,0,0,1-.06v1.15a5.36,5.36,0,0,0-.87-.05h-.15v3.92a6.22,6.22,0,0,0,.06,1.08h-1.17a8,8,0,0,0,.06-1.09V37.19Z"/><path class="cls-7" d="M310,33.24a5.63,5.63,0,0,0,.89,1.13,9.51,9.51,0,0,0,3.26,2.15,6.92,6.92,0,0,0-.57,1.16,12.65,12.65,0,0,1-2.5-1.62,7.64,7.64,0,0,1-1.68-1.86A9.49,9.49,0,0,1,307.74,36a11,11,0,0,1-2.44,1.65,4.2,4.2,0,0,0-.58-1.1,8.27,8.27,0,0,0,2.38-1.48,7.25,7.25,0,0,0,1.58-1.86Zm-1.56,3.38a5.74,5.74,0,0,0,0,.82,6,6,0,0,1-.61,3,4.57,4.57,0,0,1-2,1.87,4.56,4.56,0,0,0-.81-1,4.31,4.31,0,0,0,1.23-.74c.8-.71,1-1.48,1-3.25a3.83,3.83,0,0,0-.07-.73Zm3.14,0a6.76,6.76,0,0,0-.06,1.1V41a8.91,8.91,0,0,0,.07,1.18h-1.27a8.61,8.61,0,0,0,.07-1.18V37.71a7.22,7.22,0,0,0-.07-1.09Z"/><path class="cls-7" d="M324.36,34.73a4.46,4.46,0,0,0,.81.05h1.62a5.33,5.33,0,0,0,.81,0v1a6.42,6.42,0,0,0-.76,0h-1.67a6,6,0,0,0-.81,0Zm8.59,5.1a7.42,7.42,0,0,1-1.52,1.22,10,10,0,0,0,2.21.27,4.19,4.19,0,0,0-.36,1,9.3,9.3,0,0,1-2.91-.68,10.81,10.81,0,0,1-2.73.7,3.76,3.76,0,0,0-.24-.57l-.57,0h-1.24v.48h-1c0-.29.05-.65.05-1V39.73a6.08,6.08,0,0,0,0-.77,6.19,6.19,0,0,0,.67,0h1.52a3.69,3.69,0,0,0,.6,0,3.94,3.94,0,0,0,0,.72V41.4a8.69,8.69,0,0,0,2-.31,7,7,0,0,1-1-.73l.69-.23h-.49a6.3,6.3,0,0,0-.82,0v-.84a8,8,0,0,0,.82,0h3a4.77,4.77,0,0,0,.75,0Zm-1.6-1.54h1.4a5.22,5.22,0,0,0,.68,0v.82a4.54,4.54,0,0,0-.8,0h-3.9a6.87,6.87,0,0,0-.69,0,5.09,5.09,0,0,0,0-.71v-.7c0-.07,0-.31,0-.49a3.92,3.92,0,0,1-.41.42,4.28,4.28,0,0,0-.36-.43,4.14,4.14,0,0,0-.6,0h-1.4a3.77,3.77,0,0,0-.63,0v-.94a3.71,3.71,0,0,0,.63,0h1.4a3.34,3.34,0,0,0,.61,0v.4a4.59,4.59,0,0,0,1.17-1.91l.34.09v-.27h-.4a6,6,0,0,0-.75,0v-.94a6.3,6.3,0,0,0,.84.05h.31a2.62,2.62,0,0,0,0-.55h1.05a2,2,0,0,0,0,.55h1.33a2.34,2.34,0,0,0,0-.55h1a2.26,2.26,0,0,0,0,.55h.52a4.81,4.81,0,0,0,.85-.05v.94a6.54,6.54,0,0,0-.84,0h-.53a2,2,0,0,0,0,.49h-.53l-.15.27h1.14a4.6,4.6,0,0,0,.76,0v.82a4.34,4.34,0,0,0-.73,0h-1.28v.3h1.1a4.25,4.25,0,0,0,.63,0V37a4.74,4.74,0,0,0-.63,0h-1.1v.32h1.09a4.32,4.32,0,0,0,.64,0V38a4.51,4.51,0,0,0-.64,0h-1.09Zm-6.66-4.95a4.34,4.34,0,0,0,.8,0h1.1a4.46,4.46,0,0,0,.81,0v1a6,6,0,0,0-.81,0h-1.1a6.17,6.17,0,0,0-.8,0Zm0,4.26a3.71,3.71,0,0,0,.63,0h1.39a3.41,3.41,0,0,0,.62,0v.94a3.71,3.71,0,0,0-.63,0h-1.4a3.64,3.64,0,0,0-.61,0Zm.87,3.24h.95v-1h-.95ZM330.44,36H329v.3h1.47Zm0,1H329v.32h1.47ZM329,38v.33h1.47V38Zm.5-3-.14.29h1.17a2.85,2.85,0,0,0,.24-.53l.39.1c0-.14,0-.19,0-.33h-1.33a2.3,2.3,0,0,0,0,.47Zm-.11,5.14a5.27,5.27,0,0,0,1.06.6,4.76,4.76,0,0,0,1-.6Z"/></g></g></svg>