<svg xmlns="http://www.w3.org/2000/svg" viewBox="0 0 414 170"><defs><style>.cls-1{fill:#80bee7;}.cls-2{fill:#fff;}</style></defs><title>ico-mimamori</title><g id="レイヤー_2" data-name="レイヤー 2"><g id="レイヤー_1-2" data-name="レイヤー 1"><rect class="cls-1" width="414" height="170"/><path class="cls-2" d="M84.41,91.12c-1.82,0-3.12,0-4.1.11a29.67,29.67,0,0,0,.19-4V73.34a47.37,47.37,0,0,0-.19-4.75,29.39,29.39,0,0,0,4,.19h17.51a29.67,29.67,0,0,0,4-.19,46.34,46.34,0,0,0-.19,4.75V87.2a28.61,28.61,0,0,0,.19,4c-1-.07-2.47-.11-4-.11H98.54V97c0,1.06.35,1.18,3.31,1.18s3.69-.16,4.14-.8.57-2,.68-4.87a15.58,15.58,0,0,0,3.92,1.6c-.38,4.22-.76,5.62-1.71,6.54s-2.7,1.29-7,1.29c-6.31,0-7.45-.53-7.45-3.38V91.12H91a11.64,11.64,0,0,1-3.61,7c-2.39,2.24-5.28,3.57-9.65,4.56A11.82,11.82,0,0,0,75.56,99c3.57-.64,5.58-1.33,7.41-2.51a7.62,7.62,0,0,0,3.61-5.35Zm.08-16.07h17.13V72.58H84.49Zm0,6.11h17.13V78.62H84.49Zm0,6.27h17.13v-2.7H84.49Z"/><path class="cls-2" d="M144,81.73a29.82,29.82,0,0,0,4.18-.23v4.34a31,31,0,0,0-4.18-.23h-4.21V98c0,2-.61,3.19-1.87,3.68a13.48,13.48,0,0,1-4.29.46c-.91,0-2.24,0-3.76-.08a14.77,14.77,0,0,0-1.37-4.22,34.7,34.7,0,0,0,5.17.42c1.48,0,1.86-.19,1.86-.91V85.61H118.34a30.14,30.14,0,0,0-4.17.23V81.5a30.54,30.54,0,0,0,4.17.23h17.14V80.48a26.4,26.4,0,0,0-.23-4h4.68a25.43,25.43,0,0,0-.19,4v1.25Zm-15.38-12a12.14,12.14,0,0,0-.23-2.4h4.71a9.36,9.36,0,0,0-.23,2.4v1.25h10.49c1.82,0,3,0,4.18-.15a17.94,17.94,0,0,0-.16,2.81v3.08a21.87,21.87,0,0,0,.16,2.92h-4.11V74.78H118.72V79.6h-4.14a20.83,20.83,0,0,0,.16-2.92V73.6a18.86,18.86,0,0,0-.16-2.81c1.18.11,2.36.15,4.18.15h9.81ZM126,97.16a32.32,32.32,0,0,0-6.49-8.09L123,86.6a40.59,40.59,0,0,1,6.65,7.67Z"/><path class="cls-2" d="M163.49,68.13c-.46,1.29-.65,2.28-1.37,7.33-.27,1.6-.42,2.89-.49,3.8h.11a7.05,7.05,0,0,0,.23-.83,15.48,15.48,0,0,1,2.39-4.52c2.09-2.59,4.45-3.88,7.22-3.88a8,8,0,0,1,6.5,3.42c1.9,2.55,2.73,5.62,2.73,10.11,0,7.33-3.42,12.8-9.8,15.61a32,32,0,0,1-7.45,2.13,14.31,14.31,0,0,0-2.24-4.48,22.12,22.12,0,0,0,8.32-2.17c4.41-2.24,6.42-5.85,6.42-11.63,0-5.47-1.82-8.51-5.09-8.51a5.66,5.66,0,0,0-4.1,2,18.22,18.22,0,0,0-4.79,12.27v.8l-4.56.07a2.7,2.7,0,0,0,0-.49v-.72c0-1.1-.11-3.92-.11-4.68a98.37,98.37,0,0,1,.53-9.91l.57-4.71a9.87,9.87,0,0,0,.11-1.3Z"/><path class="cls-2" d="M208.14,77.78a16.1,16.1,0,0,0-.15,3.08c-.16,6.5-1.18,10.14-3.77,13.45-2.28,2.92-5.05,4.86-9.8,6.84a13.39,13.39,0,0,0-3-4.33,17.64,17.64,0,0,0,6.65-3.23c3.87-3.08,5.09-6.35,5.09-13.53a9.74,9.74,0,0,0-.19-2.28ZM223.56,73A10.92,10.92,0,0,0,222,75.65a24.16,24.16,0,0,1-5.85,7.64,23.28,23.28,0,0,1-4.56,3.15A12.87,12.87,0,0,0,208.21,83a17.65,17.65,0,0,0,5.55-3.5,15.64,15.64,0,0,0,3.61-4.82h-20a36.59,36.59,0,0,0-5.16.22V70.14a29.9,29.9,0,0,0,5.24.31h19.83a10.62,10.62,0,0,0,3.69-.34Z"/><path class="cls-2" d="M241.69,71.66a5.19,5.19,0,0,0-.19.76l-.07.65-.19,1.1-.12.91c-1.59,10.91-4.56,18.39-9.65,24.24a16.19,16.19,0,0,0-4.33-3.26,25.49,25.49,0,0,0,5.43-8.1,45.67,45.67,0,0,0,3.57-13,27.87,27.87,0,0,0,.35-3.68v-.54Zm10.79-1a46.67,46.67,0,0,0,1.6,8.74c1.86,7,4.52,12.16,8.47,16.42a15.65,15.65,0,0,0-4.18,3.49c-5.05-6-8.59-14.78-10.07-25a15.1,15.1,0,0,0-.53-2.73ZM263.27,73a4.39,4.39,0,1,1-4.4-4.37A4.4,4.4,0,0,1,263.27,73Zm-6.87,0a2.49,2.49,0,1,0,5,0,2.49,2.49,0,0,0-5,0Z"/><path class="cls-2" d="M266.7,82a36.85,36.85,0,0,0,6.15.27H293.1a36.92,36.92,0,0,0,6.16-.27v5.28a41.7,41.7,0,0,0-6.19-.19H272.89a41.7,41.7,0,0,0-6.19.19Z"/><path class="cls-2" d="M312.07,100.88a25.47,25.47,0,0,0,.23-4.25V72.27a24.5,24.5,0,0,0-.23-3.87h5.2a25.78,25.78,0,0,0-.15,4v7.06a112,112,0,0,1,17.25,8L331.71,92a89.56,89.56,0,0,0-13.45-7.25,12.25,12.25,0,0,1-1.29-.65,20.29,20.29,0,0,1,.15,2.58v10c0,2,0,3,.15,4.22Z"/></g></g></svg>