<svg xmlns="http://www.w3.org/2000/svg" xmlns:xlink="http://www.w3.org/1999/xlink" viewBox="0 0 600 120"><defs><style>.cls-1{fill:url(#ブルー);}.cls-2{fill:#fff;}.cls-3,.cls-5{fill:none;}.cls-3{stroke:#fff;stroke-miterlimit:10;stroke-width:2.07px;}.cls-4{isolation:isolate;}</style><linearGradient id="ブルー" x1="300" y1="118.97" x2="300" y2="1.02" gradientUnits="userSpaceOnUse"><stop offset="0" stop-color="#3fbff0"/><stop offset="0.5" stop-color="#00a1e9"/><stop offset="1" stop-color="#008dd7"/></linearGradient></defs><g id="レイヤー_2" data-name="レイヤー 2"><g id="レイヤー_1-2" data-name="レイヤー 1"><rect class="cls-1" x="1.03" y="1.02" width="597.95" height="117.95" rx="14.36"/><path class="cls-2" d="M584.62,2.05A13.35,13.35,0,0,1,598,15.38v89.24A13.35,13.35,0,0,1,584.62,118H15.38A13.35,13.35,0,0,1,2.05,104.62V15.38A13.35,13.35,0,0,1,15.38,2.05H584.62m0-2H15.38A15.39,15.39,0,0,0,0,15.38v89.24A15.39,15.39,0,0,0,15.38,120H584.62A15.39,15.39,0,0,0,600,104.62V15.38A15.39,15.39,0,0,0,584.62,0Z"/><path class="cls-2" d="M139.42,92.86a6.16,6.16,0,0,0-.71.73,18.61,18.61,0,0,1-4.2,3.94,22.1,22.1,0,0,0,8.18,2.54,6,6,0,0,0-.75,1.33,21.16,21.16,0,0,1-8.63-3.12,25.11,25.11,0,0,1-8.42,3.08,5.07,5.07,0,0,0-.74-1.29,22.76,22.76,0,0,0,8-2.58,13.52,13.52,0,0,1-3.71-4.37,12.34,12.34,0,0,0-1.53.13V91.87A12.49,12.49,0,0,0,129,92h7.7a9.18,9.18,0,0,0,1.82-.11Zm-10.93-4.34a16.61,16.61,0,0,0-1.1-2.75c-.43,0-.76,0-1.84,0a3.55,3.55,0,0,0-.47-1.21,67.18,67.18,0,0,0,9.68-.59,21.77,21.77,0,0,0,5.42-1.19l.91,1.21a5.28,5.28,0,0,0-.83.19,57.89,57.89,0,0,1-7.07,1.16,22,22,0,0,1,1.1,3.14h2.39a17,17,0,0,0,1.74-3.65l1.35.47a34.85,34.85,0,0,1-1.68,3.18h1.76a19.75,19.75,0,0,0,2.36-.09,12.59,12.59,0,0,0-.08,1.56v1.33a6.17,6.17,0,0,0,.1,1.27h-1.41V89.72h-15v3h-1.4a10.54,10.54,0,0,0,.1-1.45V90c0-.53,0-1-.08-1.54a17.87,17.87,0,0,0,2.54.11Zm4.51,0a18.9,18.9,0,0,0-1.09-3c-1,.08-1.74.14-3.25.2a20.82,20.82,0,0,1,1.16,2.81Zm-3.1,4.6a11.2,11.2,0,0,0,3.45,3.69,16.13,16.13,0,0,0,4.1-3.69Z"/><path class="cls-2" d="M149.06,99c0,.94,0,1.72.1,2.44h-1.55a21.37,21.37,0,0,0,.12-2.48V92.12c0-.9,0-1.54.09-2.48a17.33,17.33,0,0,1-2.32,3.16l-.15-.23a3.24,3.24,0,0,0-.76-.9,20.22,20.22,0,0,0,4.16-6.25,11.69,11.69,0,0,0,.91-2.62l1.49.47a8.41,8.41,0,0,0-.52,1.17c-.29.72-.95,2.13-1.57,3.3Zm11.19.25c0,1.35-.43,1.68-2.3,1.68-.8,0-1.59-.05-2.5-.13a4.63,4.63,0,0,0-.39-1.39,17.6,17.6,0,0,0,2.83.25c.85,0,1-.11,1-.54V89h-6.5a16.68,16.68,0,0,0-2.22.12V87.7a15.91,15.91,0,0,0,2.16.12h6.56V85.46a15.37,15.37,0,0,0-.15-2.39h1.59a20,20,0,0,0-.12,2.39v2.36h1a13.18,13.18,0,0,0,2-.12v1.39c-.64-.06-1.3-.08-2-.08h-1Zm-7.59-8.42a25.89,25.89,0,0,1,3.49,4.63l-1.15.88a20.78,20.78,0,0,0-3.42-4.77Z"/><path class="cls-2" d="M166.35,86.06a17.41,17.41,0,0,0-.08-2,19,19,0,0,0,1.9.06h1.54a18.48,18.48,0,0,0,1.86-.06,13.35,13.35,0,0,0-.07,2V97.32c0,1,0,1.52.07,2h-1.29v-1h-2.71v1.68h-1.34a16.7,16.7,0,0,0,.12-2.17Zm1.22,4.32h2.71V85.3h-2.71Zm0,6.74h2.71V91.49h-2.71Zm7.22-10.57a18.62,18.62,0,0,0-2,.1V85.3a12.58,12.58,0,0,0,2,.12H177v-.65a9.56,9.56,0,0,0-.13-1.66h1.53a10.16,10.16,0,0,0-.12,1.66v.65h2.94a12.76,12.76,0,0,0,2-.12v1.35a17.53,17.53,0,0,0-2-.1h-2.94v2.66h3.66a14,14,0,0,0,2.09-.12v1.37a13.72,13.72,0,0,0-2-.12h-.69v2.39H182a13.15,13.15,0,0,0,2-.12V94a14.27,14.27,0,0,0-2-.12h-.64v5.73c0,1.32-.45,1.62-2.38,1.62-.33,0-.66,0-1.86-.08a3.53,3.53,0,0,0-.33-1.35,15.71,15.71,0,0,0,2.36.25c.78,0,.93-.09.93-.54V93.9h-5.84a16.16,16.16,0,0,0-2.07.12V92.61a13.67,13.67,0,0,0,2.09.12H180V90.34h-5.82a15.83,15.83,0,0,0-2.09.12V89.09a14.32,14.32,0,0,0,2.09.12H177V86.55Zm1.6,12.31a18.47,18.47,0,0,0-2.88-3.44l1-.72a21.67,21.67,0,0,1,3,3.34Z"/><path class="cls-2" d="M188.33,99.1a15.24,15.24,0,0,0,.12,2.3h-1.53a15.8,15.8,0,0,0,.12-2.3V85.87c0-1,0-1.59-.08-2.25a19.83,19.83,0,0,0,2.17.08h3a18.83,18.83,0,0,0,2.11-.08c0,.58-.06,1.19-.06,1.95v2.54c0,.82,0,1.39.06,1.9-.56,0-1.26-.06-2.09-.06h-3.78Zm0-12.75H193V84.71h-4.63Zm0,2.62H193V87.31h-4.63Zm10.86,7.76c0,.78,0,1.33.06,1.86-.58,0-1.26-.06-2.11-.06h-4.53V100h-1.28a12.83,12.83,0,0,0,.1-1.92V93.49c0-.74,0-1.33-.06-1.92a19.12,19.12,0,0,0,2,.08h3.78a19,19,0,0,0,2.05-.08c0,.57-.06,1.1-.06,1.92Zm-6.58-2.23H198V92.67h-5.4Zm0,3H198v-2h-5.4Zm11.09,1.9c0,1.35-.44,1.7-2.11,1.7-.44,0-1.55,0-2.07-.08a4.71,4.71,0,0,0-.37-1.31c1,.12,1.84.2,2.27.2.85,0,1-.1,1-.59V90h-4.25c-.86,0-1.53,0-2.09.06.05-.53.07-1.15.07-1.9V85.57c0-.72,0-1.33-.07-1.95a18.6,18.6,0,0,0,2.11.08h3.42a19.71,19.71,0,0,0,2.17-.08,19.82,19.82,0,0,0-.1,2.25Zm-6.35-13.06h5.09V84.71h-5.09Zm0,2.62h5.09V87.31h-5.09Z"/><path class="cls-2" d="M217.08,88.66h-2v-2h2Zm-2,9v-2h2v2Z"/><path class="cls-2" d="M229.46,96.42a3.14,3.14,0,0,0,.74,1.31,3.38,3.38,0,0,0,2.61,1,3.58,3.58,0,0,0,3.33-1.88,8.4,8.4,0,0,0,.89-2.62,23.4,23.4,0,0,0,.18-2.4,4.08,4.08,0,0,1-.82,1.15,5.12,5.12,0,0,1-8.9-3.61c0-3.25,2.21-5.38,5.61-5.38a5.16,5.16,0,0,1,5,3.44,12.15,12.15,0,0,1,.6,4.26c0,2.85-.6,5.16-1.71,6.53a5.12,5.12,0,0,1-4.31,1.91A4.88,4.88,0,0,1,227.76,97Zm7.36-7.21A3.77,3.77,0,0,0,233,85.34a3.88,3.88,0,0,0-3.29,1.74,4.33,4.33,0,0,0-.54,2.15A3.47,3.47,0,0,0,232.81,93,3.81,3.81,0,0,0,236.82,89.21Z"/><path class="cls-2" d="M243.5,90.81h-2v-2h2Zm-2,9v-2h2v2Z"/><path class="cls-2" d="M248,98.67a5,5,0,0,1-1.24-1.88,13.93,13.93,0,0,1-.79-4.73,11.93,11.93,0,0,1,1.2-5.57,5.59,5.59,0,0,1,8.43-1.07,5.34,5.34,0,0,1,1.24,1.89,14.13,14.13,0,0,1,.78,4.75A10.6,10.6,0,0,1,256.14,98a5.07,5.07,0,0,1-4.38,2.15A5.21,5.21,0,0,1,248,98.67Zm1.2-12.24a4.29,4.29,0,0,0-.93,1.49,12.7,12.7,0,0,0-.64,4.14,11.19,11.19,0,0,0,1,4.87,3.53,3.53,0,0,0,3.21,1.78,3.44,3.44,0,0,0,2.54-1,4,4,0,0,0,1-1.6,12.69,12.69,0,0,0,.64-4.13,11.62,11.62,0,0,0-.93-4.77,3.51,3.51,0,0,0-3.25-1.87A3.38,3.38,0,0,0,249.17,86.43Z"/><path class="cls-2" d="M261.56,98.67a5.14,5.14,0,0,1-1.24-1.88,14.18,14.18,0,0,1-.78-4.73,11.81,11.81,0,0,1,1.2-5.57A5.08,5.08,0,0,1,265.37,84a5.14,5.14,0,0,1,3.79,1.45,5.21,5.21,0,0,1,1.24,1.89,13.88,13.88,0,0,1,.79,4.75A10.6,10.6,0,0,1,269.74,98a5.1,5.1,0,0,1-4.39,2.15A5.23,5.23,0,0,1,261.56,98.67Zm1.2-12.24a4.29,4.29,0,0,0-.93,1.49,12.7,12.7,0,0,0-.64,4.14,11.17,11.17,0,0,0,1,4.87,3.51,3.51,0,0,0,3.2,1.78,3.45,3.45,0,0,0,2.55-1,4.08,4.08,0,0,0,1-1.6,12.69,12.69,0,0,0,.64-4.13,11.46,11.46,0,0,0-.93-4.77,3.5,3.5,0,0,0-3.25-1.87A3.41,3.41,0,0,0,262.76,86.43Z"/><path class="cls-2" d="M273.21,92.12c1.84-1.78,3.13-2.42,5-2.42a5.66,5.66,0,0,1,2.59.6,12.68,12.68,0,0,1,1.94,1.23c1.74,1.22,2.79,1.68,4,1.68a4.18,4.18,0,0,0,1.66-.35,5.5,5.5,0,0,0,2.36-2l1.07.92a8.3,8.3,0,0,1-2.38,2.11,5.63,5.63,0,0,1-2.73.7,6.71,6.71,0,0,1-2-.33,10.57,10.57,0,0,1-2.88-1.66c-1.63-1.21-2.46-1.55-3.72-1.55a4.24,4.24,0,0,0-2.13.53A7.15,7.15,0,0,0,274.25,93Z"/><path class="cls-2" d="M296.18,84.15a9.28,9.28,0,0,0,1.72.11h1.3a11,11,0,0,0,1.72-.11,31.82,31.82,0,0,0-.19,3.4v10a12.37,12.37,0,0,0,.17,2.31h-2a13.13,13.13,0,0,0,.17-2.31V85.65H298a13,13,0,0,0-1.8.12Z"/><path class="cls-2" d="M317.47,92.55A3.77,3.77,0,0,1,319,95.76c0,2.81-2.07,4.39-5.71,4.39-3.79,0-5.88-1.56-5.88-4.39a3.77,3.77,0,0,1,1.84-3.39,4.3,4.3,0,0,1,1.87-.7,3.58,3.58,0,0,1-3-3.69c0-2.47,2-4,5.09-4s5.11,1.53,5.11,4a3.58,3.58,0,0,1-3,3.69A4.17,4.17,0,0,1,317.47,92.55Zm-8.34,3.11c0,2,1.51,3.09,4.08,3.09a4.7,4.7,0,0,0,3.33-1.06,2.7,2.7,0,0,0,.78-2c0-2-1.55-3.21-4.09-3.21S309.13,93.68,309.13,95.66Zm.62-7.55c0,1.82,1.32,2.93,3.5,2.93s3.47-1.11,3.47-2.93-1.36-2.81-3.49-2.81S309.75,86.41,309.75,88.11Z"/><path class="cls-2" d="M323.53,90.81h-2v-2h2Zm-2,9v-2h2v2Z"/><path class="cls-2" d="M328,98.67a4.9,4.9,0,0,1-1.24-1.88,13.93,13.93,0,0,1-.79-4.73,11.93,11.93,0,0,1,1.2-5.57,5.58,5.58,0,0,1,8.42-1.07,5.21,5.21,0,0,1,1.24,1.89,13.88,13.88,0,0,1,.79,4.75A10.6,10.6,0,0,1,336.17,98a5.08,5.08,0,0,1-4.39,2.15A5.19,5.19,0,0,1,328,98.67Zm1.2-12.24a4,4,0,0,0-.93,1.49,12.44,12.44,0,0,0-.65,4.14,11.17,11.17,0,0,0,1,4.87,3.52,3.52,0,0,0,3.2,1.78,3.45,3.45,0,0,0,2.55-1,4,4,0,0,0,1-1.6A12.42,12.42,0,0,0,336,92a11.46,11.46,0,0,0-.93-4.77,3.5,3.5,0,0,0-3.25-1.87A3.37,3.37,0,0,0,329.2,86.43Z"/><path class="cls-2" d="M341.59,98.67a5,5,0,0,1-1.24-1.88,13.93,13.93,0,0,1-.79-4.73,11.93,11.93,0,0,1,1.2-5.57,5.39,5.39,0,0,1,9.66.82,13.88,13.88,0,0,1,.79,4.75A10.6,10.6,0,0,1,349.76,98a5.07,5.07,0,0,1-4.38,2.15A5.21,5.21,0,0,1,341.59,98.67Zm1.2-12.24a4.15,4.15,0,0,0-.93,1.49,12.44,12.44,0,0,0-.64,4.14,11.19,11.19,0,0,0,1,4.87,3.52,3.52,0,0,0,3.21,1.78,3.44,3.44,0,0,0,2.54-1,4,4,0,0,0,1-1.6,12.69,12.69,0,0,0,.64-4.13,11.44,11.44,0,0,0-.94-4.77,3.49,3.49,0,0,0-3.24-1.87A3.38,3.38,0,0,0,342.79,86.43Z"/><path class="cls-2" d="M376.18,92.24c0-.94,0-1.53.07-2.49A16,16,0,0,1,374,92.86a3.78,3.78,0,0,0-.85-1.17A19.63,19.63,0,0,0,377,86.14a14.69,14.69,0,0,0,1.14-3.46l1.47.45c-.27.7-.54,1.35-.77,2a26.56,26.56,0,0,1-1.28,2.84V99a21.73,21.73,0,0,0,.1,2.4h-1.55a21.73,21.73,0,0,0,.12-2.46Zm4.74-3.6a15.51,15.51,0,0,0-2.07.12V87.29a15.09,15.09,0,0,0,2.07.12h3.77V85.14a16.08,16.08,0,0,0-.15-2h1.59a16.45,16.45,0,0,0-.12,2v2.27h4.39a15.84,15.84,0,0,0,2.13-.12v1.47a15.94,15.94,0,0,0-2.11-.12h-4C388.47,92.71,390.25,95,393,97a5,5,0,0,0-1.12,1.09,20,20,0,0,1-6-8.34c0,.8.06,1.42.06,2.32v7.27a13.66,13.66,0,0,0,.14,2.11h-1.61a14.65,14.65,0,0,0,.17-2.11V92.12c0-.82,0-1.62,0-2.31A19,19,0,0,1,379,98,4.31,4.31,0,0,0,378,97a19,19,0,0,0,4.33-4.71,21.55,21.55,0,0,0,2-3.6Z"/><path class="cls-2" d="M397.18,86a14.69,14.69,0,0,0-.1-2,17.39,17.39,0,0,0,2.21.1h9.31a15.68,15.68,0,0,0,2.14-.1,11.74,11.74,0,0,0-.11,1.88V99a14.33,14.33,0,0,0,.13,2.19h-1.51V99.86H398.57v1.33h-1.51a16.07,16.07,0,0,0,.12-2.17Zm1.39,5.08h10.68V85.34H398.57Zm0,7.53h10.68V92.33H398.57Z"/><path class="cls-2" d="M425.61,88.66h-2.05v-2h2.05Zm-2.05,9v-2h2.05v2Z"/><path class="cls-2" d="M444.4,85.22a14.71,14.71,0,0,0-.15-2.15H446a13,13,0,0,0-.15,2.15v4.4h4.82a15.32,15.32,0,0,0,2.24-.12V91a17,17,0,0,0-2.24-.1H445.8v8.17h6.38a18.54,18.54,0,0,0,2.33-.12v1.56a15.38,15.38,0,0,0-2.33-.15h-13.6a16.92,16.92,0,0,0-2.46.15V98.94a20,20,0,0,0,2.46.12h5.82V90.89h-4.35a16.94,16.94,0,0,0-2.25.1V89.5a15.67,15.67,0,0,0,2.25.12h4.35Z"/><path class="cls-2" d="M467.67,92.16A1.7,1.7,0,1,1,466,90.48,1.69,1.69,0,0,1,467.67,92.16Z"/><path class="cls-2" d="M479.94,86a14.69,14.69,0,0,0-.1-2,17.39,17.39,0,0,0,2.21.1h9.31a15.52,15.52,0,0,0,2.13-.1,13.16,13.16,0,0,0-.1,1.88V99a16,16,0,0,0,.12,2.19H492V99.86H481.33v1.33h-1.51a16.07,16.07,0,0,0,.12-2.17Zm1.39,5.08H492V85.34H481.33Zm0,7.53H492V92.33H481.33Z"/><path class="cls-2" d="M509.05,92.16a1.7,1.7,0,1,1-1.7-1.68A1.69,1.69,0,0,1,509.05,92.16Z"/><path class="cls-2" d="M523.1,99.21a11,11,0,0,0,.14,2.12h-1.55a13.13,13.13,0,0,0,.13-2.12V93a18.85,18.85,0,0,1-3,2.58,5.9,5.9,0,0,0-.7-1.13,17.11,17.11,0,0,0,3.73-3,14.63,14.63,0,0,0,2.6-3.89h-3.78a11.38,11.38,0,0,0-1.68.09V86.3a10.26,10.26,0,0,0,1.63.09h1.25v-2a11.22,11.22,0,0,0-.13-1.64h1.55a9,9,0,0,0-.12,1.64v2h1a10.23,10.23,0,0,0,1.29-.06l.68.73c-.17.29-.17.29-.85,1.62a16.3,16.3,0,0,1-1.88,2.7,11.58,11.58,0,0,0,3.2,2.42,4.31,4.31,0,0,0-.66,1.15,15.66,15.66,0,0,1-2.79-2.28Zm5.17-7.77a11.8,11.8,0,0,0-1.65.09,15,15,0,0,0,.08-1.81V85.61a14.59,14.59,0,0,0-.08-1.7,17.67,17.67,0,0,0,2,.08h5.82a16.31,16.31,0,0,0,1.86-.08,13.16,13.16,0,0,0-.09,1.68v4.28a13,13,0,0,0,.09,1.66,12.16,12.16,0,0,0-1.68-.09h-1.09c0,7.89,0,7.89,0,8s.31.29.93.29c1,0,1.53-.07,1.67-.23s.38-1.06.4-3.27a4,4,0,0,0,1.24.57c-.21,3-.31,3.5-.89,3.83a4.89,4.89,0,0,1-2.28.31,3.47,3.47,0,0,1-2-.31c-.29-.19-.4-.43-.4-1V91.44h-1.84a13.68,13.68,0,0,1-.93,5.27,8.09,8.09,0,0,1-2,3,8.86,8.86,0,0,1-2.31,1.55,5.85,5.85,0,0,0-1-1.1,7.13,7.13,0,0,0,2.92-2c1.39-1.6,2-3.48,2.05-6.74ZM528,90.3h6.91V85.18H528Z"/><path class="cls-2" d="M542,88.29a14.41,14.41,0,0,1,2,1.54,14,14,0,0,0,1.46-1.42,9.91,9.91,0,0,0-2.15-1.47l.75-.72a10.41,10.41,0,0,1,2.07,1.44,12.94,12.94,0,0,0,1.53-2.44h-3.73a14.06,14.06,0,0,1-4,3.85,3.09,3.09,0,0,0-.85-.9,11.94,11.94,0,0,0,3.1-2.6,8.71,8.71,0,0,0,1.7-2.93l1.41.31a5.32,5.32,0,0,0-.27.49,5.37,5.37,0,0,1-.42.73h2.65a6.17,6.17,0,0,0,1.2-.08l.75.9c-.21.35-.21.35-.46.8a16.44,16.44,0,0,1-3.27,4.28,23.64,23.64,0,0,1-5.64,4.1,3.46,3.46,0,0,0-.81-1.11,18.78,18.78,0,0,0,4.18-2.54,10.67,10.67,0,0,0-2-1.53Zm3.58,8.15a17.2,17.2,0,0,1-4.49,4.38,4.08,4.08,0,0,0-1-1,11.84,11.84,0,0,0,4.3-3.91ZM543,95.09a15.4,15.4,0,0,0-2.07.12V93.82a19.89,19.89,0,0,0,2.07.1h11.82a19.58,19.58,0,0,0,2.09-.1v1.39a15,15,0,0,0-2.09-.12h-5.2v4.69c0,1.17-.45,1.55-1.84,1.55l-1.53,0c-.64,0-.64,0-.89,0a5.47,5.47,0,0,0-.35-1.35,13.64,13.64,0,0,0,2.44.21c.73,0,.87-.09.87-.5V95.09Zm9.71-3.36a14.41,14.41,0,0,0-1.78-.08h-3.81a14.46,14.46,0,0,0-1.8.08V90.4a12.54,12.54,0,0,0,1.8.08H551a10.81,10.81,0,0,0,1.78-.1ZM557.2,85a4.41,4.41,0,0,0-.77.92,23.18,23.18,0,0,1-2.92,3.17,16.08,16.08,0,0,0,5,3.3,4.15,4.15,0,0,0-.76,1.27,21.41,21.41,0,0,1-3.19-2,16.83,16.83,0,0,1-3.83-4.1,21.32,21.32,0,0,1-1.43-2.82,7.74,7.74,0,0,0-.58-1.19l1.31-.33a12.16,12.16,0,0,0,2.65,5.08,14.87,14.87,0,0,0,2.69-3h-2.8a10.72,10.72,0,0,0-1.51.08V84a9.46,9.46,0,0,0,1.66.14h2.19a9.21,9.21,0,0,0,1.51-.08Zm-4.08,10.77a14.69,14.69,0,0,0,4.68,3.87,5.28,5.28,0,0,0-.94,1.1A21.43,21.43,0,0,1,552,96.4Z"/><path class="cls-2" d="M562.7,86a13.11,13.11,0,0,0-.11-2,17.66,17.66,0,0,0,2.22.1h9.31a15.52,15.52,0,0,0,2.13-.1,13.16,13.16,0,0,0-.1,1.88V99a16,16,0,0,0,.12,2.19h-1.51V99.86H564.08v1.33h-1.51A14.4,14.4,0,0,0,562.7,99Zm1.38,5.08h10.68V85.34H564.08Zm0,7.53h10.68V92.33H564.08Z"/><line class="cls-3" x1="124.82" y1="74.31" x2="577.92" y2="74.31"/><g class="cls-4"><circle class="cls-5" cx="67.78" cy="60.53" r="41.15"/></g><path class="cls-2" d="M67.78,23.89l-1.88.05L64,24.08l-1.83.23-1.8.33-1.76.41-1.74.49-1.7.58-1.66.65-1.62.74-1.58.81-1.53.88-1.49,1-1.44,1-1.38,1.09-1.34,1.16L41.9,34.64l-1.22,1.28-1.15,1.33-1.09,1.39-1,1.44-.95,1.48-.89,1.54-.81,1.58L34,46.3,33.37,48l-.58,1.7-.49,1.73-.41,1.77L31.57,55l-.24,1.83-.14,1.85-.05,1.89.05,1.88.14,1.86.24,1.83.32,1.79.41,1.77.49,1.74.58,1.7L34,74.76l.73,1.62L35.57,78l.89,1.53L37.41,81l1,1.44,1.09,1.38,1.15,1.34,1.22,1.27,1.27,1.22,1.34,1.15,1.38,1.09,1.44,1,1.49.95,1.53.89,1.58.81,1.62.73,1.66.66,1.7.57,1.74.5,1.76.41,1.8.32L64,97l1.86.14,1.88,0,1.88,0L71.52,97l1.83-.24,1.8-.32L76.92,96l1.73-.5,1.7-.57L82,94.28l1.62-.73,1.58-.81,1.54-.89,1.48-.95,1.44-1,1.39-1.09,1.33-1.15,1.28-1.22,1.21-1.27L96,83.8l1.09-1.38,1-1.44,1-1.49L100,78l.81-1.58.74-1.62.65-1.66.58-1.7.49-1.74.41-1.77L104,66.1l.23-1.83.14-1.86,0-1.88,0-1.89-.14-1.85L104,55l-.33-1.8-.41-1.77-.49-1.73-.58-1.7-.65-1.66-.74-1.62L100,43.1l-.88-1.54-1-1.48-1-1.44L96,37.25l-1.16-1.33-1.21-1.28-1.28-1.21-1.33-1.16-1.39-1.09-1.44-1-1.48-1-1.54-.88-1.58-.81L82,26.77l-1.66-.65-1.7-.58-1.73-.49-1.77-.41-1.8-.33-1.83-.23-1.86-.14Zm0-4.52A41.16,41.16,0,1,1,26.63,60.53,41.24,41.24,0,0,1,67.78,19.37Z"/><path class="cls-2" d="M80.53,85.28l3.38-2a1.22,1.22,0,0,0,.56-.84,1.81,1.81,0,0,0-.37-1.24L77.88,70.48c-.63-1.09-1.25-1.35-2-.9l-3.3,1.91ZM53.38,69l.3.52c4.11,7,8.21,11.74,12.41,14,5.13,2.86,9.26,3.8,12.62,2.79l.08,0L70.73,72.54a2.9,2.9,0,0,1-2.89,0A9.44,9.44,0,0,1,65,69.7c-1-1.59-2.2-3.41-3.46-5.59-1.58-2.72-2.53-4.57-3-5.42a9.39,9.39,0,0,1-.94-3.83,2.61,2.61,0,0,1,1.45-2.5L51,38.49c-1.46,1.26-2.61,3.49-3.26,6.57a23.74,23.74,0,0,0-.43,8.46C48,58,50,63.1,53.38,69Zm7.24-17.52,3.3-1.91c.87-.5.89-1.46.17-2.7L58.28,36.79c-.54-.93-.94-1.43-1.29-1.43a2.23,2.23,0,0,0-1.27.42l-3.12,1.8Z"/><path class="cls-2" d="M192.92,50.19c0,4-1.06,16.65-15.29,16.65-6.65,0-10.23-2.89-12.11-5.33-2.39-3.14-3.22-8.8-3.22-12.39,0-4,1.06-16.65,15.33-16.65C191,32.47,192.92,43.46,192.92,50.19Zm-22.08-.53c0,1.36,0,10.94,6.79,10.94s6.75-9.54,6.75-10.94,0-10.95-6.75-10.95S170.84,48.17,170.84,49.66Z"/><path class="cls-2" d="M214.17,33.38h8.22V53H228V59.2h-5.6v6.73h-8.31V59.2H196.91V52.92ZM214.08,53V41.52L204,53Z"/><path class="cls-2" d="M262.6,56.76a9,9,0,0,1-4.14,7.56c-3.58,2.27-8.72,2.52-11.15,2.52-2.84,0-7.71-.33-11.15-2.52A9,9,0,0,1,232,56.76c0-5.95,5.28-7.6,6.89-8.09-5.7-2.28-5.7-6.45-5.7-7.27a8,8,0,0,1,4-6.7c2.66-1.77,7.43-2.23,10.32-2.23,12.9,0,13.91,7,13.91,8.93,0,2.56-1.33,5.61-5.69,7.27C257.32,49.16,262.6,50.81,262.6,56.76Zm-22.08-.87c0,3.51,3.67,4.71,6.79,4.71s6.75-1.2,6.75-4.71c0-1.32-.78-4.7-6.75-4.7S240.52,54.53,240.52,55.89Zm1.19-13.25c0,.53.09,3.92,5.56,3.92s5.59-3.31,5.59-3.88c0-1.49-1.05-4-5.55-4S241.71,41.15,241.71,42.64Z"/><path class="cls-2" d="M279.9,57.17H266.5V51h13.4Z"/><path class="cls-2" d="M314.65,65.93H283.8c.6-7.23,5.1-10.2,14.83-16.15C306,45.24,306,44.29,306,42.55c0-3.1-3.67-3.88-6.06-3.88-6.2,0-6.84,4-7,6.65h-8.49c.13-2.6.27-5.45,2.84-8.22,3.08-3.35,7.53-4.63,12.72-4.63,10.51,0,14.32,5.21,14.32,10a9.23,9.23,0,0,1-2,5.66C310,51,300.69,56.35,300.24,56.64a25.08,25.08,0,0,0-4.69,3.18h19.1Z"/><path class="cls-2" d="M327.82,57.79c.42.87,1.38,2.77,5.51,2.77,7.11,0,7.57-5.53,7.85-8.71-1.61,1.32-3.72,3-9.69,3-7.66,0-12.85-4-12.85-10.49,0-6.07,4.64-11.94,14.64-11.94a17.09,17.09,0,0,1,8.54,2c6.47,3.51,7.44,10.2,7.44,15.16,0,16.19-12.81,17.18-16,17.18-4.13,0-12.71-1.69-14.22-9.05Zm-.92-13.71c0,3.43,3.31,5.16,6.84,5.16s6.8-1.77,6.8-5.16c0-2.68-2.21-5.41-6.8-5.41S326.9,41.4,326.9,44.08Z"/><path class="cls-2" d="M362.66,57.79c.41.87,1.38,2.77,5.51,2.77,7.11,0,7.57-5.53,7.85-8.71-1.61,1.32-3.72,3-9.69,3-7.66,0-12.85-4-12.85-10.49,0-6.07,4.64-11.94,14.64-11.94a17.09,17.09,0,0,1,8.54,2c6.47,3.51,7.44,10.2,7.44,15.16,0,16.19-12.81,17.18-16,17.18-4.13,0-12.71-1.69-14.23-9.05Zm-.92-13.71c0,3.43,3.31,5.16,6.84,5.16s6.79-1.77,6.79-5.16c0-2.68-2.2-5.41-6.79-5.41S361.74,41.4,361.74,44.08Z"/><path class="cls-2" d="M401.4,57.17H388V51h13.4Z"/><path class="cls-2" d="M435.92,56.76a8.94,8.94,0,0,1-4.13,7.56c-3.58,2.27-8.72,2.52-11.16,2.52-2.84,0-7.71-.33-11.15-2.52a9,9,0,0,1-4.18-7.56c0-5.95,5.28-7.6,6.89-8.09-5.69-2.28-5.69-6.45-5.69-7.27a8,8,0,0,1,4-6.7c2.66-1.77,7.44-2.23,10.33-2.23,12.89,0,13.9,7,13.9,8.93,0,2.56-1.33,5.61-5.69,7.27C430.64,49.16,435.92,50.81,435.92,56.76Zm-22.08-.87c0,3.51,3.67,4.71,6.79,4.71s6.75-1.2,6.75-4.71c0-1.32-.78-4.7-6.75-4.7S413.84,54.53,413.84,55.89ZM415,42.64c0,.53.1,3.92,5.56,3.92s5.6-3.31,5.6-3.88c0-1.49-1.06-4-5.56-4S415,41.15,415,42.64Z"/><path class="cls-2" d="M461.62,41.52c-.46-.87-1.37-2.77-5.55-2.77-7.12,0-7.57,5.54-7.85,8.72,1.61-1.32,3.72-3.06,9.69-3.06,7.66,0,12.85,4,12.85,10.49,0,6.07-4.64,11.94-14.65,11.94a17.21,17.21,0,0,1-8.53-2c-6.47-3.51-7.44-10.21-7.44-15.16,0-16.19,12.81-17.19,16-17.19,4.14,0,12.72,1.7,14.23,9.05Zm.87,13.71c0-3.43-3.3-5.16-6.79-5.16s-6.84,1.78-6.84,5.16c0,2.69,2.21,5.41,6.84,5.41S462.49,57.92,462.49,55.23Z"/><path class="cls-2" d="M505.6,56.76a9,9,0,0,1-4.14,7.56c-3.58,2.27-8.72,2.52-11.15,2.52-2.84,0-7.71-.33-11.15-2.52A9,9,0,0,1,475,56.76c0-5.95,5.28-7.6,6.89-8.09-5.7-2.28-5.7-6.45-5.7-7.27a8,8,0,0,1,4-6.7c2.66-1.77,7.43-2.23,10.32-2.23,12.9,0,13.91,7,13.91,8.93,0,2.56-1.33,5.61-5.69,7.27C500.32,49.16,505.6,50.81,505.6,56.76Zm-22.08-.87c0,3.51,3.67,4.71,6.79,4.71s6.75-1.2,6.75-4.71c0-1.32-.78-4.7-6.75-4.7S483.52,54.53,483.52,55.89Zm1.19-13.25c0,.53.09,3.92,5.56,3.92s5.59-3.31,5.59-3.88c0-1.49-1.05-4-5.55-4S484.71,41.15,484.71,42.64Z"/><path class="cls-2" d="M519,57.79c.41.87,1.38,2.77,5.51,2.77,7.11,0,7.57-5.53,7.85-8.71-1.61,1.32-3.72,3-9.69,3-7.66,0-12.85-4-12.85-10.49,0-6.07,4.64-11.94,14.64-11.94a17.12,17.12,0,0,1,8.54,2c6.47,3.51,7.43,10.2,7.43,15.16,0,16.19-12.8,17.18-16,17.18-4.13,0-12.71-1.69-14.23-9.05Zm-.92-13.71c0,3.43,3.31,5.16,6.84,5.16s6.79-1.77,6.79-5.16c0-2.68-2.2-5.41-6.79-5.41S518.08,41.4,518.08,44.08Z"/><path class="cls-2" d="M268.06,18.56c1.49-1.16,1.77-1.47,5.19-5.5,1.68-2,2.77-2.06,3.27-2.06,1,0,1.81.54,2.82,1.72,4.41,5.21,5.69,6.72,8.86,9.28A17.5,17.5,0,0,0,286,25a100.33,100.33,0,0,1-7.72-8.58,13.81,13.81,0,0,0-1.41-1.58.68.68,0,0,0-.44-.17c-.48,0-1.16.8-1.7,1.43s-3.15,4-3.68,4.71a.58.58,0,0,1,.13.37.24.24,0,0,1-.25.23c-.15,0-.23-.06-.4-.25Zm15.5-8.26a15.65,15.65,0,0,1,2.2,2.25A12.77,12.77,0,0,0,284.21,14,25.41,25.41,0,0,0,282,11.69Zm2.18-1.93a20.88,20.88,0,0,1,2.08,2.23,19.82,19.82,0,0,0-1.47,1.49,20.68,20.68,0,0,0-2.14-2.44Z"/><path class="cls-2" d="M297.8,15.93a36,36,0,0,1,3.29,2,14.54,14.54,0,0,0,1.56-3.19h-5a24,24,0,0,1-4.41,4.7,19.36,19.36,0,0,0-2.64-2.21,19.14,19.14,0,0,0,6.84-8.81l3.28,1.07c.23.08.37.12.37.29s-.2.23-.5.25c-.38.7-.63,1.16-1,1.79h4.58a4.24,4.24,0,0,0,1.45-.21l1.49,1.28a8.45,8.45,0,0,0-.44.88,35.34,35.34,0,0,1-3,6.11,9.5,9.5,0,0,1,1.82,2c-.56.7-1.68,2.23-2,2.77a14.91,14.91,0,0,0-1.81-2.07A19.66,19.66,0,0,1,294,27.6a13.74,13.74,0,0,0-2.29-2.81,17.82,17.82,0,0,0,7.49-4.36,34,34,0,0,0-3.4-2.23Z"/><path class="cls-2" d="M329,16.37v3.57H310.76V16.37Z"/><path class="cls-2" d="M346,14.27a6.4,6.4,0,0,0,1.81-.19l2,1.45c-.35.67-1.89,3.66-2.22,4.24a16.81,16.81,0,0,1-9.14,8.07,14,14,0,0,0-2.28-2.71c1.93-.67,6.72-2.33,8.79-7.79H332.39V14.27Zm1.24-4.89v3H335.05v-3Z"/><path class="cls-2" d="M364.14,27.31h-3.62V17.76a38.36,38.36,0,0,1-5.81,3,10.18,10.18,0,0,0-2.52-3,29.32,29.32,0,0,0,14.3-9.62l2.79,2.21a.47.47,0,0,1,.25.39.3.3,0,0,1-.33.28,1.35,1.35,0,0,1-.42-.06,43.55,43.55,0,0,1-4.64,4.3Z"/><path class="cls-2" d="M388.22,9.72a9.63,9.63,0,0,0,1.45-.13l2.44,2a3.78,3.78,0,0,0-.7,1.12c-2.1,5.12-2.54,6.15-4.07,8.21-1.78,2.37-3.86,4.09-7.77,6.25a13,13,0,0,0-2.6-2.56c4.76-2.29,8-4.43,10.62-11.76H374.83V9.72Z"/><path class="cls-2" d="M405.3,10.58a10,10,0,0,0,1.23-2.52l2.8.88c.19.06.42.13.42.32s-.36.27-.49.27c-.08.17-.5.9-.6,1.05h4.17v2.35h-7.41v.67h5.38v2.48h-5.38v.69h7.88v2.5h-11c-.06.17-.1.34-.31.88h10v2.63h-4.62v1.89h6V27.4H398.09V25.78a18.1,18.1,0,0,1-2.31,1.82,6.82,6.82,0,0,0-2.37-2.18,11.28,11.28,0,0,0,5.71-6.15h-4.78v-2.5h8v-.69h-5.37V13.6h5.37v-.67h-7.37V10.58h4.22a7.83,7.83,0,0,0-1.05-1.45l2.78-1a7.7,7.7,0,0,1,1.76,2c-.55.14-.88.25-1.41.42Zm-4.73,12.2a15.62,15.62,0,0,1-1.43,1.89h5.17V22.78Z"/><path class="cls-2" d="M424.3,8.88v7.3h-5.69V27.71h-2.94V8.88Zm-2.88,2.71v-.87h-2.81v.87Zm-2.81,1.63v.88h2.81v-.88Zm4.49,12.22v.67h-2.73v-8.9h9.1v7.54a9.8,9.8,0,0,0,1.15.1c.55,0,.57-.2.57-.73V16.18h-5.8V8.88H434V25.19c0,2.12-.73,2.48-3.88,2.67a7.31,7.31,0,0,0-.71-2.42Zm3.64-5.1v-.92H423.1v.92Zm-3.64,1.95v.95h3.64v-.95Zm8-10.7v-.87h-2.79v.87Zm-2.79,1.63v.88h2.79v-.88Z"/></g></g></svg>