<svg xmlns="http://www.w3.org/2000/svg" viewBox="0 0 414 170"><defs><style>.cls-1{fill:#80bee7;}.cls-2{fill:#fff;}</style></defs><g id="レイヤー_2" data-name="レイヤー 2"><g id="レイヤー_1-2" data-name="レイヤー 1"><rect class="cls-1" width="414" height="170"/><path class="cls-2" d="M76.23,87.73c1-.58,2.81-2.89,7.46-9.44a12.92,12.92,0,0,1,2.6-3.08,4.05,4.05,0,0,1,2.37-.74c1.73,0,2.53.62,5.17,4a126.35,126.35,0,0,0,11.25,12.44,20.67,20.67,0,0,0,3.29,2.92l-2.18,5.35A187.49,187.49,0,0,1,91.5,82.7C89.28,80,89.28,80,88.69,80s-.69.12-2.12,2.26-4.34,6.2-6.21,8.7c-.56.74-.69.93-1.18,1.6Zm23.57-15a25.49,25.49,0,0,1,3.64,5.74L101,79.93a26.16,26.16,0,0,0-3.64-5.81Zm5.38,4.72a29,29,0,0,0-3.54-5.65L104,70.45a21.85,21.85,0,0,1,3.62,5.5Z"/><path class="cls-2" d="M138.36,74.7a7.39,7.39,0,0,0-1.07,2.62A68.43,68.43,0,0,1,132.84,88c-3.54,6.48-8.43,11.08-15.83,14.9a12.17,12.17,0,0,0-2.88-4A33.47,33.47,0,0,0,120.9,95a26.06,26.06,0,0,0,5.69-5.42A39.21,39.21,0,0,0,119.48,84l2.64-3.48a45.79,45.79,0,0,1,7,5.23,38.94,38.94,0,0,0,3.89-9.2l-10.79.11a39.36,39.36,0,0,1-8.13,10.49,11.28,11.28,0,0,0-3.47-3.12A32.42,32.42,0,0,0,119.3,73a25.37,25.37,0,0,0,2-5.42l4.51,1.13a21.88,21.88,0,0,0-1,2.18c-.42,1.06-.66,1.52-.83,1.87.55-.07.55-.07,9-.15a8.26,8.26,0,0,0,3.06-.47Z"/><path class="cls-2" d="M143.32,82.43a30.94,30.94,0,0,0,5.63.27h18.5a30.8,30.8,0,0,0,5.62-.27v5.42a33.13,33.13,0,0,0-5.66-.2H149a33.13,33.13,0,0,0-5.66.2Z"/><path class="cls-2" d="M204.83,81.26a20,20,0,0,0-1,2.45c-1.8,5.74-4.44,10.07-8.05,13.19a30,30,0,0,1-9.1,5.3A13.69,13.69,0,0,0,184,97.68a21.64,21.64,0,0,0,9.65-5.15c2.57-2.42,4.07-4.8,5.59-9.13h-16.9a30.76,30.76,0,0,0-4.45.2V78.84a22.41,22.41,0,0,0,4.52.27h16.52a13.65,13.65,0,0,0,3.92-.35Zm-24-11.82a18,18,0,0,0,4.07.27H197a17.84,17.84,0,0,0,4.06-.27v4.8a23.11,23.11,0,0,0-4-.2H184.84a23.32,23.32,0,0,0-4,.2Z"/><path class="cls-2" d="M237.32,71.54A16.37,16.37,0,0,0,236,72.91a64,64,0,0,1-8.2,8V97.6a32.76,32.76,0,0,0,.18,4.33h-4.86a25,25,0,0,0,.21-4.22V84c-4.07,2.73-6,3.74-12.4,6.31a15.3,15.3,0,0,0-2.32-4.44,48.9,48.9,0,0,0,18.22-10.14,29.76,29.76,0,0,0,6.46-7.3Z"/><path class="cls-2" d="M270.54,73.81a6.21,6.21,0,0,0-.59,1.75c-1.74,7.45-3.79,12.13-7.12,16.34s-7.12,7.14-12.91,9.95a14.3,14.3,0,0,0-3.06-4.64,26.75,26.75,0,0,0,7.6-4c5.42-3.94,8.82-9.44,10.52-17H248.46a23.82,23.82,0,0,0-4.37.24V71.39a22.09,22.09,0,0,0,4.44.27h15.93a11.44,11.44,0,0,0,3.72-.39Z"/><path class="cls-2" d="M279.59,75.13a24.39,24.39,0,0,0-3.74.2v-4a24,24,0,0,0,3.74.23h4A17.19,17.19,0,0,0,281.16,68l3.78-1.13a37.83,37.83,0,0,1,2.74,4.71h4.93a19.41,19.41,0,0,0,2.4-4.71l3.95,1a24.68,24.68,0,0,1-2.32,3.74h4.13a23.19,23.19,0,0,0,3.71-.23v4a24.28,24.28,0,0,0-3.71-.2h-9v2.34h7.95a17.77,17.77,0,0,0,3.09-.19v3.86a22.25,22.25,0,0,0-3.09-.16h-7.95v2.38H302a21.35,21.35,0,0,0,3.72-.19v4A23,23,0,0,0,302,87H285.53c-.42,1.56-.49,1.83-.76,2.77a14.44,14.44,0,0,0,2.43.12h12.88a18.63,18.63,0,0,0,3.36-.2v4a20.15,20.15,0,0,0-3.33-.2H295v4.8h6.6a26.84,26.84,0,0,0,3.82-.23v4.21a28.29,28.29,0,0,0-4-.23H284.77a28,28,0,0,0-4,.23V98a15.58,15.58,0,0,0,3.2.23h7.22v-4.8h-4a18.43,18.43,0,0,0-2.78.16V90.89a28.8,28.8,0,0,1-3.4,6.55,25.21,25.21,0,0,1-4.79,5.34A14.36,14.36,0,0,0,273.76,99,21.71,21.71,0,0,0,281.61,87h-3.23a28.26,28.26,0,0,0-3.75.23v-4a23.1,23.1,0,0,0,3.75.19H288V81h-7.29a22.45,22.45,0,0,0-3.12.16V77.28a17.66,17.66,0,0,0,3.12.19H288V75.13Z"/><path class="cls-2" d="M312.19,98.38a37.49,37.49,0,0,0,.21,4.79h-4.07a38.67,38.67,0,0,0,.21-4.83V72.87c0-2,0-3.12-.14-4.37a27.56,27.56,0,0,0,3.58.16h6.14a25.36,25.36,0,0,0,3.54-.16c-.07,1.25-.1,2.11-.1,3.63v6c0,1.79,0,2.69.1,3.55-.9-.08-2-.12-3.19-.12h-6.28Zm0-24.61h6v-2h-6Zm0,4.76h6v-2h-6ZM330,95.3c0,1.48,0,2.38.1,3.39.76.08,2,.19,2.64.19,1,0,1.28-.27,1.28-1V81.53h-6.84c-1.21,0-2.32,0-3.19.12.07-1.14.1-1.88.1-3.55v-6c0-1.33,0-2.42-.1-3.63a25.82,25.82,0,0,0,3.54.16h6.67a27,27,0,0,0,3.57-.16c-.1,1.41-.14,2.38-.14,4.33V98.38c0,2.34-.41,3.35-1.66,3.94a9.57,9.57,0,0,1-3.93.46c-.48,0-.62,0-2.39-.11a16.4,16.4,0,0,0-.9-4c-1,0-1.67,0-1.95,0h-7.36v2.19h-3.68a29.91,29.91,0,0,0,.25-3.9V87.38c0-1.37,0-2.46-.11-3.51a24.69,24.69,0,0,0,3.23.16h7.74a24.3,24.3,0,0,0,3.23-.16c-.07,1-.1,2-.1,3.51Zm-10.56-5.66h7.08V87.3h-7.08Zm0,5.7h7.08V92.8h-7.08Zm8.09-21.57H334v-2h-6.49Zm0,4.76H334v-2h-6.49Z"/></g></g></svg>