<svg xmlns="http://www.w3.org/2000/svg" viewBox="0 0 414 170"><defs><style>.cls-1{fill:#80bee7;}.cls-2{fill:#fff;}</style></defs><g id="レイヤー_2" data-name="レイヤー 2"><g id="レイヤー_1-2" data-name="レイヤー 1"><rect class="cls-1" width="414" height="170"/><path class="cls-2" d="M17.71,56.25a55,55,0,0,1,10.38,5.31L25.67,66A45.61,45.61,0,0,0,15.1,60.23ZM16,73.73a35.79,35.79,0,0,0,11.27-2.54A23.82,23.82,0,0,0,38.5,62.61,28.59,28.59,0,0,0,43,54a20.24,20.24,0,0,0,4.06,3.47,34,34,0,0,1-5.85,9.87C36.28,73,29.65,76.49,20.05,78.41a25.88,25.88,0,0,0-2.73.62Zm4.76-26.92a62.85,62.85,0,0,1,10.37,5l-2.5,4.29a45.65,45.65,0,0,0-10.41-5.39Z"/><path class="cls-2" d="M64.12,47.56c-.15,1.09-.15,1.09-.39,8.73s-1.13,12-3.16,16a24.71,24.71,0,0,1-5.38,7.22,13.84,13.84,0,0,0-3.94-3.79,16.06,16.06,0,0,0,4-4.48C58.08,66.78,59,61.75,59,50.83a19.2,19.2,0,0,0-.16-3.55Zm10.34-.47a20.74,20.74,0,0,0-.27,3.7L74,73a15.62,15.62,0,0,0,6-4.44,19.17,19.17,0,0,0,3.82-7.14,16.38,16.38,0,0,0,3.67,3.67,24.23,24.23,0,0,1-6.2,9.08,25.59,25.59,0,0,1-8.31,4.68,17.36,17.36,0,0,0-1.68.71l-2.49-2.66a17.63,17.63,0,0,0,.35-4.13l.19-22V49.58A16.44,16.44,0,0,0,69.15,47Z"/><path class="cls-2" d="M104.88,49.54a4.47,4.47,0,0,0-.2.78l-.07.67-.2,1.13-.12.93c-1.63,11.2-4.68,18.88-9.9,24.89a17.09,17.09,0,0,0-4.45-3.36,26.38,26.38,0,0,0,5.58-8.3A47.62,47.62,0,0,0,99.18,52.9a28,28,0,0,0,.36-3.78v-.55Zm11.07-1a49,49,0,0,0,1.64,9c1.91,7.22,4.64,12.48,8.7,16.85A16,16,0,0,0,122,78c-5.19-6.2-8.81-15.18-10.34-25.67a16.41,16.41,0,0,0-.54-2.8Zm3.32-2.34a23.55,23.55,0,0,1,3.24,6.28l-3,.93a25.39,25.39,0,0,0-3.19-6.35Zm5.38,5.65a26.7,26.7,0,0,0-3.12-6.16l2.89-.82a23.28,23.28,0,0,1,3.2,6.05Z"/><path class="cls-2" d="M130.5,60.11a37.42,37.42,0,0,0,6.32.28h20.79a37.42,37.42,0,0,0,6.32-.28v5.42a44.05,44.05,0,0,0-6.36-.19H136.86a44,44,0,0,0-6.36.19Z"/><path class="cls-2" d="M177,75.87a42.59,42.59,0,0,0-4.8.16V71a25.57,25.57,0,0,0,4.88.27h17.74v-17H177.73a37.14,37.14,0,0,0-5,.2V49.39a26.57,26.57,0,0,0,5,.27h18.76c2,0,2,0,3.39-.08a25.3,25.3,0,0,0-.11,3.24V74.23a25.46,25.46,0,0,0,.19,4h-5.23V75.87Z"/><path class="cls-2" d="M208.5,60.11a37.42,37.42,0,0,0,6.32.28h20.79a37.42,37.42,0,0,0,6.32-.28v5.42a44.05,44.05,0,0,0-6.36-.19H214.86a44,44,0,0,0-6.36.19Z"/><path class="cls-2" d="M255.07,79.54a26.93,26.93,0,0,0,.23-4.37v-25a25.93,25.93,0,0,0-.23-4h5.34a25.55,25.55,0,0,0-.16,4.1v7.25A114.13,114.13,0,0,1,278,65.77l-2.73,4.6a93.07,93.07,0,0,0-13.81-7.45,14.6,14.6,0,0,1-1.32-.66,19.62,19.62,0,0,1,.15,2.65v10.3a41.84,41.84,0,0,0,.16,4.33Z"/><path class="cls-2" d="M298.44,50.13a22.69,22.69,0,0,0,2.26-5.34l4.95.66-.27.62s-.08.16-.2.35a2.46,2.46,0,0,1-.11.32,34.69,34.69,0,0,1-1.76,3.39h9.95a36.89,36.89,0,0,0,4.48-.2c-.12,1.41-.19,2.81-.19,4.84V75.48a42.06,42.06,0,0,0,.23,5.11H313.1v-2H293.33v2h-4.61A44.09,44.09,0,0,0,289,75.4V54.73c0-2-.08-3.51-.2-4.8a33.74,33.74,0,0,0,4.29.2Zm-5.11,11.93H313.1V54.22H293.33Zm0,12.33H313.1V66.16H293.33Z"/><path class="cls-2" d="M354.64,46.42a36.33,36.33,0,0,0,4.21-.15,30.88,30.88,0,0,0-.2,4.25V76.85a3.47,3.47,0,0,1-1.29,3c-.85.54-2.14.74-4.48.74-1.29,0-1.87,0-4.06-.2a14.53,14.53,0,0,0-1.24-4.17,41.13,41.13,0,0,0,5.38.47c1.09,0,1.48-.2,1.48-.78V50.32H330.22V76.53a37.17,37.17,0,0,0,.16,4.33h-4.61a35.42,35.42,0,0,0,.24-4.44V50a34.81,34.81,0,0,0-.16-3.78,33,33,0,0,0,4.49.19Zm-11,10.77a28.84,28.84,0,0,0,3-6.51L350.66,52a38.34,38.34,0,0,1-2.85,5.15h2.34a19.18,19.18,0,0,0,3.47-.2v4.1a27,27,0,0,0-3.47-.16h-6v9.32h3.75V65.93a22.89,22.89,0,0,0-.16-3h4a19.51,19.51,0,0,0-.2,3.28v5.15a33.4,33.4,0,0,0,.16,3.82h-3.78l0-1.09H336.77v2.77H333a28.2,28.2,0,0,0,.2-4.1V66.32a32.11,32.11,0,0,0-.16-3.4h3.94a21.21,21.21,0,0,0-.16,3v4.29h3.55V60.93h-5.69a27.24,27.24,0,0,0-3.51.16V57a21.62,21.62,0,0,0,3.51.2Zm-5.74-6.67a25.17,25.17,0,0,1,2.73,5.15L337,57.07a19.85,19.85,0,0,0-2.66-5Z"/><path class="cls-2" d="M368.13,51a42.45,42.45,0,0,0-4.53.23V46.74a38.83,38.83,0,0,0,4.61.23h26.13a38,38,0,0,0,4.56-.23v4.44a42.67,42.67,0,0,0-4.52-.23h-7.77v4.37h5.82a36.79,36.79,0,0,0,4.56-.2,42.06,42.06,0,0,0-.2,4.72v15.8a38.22,38.22,0,0,0,.24,5h-4.37V78.37H369.84v2.26h-4.36a44.5,44.5,0,0,0,.23-5V59.84c0-1.68-.08-3.12-.23-4.72a35.63,35.63,0,0,0,4.56.2h5.34V51Zm11.07,8.34c-.23,3.67-.7,5.58-1.71,7.57s-2.11,3.12-4.68,4.92a12.14,12.14,0,0,0-3-2.85v5.42h22.82V64s0,0-.08.67a8.73,8.73,0,0,1-.51,2.92c-.58,1.37-1.79,1.87-4.6,1.87-3.78,0-4.72-.66-4.72-3.39V59.29Zm-9.36,0v9.4a9.51,9.51,0,0,0,3.59-3c1.09-1.52,1.56-3.28,1.8-6.4Zm9.52-6.2v2.23h3.39V51h-3.39Zm7.25,11.74c0,.74.16.82,1.33.82,1.48,0,1.52-.12,1.52-3.16a8.24,8.24,0,0,0,3.2,1V59.29h-6.05Z"/><path class="cls-2" d="M149.69,112.42a21.15,21.15,0,0,0,.16-2.81v-2.53a20.29,20.29,0,0,0-.16-2.89,39,39,0,0,0,4.17.16h25.86c1.87,0,2.85,0,4.21-.16a17.17,17.17,0,0,0-.15,2.73v2.65a15,15,0,0,0,.19,2.85h-4.56v-4.33H154.14v4.33Zm14.7-20.59a16,16,0,0,0-.19-3H169a15.11,15.11,0,0,0-.19,3v.27h10.37a34.17,34.17,0,0,0,4.64-.23V96a34.69,34.69,0,0,0-4.56-.23H168.84v2.65h8.62a24.6,24.6,0,0,0,4-.2v4a34.7,34.7,0,0,0-4-.16h-21.3a35.73,35.73,0,0,0-3.94.16v-4a24.34,24.34,0,0,0,3.94.2h8.23V95.81h-9.9a35.22,35.22,0,0,0-4.64.23V91.87a34.93,34.93,0,0,0,4.75.23h9.79Zm-4.21,27c0,1.32.9,1.48,7.57,1.48,6.16,0,7.91-.19,8.42-.9.43-.54.63-1.83.66-4.4a14,14,0,0,0,4.37,1.32c-.23,3.94-.78,5.81-1.95,6.67s-4.33,1.21-12.48,1.21c-5.58,0-8-.23-9.4-.9-1.17-.54-1.56-1.36-1.56-3.27v-7.26a23.4,23.4,0,0,0-.19-3.47h4.76a19,19,0,0,0-.2,3.28v.66c7.29-1.09,12.79-2.53,15-3.9l3.16,3.36a82.42,82.42,0,0,1-18.14,4.09Z"/><path class="cls-2" d="M218.64,98.69a29.34,29.34,0,0,0,4.25-.23v4a33,33,0,0,0-4.25-.24h-6.71a29.5,29.5,0,0,0,12.37,6.28,15.81,15.81,0,0,0-2.26,4,39.21,39.21,0,0,1-3.55-1.76V121a24.2,24.2,0,0,0,.23,4.1h-4.29v-1.8H197.11v1.8h-4.25c.12-1.17.2-2.65.2-4.1V110.82c-1.06.59-1.56.86-3.24,1.72a10.59,10.59,0,0,0-2.26-3.86,26.9,26.9,0,0,0,11.58-6.44h-6.39a33.18,33.18,0,0,0-4.3.24v-4a31.33,31.33,0,0,0,4.3.23H196a27.59,27.59,0,0,0-1.75-3.08l2.77-.93c-2.42.07-2.81.11-5.23.11a11.21,11.21,0,0,0-1.68-3.7c1.8.08,2.62.08,3.75.08a120.77,120.77,0,0,0,13.69-.75,57.65,57.65,0,0,0,10.18-1.67l2.92,3.59a11,11,0,0,0-1.17.15c-.12,0-.47.08-1,.16-2.15.31-4.53.62-10.92,1.32v4.72H211a23.22,23.22,0,0,0,2.45-5.07l4.1,1a35,35,0,0,1-2.34,4ZM197.11,113.9h6.48v-2.45h-6.48Zm0,5.85h6.48v-2.41h-6.48Zm16.74-11.7a28.57,28.57,0,0,1-6.44-5.65,5.09,5.09,0,0,1,0,.58,3.23,3.23,0,0,1,.08.74v1.06a13.3,13.3,0,0,0,.15,2.49h-4.37a13.74,13.74,0,0,0,.2-2.45v-1c0-.23,0-.7.08-1.36a27.19,27.19,0,0,1-6.09,5.61ZM203.51,94.36c-1.6.12-1.6.12-5.58.28a39.23,39.23,0,0,1,2.11,4h3.47Zm4,25.43h6.9v-2.45h-6.9Zm0-5.85h6.9v-2.45h-6.9Z"/><path class="cls-2" d="M240.56,124.08c-.47-1.4-.78-2.18-1.09-3a79.13,79.13,0,0,1-8.66,2.53,26.62,26.62,0,0,0-3,.82l-1-4.25a18.86,18.86,0,0,0,2.54-.31v-17.4c0-1.13,0-1.63-.08-2.41-.47.31-.78.54-1.52,1.09a16.3,16.3,0,0,0-1.45-4.41,24.21,24.21,0,0,0,4.8-3.78,14.45,14.45,0,0,0,3-3.86H238a19,19,0,0,0,5.22,5.61c0-1.24,0-1.71-.12-2.41.86.07,1.68.11,3.24.11h3.94v-.66a19.81,19.81,0,0,0-.19-2.73h4.56a12.72,12.72,0,0,0-.2,2.73v.66h4.25a35.13,35.13,0,0,0,3.79-.19,25.38,25.38,0,0,0-.12,2.73v2.92a16.88,16.88,0,0,0,.12,2.65h-2.69v5.78a19.68,19.68,0,0,0,.11,3c-.93-.08-1.75-.12-2.88-.12h-8.15V112h9.4c1.4,0,2.26,0,3.08-.11a23.19,23.19,0,0,0-.12,3.08v6.7a26.53,26.53,0,0,0,.16,3.44h-4.18v-1.88h-8.3v2h-4.26a23,23,0,0,0,.2-3.35V102c0-.63,0-.74,0-1.48h-1.72a23.48,23.48,0,0,0,.12-2.42V95.69a9.42,9.42,0,0,0-1.71,3A24.68,24.68,0,0,1,236.19,93a34,34,0,0,1-6.12,6.47c.7,0,1,0,2,0h2.1V98.19a10.44,10.44,0,0,0-.15-2h3.9a9.48,9.48,0,0,0-.16,2v1.25h1.52a21.42,21.42,0,0,0,3.08-.15,29.18,29.18,0,0,0-.11,3.31V110c0,1.49,0,2.34.07,3.16A19.06,19.06,0,0,0,240,113h-6.74v6.12c2.41-.59,3.08-.78,4.64-1.29a20.57,20.57,0,0,0-1.64-2.92l3.28-1.37a51,51,0,0,1,4.52,8.62Zm-2.22-19.42v-2h-5.07v2Zm-5.07,5.15h5.07v-2.19h-5.07Zm25.15-13.65H247.19v2.73h9.59c.63,0,.94,0,1.64,0Zm-9.55,9.59h6.94v-3.51h-6.94Zm0,13.85h8.34v-4h-8.34Z"/></g></g></svg>