<svg xmlns="http://www.w3.org/2000/svg" viewBox="0 0 414 170"><defs><style>.cls-1{fill:#80bee7;}.cls-2{fill:#fff;}</style></defs><g id="レイヤー_2" data-name="レイヤー 2"><g id="レイヤー_1-2" data-name="レイヤー 1"><rect class="cls-1" width="414" height="170"/><path class="cls-2" d="M19,56.25a55,55,0,0,1,10.38,5.31L26.94,66a45.61,45.61,0,0,0-10.57-5.73ZM17.23,73.73A35.79,35.79,0,0,0,28.5,71.19a23.87,23.87,0,0,0,11.27-8.58A28.82,28.82,0,0,0,44.29,54a20.24,20.24,0,0,0,4.06,3.47,34,34,0,0,1-5.85,9.87c-5,5.69-11.58,9.16-21.18,11.08a25.88,25.88,0,0,0-2.73.62ZM22,46.81a62.58,62.58,0,0,1,10.38,5l-2.5,4.29a45.86,45.86,0,0,0-10.41-5.39Z"/><path class="cls-2" d="M65.39,47.56c-.15,1.09-.15,1.09-.39,8.73s-1.13,12-3.16,16a24.89,24.89,0,0,1-5.38,7.22,14,14,0,0,0-3.94-3.79,16.06,16.06,0,0,0,4-4.48c2.81-4.49,3.7-9.52,3.7-20.44a20.47,20.47,0,0,0-.15-3.55Zm10.34-.47a20.55,20.55,0,0,0-.28,3.7L75.26,73a15.62,15.62,0,0,0,6-4.44,19.17,19.17,0,0,0,3.82-7.14,16.34,16.34,0,0,0,3.66,3.67,24,24,0,0,1-6.2,9.08,25.42,25.42,0,0,1-8.3,4.68,17.36,17.36,0,0,0-1.68.71L70,76.88a17.1,17.1,0,0,0,.35-4.13l.2-22V49.58A16.44,16.44,0,0,0,70.42,47Z"/><path class="cls-2" d="M106.15,49.54a4.47,4.47,0,0,0-.2.78l-.08.67-.19,1.13-.12.93c-1.64,11.2-4.68,18.88-9.9,24.89a17.09,17.09,0,0,0-4.45-3.36,26.38,26.38,0,0,0,5.58-8.3,47.62,47.62,0,0,0,3.66-13.38,27.67,27.67,0,0,0,.35-3.78v-.55Zm11.07-1a48.18,48.18,0,0,0,1.64,9c1.91,7.22,4.64,12.48,8.7,16.85A16,16,0,0,0,123.27,78c-5.19-6.2-8.82-15.18-10.34-25.67a16.41,16.41,0,0,0-.54-2.8Zm3.32-2.34a23.55,23.55,0,0,1,3.24,6.28l-3,.93a25.76,25.76,0,0,0-3.2-6.35Zm5.38,5.65a27.1,27.1,0,0,0-3.12-6.16l2.89-.82A23,23,0,0,1,128.88,51Z"/><path class="cls-2" d="M131.77,60.11a37.42,37.42,0,0,0,6.32.28h20.79a37.2,37.2,0,0,0,6.31-.28v5.42a43.88,43.88,0,0,0-6.35-.19H138.13a44,44,0,0,0-6.36.19Z"/><path class="cls-2" d="M178.26,75.87a42.59,42.59,0,0,0-4.8.16V71a25.45,25.45,0,0,0,4.87.27h17.75v-17H179a37.14,37.14,0,0,0-5,.2V49.39a26.57,26.57,0,0,0,5,.27H197.8c2,0,2,0,3.39-.08a23.21,23.21,0,0,0-.12,3.24V74.23a25.17,25.17,0,0,0,.2,4H196V75.87Z"/><path class="cls-2" d="M209.77,60.11a37.42,37.42,0,0,0,6.32.28h20.79a37.2,37.2,0,0,0,6.31-.28v5.42a43.88,43.88,0,0,0-6.35-.19H216.13a44,44,0,0,0-6.36.19Z"/><path class="cls-2" d="M256.33,79.54a25.64,25.64,0,0,0,.24-4.37v-25a24.46,24.46,0,0,0-.24-4h5.35a25.55,25.55,0,0,0-.16,4.1v7.25a114.13,114.13,0,0,1,17.71,8.23l-2.73,4.6a93.07,93.07,0,0,0-13.81-7.45,14.6,14.6,0,0,1-1.32-.66,21.4,21.4,0,0,1,.15,2.65v10.3a41.84,41.84,0,0,0,.16,4.33Z"/><path class="cls-2" d="M299.7,50.13A22.77,22.77,0,0,0,302,44.79l4.95.66-.27.62s-.08.16-.2.35a1.65,1.65,0,0,1-.12.32,34.82,34.82,0,0,1-1.75,3.39h9.94a37,37,0,0,0,4.49-.2c-.12,1.41-.2,2.81-.2,4.84V75.48a41.68,41.68,0,0,0,.24,5.11h-4.68v-2H294.59v2H290a44.09,44.09,0,0,0,.24-5.19V54.73c0-2-.08-3.51-.2-4.8a33.74,33.74,0,0,0,4.29.2Zm-5.11,11.93h19.78V54.22H294.59Zm0,12.33h19.78V66.16H294.59Z"/><path class="cls-2" d="M355.9,46.42a36.53,36.53,0,0,0,4.22-.15,30.88,30.88,0,0,0-.2,4.25V76.85a3.47,3.47,0,0,1-1.29,3c-.85.54-2.14.74-4.48.74-1.29,0-1.87,0-4.06-.2a14.56,14.56,0,0,0-1.25-4.17,41.41,41.41,0,0,0,5.39.47c1.09,0,1.48-.2,1.48-.78V50.32H331.49V76.53a40.29,40.29,0,0,0,.15,4.33H327a35.42,35.42,0,0,0,.24-4.44V50a34.81,34.81,0,0,0-.16-3.78,33,33,0,0,0,4.49.19Zm-11,10.77A28.44,28.44,0,0,0,348,50.68L351.92,52a38.38,38.38,0,0,1-2.84,5.15h2.34a19.25,19.25,0,0,0,3.47-.2v4.1a27,27,0,0,0-3.47-.16h-6v9.32h3.75V65.93a22.89,22.89,0,0,0-.16-3h4a19.51,19.51,0,0,0-.2,3.28v5.15a33.4,33.4,0,0,0,.16,3.82H349.2l0-1.09H338v2.77h-3.82a30,30,0,0,0,.19-4.1V66.32c0-1.49,0-1.92-.15-3.4h3.94a21.21,21.21,0,0,0-.16,3v4.29h3.55V60.93H335.9a27.24,27.24,0,0,0-3.51.16V57a21.62,21.62,0,0,0,3.51.2Zm-5.73-6.67a25.66,25.66,0,0,1,2.73,5.15l-3.67,1.4a19.53,19.53,0,0,0-2.65-5Z"/><path class="cls-2" d="M369.4,51a42.45,42.45,0,0,0-4.53.23V46.74a38.76,38.76,0,0,0,4.6.23h26.14a38,38,0,0,0,4.56-.23v4.44a43,43,0,0,0-4.53-.23h-7.76v4.37h5.81a37,37,0,0,0,4.57-.2,42.06,42.06,0,0,0-.2,4.72v15.8a38.22,38.22,0,0,0,.24,5h-4.37V78.37H371.11v2.26h-4.37a41.92,41.92,0,0,0,.24-5V59.84a45.46,45.46,0,0,0-.24-4.72,35.8,35.8,0,0,0,4.57.2h5.34V51Zm11.07,8.34c-.23,3.67-.7,5.58-1.71,7.57s-2.11,3.12-4.68,4.92a12.14,12.14,0,0,0-3-2.85v5.42h22.82V64s0,0-.08.67a9,9,0,0,1-.51,2.92c-.58,1.37-1.79,1.87-4.6,1.87-3.78,0-4.72-.66-4.72-3.39V59.29Zm-9.36,0v9.4a9.51,9.51,0,0,0,3.59-3c1.09-1.52,1.56-3.28,1.79-6.4Zm9.52-6.2v2.23H384V51h-3.39Zm7.25,11.74c0,.74.16.82,1.33.82,1.48,0,1.52-.12,1.52-3.16a8.24,8.24,0,0,0,3.2,1V59.29h-6.05Z"/><path class="cls-2" d="M73,112.42a23,23,0,0,0,.15-2.81v-2.53a22.06,22.06,0,0,0-.15-2.89,39,39,0,0,0,4.17.16H103c1.87,0,2.84,0,4.21-.16a17,17,0,0,0-.16,2.73v2.65a15,15,0,0,0,.2,2.85h-4.56v-4.33H77.4v4.33Zm14.7-20.59a16,16,0,0,0-.19-3H92.3a15.11,15.11,0,0,0-.19,3v.27h10.37a34.17,34.17,0,0,0,4.64-.23V96a34.79,34.79,0,0,0-4.56-.23H92.11v2.65h8.62a24.39,24.39,0,0,0,4-.2v4a34.5,34.5,0,0,0-4-.16H79.43a35.73,35.73,0,0,0-3.94.16v-4a24.34,24.34,0,0,0,3.94.2h8.23V95.81H77.75a35.42,35.42,0,0,0-4.64.23V91.87a35.2,35.2,0,0,0,4.76.23h9.79Zm-4.21,27c0,1.32.9,1.48,7.56,1.48,6.17,0,7.92-.19,8.43-.9.43-.54.62-1.83.66-4.4a14,14,0,0,0,4.37,1.32c-.23,3.94-.78,5.81-2,6.67s-4.33,1.21-12.48,1.21c-5.58,0-8-.23-9.4-.9-1.17-.54-1.56-1.36-1.56-3.27v-7.26a23.4,23.4,0,0,0-.19-3.47h4.75a20.22,20.22,0,0,0-.19,3.28v.66c7.29-1.09,12.79-2.53,15-3.9l3.16,3.36a82.33,82.33,0,0,1-18.13,4.09Z"/><path class="cls-2" d="M141.91,98.69a29.34,29.34,0,0,0,4.25-.23v4a33.12,33.12,0,0,0-4.25-.24H135.2a29.44,29.44,0,0,0,12.37,6.28,15.84,15.84,0,0,0-2.27,4c-1.63-.74-2.26-1.05-3.55-1.76V121a24.07,24.07,0,0,0,.24,4.1H137.7v-1.8H120.38v1.8h-4.25c.12-1.17.2-2.65.2-4.1V110.82c-1.06.59-1.56.86-3.24,1.72a10.59,10.59,0,0,0-2.26-3.86,26.9,26.9,0,0,0,11.58-6.44H116a33,33,0,0,0-4.29.24v-4a31.27,31.27,0,0,0,4.29.23h3.24a27.59,27.59,0,0,0-1.75-3.08l2.76-.93c-2.41.07-2.8.11-5.22.11a11.21,11.21,0,0,0-1.68-3.7c1.8.08,2.61.08,3.75.08a120.61,120.61,0,0,0,13.68-.75A57.32,57.32,0,0,0,141,88.75l2.93,3.59a11,11,0,0,0-1.17.15c-.12,0-.47.08-1,.16-2.14.31-4.52.62-10.92,1.32v4.72h3.51a22.82,22.82,0,0,0,2.46-5.07l4.1,1a36.49,36.49,0,0,1-2.34,4ZM120.38,113.9h6.48v-2.45h-6.48Zm0,5.85h6.48v-2.41h-6.48Zm16.73-11.7a28.51,28.51,0,0,1-6.43-5.65,5.09,5.09,0,0,1,0,.58,3.68,3.68,0,0,1,.07.74v1.06a12.28,12.28,0,0,0,.16,2.49h-4.37a13.74,13.74,0,0,0,.2-2.45v-1c0-.23,0-.7.08-1.36a27.41,27.41,0,0,1-6.09,5.61ZM126.78,94.36c-1.6.12-1.6.12-5.58.28a41.29,41.29,0,0,1,2.11,4h3.47Zm4,25.43h6.9v-2.45h-6.9Zm0-5.85h6.91v-2.45h-6.91Z"/><path class="cls-2" d="M163.83,124.08c-.47-1.4-.78-2.18-1.09-3a79.8,79.8,0,0,1-8.66,2.53,26.62,26.62,0,0,0-3,.82l-1-4.25a18.55,18.55,0,0,0,2.53-.31v-17.4c0-1.13,0-1.63-.07-2.41-.47.31-.78.54-1.52,1.09a17,17,0,0,0-1.45-4.41,24.51,24.51,0,0,0,4.8-3.78,14.4,14.4,0,0,0,3-3.86h3.94a19.23,19.23,0,0,0,5.23,5.61c0-1.24,0-1.71-.12-2.41.86.07,1.68.11,3.24.11h3.94v-.66a18.26,18.26,0,0,0-.2-2.73h4.57a12.72,12.72,0,0,0-.2,2.73v.66H182a35.27,35.27,0,0,0,3.79-.19,25.38,25.38,0,0,0-.12,2.73v2.92a16.88,16.88,0,0,0,.12,2.65h-2.69v5.78a19.68,19.68,0,0,0,.11,3c-.93-.08-1.75-.12-2.88-.12h-8.16V112h9.4c1.41,0,2.27,0,3.09-.11a23.19,23.19,0,0,0-.12,3.08v6.7a28.81,28.81,0,0,0,.15,3.44h-4.17v-1.88h-8.31v2h-4.25a23,23,0,0,0,.2-3.35V102c0-.63,0-.74,0-1.48h-1.72a23.48,23.48,0,0,0,.12-2.42V95.69a9.66,9.66,0,0,0-1.72,3,24.85,24.85,0,0,1-5.3-5.69,34,34,0,0,1-6.12,6.47c.7,0,1,0,2,0h2.1V98.19a10.44,10.44,0,0,0-.15-2h3.9a9.48,9.48,0,0,0-.16,2v1.25h1.52a21.42,21.42,0,0,0,3.08-.15,26.76,26.76,0,0,0-.12,3.31V110c0,1.49,0,2.34.08,3.16a19.18,19.18,0,0,0-2.3-.11h-6.75v6.12c2.42-.59,3.09-.78,4.65-1.29a20.57,20.57,0,0,0-1.64-2.92l3.27-1.37a50.25,50.25,0,0,1,4.53,8.62Zm-2.23-19.42v-2h-5.07v2Zm-5.07,5.15h5.07v-2.19h-5.07Zm25.16-13.65H170.46v2.73h9.59c.63,0,.94,0,1.64,0Zm-9.56,9.59h7v-3.51h-7Zm0,13.85h8.35v-4h-8.35Z"/><path class="cls-2" d="M211.64,107a4.64,4.64,0,1,1-4.64-4.64A4.62,4.62,0,0,1,211.64,107Z"/><path class="cls-2" d="M259.18,99.28a28.73,28.73,0,0,0,4.18-.24v4.49a33.86,33.86,0,0,0-4.57-.24h-4.48a36.76,36.76,0,0,0,1.25,8.78,19.51,19.51,0,0,0,2.69,6.4c.39.58.93,1.13,1.09,1.13.47,0,1-2.15,1.44-6.09a15.71,15.71,0,0,0,3.63,2.58c-.59,3.55-1.33,5.81-2.26,7.13a3.14,3.14,0,0,1-2.46,1.53c-1.36,0-3.12-1.17-4.52-3-2.93-3.82-4.68-10.06-5.19-18.45H233.36a37.15,37.15,0,0,0-4.56.24V99a34.2,34.2,0,0,0,4.64.24h16.38c-.07-3.79-.07-3.79-.11-5a26.91,26.91,0,0,0-.24-4.71h4.68a19.44,19.44,0,0,0-.15,2.73c0,1.32.07,5.42.11,6.94Zm-9.94,20a165,165,0,0,1-17.79,4.18,5.21,5.21,0,0,0-1.17.27l-.93-4.68a35.94,35.94,0,0,0,3.74-.35,117.79,117.79,0,0,0,16.15-3.59Zm-2-7.33a29.24,29.24,0,0,0-3.79-.19h-8.58a29.83,29.83,0,0,0-3.82.19v-4.4a34.33,34.33,0,0,0,3.82.19h8.62a33.34,33.34,0,0,0,3.75-.19ZM247,96.2a27,27,0,0,0-3.78-.2h-7.68a27.4,27.4,0,0,0-3.78.2V91.87a33.26,33.26,0,0,0,3.78.19h7.72a33,33,0,0,0,3.74-.19ZM259.34,99a25.14,25.14,0,0,0-4.49-6.56l3.24-1.75a34.79,34.79,0,0,1,4.8,6.24Z"/><path class="cls-2" d="M297.91,98.69a29.34,29.34,0,0,0,4.25-.23v4a33.12,33.12,0,0,0-4.25-.24H291.2a29.44,29.44,0,0,0,12.37,6.28,15.84,15.84,0,0,0-2.27,4c-1.63-.74-2.26-1.05-3.55-1.76V121a24.07,24.07,0,0,0,.24,4.1H293.7v-1.8H276.38v1.8h-4.25c.12-1.17.2-2.65.2-4.1V110.82c-1.06.59-1.56.86-3.24,1.72a10.59,10.59,0,0,0-2.26-3.86,26.9,26.9,0,0,0,11.58-6.44H272a33,33,0,0,0-4.29.24v-4a31.27,31.27,0,0,0,4.29.23h3.24a27.59,27.59,0,0,0-1.75-3.08l2.76-.93c-2.41.07-2.8.11-5.22.11a11.21,11.21,0,0,0-1.68-3.7c1.8.08,2.61.08,3.75.08a120.61,120.61,0,0,0,13.68-.75A57.32,57.32,0,0,0,297,88.75l2.93,3.59a11,11,0,0,0-1.17.15c-.12,0-.47.08-1,.16-2.14.31-4.52.62-10.92,1.32v4.72h3.51a22.82,22.82,0,0,0,2.46-5.07l4.1,1a36.49,36.49,0,0,1-2.34,4ZM276.38,113.9h6.48v-2.45h-6.48Zm0,5.85h6.48v-2.41h-6.48Zm16.73-11.7a28.51,28.51,0,0,1-6.43-5.65,5.09,5.09,0,0,1,0,.58,3.68,3.68,0,0,1,.07.74v1.06a12.28,12.28,0,0,0,.16,2.49h-4.37a13.74,13.74,0,0,0,.2-2.45v-1c0-.23,0-.7.08-1.36a27.41,27.41,0,0,1-6.09,5.61ZM282.78,94.36c-1.6.12-1.6.12-5.58.28a41.29,41.29,0,0,1,2.11,4h3.47Zm4,25.43h6.9v-2.45h-6.9Zm0-5.85h6.91v-2.45h-6.91Z"/><path class="cls-2" d="M319.83,124.08c-.47-1.4-.78-2.18-1.09-3a79.8,79.8,0,0,1-8.66,2.53,26.62,26.62,0,0,0-3,.82l-1-4.25a18.55,18.55,0,0,0,2.53-.31v-17.4c0-1.13,0-1.63-.07-2.41-.47.31-.78.54-1.52,1.09a17,17,0,0,0-1.45-4.41,24.51,24.51,0,0,0,4.8-3.78,14.4,14.4,0,0,0,3-3.86h3.94a19.23,19.23,0,0,0,5.23,5.61c0-1.24,0-1.71-.12-2.41.86.07,1.68.11,3.24.11h3.94v-.66a18.26,18.26,0,0,0-.2-2.73h4.57a12.72,12.72,0,0,0-.2,2.73v.66H338a35.27,35.27,0,0,0,3.79-.19,25.38,25.38,0,0,0-.12,2.73v2.92a16.88,16.88,0,0,0,.12,2.65h-2.69v5.78a19.68,19.68,0,0,0,.11,3c-.93-.08-1.75-.12-2.88-.12h-8.16V112h9.4c1.41,0,2.27,0,3.09-.11a23.19,23.19,0,0,0-.12,3.08v6.7a28.81,28.81,0,0,0,.15,3.44h-4.17v-1.88h-8.31v2h-4.25a23,23,0,0,0,.2-3.35V102c0-.63,0-.74,0-1.48h-1.72a23.48,23.48,0,0,0,.12-2.42V95.69a9.66,9.66,0,0,0-1.72,3,24.85,24.85,0,0,1-5.3-5.69,34,34,0,0,1-6.12,6.47c.7,0,1,0,2,0h2.1V98.19a10.44,10.44,0,0,0-.15-2h3.9a9.48,9.48,0,0,0-.16,2v1.25h1.52a21.42,21.42,0,0,0,3.08-.15,26.76,26.76,0,0,0-.12,3.31V110c0,1.49,0,2.34.08,3.16a19.18,19.18,0,0,0-2.3-.11h-6.75v6.12c2.42-.59,3.09-.78,4.65-1.29a20.57,20.57,0,0,0-1.64-2.92l3.27-1.37a50.25,50.25,0,0,1,4.53,8.62Zm-2.23-19.42v-2h-5.07v2Zm-5.07,5.15h5.07v-2.19h-5.07Zm25.16-13.65H326.46v2.73h9.59c.63,0,.94,0,1.64,0Zm-9.56,9.59h6.95v-3.51h-6.95Zm0,13.85h8.35v-4h-8.35Z"/></g></g></svg>